<svg width="120" height="120" viewBox="0 0 120 120" fill="none" xmlns="http://www.w3.org/2000/svg">
<path d="M7.6488 28.1567L9.6 29.2823L48.5952 6.76793L46.644 5.64233L7.6488 28.1567Z" fill="#F5F5F5"/>
<path d="M7.6488 28.1567L9.6 29.2823V65.3063L7.6488 64.1783V28.1567Z" fill="#EBEBEB"/>
<path d="M48.5952 6.76782V42.7918L9.59998 65.3062V29.2822L48.5952 6.76782Z" fill="#E0E0E0"/>
<path d="M47.6208 8.45752V42.2279L10.5744 63.6167V29.8463L47.6208 8.45752Z" fill="#FAFAFA"/>
<path d="M47.6208 42.2279L46.644 41.6663V9.01912L47.6208 8.45752V42.2279Z" fill="#EBEBEB"/>
<path d="M47.6208 42.2279L46.644 41.6663L10.5744 62.4911V63.6167L47.6208 42.2279Z" fill="#F5F5F5"/>
<g opacity="0.15">
<path d="M22.1712 31.5359C22.1244 31.4999 22.0874 31.4526 22.0639 31.3985C22.0404 31.3443 22.0311 31.2851 22.0368 31.2263V25.7231L22.5168 25.4423V26.0015C22.6224 25.8839 22.7328 25.7375 22.8552 25.5791C23.1204 25.2063 23.4263 24.8642 23.7672 24.5591C24.048 24.3162 24.3709 24.1266 24.72 23.9999C24.8936 23.9427 25.0561 23.8558 25.2 23.7431V23.0951L25.68 22.8191V27.2615C25.6787 27.371 25.6542 27.479 25.608 27.5783V28.4039L23.448 41.1695L22.1952 41.8895L22.1712 31.5359ZM22.5216 29.3111C23.8128 28.5311 24.2568 27.8711 24.972 26.8079L25.1832 26.4959V25.2311C25.0605 25.3681 24.9452 25.5115 24.8376 25.6607C24.5724 26.0313 24.2673 26.3717 23.928 26.6759C23.6498 26.9199 23.3304 27.1125 22.9848 27.2447C22.8178 27.2976 22.6611 27.3787 22.5216 27.4847V29.3111Z" fill="black"/>
<path d="M27.7968 28.3535C27.6912 28.3247 27.6 28.2167 27.6 28.0151V22.5119L28.08 22.2311V22.7999C28.1856 22.6847 28.296 22.5383 28.4184 22.3799C28.6829 22.0065 28.9889 21.6643 29.3304 21.3599C29.6063 21.1139 29.9252 20.921 30.2712 20.7911C30.4454 20.734 30.608 20.6463 30.7512 20.5319V19.8839L31.2312 19.6055V24.0479C31.2302 24.1582 31.2056 24.267 31.1592 24.3671L30.5688 25.6607L31.0176 25.4927L30.156 35.9999L27.0816 37.1543L27.7968 28.3535ZM28.0848 26.0975C29.376 25.3199 29.82 24.6575 30.5352 23.5943L30.7464 23.2847V22.0199C30.636 22.1375 30.5232 22.2863 30.4008 22.4471C30.1363 22.819 29.8312 23.1603 29.4912 23.4647C29.2136 23.7089 28.894 23.9008 28.548 24.0311C28.381 24.0895 28.2246 24.1746 28.0848 24.2831V26.0975Z" fill="black"/>
<path d="M22.6416 54.0743C22.5072 54.0743 22.3632 53.9639 22.3632 53.7239V50.2991L22.4976 50.2223V49.7231C22.4991 49.5642 22.5448 49.4088 22.6296 49.2743V43.5479L22.6032 43.5647L22.3464 43.1207L24.36 41.9591C24.4845 41.8833 24.627 41.8419 24.7728 41.8391C24.8881 41.8384 25.0015 41.8682 25.1016 41.9255C25.3896 42.0935 25.5552 42.4703 25.5552 42.9623V46.6895C25.5552 47.4743 25.1424 48.3287 24.6144 48.6311L23.0856 49.5167C23.0372 49.5748 23.0101 49.6476 23.0088 49.7231V49.9199L23.1456 49.8431V53.4047C23.1433 53.5243 23.1127 53.6417 23.0564 53.7472C23.0001 53.8527 22.9196 53.9434 22.8216 54.0119C22.7685 54.0491 22.7062 54.0707 22.6416 54.0743ZM23.0064 48.9599L24.36 48.1799C24.7248 47.9687 25.044 47.2679 25.044 46.6799V42.9599C25.0578 42.8527 25.0473 42.7437 25.0132 42.6411C24.9791 42.5384 24.9224 42.4448 24.8472 42.3671C24.8243 42.3549 24.7987 42.3483 24.7728 42.3479C24.7167 42.352 24.6624 42.3692 24.6144 42.3983L23.0064 43.3295V48.9599Z" fill="black"/>
<path d="M27.0768 50.299C26.9972 50.2959 26.9216 50.2628 26.8655 50.2062C26.8093 50.1496 26.7768 50.0738 26.7744 49.9942L26.6784 50.0494C26.6424 50.0717 26.6008 50.0834 26.5584 50.083C26.4216 50.083 26.3184 49.963 26.2656 49.7542C26.2433 49.7577 26.2207 49.7577 26.1984 49.7542C26.1533 49.7544 26.1089 49.7428 26.0698 49.7205C26.0306 49.6981 25.998 49.6659 25.9752 49.627C25.9425 49.5678 25.934 49.4982 25.9514 49.4329C25.9689 49.3676 26.0109 49.3115 26.0688 49.2766L26.244 49.1758C26.2776 48.9046 26.376 48.5758 26.5584 48.4702L26.7696 48.3502V48.3022C26.771 48.165 26.8053 48.0303 26.8696 47.9091C26.934 47.788 27.0264 47.6841 27.1392 47.6062L28.3224 46.9222C28.3774 46.8885 28.4404 46.8703 28.5048 46.8694C28.6584 46.8694 28.812 46.9894 28.812 47.2606V47.6926L29.124 47.515C29.2101 47.4361 29.2785 47.34 29.3249 47.2329C29.3712 47.1258 29.3943 47.0101 29.3928 46.8934V42.763C29.3889 42.5563 29.4346 42.3516 29.526 42.1662C29.6175 41.9808 29.752 41.8201 29.9184 41.6974L30.2208 41.5246C30.2697 41.2883 30.4093 41.0806 30.6096 40.9462L31.8096 40.2454C31.8698 40.209 31.9385 40.1891 32.0088 40.1878C32.0614 40.1873 32.1132 40.2006 32.159 40.2263C32.2049 40.2519 32.2433 40.2891 32.2704 40.3342L32.3472 40.291C32.4284 40.2419 32.5212 40.2154 32.616 40.2142C32.6952 40.2136 32.7732 40.2343 32.8416 40.2742C32.94 40.3433 33.0185 40.4372 33.069 40.5463C33.1196 40.6554 33.1405 40.776 33.1296 40.8958V44.4214C33.1276 44.4744 33.1358 44.5274 33.1536 44.5774L33.9984 44.0974V42.4798C34.0008 42.2849 34.0494 42.0934 34.1404 41.921C34.2314 41.7487 34.362 41.6004 34.5216 41.4886C34.5941 41.4442 34.6767 41.4194 34.7616 41.4166C34.9608 41.4166 35.1624 41.5798 35.1624 41.9446V45.559C35.16 45.7541 35.111 45.9458 35.0196 46.1182C34.9282 46.2906 34.797 46.4387 34.6368 46.5502C34.5646 46.595 34.4818 46.6198 34.3968 46.6222C34.1976 46.6222 33.9984 46.459 33.9984 46.0942V44.6782L33.3984 45.0238C33.318 45.0725 33.226 45.099 33.132 45.1006C33.0518 45.1006 32.973 45.0791 32.904 45.0382C32.8058 44.9694 32.7274 44.8759 32.6769 44.7672C32.6263 44.6585 32.6053 44.5384 32.616 44.419V40.8958C32.6182 40.8419 32.61 40.7881 32.592 40.7374L32.3184 40.8982C32.2686 41.134 32.1292 41.3414 31.9296 41.4766L30.72 42.175C30.6597 42.2133 30.5899 42.2341 30.5184 42.235C30.4663 42.2345 30.4152 42.2209 30.3699 42.1953C30.3246 42.1696 30.2865 42.1329 30.2592 42.0886L30.1656 42.1414C30.0791 42.22 30.0102 42.316 29.9634 42.4231C29.9167 42.5303 29.8932 42.6461 29.8944 42.763V46.903C29.8983 47.1093 29.8526 47.3136 29.7612 47.4986C29.6697 47.6836 29.5351 47.844 29.3688 47.9662L28.8024 48.295V48.8662C28.8006 49.0032 28.7661 49.1378 28.7018 49.2589C28.6376 49.3799 28.5453 49.4839 28.4328 49.5622L27.2496 50.2462C27.197 50.2772 27.1378 50.2953 27.0768 50.299Z" fill="black"/>
<path d="M33.4272 27.9791C32.9976 27.9791 32.6712 27.5543 32.6136 26.9207C32.5792 26.4994 32.619 26.0754 32.7312 25.6679C32.8332 25.2483 32.9566 24.8341 33.1008 24.4271C33.1656 24.2327 33.2424 24.0383 33.3168 23.8487C33.3912 23.6591 33.4728 23.4455 33.5352 23.2511C33.6518 22.88 33.7251 22.4966 33.7536 22.1087C33.7656 21.6287 33.7536 21.1319 33.7536 20.6447C33.7536 20.4047 33.7536 20.1647 33.7536 19.9247C33.6708 19.8373 33.6067 19.7338 33.5654 19.6207C33.5242 19.5076 33.5065 19.3873 33.5136 19.2671C33.5081 19.0128 33.5636 18.7609 33.6755 18.5324C33.7874 18.304 33.9524 18.1058 34.1568 17.9543C34.2496 17.8983 34.3556 17.8677 34.464 17.8655C34.5542 17.8655 34.6429 17.8895 34.7208 17.9351C34.8337 18.0198 34.9226 18.1326 34.9786 18.2623C35.0346 18.3919 35.0557 18.5339 35.04 18.6743C35.0356 18.9819 34.9531 19.2834 34.8 19.5503C34.8 19.7711 34.8 20.3303 34.8 20.3303L35.6808 19.8215C35.7239 19.7941 35.7737 19.7792 35.8248 19.7783C35.8598 19.78 35.894 19.7889 35.9254 19.8045C35.9567 19.82 35.9846 19.8419 36.0071 19.8687C36.0296 19.8955 36.0464 19.9267 36.0563 19.9603C36.0662 19.9939 36.0691 20.0291 36.0648 20.0639C36.0632 20.1593 36.0384 20.253 35.9924 20.3367C35.9464 20.4203 35.8806 20.4915 35.8008 20.5439L34.8 21.1199C34.8 21.2975 34.8 21.4727 34.8 21.6431C34.8156 21.9413 34.8881 22.2337 35.0136 22.5047C35.0756 22.6209 35.1462 22.7325 35.2248 22.8383C35.3044 22.9473 35.3774 23.0612 35.4432 23.1791C35.6 23.4389 35.7264 23.7159 35.82 24.0047C35.9416 24.3683 35.9825 24.754 35.94 25.1351C35.868 26.0135 35.3784 26.9687 34.8528 27.2615L34.7304 27.0551C35.1816 26.7791 35.604 25.8983 35.652 25.1351C35.6812 24.8094 35.6369 24.4813 35.5224 24.1751C35.4285 23.9216 35.3052 23.6799 35.1552 23.4551C35.0914 23.3527 35.0217 23.2541 34.9464 23.1599C34.8502 23.0472 34.7635 22.9268 34.6872 22.7999C34.5263 22.4871 34.4299 22.1451 34.404 21.7943C34.404 21.6167 34.3896 21.4439 34.3872 21.2711L34.1664 21.3983C34.1664 21.6191 34.1664 21.8447 34.1448 22.0751C34.1045 22.5186 34.0126 22.956 33.8712 23.3783C33.7944 23.6039 33.708 23.8127 33.6312 24.0143C33.5544 24.2159 33.4848 24.3743 33.42 24.5615C33.2722 24.9477 33.1464 25.3419 33.0432 25.7423C32.935 26.1072 32.8895 26.4878 32.9088 26.8679C32.9448 27.3791 33.1728 27.7319 33.468 27.7319C33.5523 27.7297 33.6348 27.7066 33.708 27.6647L33.8256 27.8735C33.7074 27.9476 33.5714 27.9882 33.432 27.9911L33.4272 27.9791ZM34.1736 20.7911L34.3776 20.6735V20.0039C34.318 20.0343 34.254 20.0554 34.188 20.0663C34.1784 20.2439 34.1736 20.7911 34.1736 20.7911ZM34.0536 19.4975C34.0833 19.5082 34.1097 19.5264 34.1304 19.5503H34.1472C34.2708 19.4422 34.3694 19.3085 34.4362 19.1585C34.5029 19.0084 34.5361 18.8457 34.5336 18.6815C34.5336 18.4751 34.4712 18.3983 34.4544 18.3887C34.4357 18.3915 34.4177 18.3981 34.4016 18.4079C34.2779 18.5159 34.1793 18.6496 34.1126 18.7997C34.0459 18.9497 34.0126 19.1125 34.0152 19.2767C34.0131 19.3521 34.0261 19.4272 34.0536 19.4975Z" fill="black"/>
<path d="M33.9336 33.2639L32.8632 33.8831V31.4447L33.9336 30.8255V30.4727L33.1848 30.9047V30.4295L33.4896 30.2519V29.9255L33.9336 29.6687V29.5031L34.8216 28.9895V30.3143L35.9448 29.6663V30.2543L36.3384 30.0263V31.2863L35.9448 31.5143V32.1023L34.8216 32.7503V38.5559L33.9336 39.0695V33.2639Z" fill="black"/>
<path d="M39.948 41.9543V41.0255L39.744 41.1431V41.3687L39.2784 41.6375C39.0536 41.7891 38.8543 41.9754 38.688 42.1895C38.6069 42.285 38.5104 42.3661 38.4024 42.4295C38.3086 42.4879 38.2009 42.5202 38.0904 42.5231C37.8264 42.5231 37.6488 42.3047 37.6488 41.9831C37.6581 41.7608 37.7204 41.5439 37.8307 41.3506C37.9409 41.1573 38.0958 40.9932 38.2824 40.8719C38.3754 40.8137 38.4823 40.7813 38.592 40.7783H38.6232C38.8089 40.7846 38.9932 40.7433 39.1584 40.6583L39.744 40.3199V40.5599L39.948 40.4399V39.0359L39.384 39.3599C39.3524 39.379 39.3159 39.3883 39.279 39.3869C39.2421 39.3855 39.2064 39.3733 39.1764 39.3519C39.1463 39.3305 39.1231 39.3008 39.1097 39.2664C39.0963 39.232 39.0932 39.1945 39.1008 39.1583C39.1004 39.0956 39.115 39.0337 39.1434 38.9778C39.1718 38.9218 39.2131 38.8735 39.264 38.8367L39.948 38.4431V37.4831L41.4336 36.6239V37.5839L41.7528 37.4015V36.4415L43.2384 35.5823V36.5423L43.5096 36.3863V36.1463L43.9752 35.8775C44.2007 35.7268 44.4001 35.5404 44.5656 35.3255C44.6467 35.2301 44.7432 35.149 44.8512 35.0855C44.9452 35.0275 45.0528 34.9952 45.1632 34.9919C45.4272 34.9919 45.6048 35.2103 45.6048 35.5343C45.5955 35.7564 45.5332 35.9729 45.4229 36.1658C45.3127 36.3588 45.1578 36.5224 44.9712 36.6431C44.8782 36.7014 44.7713 36.7338 44.6616 36.7367H44.64C44.454 36.73 44.2694 36.7722 44.1048 36.8591L43.5192 37.1951V36.9695L43.248 37.1279V38.5319L43.8792 38.1671C43.908 38.1492 43.9413 38.1401 43.9752 38.1407C44.064 38.1407 44.1624 38.2103 44.1624 38.3687C44.1632 38.4312 44.1488 38.4929 44.1203 38.5486C44.0919 38.6042 44.0503 38.652 43.9992 38.6879L43.2384 39.1199V40.1759L42.2784 42.9815L41.7504 43.2887V39.9839L41.4312 40.1663V43.4759L40.9512 43.7519L39.948 41.9543ZM41.4336 39.5759L41.7528 39.3911V37.9871L41.4336 38.1719V39.5759Z" fill="black"/>
<path d="M11.832 37.8191L12.2928 37.5527V35.2799L12.0528 35.4143V33.7583C12.0426 33.3307 11.9731 32.9067 11.8464 32.4983C11.795 32.3098 11.7699 32.1152 11.772 31.9199C11.772 31.1471 12.084 30.3623 12.492 30.1319C12.5644 30.0879 12.6472 30.0639 12.732 30.0623C13.0848 30.0623 13.3224 30.5063 13.3224 31.1687C13.3216 31.3865 13.2983 31.6036 13.2528 31.8167C13.1315 32.3131 13.0608 32.8204 13.0416 33.3311V34.8503L12.8016 34.9823V37.2503L13.26 36.9863V42.3863L11.82 43.2143L11.832 37.8191Z" fill="black"/>
<path d="M14.1168 36.4991L14.436 36.3167V34.0487L14.196 34.1831V32.5247C14.1859 32.0969 14.1156 31.6728 13.9872 31.2647C13.9365 31.0769 13.9123 30.8831 13.9152 30.6887C13.9152 29.9159 14.2272 29.1287 14.6352 28.8983C14.7079 28.8551 14.7907 28.8319 14.8752 28.8311C15.228 28.8311 15.4656 29.2751 15.4656 29.9375C15.465 30.1554 15.4409 30.3727 15.3936 30.5855C15.2743 31.0813 15.2044 31.5878 15.1848 32.0975V33.6167L14.9448 33.7511V36.0191L15.264 35.8367V41.2367L14.112 41.9015L14.1168 36.4991Z" fill="black"/>
<path d="M16.32 35.2224L16.56 35.0808V32.8128L16.32 32.9472V31.2888C16.3087 30.8612 16.2384 30.4372 16.1112 30.0288C16.0605 29.8402 16.0363 29.6456 16.0392 29.4504C16.0392 28.6776 16.3512 27.8928 16.7592 27.6624C16.8316 27.6184 16.9144 27.5944 16.9992 27.5928C17.3544 27.5928 17.592 28.0368 17.592 28.6992C17.5915 28.9179 17.5674 29.136 17.52 29.3496C17.4007 29.8455 17.3307 30.3519 17.3112 30.8616V32.3808L17.0712 32.5152V34.7832L17.3112 34.6392V40.0416L16.32 40.6224V35.2224Z" fill="black"/>
<path d="M18.5424 33.9454L18.72 33.8398V31.5718L18.48 31.7062V30.0502C18.4698 29.6227 18.4004 29.1987 18.2736 28.7902C18.221 28.602 18.196 28.4072 18.1992 28.2118C18.1992 27.439 18.5112 26.6542 18.9192 26.4238C18.9916 26.3799 19.0744 26.3559 19.1592 26.3542C19.512 26.3542 19.7496 26.7982 19.7496 27.4606C19.7492 27.6786 19.7251 27.8959 19.6776 28.1086C19.5581 28.6053 19.4882 29.1126 19.4688 29.623V31.1422L19.2288 31.2742V33.5422L19.4064 33.4414V38.8414L18.5376 39.343L18.5424 33.9454Z" fill="black"/>
<path d="M37.3848 26.8654V22.3198L37.8456 22.0534V19.7734L37.6056 19.9054V19.3798V18.2398C37.5939 17.8132 37.5244 17.3902 37.3992 16.9822C37.3473 16.7939 37.3222 16.5992 37.3248 16.4038C37.3249 16.184 37.3506 15.9649 37.4016 15.751V15.7006L38.7288 14.9326L38.7744 15.0742C38.8319 15.2615 38.8595 15.4567 38.856 15.6526C38.8549 15.8715 38.83 16.0896 38.7816 16.303C38.6665 16.7989 38.5967 17.3041 38.5728 17.8126V18.5326V19.3342L38.3328 19.4686V21.7438L38.7912 21.4798V26.1598L38.6376 26.9662L37.5696 27.5998L37.3848 26.8654Z" fill="black"/>
<path d="M39.6696 25.5454V20.9854L39.9888 20.803V18.535L39.7488 18.6694V18.1438V17.0134C39.7373 16.5868 39.6679 16.1637 39.5424 15.7558C39.4895 15.5677 39.4644 15.3728 39.468 15.1774C39.4682 14.9568 39.494 14.7369 39.5448 14.5222V14.4718L40.8792 13.7014L40.9224 13.8478C40.9741 14.0362 40.9992 14.2309 40.9968 14.4262C40.9964 14.645 40.9723 14.8631 40.9248 15.0766C40.8098 15.5725 40.7399 16.0777 40.716 16.5862V17.3062V18.1102L40.476 18.2422V20.5126L40.7904 20.3302V25.0102L40.6392 25.8142L39.828 26.2822L39.6696 25.5454Z" fill="black"/>
<path d="M41.8824 24.2685V19.7085L42.1224 19.5645V17.2989L41.8824 17.4333V16.9053V15.7749C41.8709 15.3481 41.8007 14.9249 41.6736 14.5173C41.6217 14.3298 41.5966 14.1359 41.5992 13.9413C41.5991 13.7207 41.6249 13.5008 41.676 13.2861L41.688 13.2357L43.032 12.4797L43.08 12.6189C43.1355 12.8066 43.1622 13.0016 43.1592 13.1973C43.1579 13.4161 43.1338 13.634 43.0872 13.8477C42.9714 14.3444 42.9007 14.8504 42.876 15.3597V16.0797V16.8813L42.636 17.0157V19.2837L42.876 19.1421V23.8077L42.72 24.6141L42.0504 25.0005L41.8824 24.2685Z" fill="black"/>
<path d="M44.0976 22.9895V18.4295L44.2728 18.3287V16.0631L44.0328 16.1951V15.6695V14.5391C44.0209 14.1125 43.9515 13.6895 43.8264 13.2815C43.7745 13.0931 43.7495 12.8984 43.752 12.7031C43.7523 12.4824 43.778 12.2626 43.8288 12.0479V11.9999L45.1632 11.2271L45.2064 11.3735C45.2593 11.5616 45.2844 11.7565 45.2808 11.9519C45.2806 12.1706 45.2564 12.3887 45.2088 12.6023C45.0938 13.0981 45.0239 13.6034 45 14.1119V14.8319V15.6335L44.76 15.7679V18.0359L44.9376 17.9327V22.6127L44.7816 23.4191L44.2536 23.7215L44.0976 22.9895Z" fill="black"/>
<path d="M11.832 58.9248L11.7552 58.788L11.832 58.7448V58.1304L11.7552 57.996L11.832 57.9504V57.336L11.7552 57.2016L11.832 57.156V56.544L11.7552 56.4072L11.832 56.364V55.7496L11.7552 55.6152L11.832 55.5696V54.9552L11.7552 54.8208L11.832 54.7752V54.1632L11.7552 54.0264L11.832 53.9832V53.3688L11.7552 53.2344L11.832 53.1888V52.5744L11.7552 52.44L11.832 52.3944V51.7824L11.7552 51.6456L11.832 51.6024V50.988L11.7552 50.8536L11.832 50.808V50.1936L11.7552 50.0592L11.832 50.0136V49.4016L11.7552 49.2648L11.832 49.2216V48.6072L11.7552 48.4728L11.832 48.4272V47.8128L11.7552 47.6784L11.832 47.6328V45.6528L13.6008 44.6304V58.8432L13.536 58.8744L11.832 59.8584V58.9248Z" fill="black"/>
<path d="M18.6768 50.8296L18.5976 50.6952L18.6768 50.6496V50.0352L18.5976 49.9008L18.6768 49.8552V49.2432L18.5976 49.1064L18.6768 49.0632V48.4488L18.5976 48.3144L18.6768 48.2688V47.6544L18.5976 47.52L18.6768 47.4744V46.8624L18.5976 46.7256L18.6768 46.6824V46.068L18.5976 45.9336L18.6768 45.888V45.2736L18.5976 45.1392L18.6768 45.0936V44.4816L18.5976 44.3448L18.6768 44.3016V44.1192L15.3504 46.0392V43.6224L20.2464 40.7952V42.936L20.4456 42.8208V50.7432L18.6768 51.7632V50.8296Z" fill="black"/>
<path d="M14.5776 50.0662L19.92 55.1998L14.5776 58.2766V50.0662ZM15.7296 55.9198L17.316 55.0054L15.7296 53.479V55.9198Z" fill="black"/>
<path d="M37.5864 36.3982C37.5542 36.3959 37.5227 36.387 37.494 36.3722C37.4653 36.3574 37.4399 36.3369 37.4193 36.312C37.3986 36.2872 37.3833 36.2584 37.374 36.2274C37.3648 36.1965 37.3619 36.1639 37.3656 36.1318V35.7766C37.3669 35.6942 37.3875 35.6133 37.4259 35.5403C37.4642 35.4673 37.5192 35.4044 37.5864 35.3566V34.9654C37.5883 34.8714 37.5728 34.7778 37.5408 34.6894L37.4544 34.5646C37.3921 34.437 37.3617 34.2962 37.3656 34.1542V32.8798C37.3656 32.7454 37.3656 32.5606 37.3656 32.4382C37.3656 32.3158 37.3656 32.1982 37.3656 32.0926C37.3404 31.2713 37.4308 30.4504 37.6344 29.6542C37.9968 28.2574 38.796 28.0294 38.8344 28.0198L39.2736 27.9046L38.9496 28.2214C38.1456 29.0134 38.1624 30.2158 38.4 30.6646C38.4297 30.7201 38.4752 30.7655 38.5308 30.795C38.5863 30.8244 38.6494 30.8367 38.712 30.8302C38.7721 30.8297 38.8319 30.8208 38.8896 30.8038H38.9064H38.9376C39.0456 30.8038 39.1536 30.9046 39.1536 31.1302V31.4398L42.24 29.647V29.3878L44.8584 27.8758C44.9106 27.8442 44.9702 27.8268 45.0312 27.8254C45.1776 27.8254 45.3216 27.9406 45.3216 28.195V28.7998C45.3205 28.9271 45.2887 29.0522 45.2289 29.1646C45.1692 29.277 45.0832 29.3733 44.9784 29.4454L42.24 31.015V30.7558L39.1512 32.539V32.8054C39.1397 33.009 39.0976 33.2096 39.0264 33.4006L38.82 33.943C38.7586 34.1072 38.7214 34.2794 38.7096 34.4542V34.723H38.7552C38.8608 34.723 38.9736 34.807 38.9736 34.9894V35.3446C38.9733 35.4281 38.9526 35.5103 38.9133 35.5839C38.874 35.6575 38.8172 35.7204 38.748 35.767L37.7112 36.367C37.6726 36.3899 37.6288 36.4023 37.584 36.403L37.5864 36.3982Z" fill="black"/>
</g>
<path d="M25.7112 26.8464L22.5312 30.9384V41.4456L23.556 40.8552L25.7112 28.1664V26.8464Z" fill="#F5F5F5"/>
<path d="M23.4144 40.5959L23.556 40.8551L25.7112 28.1663V27.0671L25.5048 27.1847V28.2719L23.4144 40.5959Z" fill="#E0E0E0"/>
<path d="M22.5312 30.9384V41.4456L22.7232 41.016V30.6936L22.5312 30.9384Z" fill="#E0E0E0"/>
<path d="M23.4312 39.3913C23.4331 39.5059 23.4085 39.6195 23.3594 39.7231C23.3103 39.8268 23.2379 39.9177 23.148 39.9889C22.992 40.0801 22.8672 39.9577 22.8672 39.7177C22.8647 39.6031 22.8887 39.4896 22.9374 39.3859C22.9861 39.2822 23.0582 39.1912 23.148 39.1201C23.304 39.0289 23.4312 39.1513 23.4312 39.3913Z" fill="#E0E0E0"/>
<path d="M25.5432 22.9248V23.5464C25.1352 23.9208 24.7968 23.8032 24.0888 24.4104C23.3808 25.0176 23.0376 25.7472 22.6488 26.0328V25.4112L22.4088 25.5528V30.9864C22.4088 31.1688 22.5072 31.2624 22.6296 31.1928L24.3312 30.2088C24.4017 30.1618 24.4568 30.095 24.4896 30.0168L25.7328 27.288C25.7722 27.2046 25.7935 27.1139 25.7952 27.0216V22.7856L25.5432 22.9248ZM25.5432 26.2848C24.648 27.6 24.24 28.356 22.6416 29.28V27.2016C23.0448 26.8368 23.3832 26.9472 24.0816 26.3448C24.78 25.7424 25.14 25.0008 25.536 24.7224L25.5432 26.2848Z" fill="#EBEBEB"/>
<path d="M22.6416 27.2016C23.0448 26.8368 23.3832 26.9472 24.0816 26.3448C24.78 25.7424 25.14 25.0008 25.536 24.7224V23.5464C25.128 23.9208 24.7896 23.8032 24.0816 24.4104C23.3736 25.0176 23.0304 25.7472 22.6416 26.0328V27.2016Z" fill="#E0E0E0"/>
<path opacity="0.1" d="M22.6416 27.2016C23.0448 26.8368 23.3832 26.9472 24.0816 26.3448C24.78 25.7424 25.14 25.0008 25.536 24.7224V23.5464C25.128 23.9208 24.7896 23.8032 24.0816 24.4104C23.3736 25.0176 23.0304 25.7472 22.6416 26.0328V27.2016Z" fill="black"/>
<path d="M30.2832 35.6688L27.456 36.7272L28.2912 26.4912L31.1184 25.4304L30.2832 35.6688Z" fill="#F5F5F5"/>
<path d="M28.8528 34.8744C28.8505 34.9862 28.8204 35.0957 28.765 35.1929C28.7097 35.2902 28.631 35.3721 28.536 35.4312C28.3824 35.4888 28.2744 35.3328 28.296 35.0832C28.2994 34.9715 28.33 34.8624 28.3852 34.7654C28.4404 34.6683 28.5186 34.5863 28.6128 34.5264C28.7664 34.4688 28.8744 34.6248 28.8528 34.8744Z" fill="#E0E0E0"/>
<path d="M28.5744 26.3833L28.2912 26.4913L27.456 36.7273L27.7944 35.9665L28.5744 26.3833Z" fill="#E0E0E0"/>
<path d="M31.1184 25.4304L30.8328 25.5384L30.0528 35.1216L30.2832 35.6688L31.1184 25.4304Z" fill="#E0E0E0"/>
<path d="M31.1064 19.7137V20.3353C30.6984 20.7097 30.3576 20.5897 29.652 21.1993C28.9464 21.8089 28.6008 22.5361 28.212 22.8217V22.2001L27.972 22.3393V27.7753C27.972 27.9577 28.0704 28.0513 28.1928 27.9793L29.8944 26.9977C29.9643 26.95 30.0193 26.8834 30.0528 26.8057L31.296 24.0769C31.3354 23.9926 31.3567 23.901 31.3584 23.8081V19.5745L31.1064 19.7137ZM31.1064 23.0737C30.2112 24.3865 29.8032 25.1377 28.2048 26.0617V24.0001C28.608 23.6329 28.9464 23.7457 29.6448 23.1433C30.3432 22.5409 30.7032 21.7993 31.0992 21.5209L31.1064 23.0737Z" fill="#EBEBEB"/>
<path d="M28.2048 23.9999C28.608 23.6327 28.9464 23.7455 29.6448 23.1431C30.3432 22.5407 30.7032 21.7991 31.0992 21.5207V20.3447C30.6912 20.7191 30.3504 20.5991 29.6448 21.2087C28.9392 21.8183 28.5936 22.5455 28.2048 22.8311V23.9999Z" fill="#E0E0E0"/>
<path opacity="0.1" d="M28.2048 23.9999C28.608 23.6327 28.9464 23.7455 29.6448 23.1431C30.3432 22.5407 30.7032 21.7991 31.0992 21.5207V20.3447C30.6912 20.7191 30.3504 20.5991 29.6448 21.2087C28.9392 21.8183 28.5936 22.5455 28.2048 22.8311V23.9999Z" fill="black"/>
<path d="M23.1264 42.9048H22.9896V49.2216H23.1264V42.9048Z" fill="#E0E0E0"/>
<path d="M23.1288 50.2465H22.8576V49.4833C22.8558 49.377 22.8795 49.2719 22.9267 49.1767C22.9738 49.0815 23.0432 48.9989 23.1288 48.9361L24.66 48.0529C25.0632 47.8129 25.404 47.0929 25.404 46.4497V42.7201C25.404 42.3769 25.308 42.1177 25.1472 42.0241C25.0909 41.9977 25.0286 41.9867 24.9666 41.9922C24.9047 41.9977 24.8452 42.0194 24.7944 42.0553L22.8744 43.1569L22.7376 42.9169L24.6576 41.8153C24.7486 41.754 24.8545 41.7187 24.9641 41.7132C25.0736 41.7077 25.1826 41.7322 25.2792 41.7841C25.5192 41.9281 25.6728 42.2641 25.6728 42.7153V46.4425C25.6728 47.1889 25.2864 47.9953 24.792 48.2809L23.2632 49.1641C23.2196 49.2034 23.1849 49.2516 23.1613 49.3054C23.1378 49.3592 23.1259 49.4173 23.1264 49.4761L23.1288 50.2465Z" fill="#F0F0F0"/>
<path d="M23.0016 53.6737H22.9848C22.8408 53.7577 22.7232 53.6737 22.7232 53.4769V50.1169L23.2656 49.8049V53.1649C23.2645 53.2645 23.24 53.3624 23.1942 53.4508C23.1483 53.5391 23.0824 53.6155 23.0016 53.6737Z" fill="#E0E0E0"/>
<path d="M23.1528 50.4984C23.1534 50.5631 23.1395 50.6271 23.1121 50.6856C23.0847 50.7442 23.0444 50.7959 22.9944 50.8368C22.9056 50.8872 22.8336 50.8176 22.8336 50.6832C22.8322 50.6182 22.846 50.5537 22.8739 50.495C22.9018 50.4362 22.9431 50.3848 22.9944 50.3448C23.0808 50.292 23.1528 50.3616 23.1528 50.4984Z" fill="#FAFAFA"/>
<path d="M26.4384 49.4041C26.4146 49.4045 26.391 49.3985 26.3703 49.3867C26.3496 49.3749 26.3325 49.3577 26.3208 49.3369C26.3024 49.3057 26.2971 49.2684 26.3061 49.2333C26.3151 49.1983 26.3377 49.1682 26.3688 49.1497L29.424 47.3881C29.5287 47.2999 29.6126 47.1896 29.6694 47.0651C29.7263 46.9405 29.7548 46.8049 29.7528 46.6681V42.5233C29.7496 42.3379 29.7901 42.1545 29.871 41.9877C29.9519 41.8209 30.0709 41.6755 30.2184 41.5633L32.6592 40.1545C32.7145 40.1186 32.7783 40.0981 32.8441 40.0951C32.91 40.0921 32.9754 40.1068 33.0336 40.1377C33.1154 40.1956 33.1806 40.2739 33.2227 40.3649C33.2649 40.4558 33.2824 40.5562 33.2736 40.6561V44.1817C33.2736 44.3377 33.3192 44.4361 33.3648 44.4625C33.382 44.4691 33.4006 44.4711 33.4187 44.4681C33.4368 44.4652 33.4539 44.4574 33.468 44.4457L34.668 43.7473C34.6836 43.7383 34.7008 43.7324 34.7187 43.7301C34.7365 43.7277 34.7547 43.7289 34.7721 43.7336C34.7895 43.7383 34.8058 43.7463 34.82 43.7573C34.8343 43.7683 34.8463 43.782 34.8552 43.7977C34.8642 43.8131 34.87 43.8301 34.8723 43.8478C34.8746 43.8655 34.8734 43.8834 34.8687 43.9006C34.864 43.9178 34.856 43.9339 34.845 43.948C34.834 43.962 34.8204 43.9737 34.8048 43.9825L33.6048 44.6833C33.5496 44.7196 33.4856 44.7401 33.4196 44.7426C33.3536 44.7451 33.2882 44.7296 33.2304 44.6977C33.1486 44.6403 33.0834 44.5624 33.0412 44.4718C32.9991 44.3813 32.9816 44.2812 32.9904 44.1817V40.6561C32.9904 40.4977 32.9448 40.4017 32.8992 40.3753C32.8536 40.3489 32.8416 40.3753 32.7984 40.3897L30.3576 41.7985C30.2523 41.8863 30.168 41.9965 30.1107 42.1211C30.0534 42.2456 30.0246 42.3814 30.0264 42.5185V46.6585C30.0296 46.8438 29.9891 47.0273 29.9082 47.1941C29.8273 47.3608 29.7083 47.5062 29.5608 47.6185L26.508 49.3825C26.4871 49.3957 26.4631 49.4032 26.4384 49.4041Z" fill="#F0F0F0"/>
<path d="M34.8336 46.2097C34.5768 46.3561 34.3704 46.2097 34.3704 45.8569V42.2401C34.3727 42.0661 34.4159 41.8952 34.4963 41.7409C34.5768 41.5867 34.6923 41.4535 34.8336 41.3521C35.0904 41.2033 35.2992 41.3521 35.2992 41.7025V45.3193C35.2966 45.4938 35.2532 45.6652 35.1723 45.8198C35.0914 45.9745 34.9754 46.108 34.8336 46.2097Z" fill="#E0E0E0"/>
<path d="M32.1216 41.1335L30.9096 41.8319C30.7128 41.9447 30.552 41.8319 30.552 41.5631V41.4911C30.5545 41.3575 30.5881 41.2264 30.6502 41.108C30.7123 40.9897 30.8011 40.8875 30.9096 40.8095L32.1216 40.1111C32.3184 39.9959 32.4768 40.1111 32.4768 40.3799V40.4519C32.4748 40.5854 32.4416 40.7165 32.3799 40.8348C32.3183 40.9531 32.2298 41.0554 32.1216 41.1335Z" fill="#E0E0E0"/>
<path d="M28.6224 49.2191L27.4392 49.9007C27.2664 50.0015 27.1296 49.9007 27.1296 49.6607V48.0719C27.131 47.9557 27.1597 47.8415 27.2135 47.7385C27.2673 47.6355 27.3446 47.5467 27.4392 47.4791L28.6224 46.7951C28.7928 46.6967 28.932 46.7951 28.932 47.0351V48.6311C28.9291 48.7464 28.8997 48.8594 28.846 48.9614C28.7923 49.0634 28.7158 49.1516 28.6224 49.2191Z" fill="#E0E0E0"/>
<path d="M26.8584 49.7065C26.7096 49.7929 26.5872 49.5577 26.5872 49.1809C26.5872 48.8041 26.7096 48.4297 26.8584 48.3433L27.1296 48.1873V49.5505L26.8584 49.7065Z" fill="#E0E0E0"/>
<path opacity="0.1" d="M26.9352 49.6609L27.1296 49.5505V48.1873L26.9352 48.3001V49.6609Z" fill="black"/>
<path d="M28.7736 47.8873C28.775 47.9512 28.7617 48.0145 28.7346 48.0724C28.7076 48.1302 28.6675 48.1811 28.6176 48.2209C28.5288 48.2713 28.4592 48.2041 28.4592 48.0697C28.4577 48.0056 28.4713 47.942 28.4988 47.8841C28.5263 47.8262 28.567 47.7755 28.6176 47.7361C28.704 47.6857 28.7736 47.7601 28.7736 47.8873Z" fill="#FAFAFA"/>
<path d="M34.992 43.68C34.9935 43.7445 34.98 43.8084 34.9525 43.8667C34.925 43.925 34.8843 43.9761 34.8336 44.016C34.7472 44.0664 34.6752 43.9968 34.6752 43.8624C34.6743 43.7984 34.6881 43.735 34.7155 43.6771C34.743 43.6193 34.7834 43.5685 34.8336 43.5288C34.9224 43.488 34.992 43.5576 34.992 43.68Z" fill="#FAFAFA"/>
<path d="M34.3344 19.7136C34.2652 19.7143 34.1972 19.696 34.1376 19.6608C34.0414 19.5881 33.9657 19.4918 33.9177 19.3812C33.8698 19.2706 33.8513 19.1495 33.864 19.0296C33.864 18.5496 34.1208 18.0096 34.4472 17.8296C34.5125 17.7866 34.5882 17.7619 34.6663 17.7581C34.7444 17.7543 34.8221 17.7715 34.8912 17.808C34.988 17.8807 35.0641 17.9774 35.1121 18.0885C35.1601 18.1996 35.1782 18.3213 35.1648 18.4416C35.1679 18.6732 35.1168 18.9024 35.0155 19.1107C34.9143 19.3191 34.7657 19.5009 34.5816 19.6416C34.507 19.687 34.4217 19.7118 34.3344 19.7136ZM34.6944 18.0336C34.6544 18.036 34.6156 18.0484 34.5816 18.0696C34.4392 18.1878 34.3251 18.3366 34.2478 18.5048C34.1706 18.673 34.1321 18.8565 34.1352 19.0416C34.1352 19.2816 34.2072 19.3992 34.2744 19.4376C34.3024 19.4499 34.3331 19.4547 34.3634 19.4513C34.3938 19.4479 34.4227 19.4366 34.4472 19.4184C34.5884 19.3017 34.7017 19.1549 34.7789 18.9888C34.8561 18.8227 34.8953 18.6415 34.8936 18.4584C34.8936 18.2184 34.8216 18.1008 34.7544 18.0624C34.74 18.042 34.7187 18.0275 34.6944 18.0216V18.0336Z" fill="#F0F0F0"/>
<path d="M34.9272 19.1184C34.9272 19.8816 34.8984 20.688 34.9152 21.4128C34.9311 21.7285 35.0077 22.0381 35.1408 22.3248C35.2632 22.5648 35.4408 22.7544 35.5728 23.004C35.7259 23.2569 35.8492 23.5267 35.94 23.808C36.0564 24.1553 36.0965 24.5237 36.0576 24.888C35.988 25.7064 35.5392 26.64 35.028 26.9232C35.5392 26.6112 35.9592 25.68 36.0072 24.9072C36.0384 24.5644 35.9916 24.219 35.8704 23.8968C35.7742 23.6315 35.6469 23.3785 35.4912 23.1432C35.3496 22.9032 35.1768 22.7448 35.0328 22.4904C34.88 22.1915 34.7886 21.8651 34.764 21.5304C34.728 20.7576 34.7376 20.0016 34.7232 19.2384C34.7224 19.1964 34.7311 19.1548 34.7485 19.1165C34.766 19.0783 34.7917 19.0445 34.824 19.0176C34.8792 18.984 34.9272 19.0176 34.9272 19.1112V19.1184Z" fill="#F0F0F0"/>
<path d="M34.3056 19.4785C34.2912 20.2609 34.3056 21.0025 34.2648 21.8185C34.2248 22.2505 34.1354 22.6764 33.9984 23.0881C33.852 23.5081 33.6792 23.8705 33.5376 24.2689C33.3897 24.6618 33.2631 25.0623 33.1584 25.4689C33.0466 25.8478 33.0011 26.2432 33.024 26.6377C33.0696 27.3577 33.4896 27.8017 34.0008 27.5257C33.4896 27.8305 33.0408 27.4153 32.9712 26.6761C32.941 26.2675 32.9808 25.8568 33.0888 25.4617C33.1884 25.048 33.311 24.6401 33.456 24.2401C33.588 23.8369 33.7656 23.4409 33.888 23.0593C34.0095 22.6792 34.0852 22.286 34.1136 21.8881C34.1304 21.1417 34.1136 20.3689 34.1136 19.6081C34.1128 19.5668 34.1215 19.5258 34.139 19.4884C34.1565 19.451 34.1823 19.418 34.2144 19.3921C34.272 19.3585 34.3176 19.3921 34.3176 19.4881L34.3056 19.4785Z" fill="#F0F0F0"/>
<path d="M35.37 20.137L34.1374 20.8484L34.2729 21.0833L35.5056 20.3719L35.37 20.137Z" fill="#F0F0F0"/>
<path d="M35.9784 20.2008L35.04 20.748V20.232L35.9784 19.68C36.0912 19.6152 36.1824 19.68 36.1824 19.8192C36.1806 19.8944 36.1612 19.968 36.1258 20.0343C36.0904 20.1006 36.0399 20.1576 35.9784 20.2008Z" fill="#F0F0F0"/>
<path d="M34.9416 38.2489L34.2936 38.6233V29.3329L34.9416 28.9585V38.2489Z" fill="#F0F0F0"/>
<path d="M36.0648 31.7928L33.2232 33.4344V31.2744L36.0648 29.6328V31.7928Z" fill="#EBEBEB"/>
<path d="M36.0648 31.3345L33.2232 32.9761V33.4345L36.0648 31.7929V31.3345Z" fill="#E0E0E0"/>
<path opacity="0.1" d="M36.0648 31.3345L33.2232 32.9761V33.4345L36.0648 31.7929V31.3345Z" fill="black"/>
<path d="M36.4584 30.9769L36.0648 31.2049V30.2233L36.4584 29.9929V30.9769Z" fill="#E0E0E0"/>
<path opacity="0.1" d="M36.1968 31.1281L36.0648 31.2049V30.2233L36.1968 30.1465V31.1281Z" fill="black"/>
<path d="M33.8496 29.7552V30.0816L33.5448 30.2592V30.4584L34.9416 29.6496V29.4528V29.124L33.8496 29.7552Z" fill="#E0E0E0"/>
<path d="M34.9416 37.344L34.464 37.62V37.464L34.9416 37.188V37.344Z" fill="#E0E0E0"/>
<path d="M34.9416 35.9641L34.464 36.2425V36.0841L34.9416 35.8081V35.9641Z" fill="#E0E0E0"/>
<path d="M34.9416 34.5864L34.464 34.8624V34.704L34.9416 34.428V34.5864Z" fill="#E0E0E0"/>
<path d="M34.9416 33.2065L34.464 33.4825V33.3265L34.9416 33.0481V33.2065Z" fill="#E0E0E0"/>
<path d="M39.4512 40.9128C39.4505 40.8713 39.4595 40.8302 39.4774 40.7927C39.4953 40.7552 39.5217 40.7224 39.5544 40.6968L44.16 38.0328C44.2176 37.9992 44.2632 38.0448 44.2632 38.1312C44.2639 38.1727 44.2549 38.2139 44.237 38.2513C44.2191 38.2888 44.1927 38.3216 44.16 38.3472L39.5448 41.0112C39.4968 41.04 39.4512 40.9992 39.4512 40.9128Z" fill="#E0E0E0"/>
<path d="M39.4584 41.2944L39.864 41.0544V40.2888L39.4584 40.5288C39.2668 40.6282 39.0524 40.6754 38.8368 40.6656C38.7467 40.6685 38.659 40.6949 38.5824 40.7424C38.4141 40.8534 38.2745 41.0025 38.1748 41.1777C38.0751 41.3528 38.0182 41.5491 38.0088 41.7504C38.0088 42.1224 38.2656 42.276 38.5824 42.0936C38.6786 42.0352 38.7645 41.9615 38.8368 41.8752C39.0149 41.6527 39.2243 41.457 39.4584 41.2944Z" fill="#E0E0E0"/>
<g opacity="0.1">
<path d="M39.4584 41.2944L39.864 41.0544V40.2888L39.4584 40.5288C39.2668 40.6282 39.0524 40.6754 38.8368 40.6656C38.7467 40.6685 38.659 40.6949 38.5824 40.7424C38.4141 40.8534 38.2745 41.0025 38.1748 41.1777C38.0751 41.3528 38.0182 41.5491 38.0088 41.7504C38.0088 42.1224 38.2656 42.276 38.5824 42.0936C38.6786 42.0352 38.7645 41.9615 38.8368 41.8752C39.0149 41.6527 39.2243 41.457 39.4584 41.2944Z" fill="black"/>
</g>
<path d="M44.2824 36.1295C44.2824 36.0431 44.2368 35.9999 44.1792 36.0311L39.564 38.6975C39.531 38.7228 39.5045 38.7556 39.4865 38.7931C39.4686 38.8307 39.4598 38.8719 39.4608 38.9135C39.4608 38.9999 39.5064 39.0431 39.564 39.0095L44.1792 36.3455C44.2122 36.3202 44.2388 36.2874 44.2567 36.2499C44.2747 36.2123 44.2835 36.1711 44.2824 36.1295Z" fill="#E0E0E0"/>
<path d="M44.2752 36.516L43.872 36.756V35.988L44.2752 35.748C44.5093 35.5853 44.7186 35.3897 44.8968 35.1672C44.9691 35.081 45.055 35.0072 45.1512 34.9488C45.468 34.7664 45.7248 34.92 45.7248 35.2944C45.715 35.4953 45.6579 35.6911 45.5583 35.8658C45.4586 36.0405 45.3192 36.1893 45.1512 36.3C45.0746 36.3475 44.9869 36.374 44.8968 36.3768C44.6811 36.369 44.467 36.4169 44.2752 36.516Z" fill="#E0E0E0"/>
<g opacity="0.1">
<path d="M44.2752 36.516L43.872 36.756V35.988L44.2752 35.748C44.5093 35.5853 44.7186 35.3897 44.8968 35.1672C44.9691 35.081 45.055 35.0072 45.1512 34.9488C45.468 34.7664 45.7248 34.92 45.7248 35.2944C45.715 35.4953 45.6579 35.6911 45.5583 35.8658C45.4586 36.0405 45.3192 36.1893 45.1512 36.3C45.0746 36.3475 44.9869 36.374 44.8968 36.3768C44.6811 36.369 44.467 36.4169 44.2752 36.516Z" fill="black"/>
</g>
<path d="M43.3584 39.9216V35.5464L42.1128 36.264V42.8448L42.4224 42.6648L43.3584 39.9216Z" fill="#EBEBEB"/>
<path opacity="0.1" d="M42.2976 42.7368V36.1584L42.1128 36.264V42.8448L42.2976 42.7368Z" fill="black"/>
<path d="M40.3056 41.6833V37.3081L41.5536 36.5881V43.1689L41.2416 43.3465L40.3056 41.6833Z" fill="#EBEBEB"/>
<path opacity="0.1" d="M41.3664 43.2745V36.6961L41.5536 36.5881V43.1689L41.3664 43.2745Z" fill="black"/>
<path d="M40.8912 40.26C40.8288 40.296 40.776 40.248 40.776 40.1496C40.7763 40.1035 40.7868 40.0582 40.8067 40.0167C40.8266 39.9752 40.8555 39.9386 40.8912 39.9096C40.9536 39.8736 41.0064 39.924 41.0064 40.0224C41.0061 40.0681 40.9956 40.1131 40.9756 40.1542C40.9557 40.1953 40.9269 40.2314 40.8912 40.26Z" fill="#E0E0E0"/>
<path d="M42.7944 39.1609C42.7296 39.1969 42.6792 39.1609 42.6792 39.0505C42.6783 39.0043 42.6882 38.9585 42.7082 38.9168C42.7282 38.8751 42.7577 38.8387 42.7944 38.8105C42.8568 38.7721 42.9096 38.8225 42.9096 38.9209C42.91 38.967 42.8998 39.0127 42.8798 39.0543C42.8599 39.0959 42.8306 39.1323 42.7944 39.1609Z" fill="#E0E0E0"/>
<path d="M40.8912 38.2849C40.8288 38.3209 40.776 38.2705 40.776 38.1745C40.7763 38.1285 40.7868 38.0831 40.8067 38.0416C40.8266 38.0001 40.8555 37.9635 40.8912 37.9345C40.9536 37.8985 41.0064 37.9489 41.0064 38.0449C41.0064 38.091 40.9961 38.1365 40.9761 38.178C40.9562 38.2196 40.9272 38.2561 40.8912 38.2849Z" fill="#E0E0E0"/>
<path d="M42.7944 37.1856C42.7296 37.2216 42.6792 37.1736 42.6792 37.0752C42.6783 37.0289 42.6882 36.9831 42.7082 36.9414C42.7282 36.8998 42.7577 36.8634 42.7944 36.8352C42.8568 36.7968 42.9096 36.8472 42.9096 36.9456C42.9096 36.9917 42.8993 37.0371 42.8793 37.0787C42.8594 37.1202 42.8304 37.1568 42.7944 37.1856Z" fill="#E0E0E0"/>
<path d="M12.9288 37.9297L12.6528 38.0881V34.2961L12.9288 34.1377V37.9297Z" fill="#F0F0F0"/>
<path d="M12.42 33.5233V34.4473L13.1592 34.0201V33.0961C13.1813 32.5777 13.2529 32.0625 13.3728 31.5577C13.4169 31.3526 13.4394 31.1435 13.44 30.9337C13.44 30.2137 13.1496 29.7937 12.7896 30.0001C12.4296 30.2065 12.1392 30.9601 12.1392 31.6801C12.1373 31.864 12.1607 32.0473 12.2088 32.2249C12.3376 32.6461 12.4087 33.0829 12.42 33.5233Z" fill="#E0E0E0"/>
<g opacity="0.1">
<path d="M12.42 33.5233V34.4473L13.1592 34.0201V33.0961C13.1813 32.5777 13.2529 32.0625 13.3728 31.5577C13.4169 31.3526 13.4394 31.1435 13.44 30.9337C13.44 30.2137 13.1496 29.7937 12.7896 30.0001C12.4296 30.2065 12.1392 30.9601 12.1392 31.6801C12.1373 31.864 12.1607 32.0473 12.2088 32.2249C12.3376 32.6461 12.4087 33.0829 12.42 33.5233Z" fill="black"/>
</g>
<path d="M13.1592 34.5456L12.42 34.9728V34.4472L13.1592 34.02V34.5456Z" fill="#EBEBEB"/>
<path d="M13.3872 42.0815L12.192 42.7727V37.6487L13.3872 36.9575V42.0815Z" fill="#F5F5F5"/>
<path d="M13.2456 42.1655L13.3872 42.0815V36.9575L13.2456 37.0391V42.1655Z" fill="#E0E0E0"/>
<path d="M12.192 42.7727L12.336 42.6911V37.5671L12.192 37.6487V42.7727Z" fill="#E0E0E0"/>
<path d="M15.0696 36.6912L14.796 36.852V33.06L15.0696 32.9016V36.6912Z" fill="#F0F0F0"/>
<path d="M14.5632 32.2849V33.2113L15.3024 32.7841V31.8577C15.3242 31.3394 15.3949 30.8243 15.5136 30.3193C15.5598 30.1153 15.5831 29.9069 15.5832 29.6977C15.5832 28.9777 15.2928 28.5553 14.9328 28.7641C14.5728 28.9729 14.2824 29.7241 14.2824 30.4441C14.2796 30.6272 14.3022 30.8097 14.3496 30.9865C14.479 31.4077 14.5508 31.8445 14.5632 32.2849Z" fill="#E0E0E0"/>
<g opacity="0.1">
<path d="M14.5632 32.2849V33.2113L15.3024 32.7841V31.8577C15.3242 31.3394 15.3949 30.8243 15.5136 30.3193C15.5598 30.1153 15.5831 29.9069 15.5832 29.6977C15.5832 28.9777 15.2928 28.5553 14.9328 28.7641C14.5728 28.9729 14.2824 29.7241 14.2824 30.4441C14.2796 30.6272 14.3022 30.8097 14.3496 30.9865C14.479 31.4077 14.5508 31.8445 14.5632 32.2849Z" fill="black"/>
</g>
<path d="M15.3024 33.3071L14.5632 33.7343V33.2111L15.3024 32.7839V33.3071Z" fill="#EBEBEB"/>
<path d="M15.3888 40.9272L14.4768 41.4528V36.3288L15.3888 35.8032V40.9272Z" fill="#F5F5F5"/>
<path d="M15.2472 41.0088L15.3888 40.9272V35.8032L15.2472 35.8848V41.0088Z" fill="#E0E0E0"/>
<path d="M14.4768 41.4529L14.6184 41.3713V36.2473L14.4768 36.3289V41.4529Z" fill="#E0E0E0"/>
<path d="M17.2128 35.4553L16.9368 35.6137V31.8217L17.2128 31.6633V35.4553Z" fill="#F0F0F0"/>
<path d="M16.7064 31.0489V31.9729L17.4456 31.5457V30.6217C17.467 30.1034 17.5378 29.5883 17.6568 29.0833C17.7018 28.8783 17.7251 28.6692 17.7264 28.4593C17.7264 27.7393 17.4336 27.3193 17.076 27.5257C16.7184 27.7321 16.4256 28.4857 16.4256 29.2057C16.4228 29.3895 16.4454 29.5729 16.4928 29.7505C16.6223 30.1717 16.6942 30.6084 16.7064 31.0489Z" fill="#E0E0E0"/>
<g opacity="0.1">
<path d="M16.7064 31.0489V31.9729L17.4456 31.5457V30.6217C17.467 30.1034 17.5378 29.5883 17.6568 29.0833C17.7018 28.8783 17.7251 28.6692 17.7264 28.4593C17.7264 27.7393 17.4336 27.3193 17.076 27.5257C16.7184 27.7321 16.4256 28.4857 16.4256 29.2057C16.4228 29.3895 16.4454 29.5729 16.4928 29.7505C16.6223 30.1717 16.6942 30.6084 16.7064 31.0489Z" fill="black"/>
</g>
<path d="M17.4456 32.0713L16.7064 32.4985V31.9729L17.4456 31.5457V32.0713Z" fill="#EBEBEB"/>
<path d="M17.46 39.7322L16.6896 40.1762V35.0522L17.46 34.6082V39.7322Z" fill="#F5F5F5"/>
<path d="M17.3184 39.8138L17.46 39.7322V34.6082L17.3184 34.6898V39.8138Z" fill="#E0E0E0"/>
<path d="M16.6896 40.1761L16.8312 40.0945V34.9705L16.6896 35.0521V40.1761Z" fill="#E0E0E0"/>
<path d="M19.3536 34.2192L19.08 34.3776V30.5856L19.3536 30.4272V34.2192Z" fill="#F0F0F0"/>
<path d="M18.8472 29.8129V30.737L19.5864 30.3098V29.3858C19.6081 28.8649 19.6796 28.3473 19.8 27.8401C19.8441 27.6351 19.8666 27.4259 19.8672 27.2161C19.8672 26.4961 19.5768 26.0761 19.2168 26.2825C18.8568 26.4889 18.5664 27.2426 18.5664 27.9626C18.5634 28.1465 18.5868 28.33 18.636 28.5073C18.7655 28.9309 18.8365 29.3702 18.8472 29.8129Z" fill="#E0E0E0"/>
<g opacity="0.1">
<path d="M18.8472 29.8129V30.737L19.5864 30.3098V29.3858C19.6081 28.8649 19.6796 28.3473 19.8 27.8401C19.8441 27.6351 19.8666 27.4259 19.8672 27.2161C19.8672 26.4961 19.5768 26.0761 19.2168 26.2825C18.8568 26.4889 18.5664 27.2426 18.5664 27.9626C18.5634 28.1465 18.5868 28.33 18.636 28.5073C18.7655 28.9309 18.8365 29.3702 18.8472 29.8129Z" fill="black"/>
</g>
<path d="M19.5864 30.8352L18.8472 31.2624V30.7368L19.5864 30.3096V30.8352Z" fill="#EBEBEB"/>
<path d="M19.5312 38.5344L18.9024 38.8968V33.7728L19.5312 33.4128V38.5344Z" fill="#F5F5F5"/>
<path d="M19.3896 38.6184L19.5312 38.5344V33.4128L19.3896 33.4944V38.6184Z" fill="#E0E0E0"/>
<path d="M18.9024 38.8968L19.044 38.8152V33.6912L18.9024 33.7728V38.8968Z" fill="#E0E0E0"/>
<path d="M38.4816 22.416L38.2056 22.5744V18.7824L38.4816 18.624V22.416Z" fill="#F0F0F0"/>
<path d="M38.9952 15.4225C38.9938 15.6324 38.9705 15.8415 38.9256 16.0465C38.807 16.5508 38.7355 17.065 38.712 17.5825V18.5065L37.9728 18.9337V18.0001C37.9606 17.5622 37.8896 17.1279 37.7616 16.7089C37.7122 16.5316 37.6887 16.3481 37.692 16.1641C37.6917 15.9531 37.7167 15.7428 37.7664 15.5377L38.9208 14.8801C38.973 15.0561 38.9981 15.239 38.9952 15.4225Z" fill="#E0E0E0"/>
<g opacity="0.1">
<path d="M38.9952 15.4225C38.9938 15.6324 38.9705 15.8415 38.9256 16.0465C38.807 16.5508 38.7355 17.065 38.712 17.5825V18.5065L37.9728 18.9337V18.0001C37.9606 17.5622 37.8896 17.1279 37.7616 16.7089C37.7122 16.5316 37.6887 16.3481 37.692 16.1641C37.6917 15.9531 37.7167 15.7428 37.7664 15.5377L38.9208 14.8801C38.973 15.0561 38.9981 15.239 38.9952 15.4225Z" fill="black"/>
</g>
<path d="M38.7144 19.0319L37.9752 19.4591V18.9335L38.7144 18.5063V19.0319Z" fill="#EBEBEB"/>
<path d="M38.94 21.4465V25.9201L38.7984 26.6497L37.8888 27.1753L37.7448 26.6113V22.1377L38.94 21.4465Z" fill="#F5F5F5"/>
<path d="M38.94 21.4465V25.9201L38.7984 26.6497V21.5281L38.94 21.4465Z" fill="#E0E0E0"/>
<path d="M37.8888 22.0537V27.1753L37.7448 26.6113V22.1377L37.8888 22.0537Z" fill="#E0E0E0"/>
<path d="M40.6248 21.1799L40.3488 21.3383V17.5463L40.6248 17.3879V21.1799Z" fill="#F0F0F0"/>
<path d="M41.136 14.1864C41.1356 14.3963 41.1123 14.6056 41.0664 14.8104C40.9499 15.315 40.8792 15.8291 40.8552 16.3464V17.28L40.116 17.7048V16.7736C40.1041 16.3357 40.033 15.9013 39.9048 15.4824C39.8556 15.3051 39.8322 15.1216 39.8352 14.9376C39.8353 14.7267 39.8595 14.5166 39.9072 14.3112L41.0664 13.6416C41.1156 13.8189 41.139 14.0024 41.136 14.1864Z" fill="#E0E0E0"/>
<g opacity="0.1">
<path d="M41.136 14.1864C41.1356 14.3963 41.1123 14.6056 41.0664 14.8104C40.9499 15.315 40.8792 15.8291 40.8552 16.3464V17.28L40.116 17.7048V16.7736C40.1041 16.3357 40.033 15.9013 39.9048 15.4824C39.8556 15.3051 39.8322 15.1216 39.8352 14.9376C39.8353 14.7267 39.8595 14.5166 39.9072 14.3112L41.0664 13.6416C41.1156 13.8189 41.139 14.0024 41.136 14.1864Z" fill="black"/>
</g>
<path d="M40.8552 17.7961L40.116 18.2209V17.6977L40.8552 17.2705V17.7961Z" fill="#EBEBEB"/>
<path d="M40.9416 20.292V24.7656L40.8024 25.4928L40.1736 25.8552L40.0296 25.2912V20.8176L40.9416 20.292Z" fill="#F5F5F5"/>
<path d="M40.9416 20.292V24.7656L40.8024 25.4928V20.3736L40.9416 20.292Z" fill="#E0E0E0"/>
<path d="M40.1736 20.7361V25.8553L40.0296 25.2913V20.8177L40.1736 20.7361Z" fill="#E0E0E0"/>
<path d="M42.7656 19.9417L42.492 20.1001V16.3105L42.7656 16.1497V19.9417Z" fill="#F0F0F0"/>
<path d="M43.2792 12.96C43.2789 13.1707 43.2555 13.3807 43.2096 13.5864C43.091 14.0906 43.0195 14.6049 42.996 15.1224V16.032L42.2592 16.4592V15.5352C42.2476 15.097 42.1757 14.6625 42.0456 14.244C41.9975 14.0672 41.9741 13.8847 41.976 13.7016C41.9769 13.4898 42.0019 13.2789 42.0504 13.0728L43.2 12.408C43.2565 12.5864 43.2832 12.7729 43.2792 12.96Z" fill="#E0E0E0"/>
<g opacity="0.1">
<path d="M43.2792 12.96C43.2789 13.1707 43.2555 13.3807 43.2096 13.5864C43.091 14.0906 43.0195 14.6049 42.996 15.1224V16.032L42.2592 16.4592V15.5352C42.2476 15.097 42.1757 14.6625 42.0456 14.244C41.9975 14.0672 41.9741 13.8847 41.976 13.7016C41.9769 13.4898 42.0019 13.2789 42.0504 13.0728L43.2 12.408C43.2565 12.5864 43.2832 12.7729 43.2792 12.96Z" fill="black"/>
</g>
<path d="M42.9984 16.5576L42.2592 16.9848V16.4592L42.9984 16.0344V16.5576Z" fill="#EBEBEB"/>
<path d="M43.0128 19.0945V23.5681L42.8712 24.2977L42.384 24.5785L42.2424 24.0145V19.5409L43.0128 19.0945Z" fill="#F5F5F5"/>
<path d="M43.0128 19.0945V23.5681L42.8712 24.2977V19.1785L43.0128 19.0945Z" fill="#E0E0E0"/>
<path d="M42.384 19.4592V24.5784L42.2424 24.0144V19.5408L42.384 19.4592Z" fill="#E0E0E0"/>
<path d="M44.9088 18.7056L44.6328 18.864V15.072L44.9088 14.9136V18.7056Z" fill="#F0F0F0"/>
<path d="M45.42 11.712C45.4196 11.922 45.3963 12.1312 45.3504 12.336C45.2339 12.8406 45.1632 13.3547 45.1392 13.872V14.796L44.4 15.2232V14.2992C44.3878 13.8613 44.3168 13.427 44.1888 13.008C44.1396 12.8307 44.1162 12.6472 44.1192 12.4632C44.1189 12.2522 44.1439 12.0419 44.1936 11.8368L45.36 11.1672C45.406 11.345 45.4262 11.5285 45.42 11.712Z" fill="#E0E0E0"/>
<g opacity="0.1">
<path d="M45.42 11.712C45.4196 11.922 45.3963 12.1312 45.3504 12.336C45.2339 12.8406 45.1632 13.3547 45.1392 13.872V14.796L44.4 15.2232V14.2992C44.3878 13.8613 44.3168 13.427 44.1888 13.008C44.1396 12.8307 44.1162 12.6472 44.1192 12.4632C44.1189 12.2522 44.1439 12.0419 44.1936 11.8368L45.36 11.1672C45.406 11.345 45.4262 11.5285 45.42 11.712Z" fill="black"/>
</g>
<path d="M45.1416 15.3217L44.4024 15.7489V15.2233L45.1416 14.7961V15.3217Z" fill="#EBEBEB"/>
<path d="M45.0864 17.8992V22.3728L44.9424 23.1024L44.6016 23.2992L44.4576 22.7352V18.2616L45.0864 17.8992Z" fill="#F5F5F5"/>
<path d="M45.0864 17.8992V22.3728L44.9424 23.1024V17.9808L45.0864 17.8992Z" fill="#E0E0E0"/>
<path d="M44.6016 18.1799V23.2991L44.4576 22.7351V18.2615L44.6016 18.1799Z" fill="#E0E0E0"/>
<path d="M13.7208 58.5287L12.192 59.4095V45.4823L13.7208 44.5991V58.5287Z" fill="#F0F0F0"/>
<path d="M12.528 59.2177L12.192 59.4097V45.4825L12.528 45.2881V59.2177Z" fill="#FAFAFA"/>
<path d="M13.7208 58.5287L13.3872 58.7207V44.7911L13.7208 44.5991V58.5287Z" fill="#E0E0E0"/>
<path d="M13.1727 45.9961C13.2411 45.7731 13.2001 45.5627 13.0809 45.5261C12.9618 45.4896 12.8098 45.6407 12.7414 45.8638C12.6729 46.0868 12.714 46.2972 12.8331 46.3338C12.9522 46.3703 13.1043 46.2192 13.1727 45.9961Z" fill="#E0E0E0"/>
<path d="M12.8937 58.1719L12.1597 58.595L12.228 58.7135L12.962 58.2904L12.8937 58.1719Z" fill="#E0E0E0"/>
<path d="M12.8982 57.3734L12.1642 57.7966L12.2326 57.9151L12.9665 57.4919L12.8982 57.3734Z" fill="#E0E0E0"/>
<path d="M12.8973 56.5795L12.1634 57.0027L12.2317 57.1212L12.9656 56.698L12.8973 56.5795Z" fill="#E0E0E0"/>
<path d="M12.8965 55.7833L12.1625 56.2065L12.2309 56.3251L12.9648 55.9018L12.8965 55.7833Z" fill="#E0E0E0"/>
<path d="M12.8968 54.9916L12.1629 55.4148L12.2312 55.5333L12.9652 55.1101L12.8968 54.9916Z" fill="#E0E0E0"/>
<path d="M12.896 54.1979L12.1621 54.6211L12.2304 54.7396L12.9644 54.3164L12.896 54.1979Z" fill="#E0E0E0"/>
<path d="M12.8952 53.4042L12.1613 53.8274L12.2296 53.9459L12.9635 53.5227L12.8952 53.4042Z" fill="#E0E0E0"/>
<path d="M12.8979 52.6124L12.164 53.0356L12.2323 53.1542L12.9663 52.7309L12.8979 52.6124Z" fill="#E0E0E0"/>
<path d="M12.8927 51.8203L12.1588 52.2434L12.2271 52.3619L12.9611 51.9388L12.8927 51.8203Z" fill="#E0E0E0"/>
<path d="M12.8963 51.0226L12.1624 51.4458L12.2307 51.5643L12.9646 51.1411L12.8963 51.0226Z" fill="#E0E0E0"/>
<path d="M12.8966 50.2308L12.1627 50.6541L12.231 50.7726L12.9649 50.3493L12.8966 50.2308Z" fill="#E0E0E0"/>
<path d="M12.8958 49.4369L12.1619 49.8601L12.2302 49.9786L12.9641 49.5554L12.8958 49.4369Z" fill="#E0E0E0"/>
<path d="M12.8949 48.6432L12.161 49.0664L12.2293 49.1849L12.9633 48.7617L12.8949 48.6432Z" fill="#E0E0E0"/>
<path d="M12.8977 47.8492L12.1638 48.2725L12.2321 48.391L12.966 47.9678L12.8977 47.8492Z" fill="#E0E0E0"/>
<path d="M12.8968 47.0553L12.1629 47.4785L12.2312 47.597L12.9652 47.1738L12.8968 47.0553Z" fill="#E0E0E0"/>
<path d="M19.0368 43.6706V51.317L20.5632 50.4338V42.7874L19.0368 43.6706Z" fill="#F0F0F0"/>
<path d="M19.0368 43.6705V51.3169L19.3704 51.1225V43.4785L19.0368 43.6705Z" fill="#FAFAFA"/>
<path d="M20.2296 42.9818V50.6258L20.5656 50.4338V42.7874L20.2296 42.9818Z" fill="#E0E0E0"/>
<path d="M19.7337 50.0787L18.9998 50.502L19.0682 50.6205L19.8021 50.1972L19.7337 50.0787Z" fill="#E0E0E0"/>
<path d="M19.7329 49.2848L18.999 49.708L19.0674 49.8265L19.8013 49.4033L19.7329 49.2848Z" fill="#E0E0E0"/>
<path d="M19.7321 48.4886L18.9982 48.9119L19.0665 49.0304L19.8004 48.6072L19.7321 48.4886Z" fill="#E0E0E0"/>
<path d="M19.7348 47.6969L19.0009 48.1201L19.0693 48.2386L19.8032 47.8154L19.7348 47.6969Z" fill="#E0E0E0"/>
<path d="M19.734 46.9032L19.0001 47.3264L19.0684 47.4449L19.8023 47.0217L19.734 46.9032Z" fill="#E0E0E0"/>
<path d="M19.7332 46.1095L18.9993 46.5327L19.0676 46.6512L19.8015 46.228L19.7332 46.1095Z" fill="#E0E0E0"/>
<path d="M19.7335 45.3178L18.9996 45.741L19.0679 45.8595L19.8018 45.4363L19.7335 45.3178Z" fill="#E0E0E0"/>
<path d="M19.7327 44.5216L18.9988 44.9448L19.0671 45.0633L19.801 44.6401L19.7327 44.5216Z" fill="#E0E0E0"/>
<path d="M19.7342 43.7279L19.0003 44.1511L19.0686 44.2696L19.8026 43.8464L19.7342 43.7279Z" fill="#E0E0E0"/>
<path d="M15.7104 43.4522L20.3664 40.7642V42.9026L15.7104 45.5906V43.4522Z" fill="#E0E0E0"/>
<path opacity="0.1" d="M15.7104 43.4522L20.3664 40.7642V42.9026L15.7104 45.5906V43.4522Z" fill="black"/>
<path d="M19.9512 42.0721C19.9529 42.1775 19.9304 42.2818 19.8855 42.3771C19.8405 42.4723 19.7743 42.556 19.692 42.6217C19.548 42.7057 19.4304 42.5929 19.4304 42.3817C19.4288 42.2762 19.4516 42.1717 19.4969 42.0764C19.5423 41.981 19.609 41.8975 19.692 41.8321C19.8336 41.7409 19.9512 41.8513 19.9512 42.0721Z" fill="#F0F0F0"/>
<path d="M14.9376 50.1072V57.84L19.9536 54.9432L14.9376 50.1072ZM15.84 52.968L17.76 54.7992L15.84 55.8984V52.968Z" fill="#F0F0F0"/>
<path d="M14.9376 57.8304L15.1704 57.3384L19.7208 54.7104L19.9536 54.9336L14.9376 57.8304Z" fill="#E0E0E0"/>
<path d="M15.1704 57.3384V50.3304L14.9376 50.1072V57.8304L15.1704 57.3384Z" fill="#FAFAFA"/>
<path d="M42.972 30.0936V29.2632L38.7888 31.68V32.5104L42.972 30.0936Z" fill="#F0F0F0"/>
<path d="M38.832 34.6369V34.2145C38.8435 34.0257 38.8832 33.8397 38.9496 33.6625L39.156 33.1177C39.2224 32.9406 39.262 32.7546 39.2736 32.5657V30.8857C39.2736 30.7513 39.2232 30.6649 39.1632 30.6817C39.0514 30.7266 38.9275 30.7315 38.8126 30.6957C38.6976 30.6598 38.5985 30.5854 38.532 30.4849C38.2704 29.9857 38.2704 28.7209 39.1056 27.9001C39.1056 27.9001 38.3448 28.1017 37.9968 29.4457C37.7766 30.3467 37.6861 31.2744 37.728 32.2009C37.728 32.3377 37.728 32.5537 37.728 32.6809V33.9073C37.7241 34.0256 37.7479 34.1431 37.7976 34.2505L37.8816 34.3753C37.9302 34.483 37.9532 34.6005 37.9488 34.7185V35.4745C37.9488 35.6089 38.0568 35.7457 38.1288 35.6689L38.7048 35.0161C38.7854 34.9059 38.8298 34.7735 38.832 34.6369Z" fill="#E0E0E0"/>
<path d="M39.096 35.1001V34.7449C39.096 34.6225 39.0216 34.5673 38.9304 34.6201L37.8936 35.2177C37.8424 35.2539 37.8006 35.3017 37.7714 35.3572C37.7422 35.4127 37.7265 35.4742 37.7256 35.5369V35.8921C37.7256 36.0145 37.8 36.0721 37.8936 36.0193L38.9304 35.4193C38.9811 35.3828 39.0225 35.3349 39.0512 35.2794C39.08 35.224 39.0953 35.1626 39.096 35.1001Z" fill="#E0E0E0"/>
<path opacity="0.1" d="M38.832 34.3584V34.6752L37.9488 35.1864V34.8672L38.832 34.3584Z" fill="black"/>
<path d="M45.444 27.9552V28.56C45.4427 28.6663 45.4164 28.7708 45.3672 28.865C45.318 28.9593 45.2473 29.0406 45.1608 29.1024L42.6024 30.5808V29.2296L45.1608 27.7512C45.3192 27.6504 45.444 27.7464 45.444 27.9552Z" fill="#E0E0E0"/>
<path d="M94.0008 38.7241L85.404 76.5385L94.2168 81.6265L102.814 43.8145L94.0008 38.7241Z" fill="#FF6F00"/>
<path opacity="0.4" d="M94.0008 38.7241L85.404 76.5385L94.2168 81.6265L102.814 43.8145L94.0008 38.7241Z" fill="white"/>
<path opacity="0.05" d="M90.0144 79.2002C90.4344 77.3618 90.8784 75.4922 91.1688 74.7194C91.6008 73.5722 92.3904 72.5834 92.9328 70.2002C92.9328 70.2002 92.6232 72.8042 91.9728 74.0234C91.56 74.7938 90.9264 77.3546 90.444 79.445L90.0144 79.2002Z" fill="white"/>
<path opacity="0.05" d="M101.76 43.2002C101.28 45.3002 99.3264 54.1634 99.1416 55.2002C98.604 58.2362 98.1816 60.8834 97.3032 64.8482C97.3032 64.8482 97.836 63.0794 98.6232 59.057C98.9928 57.1682 99.3048 55.421 99.4752 54.5114C99.6456 53.6018 101.974 43.3178 101.974 43.3178L101.76 43.2002Z" fill="white"/>
<path opacity="0.1" d="M90.5112 79.4881L90.7152 78.5857C91.416 75.4993 91.92 73.4401 92.4456 72.2401C92.9712 71.0401 93.576 68.4433 93.8256 67.2673C93.6308 68.6102 93.3608 69.9411 93.0168 71.2537C92.3832 73.7833 92.0232 74.1073 91.188 77.7505L90.7584 79.6417L90.5112 79.4881Z" fill="black"/>
<path opacity="0.1" d="M101.254 42.9146C100.752 45.1202 99.0768 52.4954 98.8104 53.6642C98.544 54.833 98.4072 57.8666 98.064 59.3738C98.3132 58.4936 98.4954 57.5958 98.6088 56.6882C98.82 55.0754 101.158 44.4818 101.489 43.0466L101.254 42.9146Z" fill="black"/>
<path opacity="0.05" d="M92.592 80.6905C93.0912 78.4945 94.2024 73.6321 94.62 71.8105C95.1504 69.4729 96.2496 65.7265 96.9336 62.4289C97.5792 59.3617 97.9416 56.9881 97.9968 56.6689C97.8171 58.6536 97.5246 60.6264 97.1208 62.5777C96.5352 65.1601 95.3616 69.8017 94.7208 72.6337C94.2912 74.5273 93.4368 78.2881 92.8488 80.8393L92.592 80.6905Z" fill="white"/>
<path opacity="0.05" d="M99.7176 42.0266C99.2232 44.1866 97.596 51.3626 97.2048 53.0666C96.8136 54.7706 96.072 57.3026 95.4096 60.2114C94.7472 63.1202 94.3632 65.5946 94.104 67.5122C93.8448 69.4298 93.384 71.4482 93.384 71.4482C93.8198 69.8592 94.1667 68.2471 94.4232 66.6194C94.9228 63.4355 95.6153 60.285 96.4968 57.185C97.38 54.2306 99.9864 42.1778 99.9864 42.1778L99.7176 42.0266Z" fill="white"/>
<path opacity="0.05" d="M89.9208 79.1473C90.7704 75.3073 92.4264 67.8529 92.976 65.4361C93.72 62.1937 94.7544 57.9961 94.7544 57.9961C94.7544 57.9961 93.3384 64.9393 91.7784 71.8033C90.9456 75.4441 90.4512 77.6209 90.0792 79.2433L89.9208 79.1473Z" fill="white"/>
<path opacity="0.1" d="M98.9112 41.5608C98.9112 41.5608 95.5032 56.5488 94.5408 60.7728C93.5784 64.9968 92.7192 69.8256 92.7192 69.8256C92.7192 69.8256 93.6528 66.396 94.8384 61.2072C95.1888 59.6712 99.2616 41.7672 99.2616 41.7672L98.9112 41.5656V41.5608Z" fill="black"/>
<path opacity="0.1" d="M93.2136 81.0481C93.8688 78.1681 94.8936 73.6321 95.28 71.9857C95.8224 69.6025 97.3176 63.4801 97.68 62.0281C97.68 62.0281 96.4464 68.1937 94.6032 76.2793L93.4752 81.2041L93.2136 81.0481Z" fill="black"/>
<path opacity="0.1" d="M92.2368 80.4841C92.7816 78.0841 93.5472 74.7409 93.888 73.2457C94.404 70.9753 95.8464 65.8058 96.3768 63.4682C96.9072 61.1306 100.178 45.6025 100.843 42.6793L100.538 42.5042C100.126 44.3186 96.2856 58.7809 95.484 62.3017C94.6824 65.8225 94.3464 69.7129 93.8472 71.9017C93.504 73.4065 92.5536 77.5633 91.9272 80.3017L92.2368 80.4841ZM94.9056 67.6801C94.7568 67.5937 95.2728 64.4905 95.7432 62.4242C96.156 60.6049 97.14 57.0817 97.2768 57.1609C97.4136 57.2401 96.6816 60.8162 96.2472 62.7241C95.8128 64.6322 95.0544 67.7665 94.9056 67.6801Z" fill="black"/>
<path opacity="0.05" d="M91.0776 79.8146C91.4952 77.9762 91.9392 76.1018 92.2008 75.3146C92.5896 74.1458 93.2424 73.0802 93.7848 70.697C93.7848 70.697 93.4056 73.253 92.8416 74.537C92.4888 75.3434 91.8624 77.897 91.3848 79.9994L91.0776 79.8146Z" fill="white"/>
<path opacity="0.05" d="M88.8 78.492C89.6088 75.0144 90.5952 70.8456 90.7944 70.1376C91.6272 67.1544 92.3952 64.6176 93.336 60.5256C93.336 60.5256 93.0192 62.4936 91.98 66.5256C91.5 68.4216 91.02 70.1256 90.78 71.0472C90.6312 71.604 89.748 75.4392 89.0184 78.6168L88.8 78.492Z" fill="white"/>
<path opacity="0.1" d="M94.7112 39.1489L93.9024 42.7201C93.1824 45.9145 92.7312 48.0841 92.6256 49.5913C92.52 51.0985 91.9368 53.8009 91.644 54.9985C92.0568 53.6778 92.3949 52.3349 92.6568 50.9761C93.2112 48.2929 93.0624 47.6593 93.9192 43.8889C94.776 40.1185 94.9608 39.2953 94.9608 39.2953L94.7112 39.1489Z" fill="black"/>
<path opacity="0.1" d="M88.2648 78.192C88.956 75.1512 89.7048 71.8488 89.8944 71.0352C90.168 69.8352 91.2936 67.2864 91.6488 65.7192C91.492 66.6286 91.2666 67.5248 90.9744 68.4C90.6336 69.444 89.4096 74.5272 88.5144 78.3312L88.2648 78.192Z" fill="black"/>
<path opacity="0.05" d="M96.5232 41.544L94.1088 52.188C93.5616 54.6024 92.8656 58.7376 92.0424 62.088C91.2192 65.4384 90.4824 67.8288 90.4824 67.8288C91.1869 65.9774 91.776 64.0842 92.2464 62.16C92.8536 59.484 93.8544 54.5592 94.5192 51.624C95.184 48.6888 97.0464 40.4856 97.0464 40.4856L96.948 40.4304L96.5232 41.544Z" fill="white"/>
<path opacity="0.05" d="M86.7264 77.3041C87.4104 74.3089 88.1664 71.0209 88.4304 69.8377C88.8288 68.0545 89.2992 65.2777 89.9784 62.2585C90.6576 59.2393 91.3776 56.8705 91.9704 55.0585C92.5632 53.2465 93.0336 51.1777 93.0336 51.1777C92.7309 52.8453 92.3367 54.495 91.8528 56.1193C90.9081 59.3023 90.1484 62.5373 89.5776 65.8081C89.2296 67.9537 87.9456 73.5649 87.0336 77.4697L86.7264 77.3041Z" fill="white"/>
<path opacity="0.05" d="M94.1328 38.8152C94.1328 38.8152 91.0128 52.2096 90.2544 55.5696C89.496 58.9296 88.56 63.36 88.56 63.36C88.56 63.36 90.3168 56.3424 91.92 49.2408C93.5232 42.1392 94.2672 38.8944 94.2672 38.8944L94.1328 38.8152Z" fill="white"/>
<path opacity="0.1" d="M85.92 76.8385L89.5392 60.9169C90.528 56.5393 91.848 51.7969 91.848 51.7969C91.848 51.7969 91.1592 55.5121 89.9448 60.8857L86.2728 77.0401L85.92 76.8385Z" fill="black"/>
<path opacity="0.1" d="M97.416 40.6992C97.416 40.6992 95.256 50.2584 94.6872 52.7256C94.1184 55.1928 92.7672 61.6368 92.4576 63.1824C92.4576 63.1824 94.0344 56.9712 95.9328 48.5976L97.68 40.8576L97.416 40.6992Z" fill="black"/>
<path opacity="0.1" d="M87.8808 77.9689C89.2608 72.2089 91.62 62.5609 92.0472 60.6769C92.5896 58.2601 93.6048 52.6249 94.14 50.2705C94.6752 47.9161 96.4368 40.1353 96.4368 40.1353L96.1368 39.9697C96.1368 39.9697 94.0776 49.0273 93.5688 51.3025C93.06 53.5777 91.7136 57.0241 90.8832 60.6745C90.2688 63.4081 88.536 72.3985 87.4752 77.7361L87.8808 77.9689ZM90.1584 66.6457C90.0144 66.5617 90.7056 62.7241 91.1328 60.8401C91.6128 58.7017 92.4936 55.6873 92.6424 55.7737C92.7912 55.8601 92.088 59.1601 91.6392 61.1305C91.1904 63.1009 90.2952 66.7201 90.1584 66.6457Z" fill="black"/>
<path opacity="0.05" d="M95.28 39.4802C94.944 40.9514 93.876 45.5258 93.696 46.865C93.516 48.2042 93.576 49.745 93.0144 52.2026C93.0144 52.2026 93.7752 49.7618 93.8664 48.161C93.9576 46.5602 95.592 39.6458 95.592 39.6458L95.28 39.4802Z" fill="white"/>
<path d="M96.4032 37.8601L94.0008 38.7241L102.814 43.8145L105.216 42.9505L96.4032 37.8601Z" fill="#FF6F00"/>
<path opacity="0.6" d="M96.4032 37.8601L94.0008 38.7241L102.814 43.8145L105.216 42.9505L96.4032 37.8601Z" fill="white"/>
<path opacity="0.1" d="M100.538 42.5041L102.667 41.8345L100.843 42.6793L100.538 42.5041Z" fill="black"/>
<path opacity="0.1" d="M101.254 42.9146L102.37 42.6194L101.484 43.0466L101.254 42.9146Z" fill="black"/>
<path opacity="0.1" d="M98.9112 41.5609L101.002 40.9177L99.2616 41.7625L98.9112 41.5609Z" fill="black"/>
<path opacity="0.1" d="M96.1368 39.9698L98.28 39.3218L96.4368 40.1378L96.1368 39.9698Z" fill="black"/>
<path opacity="0.05" d="M94.1328 38.8176L95.6616 38.3064L94.2792 38.9016" fill="white"/>
<path opacity="0.05" d="M95.28 39.4801L97.6008 38.7241L95.5944 39.6457L95.28 39.4801Z" fill="white"/>
<path opacity="0.05" d="M101.765 43.2073L104.081 42.4441L101.978 43.3321L101.765 43.2073Z" fill="white"/>
<path d="M94.2168 81.6264L96.6192 80.7624L105.216 42.9504L102.814 43.8144L94.2168 81.6264Z" fill="#FF6F00"/>
<path opacity="0.3" d="M94.2168 81.6264L96.6192 80.7624L105.216 42.9504L102.814 43.8144L94.2168 81.6264Z" fill="white"/>
<path opacity="0.1" d="M94.2168 81.6264L96.6192 80.7624L105.216 42.9504L102.814 43.8144L94.2168 81.6264Z" fill="black"/>
<path opacity="0.1" d="M94.8336 81.4056L95.244 81.2569C95.628 80.0185 95.9376 79.2217 96.384 77.4337C96.7817 75.9205 97.0934 74.386 97.3176 72.8376C97.0248 74.2152 96.2928 77.28 95.6376 78.9648C95.3289 79.7645 95.0606 80.5791 94.8336 81.4056Z" fill="black"/>
<path opacity="0.05" d="M96.9264 77.2297C97.43 75.3716 97.8346 73.4882 98.1384 71.5873C98.7317 67.8478 99.5467 64.1468 100.579 60.5041C101.539 57.1969 104.064 45.6937 104.616 43.1641L104.206 43.3129C103.522 46.3297 101.791 53.9737 101.352 55.8841C100.889 57.9145 99.9768 61.0753 99.192 64.5241C98.4072 67.9729 97.992 70.7065 97.7208 72.7873C97.4592 74.7937 96.96 77.0881 96.9264 77.2297Z" fill="white"/>
<path opacity="0.1" d="M95.9016 76.4065C95.9448 76.2457 97.0632 72.0697 98.4408 66.0481C98.8224 64.3969 102.833 46.7473 103.558 43.5457L103.061 43.7233C102.398 46.6273 99.0288 61.4521 98.004 65.9545C96.8832 70.8745 95.9304 76.2433 95.9016 76.4065Z" fill="black"/>
<path opacity="0.1" d="M98.0616 74.4001L98.9688 70.4137C99.1512 69.2137 99.4488 67.5673 99.7632 66.2329C100.037 65.0329 100.536 63.1129 100.963 61.6729L104.03 48.1777C102.432 54.3793 100.049 63.5377 99.4032 66.3985C98.7336 69.2833 98.4 72.0937 98.0616 74.4001Z" fill="black"/>
<path opacity="0.05" d="M95.8248 81.0481L96.2256 80.9041L96.3 80.7121C96.9792 79.0321 97.3704 76.4569 97.416 76.1521C97.0112 77.8223 96.4793 79.4591 95.8248 81.0481Z" fill="white"/>
<path d="M99.6312 84.6265L112.085 27.4033L107.964 24.9529L95.508 82.1785L99.6312 84.6265Z" fill="#FF6F00"/>
<path opacity="0.5" d="M99.6312 84.6265L112.085 27.4033L107.964 24.9529L95.508 82.1785L99.6312 84.6265Z" fill="white"/>
<path d="M107.964 24.9529L110.234 23.8633L114.355 26.3113L112.085 27.4033L107.964 24.9529Z" fill="#FF6F00"/>
<path opacity="0.6" d="M107.964 24.9529L110.234 23.8633L114.355 26.3113L112.085 27.4033L107.964 24.9529Z" fill="white"/>
<path d="M99.6312 84.6265L101.899 83.5369L114.355 26.3113L112.085 27.4033L99.6312 84.6265Z" fill="#FF6F00"/>
<path opacity="0.4" d="M99.6312 84.6265L101.899 83.5369L114.355 26.3113L112.085 27.4033L99.6312 84.6265Z" fill="white"/>
<path opacity="0.1" d="M99.6312 84.6265L101.899 83.5369L114.355 26.3113L112.085 27.4033L99.6312 84.6265Z" fill="black"/>
<path opacity="0.05" d="M95.76 82.32C96.1944 80.3256 96.6528 78.2976 96.9432 77.4504C97.3728 76.1952 98.1432 75.0816 98.7 72.4968C98.7 72.4968 98.3496 75.3 97.7088 76.6512C97.3032 77.5032 96.6504 80.2848 96.1488 82.5528L95.76 82.32Z" fill="white"/>
<path opacity="0.05" d="M111.12 26.8274C110.623 29.105 108.403 39.5474 108.206 40.685C107.633 43.9706 106.121 51.701 105.199 56.0018C105.199 56.0018 105.739 54.0818 106.57 49.7186C106.961 47.6738 108.353 40.9106 108.535 39.9242C108.718 38.9378 111.317 26.945 111.317 26.945L111.12 26.8274Z" fill="white"/>
<path opacity="0.1" d="M96.2088 82.5937L96.4224 81.6169C97.1424 78.2569 97.6776 76.0417 98.1912 74.6977C98.7048 73.3537 100.63 64.6177 100.889 63.3457C100.889 63.3457 99.4008 70.8505 98.748 73.6057C98.0952 76.3609 97.7496 76.7257 96.8832 80.6761L96.4368 82.7305L96.2088 82.5937Z" fill="black"/>
<path opacity="0.1" d="M110.64 26.5464C110.117 28.9464 108.197 37.7832 107.918 39.0504C107.64 40.3176 106.382 48.4464 106.025 50.0904C106.025 50.0904 107.422 44.0424 107.659 42.3048C107.897 40.5672 110.513 28.2384 110.851 26.6808L110.64 26.5464Z" fill="black"/>
<path opacity="0.05" d="M98.1312 83.736C98.6496 81.3528 99.8112 76.0776 100.236 74.0928C100.788 71.5584 104.186 56.9928 104.904 53.4192C105.578 50.0952 107.035 42.6576 107.093 42.312C107.052 42.7176 105.653 50.94 105.074 53.5656C104.465 56.3664 100.978 71.8944 100.303 74.9688C99.8568 77.0232 98.9664 81.1032 98.3592 83.8728L98.1312 83.736Z" fill="white"/>
<path opacity="0.05" d="M109.226 25.7041C108.715 28.0537 106.841 36.6745 106.435 38.5345C106.03 40.3945 104.215 48.0169 103.526 51.1729C102.838 54.3289 101.431 61.5457 101.143 63.6145C100.855 65.6833 99.0984 73.8121 99.0984 73.8121C99.0984 73.8121 100.944 65.8537 101.474 62.6377C102.005 59.4217 103.73 51.0841 104.626 47.8609C105.521 44.6377 109.488 25.8577 109.488 25.8577L109.226 25.7041Z" fill="white"/>
<path opacity="0.05" d="M95.664 82.272C96.5496 78.1128 99.5664 64.0824 100.138 61.4592C100.908 57.9408 102.965 48.8232 102.965 48.8232C102.965 48.8232 99.1968 66.8232 97.5744 74.2752C96.7104 78.2256 96.1968 80.5896 95.8104 82.3584L95.664 82.272Z" fill="white"/>
<path opacity="0.1" d="M108.48 25.2625C108.48 25.2625 103.697 47.2368 102.696 51.8209C101.695 56.4049 98.4984 72.1104 98.4984 72.1104C98.4984 72.1104 101.736 57.8929 102.967 52.2649C103.332 50.5993 108.804 25.4545 108.804 25.4545L108.48 25.2625Z" fill="black"/>
<path opacity="0.1" d="M98.7048 84.0768C99.384 80.9568 100.454 76.0296 100.85 74.2368C101.412 71.6496 105.238 54.516 105.619 52.9368C105.619 52.9368 102.038 70.1016 100.123 78.8736L98.9544 84.2184L98.7048 84.0768Z" fill="black"/>
<path opacity="0.1" d="M97.8024 83.5416C98.3688 80.9376 99.1632 77.3016 99.516 75.6888C100.054 73.224 103.807 57.1056 104.357 54.5688C104.906 52.032 109.577 29.4888 110.268 26.3184L109.985 26.1504C109.558 28.1184 104.381 49.5624 103.548 53.3832C102.715 57.204 100.027 71.8632 99.5088 74.2632C99.1536 75.8976 98.1672 80.4096 97.5192 83.3832L97.8024 83.5416ZM101.882 63.7248C101.746 63.6432 103.289 55.7472 103.778 53.5032C104.208 51.5304 105.218 47.6952 105.338 47.7696C105.458 47.844 104.695 51.7176 104.244 53.7888C103.793 55.86 102.031 63.8064 101.892 63.7248H101.882Z" fill="black"/>
<path opacity="0.05" d="M96.732 82.9056C97.1664 80.9088 97.6248 78.876 97.8888 78.0144C98.28 76.7376 98.916 75.5544 99.48 72.9744C99.48 72.9744 99.0648 75.7344 98.508 77.1384C98.1576 78.0264 97.512 80.8128 97.0152 83.0808L96.732 82.9056Z" fill="white"/>
<path opacity="0.1" d="M109.985 26.1577L111.994 25.2937L110.266 26.3257L109.985 26.1577Z" fill="black"/>
<path opacity="0.1" d="M110.647 26.5465L111.698 26.1553L110.858 26.6737L110.647 26.5465Z" fill="black"/>
<path opacity="0.1" d="M108.482 25.2625L110.455 24.4297L108.806 25.4545L108.482 25.2625Z" fill="black"/>
<path opacity="0.05" d="M111.118 26.8274L113.306 25.8506L111.314 26.945L111.118 26.8274Z" fill="white"/>
<path opacity="0.1" d="M100.214 84.348L100.601 84.1608C100.99 82.8096 101.299 81.936 101.758 79.992C102.49 76.872 102.718 75.2088 102.739 75.0144C102.432 76.5072 101.676 79.8336 101.023 81.6816C100.735 82.4904 100.483 83.316 100.214 84.348Z" fill="black"/>
<path opacity="0.05" d="M102.271 79.7352C102.31 79.5864 104.263 71.1624 104.83 67.6824C105.415 64.0824 107.254 55.1688 108.362 51.1224C109.346 47.5224 113.215 29.3328 113.789 26.5896L113.402 26.7768C112.682 30.0504 110.71 39.1824 110.254 41.256C109.774 43.4592 107.784 51.7776 106.97 55.5096C106.157 59.2416 103.418 72.6864 103.116 74.9304C102.826 77.0952 102.302 79.5816 102.271 79.7352Z" fill="white"/>
<path opacity="0.1" d="M101.33 78.9289C101.374 78.7537 104.801 63.7273 106.231 57.1945C106.625 55.3993 112.037 30.5377 112.79 27.0625L112.31 27.2881L105.826 57.1201C104.659 62.4601 101.359 78.7513 101.33 78.9289Z" fill="black"/>
<path opacity="0.1" d="M103.399 76.6441L105.634 66.3793C105.833 65.0809 107.148 58.7569 107.465 57.3073C107.75 55.9969 108.262 53.9233 108.691 52.3417L113.122 31.9873C111.478 38.7313 107.791 54.4129 107.122 57.5017C106.43 60.6313 103.769 74.1433 103.399 76.6441Z" fill="black"/>
<path opacity="0.05" d="M101.15 83.8968L101.53 83.7144C101.554 83.64 101.578 83.5728 101.604 83.5056C102.278 81.66 102.703 78.8808 102.754 78.54C102.336 80.3585 101.8 82.1479 101.15 83.8968Z" fill="white"/>
<path d="M109.586 90.5521L111.098 40.7497L106.846 38.1433L105.336 87.9457L109.586 90.5521Z" fill="#FF6F00"/>
<path opacity="0.4" d="M109.586 90.5521L111.098 40.7497L106.846 38.1433L105.336 87.9457L109.586 90.5521Z" fill="white"/>
<path d="M106.846 38.1432L108.761 37.1064L113.011 39.7104L111.098 40.7496L106.846 38.1432Z" fill="#FF6F00"/>
<path opacity="0.5" d="M106.846 38.1432L108.761 37.1064L113.011 39.7104L111.098 40.7496L106.846 38.1432Z" fill="white"/>
<path d="M109.586 90.552L111.502 89.5128L113.011 39.7104L111.098 40.7496L109.586 90.552Z" fill="#FF6F00"/>
<path opacity="0.3" d="M109.586 90.552L111.502 89.5128L113.011 39.7104L111.098 40.7496L109.586 90.552Z" fill="white"/>
<path opacity="0.05" d="M105.6 88.1015C105.653 86.0903 105.725 84.0479 105.84 83.1959C106.018 81.9359 106.531 80.8295 106.598 78.2231C106.598 78.2231 106.766 81.0575 106.409 82.4087C106.183 83.2607 106.063 86.0639 105.998 88.3487L105.6 88.1015Z" fill="white"/>
<path opacity="0.05" d="M110.098 40.1377C110.038 42.4345 109.812 45.0985 109.829 46.2385C109.872 49.5505 109.829 57.3481 109.728 61.6849C109.728 61.6849 109.891 59.7457 109.896 55.3513C109.896 53.2897 110.004 46.4713 109.999 45.4753C109.994 44.4793 110.302 40.2625 110.302 40.2625L110.098 40.1377Z" fill="white"/>
<path opacity="0.1" d="M106.058 88.3898L106.085 87.4058C106.174 84.029 106.27 81.785 106.512 80.4458C106.754 79.1066 107.006 70.2962 107.023 69.0098C107.023 69.0098 106.958 76.577 106.836 79.3514C106.714 82.1258 106.459 82.4858 106.356 86.4698L106.301 88.5386L106.058 88.3898Z" fill="black"/>
<path opacity="0.1" d="M109.613 39.8401C109.548 42.2521 109.318 43.2937 109.284 44.5705C109.25 45.8473 109.507 54.0553 109.464 55.7041C109.464 55.7041 109.704 49.6129 109.613 47.8561C109.522 46.0993 109.79 41.5441 109.834 39.9745L109.613 39.8401Z" fill="black"/>
<path opacity="0.05" d="M108.041 89.6042C108.103 87.2042 108.247 81.8858 108.3 79.8866C108.367 77.333 108.962 62.657 109.001 59.0546C109.044 55.6946 109.092 48.2042 109.085 47.8538C109.118 48.2666 109.255 56.5634 109.188 59.2082C109.114 62.033 108.602 77.6882 108.516 80.7746C108.463 82.8458 108.355 86.957 108.276 89.7482L108.041 89.6042Z" fill="white"/>
<path opacity="0.05" d="M108.149 38.9424C108.086 41.3112 107.861 42.1296 107.813 44.004C107.765 45.8784 107.417 53.556 107.333 56.736C107.249 59.916 107.208 67.1952 107.306 69.2856C107.405 71.376 107.198 79.5672 107.198 79.5672C107.198 79.5672 107.513 71.5488 107.438 68.304C107.364 65.0592 107.501 56.652 107.767 53.4096C108.034 50.1672 108.415 39.108 108.415 39.108L108.149 38.9424Z" fill="white"/>
<path opacity="0.05" d="M105.499 88.0463C105.588 83.8535 105.924 69.7127 105.994 67.0703C106.092 63.5231 106.399 54.3359 106.399 54.3359C106.399 54.3359 106.063 72.4895 105.866 79.9919C105.758 83.9735 105.696 86.3543 105.648 88.1375L105.499 88.0463Z" fill="white"/>
<path opacity="0.1" d="M107.381 38.472C107.381 38.472 106.8 52.7496 106.678 57.36C106.555 61.9704 106.346 77.8152 106.346 77.8152C106.346 77.8152 106.853 63.492 107.006 57.8184C107.052 56.1384 107.726 38.6664 107.726 38.6664L107.39 38.4624L107.381 38.472Z" fill="black"/>
<path opacity="0.1" d="M108.631 89.9663C108.715 86.8127 108.845 81.8568 108.898 80.0567C108.965 77.4503 109.507 60.1847 109.582 58.5959C109.582 58.5959 109.272 75.8975 109.037 84.7391L108.89 90.1247L108.631 89.9663Z" fill="black"/>
<path opacity="0.1" d="M107.702 89.3953C107.77 86.7721 107.87 83.1169 107.914 81.4753C107.978 78.9913 108.634 62.7553 108.698 60.2065C108.763 57.6577 109.138 42.7921 109.222 39.5953L108.931 39.4177C108.881 41.4025 107.842 55.1281 107.731 58.9801C107.621 62.8321 107.71 77.6257 107.647 80.0257C107.604 81.6721 107.482 86.2201 107.407 89.2105L107.702 89.3953ZM108.019 69.4201C107.875 69.3313 107.923 61.3681 107.983 59.1001C108.034 57.1105 108.29 53.2489 108.422 53.3401C108.554 53.4313 108.518 57.3241 108.463 59.4097C108.408 61.4953 108.161 69.5065 108.019 69.4201Z" fill="black"/>
<path opacity="0.05" d="M106.598 88.7208C106.651 86.7096 106.721 84.66 106.814 83.7936C106.954 82.5096 107.333 81.3288 107.402 78.7224C107.402 78.7224 107.501 81.5088 107.232 82.9152C107.062 83.8056 106.954 86.6136 106.891 88.8984L106.598 88.7208Z" fill="white"/>
<path opacity="0.1" d="M108.931 39.4249L110.642 38.6089L109.222 39.6025L108.931 39.4249Z" fill="black"/>
<path opacity="0.1" d="M109.613 39.8401L110.52 39.4729L109.834 39.9745L109.613 39.8401Z" fill="black"/>
<path opacity="0.1" d="M107.381 38.4721L109.066 37.6873L107.717 38.6785L107.381 38.4721Z" fill="black"/>
<path opacity="0.05" d="M110.098 40.1376L111.955 39.2112L110.302 40.2624L110.098 40.1376Z" fill="white"/>
<path opacity="0.1" d="M110.078 90.2857L110.405 90.1081C110.527 88.7497 110.662 87.8713 110.748 85.9129C110.878 82.7737 110.796 81.0913 110.784 80.8945C110.762 82.3993 110.642 85.7497 110.362 87.6145C110.237 88.4185 110.16 89.2465 110.078 90.2857Z" fill="black"/>
<path opacity="0.05" d="M111.178 85.6801C111.178 85.5313 111.521 77.0401 111.434 73.5313C111.348 69.9049 111.487 60.9121 111.804 56.8345C112.085 53.2081 112.481 42.7441 112.524 39.9817L112.198 40.1569C112.111 43.4569 111.876 44.7913 111.818 46.8769C111.758 49.0969 111.374 57.4753 111.274 61.2361C111.173 64.9969 110.995 78.5521 111.108 80.8201C111.23 83.0089 111.18 85.5145 111.178 85.6801Z" fill="white"/>
<path opacity="0.1" d="M110.16 84.8231C110.16 84.6455 110.712 69.5087 110.892 62.9231C110.942 61.1135 111.6 43.9295 111.689 40.4255L111.293 40.6415C111.209 43.8167 110.633 57.9215 110.503 62.8367C110.362 68.2175 110.16 84.6431 110.16 84.8231Z" fill="black"/>
<path opacity="0.1" d="M111.682 82.56L111.953 72.2137C111.91 70.9033 112.018 64.5336 112.058 63.0672C112.092 61.7472 112.202 59.6592 112.325 58.068L112.86 45.4272C112.519 52.2168 111.852 60.144 111.77 63.2568C111.682 66.4152 111.586 80.0424 111.682 82.56Z" fill="black"/>
<path opacity="0.05" d="M110.88 89.8561L111.199 89.6833C111.199 89.6089 111.221 89.5393 111.23 89.4721C111.533 87.6217 111.442 84.8137 111.427 84.4705C111.363 86.2757 111.18 88.0748 110.88 89.8561Z" fill="white"/>
<path d="M51.2256 92.719L39.4008 101.251L36.1656 103.586L34.632 104.469C34.6297 104.47 34.6273 104.471 34.6248 104.471C34.6223 104.471 34.6198 104.47 34.6176 104.469C34.5699 104.498 34.5181 104.52 34.464 104.534L35.9568 103.459L39.3024 101.047L49.344 93.799L51.2256 92.719Z" fill="#263238"/>
<path d="M45.312 111.031L45.2424 110.995C45.2424 110.995 44.5512 110.599 44.0976 110.338C43.8445 110.175 43.6365 109.951 43.4928 109.687L30.5328 82.9368L32.4144 84.0216L44.7648 109.493L45.5376 111.079C45.4602 111.076 45.3839 111.06 45.312 111.031Z" fill="#37474F"/>
<path d="M47.0616 110.335L45.924 110.99C45.8037 111.061 45.6644 111.092 45.5256 111.079L44.7528 109.493L32.4 84.0216L34.2816 82.9368L47.2608 109.68C47.3156 109.794 47.3256 109.925 47.2887 110.046C47.2518 110.168 47.1708 110.271 47.0616 110.335Z" fill="#263238"/>
<path d="M40.308 100.325L42.1896 99.2373L51.2256 92.7166L49.3416 93.8038L40.308 100.325Z" fill="black"/>
<path d="M39.3024 101.052L35.9568 103.464L34.464 104.539C34.3784 104.564 34.2888 104.57 34.2005 104.559C34.1123 104.548 34.0272 104.519 33.9504 104.474C33.9504 104.474 33.2592 104.081 32.8032 103.817C32.754 103.797 32.7116 103.764 32.6809 103.72C32.6502 103.677 32.6325 103.626 32.63 103.574C32.6274 103.521 32.6401 103.468 32.6666 103.422C32.6931 103.377 32.7321 103.339 32.7792 103.315L47.4864 92.7334L49.344 93.8038L39.3024 101.052Z" fill="#37474F"/>
<path d="M36.54 103.315C36.3336 103.464 35.9856 103.689 35.7648 103.817L34.632 104.469C34.5792 104.5 34.5227 104.523 34.464 104.539L35.9568 103.464L39.3024 101.052L39.4008 101.251L36.54 103.315Z" fill="black"/>
<path d="M85.3464 73.0198L73.5216 81.5494L70.2864 83.8846L68.7528 84.7702C68.7505 84.7712 68.7481 84.7718 68.7456 84.7718C68.7431 84.7718 68.7406 84.7712 68.7384 84.7702C68.6901 84.7982 68.6385 84.82 68.5848 84.835L70.08 83.7598L73.4232 81.3598L83.4648 74.1142L85.3464 73.0198Z" fill="#263238"/>
<path d="M79.44 91.3319L79.3704 91.2959L78.2256 90.636C77.9721 90.475 77.7639 90.252 77.6208 89.988L64.6416 63.2375L66.5232 64.3224L78.8736 89.7936L79.6464 91.3776C79.5756 91.3732 79.506 91.3578 79.44 91.3319Z" fill="#37474F"/>
<path d="M81.1824 90.6359L80.0448 91.2911C79.9247 91.362 79.785 91.3923 79.6464 91.3775L78.8736 89.7935L66.5232 64.3199L68.4048 63.2351L81.3816 89.9999C81.431 90.1121 81.438 90.2383 81.4014 90.3553C81.3647 90.4722 81.2869 90.5719 81.1824 90.6359Z" fill="#263238"/>
<path d="M74.4288 80.6253L76.3128 79.5381L85.3464 73.0173L83.4624 74.1045L74.4288 80.6253Z" fill="black"/>
<path d="M73.4232 81.3598L70.08 83.7598L68.5872 84.835C68.5016 84.8588 68.4121 84.8653 68.3239 84.8542C68.2357 84.8431 68.1506 84.8145 68.0736 84.7702C68.0736 84.7702 67.3824 84.3742 66.9288 84.1126C66.8795 84.0932 66.8369 84.06 66.8059 84.0171C66.775 83.9741 66.7571 83.9231 66.7543 83.8703C66.7515 83.8174 66.764 83.7648 66.7902 83.7189C66.8165 83.6729 66.8554 83.6354 66.9024 83.611L81.6 73.0342L83.4576 74.1046L73.4232 81.3598Z" fill="#37474F"/>
<path d="M70.6632 83.6135C70.4544 83.7647 70.1064 83.9903 69.8856 84.1175L68.7528 84.7703C68.6995 84.7995 68.6431 84.8228 68.5848 84.8399L70.08 83.7599L73.4232 81.3599L73.5216 81.5591L70.6632 83.6135Z" fill="black"/>
<path d="M23.928 79.2094L50.2488 94.4062L93.1464 69.6406L66.8232 54.4438L23.928 79.2094Z" fill="#455A64"/>
<path d="M38.5512 85.399L39.5256 85.963L50.2488 79.771L49.2768 79.207L38.5512 85.399Z" fill="#263238"/>
<path d="M23.928 79.2095V81.4607L50.2512 96.6575L50.2488 94.4063L23.928 79.2095Z" fill="#263238"/>
<path d="M93.1464 69.6406V71.8918L50.2512 96.6574L50.2488 94.4062L93.1464 69.6406Z" fill="#37474F"/>
<path d="M96.072 58.9463L59.0256 80.3351L45.3768 72.4559L82.4232 51.0671L96.072 58.9463Z" fill="#FF6F00"/>
<path opacity="0.05" d="M91.8696 56.52C90.0696 57.5616 88.2456 58.6344 87.5328 59.16C86.4744 59.9424 85.7232 60.9552 83.388 62.3016C83.388 62.3016 86.0472 61.056 87.0984 60.0648C87.7608 59.4384 90.2496 57.948 92.292 56.76L91.8696 56.52Z" fill="white"/>
<path opacity="0.05" d="M57.9767 79.7304C60.0335 78.5304 68.7383 73.5768 69.7823 73.0272C72.8159 71.4312 75.4775 70.0848 79.3703 67.8552C79.3703 67.8552 77.6903 68.9592 73.6967 71.1336C71.8247 72.1536 70.0799 73.0728 69.1727 73.5576C68.2655 74.0424 58.1903 79.8528 58.1903 79.8528L57.9767 79.7304Z" fill="white"/>
<path opacity="0.1" d="M92.364 56.8079L91.4832 57.3167C88.4568 59.0639 86.4672 60.2591 85.3632 61.1423C84.2592 62.0255 81.7464 63.5015 80.5848 64.1519C80.5848 64.1519 82.068 63.4559 84.5304 61.9751C86.9928 60.4943 87.192 60.0863 90.7704 58.0199L92.6232 56.9495L92.364 56.8079Z" fill="black"/>
<path opacity="0.1" d="M57.4656 79.44C59.6256 78.1896 66.8544 74.0208 67.9992 73.3608C69.144 72.7008 72.3192 71.424 73.8048 70.5696C72.9501 71.1139 72.062 71.6037 71.1456 72.036C69.5088 72.8256 59.1024 78.756 57.7056 79.572L57.4656 79.44Z" fill="black"/>
<path opacity="0.05" d="M94.4472 58.0081L85.7424 63.0481C83.4552 64.3681 79.8768 66.6865 76.6224 68.4985C73.5984 70.1929 71.2056 71.3953 70.884 71.5609C71.2752 71.3881 74.484 69.9601 76.8528 68.5921C79.3824 67.1305 83.8848 64.4113 86.6568 62.8057C88.512 61.7353 92.196 59.6065 94.6944 58.1593L94.4472 58.0081Z" fill="white"/>
<path opacity="0.05" d="M55.92 78.547L66.7464 72.307C68.4264 71.335 70.8264 69.775 73.68 68.1286C76.5336 66.4822 79.0224 65.2246 80.9688 64.2886C82.9152 63.3526 84.9 62.2126 84.9 62.2126C84.9 62.2126 83.1288 63.3598 80.1432 64.8958C77.1576 66.4318 73.6896 68.3326 70.8744 70.1758C68.0592 72.019 56.2104 78.7198 56.2104 78.7198L55.92 78.547Z" fill="white"/>
<path opacity="0.05" d="M91.776 56.467C88.0104 58.627 80.688 62.8054 78.3192 64.1734C75.144 66.0118 71.04 68.455 71.04 68.455C71.04 68.455 77.9064 64.6582 84.6288 60.775L91.9248 56.5582L91.776 56.467Z" fill="white"/>
<path opacity="0.1" d="M55.1208 78.0816L73.944 67.212C78.0792 64.812 82.9032 62.28 82.9032 62.28C82.9032 62.28 79.6008 64.344 74.5224 67.284C73.02 68.1552 55.4736 78.2856 55.4736 78.2856L55.1208 78.0816Z" fill="black"/>
<path opacity="0.1" d="M95.0664 58.3679C92.2416 59.9975 87.8016 62.5631 86.1864 63.4991C83.8512 64.8455 77.8944 68.3927 76.4856 69.2447C76.4856 69.2447 82.5912 65.8847 90.5112 61.3247L95.3328 58.5359L95.0664 58.3679Z" fill="black"/>
<path opacity="0.1" d="M93.7847 57.6262L85.5575 62.383C83.3975 63.6238 79.3871 65.3878 75.9383 67.3798C72.4895 69.3718 58.5311 77.995 56.7527 79.0198L57.0575 79.195C59.9231 77.5438 75.2471 68.9662 77.5247 67.6462C79.8023 66.3262 84.7775 63.187 87.0023 61.9006L94.0799 57.8038L93.7847 57.6262ZM76.6799 67.8286C74.8103 68.9062 71.2847 70.8694 71.1407 70.7854C70.9967 70.7014 74.3855 68.5678 76.1687 67.5382C78.1919 66.3694 81.3023 64.7662 81.4487 64.8526C81.5951 64.939 78.5423 66.751 76.6799 67.8286Z" fill="black"/>
<path opacity="0.05" d="M92.9328 57.1343C91.1304 58.1759 89.3016 59.2487 88.56 59.7599C87.4632 60.5207 86.5776 61.4399 84.24 62.7983C84.24 62.7983 86.8224 61.5119 87.9648 60.5735C88.6848 59.9807 91.188 58.4975 93.2448 57.3119L92.9328 57.1343Z" fill="white"/>
<path opacity="0.05" d="M49.1832 74.6519C51.42 73.3583 60.8904 67.9535 62.0232 67.3535C65.3112 65.6087 68.196 64.1351 72.4296 61.7063C72.4296 61.7063 70.5888 62.9063 66.2544 65.2751C64.2216 66.3887 62.3304 67.3919 61.3464 67.9151C60.3624 68.4383 49.3968 74.7671 49.3968 74.7671L49.1832 74.6519Z" fill="white"/>
<path opacity="0.1" d="M83.5776 51.7344C81.3336 53.052 80.1672 53.7936 79.2048 54.5448C77.9784 55.4904 75.2424 57.1032 73.9824 57.8112C73.9824 57.8112 75.576 57.0432 78.2664 55.4376C80.736 53.9568 80.7408 53.7 83.8248 51.876L83.5776 51.7344Z" fill="black"/>
<path opacity="0.1" d="M48.672 74.3567L60.1344 67.7399C61.38 67.0199 64.8024 65.6087 66.4104 64.6799C65.482 65.2678 64.5204 65.8015 63.5304 66.2783C61.7592 67.1447 50.4408 73.6055 48.9096 74.4911L48.672 74.3567Z" fill="black"/>
<path opacity="0.05" d="M85.6536 52.9319C83.1768 54.3719 80.724 55.7807 79.452 56.5199C76.9608 57.9599 73.0464 60.4631 69.5088 62.4455C66.312 64.2383 63.7488 65.5415 63.3096 65.7719C63.8376 65.5319 67.2144 63.9959 69.744 62.5367C72.4992 60.9455 77.4048 57.9767 80.424 56.2439L85.9056 53.0783L85.6536 52.9319Z" fill="white"/>
<path opacity="0.05" d="M47.136 73.4712L58.9176 66.6672C60.7464 65.6112 63.3792 63.9192 66.48 62.1288C69.5808 60.3384 72.2808 58.9584 74.3832 57.924C76.4856 56.8896 78.6456 55.656 78.6456 55.656C78.6456 55.656 76.7112 56.9016 73.4736 58.5792C70.236 60.2568 66.4728 62.3352 63.3936 64.3392C60.3144 66.3432 47.4168 73.6416 47.4168 73.6416L47.136 73.4712Z" fill="white"/>
<path opacity="0.05" d="M82.968 51.3816C78.6912 53.8296 73.608 56.7384 71.6136 57.8904C68.1576 59.8872 63.6936 62.5464 63.6936 62.5464C63.6936 62.5464 71.1528 58.4064 78.456 54.1824L83.1336 51.4824L82.968 51.3816Z" fill="white"/>
<path opacity="0.1" d="M46.3199 73.0056L66.8039 61.176C71.3063 58.5744 76.5383 55.7976 76.5383 55.7976C76.5383 55.7976 72.9383 58.0368 67.4039 61.236L46.6799 73.2L46.3271 72.9984L46.3199 73.0056Z" fill="black"/>
<path opacity="0.1" d="M86.2704 53.28L79.884 56.9736C77.3472 58.4448 70.848 62.2968 69.324 63.2256C69.324 63.2256 75.948 59.568 84.5736 54.5856L86.5536 53.4408L86.2704 53.28Z" fill="black"/>
<path opacity="0.1" d="M84.9936 52.5601C82.5456 53.9785 80.3856 55.2265 79.308 55.8481C76.968 57.1993 72.636 59.1361 68.8824 61.3105C65.1288 63.4849 49.8935 72.8305 47.9615 73.9537L48.2663 74.1289C51.3863 72.3289 68.0303 62.9833 70.5215 61.5457C73.0127 60.1081 78.4272 56.7097 80.8608 55.3057L85.2984 52.7401L84.9936 52.5601ZM69.6336 61.7593C67.5984 62.9329 63.7608 65.0689 63.6336 64.9897C63.5064 64.9105 67.1927 62.5897 69.1319 61.4689C71.3327 60.1993 74.7024 58.4449 74.8536 58.5313C75.0048 58.6177 71.6472 60.5737 69.624 61.7497L69.6336 61.7593Z" fill="black"/>
<path opacity="0.05" d="M84.1584 52.0798C83.3184 52.5814 83.016 52.7782 82.644 53.0398C81.444 53.863 80.436 54.859 77.8992 56.3254C77.8992 56.3254 80.7 54.919 81.9648 53.911C82.7705 53.3102 83.6103 52.7565 84.48 52.2526L84.1584 52.0798Z" fill="white"/>
<path opacity="0.05" d="M90.6408 55.812C87.2424 57.7944 83.172 60.1824 82.4928 60.612C79.6296 62.424 77.2128 64.0104 73.212 66.336C73.212 66.336 75.1896 65.3256 79.0896 62.9496C80.9232 61.8288 82.5696 60.7896 83.448 60.2448C83.988 59.9136 87.7392 57.7344 90.8496 55.9248L90.6408 55.812Z" fill="white"/>
<path opacity="0.1" d="M50.9376 75.6528L54.4296 73.6368C57.5616 71.832 59.7096 70.6416 61.2744 69.9768C62.8392 69.312 65.5008 67.8168 66.6648 67.1184C66.6648 67.1184 65.412 67.9992 62.7624 69.4704C60.1128 70.9416 59.3808 71.0688 55.68 73.2L51.18 75.7944L50.9376 75.6528Z" fill="black"/>
<path opacity="0.1" d="M90.12 55.5095L83.1096 59.5607C81.9312 60.2423 79.6464 62.1167 78.1128 63.0047C79.0123 62.5374 79.8819 62.0148 80.7168 61.4399C81.6984 60.7679 86.6544 57.8399 90.3696 55.6631L90.12 55.5095Z" fill="black"/>
<path opacity="0.05" d="M54.1872 76.1809L64.6176 70.1641C66.984 68.8009 71.1312 66.6553 74.388 64.7137C77.6448 62.7721 79.908 61.2625 79.908 61.2625C78.1825 62.5502 76.3904 63.7463 74.5392 64.8457C71.9184 66.3577 67.0464 69.0505 64.1712 70.7089L53.256 77.0041L53.16 76.9489L54.1872 76.1809Z" fill="white"/>
<path opacity="0.05" d="M88.5816 54.6216L81.2688 58.8504C79.5216 59.8536 76.7304 61.2984 73.776 62.9976C70.8216 64.6968 68.5656 66.1848 66.8688 67.3512C65.172 68.5176 63.1368 69.6912 63.1368 69.6912C63.1368 69.6912 65.196 68.6352 67.956 66.8496C70.716 65.064 74.1264 63.0096 77.4216 61.3104C79.5816 60.2088 85.0704 57.0288 88.8864 54.7992L88.5816 54.6216Z" fill="white"/>
<path opacity="0.05" d="M50.3592 75.3168C50.3592 75.3168 63.4536 67.6848 66.744 65.7864C70.0344 63.888 74.424 61.4424 74.424 61.4424C74.424 61.4424 67.6128 65.5416 60.6528 69.5544L50.5128 75.4032L50.3592 75.3168Z" fill="white"/>
<path opacity="0.1" d="M87.7752 54.1584L72.1752 63.1632C67.884 65.6328 63.324 68.5128 63.324 68.5128C63.324 68.5128 67.0224 66.5376 72.2904 63.5016L88.1304 54.36L87.7752 54.1584Z" fill="black"/>
<path opacity="0.1" d="M53.6304 77.2175L65.412 70.4207C67.8312 69.0263 74.184 65.4647 75.7152 64.6223C75.7152 64.6223 69.6936 68.2679 61.488 73.0007L53.904 77.3759L53.6304 77.2175Z" fill="black"/>
<path opacity="0.1" d="M89.328 55.0535C84.048 57.9503 75.1128 62.7887 72.4368 64.3295C68.8584 66.3935 65.6904 68.7887 63.4656 70.0727C61.2408 71.3567 52.3608 76.4759 52.3608 76.4759L52.6536 76.6535C52.6536 76.6535 60.2736 72.2615 62.5848 70.9247C64.896 69.5879 70.5048 66.6191 72.8832 65.2583C74.7288 64.1927 84.1296 58.5983 89.736 55.2887L89.328 55.0535ZM73.212 64.7567C71.28 65.8727 68.0352 67.7063 67.8816 67.6151C67.728 67.5239 70.6128 65.6735 72.7056 64.4639C74.5512 63.3983 78.3816 61.3727 78.5256 61.4567C78.6696 61.5407 75.144 63.6407 73.212 64.7567Z" fill="black"/>
<path opacity="0.05" d="M51.5088 75.9816C52.9488 75.1488 57.4224 72.54 58.7808 71.88C60.1392 71.22 61.7976 70.68 64.2144 69.2856C64.2144 69.2856 61.9032 70.8312 60.228 71.5176C58.5528 72.204 51.8064 76.1664 51.8064 76.1664L51.5088 75.9816Z" fill="white"/>
<path d="M45.3768 72.4561V74.7073L59.0256 82.5865V80.3353L45.3768 72.4561Z" fill="#FF6F00"/>
<path opacity="0.1" d="M45.3768 72.4561V74.7073L59.0256 82.5865V80.3353L45.3768 72.4561Z" fill="black"/>
<path opacity="0.1" d="M56.7527 79.02L56.8559 80.9784L57.0575 79.1976L56.7527 79.02Z" fill="black"/>
<path opacity="0.1" d="M57.4656 79.4351L57.5808 80.4407L57.696 79.5671L57.4656 79.4351Z" fill="black"/>
<path opacity="0.1" d="M55.1232 78.0815L55.2384 79.9991L55.4736 78.2855L55.1232 78.0815Z" fill="black"/>
<path opacity="0.1" d="M52.3608 76.4758L52.4904 78.4366L52.6536 76.6534L52.3608 76.4758Z" fill="black"/>
<path opacity="0.1" d="M48.672 74.3567L48.792 76.3943L48.9024 74.4911L48.672 74.3567Z" fill="black"/>
<path opacity="0.1" d="M46.3271 73.0056L46.4999 75.1848L46.6799 73.2072L46.3271 73.0056Z" fill="black"/>
<path opacity="0.05" d="M47.136 73.4712L47.244 74.964L47.4168 73.632L47.136 73.4712Z" fill="white"/>
<path opacity="0.05" d="M50.3592 75.3167L50.4024 76.7351L50.5056 75.403" fill="white"/>
<path opacity="0.05" d="M51.5088 75.9814L51.5928 78.1246L51.804 76.1662L51.5088 75.9814Z" fill="white"/>
<path opacity="0.05" d="M57.9767 79.7302L58.0511 81.8734L58.1903 79.8526L57.9767 79.7302Z" fill="white"/>
<path d="M96.072 58.9463V61.1975L59.0256 82.5863V80.3351L96.072 58.9463Z" fill="#FF6F00"/>
<path opacity="0.1" d="M96.072 58.9463V61.1975L59.0256 82.5863V80.3351L96.072 58.9463Z" fill="black"/>
<path opacity="0.1" d="M96.0696 59.52V59.904C94.896 60.6864 94.164 61.2408 92.4264 62.2848C89.6376 63.9528 88.068 64.7088 87.8832 64.7952C89.2392 64.032 92.2272 62.2704 93.7752 61.0992C94.452 60.5904 95.16 60.1008 96.0696 59.52Z" fill="black"/>
<path opacity="0.05" d="M92.4168 62.8008C92.2848 62.8848 90.0984 64.2792 86.8632 65.9352C83.52 67.6464 79.524 69.84 75.9744 72.1416C72.8184 74.184 61.5096 80.6136 59.0232 82.0248V81.6408C61.98 79.9344 69.4704 75.6168 71.3424 74.532C73.3296 73.3824 76.3536 71.4408 79.7232 69.492C83.0928 67.5432 85.8576 66.1584 87.9744 65.1432C90.024 64.1616 92.2776 62.88 92.4168 62.8008Z" fill="white"/>
<path opacity="0.1" d="M91.1472 62.2966C90.9912 62.3926 86.9664 64.891 81.0672 68.2966C79.4496 69.235 62.16 79.2166 59.0208 81.0166V80.5678L80.7984 67.9918C85.62 65.2054 90.9816 62.383 91.1472 62.2966Z" fill="black"/>
<path opacity="0.1" d="M81.8064 68.9352C79.0176 70.5456 70.1472 75.9696 64.1448 79.6296L77.364 72C78.7512 71.1048 80.5944 69.9744 81.7776 69.2904C83.0856 68.5344 84.7224 67.6584 85.9344 67.0512L89.8416 64.7952C87.504 65.9496 84.6336 67.296 81.8064 68.9352Z" fill="black"/>
<path opacity="0.05" d="M96.0696 60.4536V60.8304L95.8944 60.9624C94.3608 62.1504 91.764 63.4512 91.4448 63.6024C93.0532 62.6545 94.5981 61.6027 96.0696 60.4536Z" fill="white"/>
<path d="M48.8064 79.0464C48.9432 78.756 49.1952 78.624 49.3104 79.0464C49.2624 77.9472 48.8304 77.6736 48.48 77.5896C48.5736 77.2752 48.8184 77.0448 49.0152 77.3496C48.7752 76.4136 48.2808 76.3704 47.8848 76.4616C47.9328 76.1448 48.156 75.8352 48.4152 76.0152C48.0072 75.312 47.472 75.4992 47.0664 75.7584C47.0664 75.4608 47.2464 75.0888 47.5464 75.1296C46.9944 74.7024 46.4568 75.108 46.068 75.5184C46.0381 75.3624 46.0628 75.2009 46.138 75.0611C46.2132 74.9212 46.3342 74.8115 46.4808 74.7504C45.8232 74.6304 45.3192 75.2304 44.976 75.7608C44.928 75.604 44.9322 75.4359 44.988 75.2818C45.0439 75.1277 45.1483 74.996 45.2856 74.9064C44.5656 75.1008 44.1312 75.8496 43.8456 76.4688C43.7064 76.3416 43.7136 75.948 44.0304 75.5856C43.2984 76.0824 42.9624 76.9296 42.7728 77.592C42.6048 77.544 42.5472 77.1984 42.8208 76.74C42.2564 77.3901 41.9076 78.1993 41.8224 79.056C41.6352 79.092 41.5152 78.816 41.7312 78.2928C41.2601 79.0272 41.0248 79.888 41.0568 80.76C40.8624 80.8752 40.692 80.6928 40.8312 80.1384C40.3512 81.2688 40.4088 82.0584 40.5312 82.5888C40.344 82.776 40.1304 82.6968 40.1856 82.1496C39.8616 83.3496 40.0608 84.012 40.2792 84.4152C40.1112 84.6552 39.8712 84.6912 39.84 84.192C39.7536 84.912 39.84 85.3776 39.984 85.6848L40.1448 85.5936L42.8304 84.0408L44.2272 83.2344L44.8824 82.8576L46.2744 82.0536L48.7464 80.6256L49.3008 80.3064C49.2936 79.5864 49.044 79.2432 48.8064 79.0464Z" fill="white"/>
<path d="M48.7199 79.2551L48.6167 79.1687L48.7199 78.9599C48.7791 78.8119 48.881 78.6849 49.0127 78.5951C49.0416 78.5772 49.0732 78.5643 49.1063 78.5567C48.9623 78.0071 48.6623 77.8655 48.4247 77.8103L48.3023 77.7815L48.3695 77.5535C48.4213 77.3452 48.5423 77.1607 48.7127 77.0303C48.6359 76.8812 48.5081 76.7648 48.3526 76.7022C48.197 76.6397 48.0241 76.6351 47.8655 76.6895L47.7287 76.7207L47.7623 76.4807C47.7912 76.2525 47.8882 76.0384 48.0407 75.8663C47.8007 75.6863 47.5199 75.7007 47.1671 75.9047L47.0807 75.9575L46.9391 76.0487V75.8399C46.9383 75.6591 46.9776 75.4804 47.0543 75.3167C47.0762 75.2691 47.1019 75.2233 47.1311 75.1799C46.9457 75.1564 46.758 75.1989 46.6007 75.2999C46.4226 75.4082 46.2609 75.5415 46.1207 75.6959L45.9863 75.8375L45.9479 75.6527C45.9146 75.4545 45.9371 75.2509 46.0127 75.0647C46.0127 75.0407 46.0319 75.0167 46.0415 74.9927C45.9574 75.0154 45.8767 75.0493 45.8015 75.0935C45.4909 75.298 45.2334 75.5736 45.0503 75.8975L44.9327 76.0799L44.8607 75.9359C44.7844 75.7468 44.7776 75.5367 44.8415 75.3431V75.3215C44.4375 75.6425 44.1295 76.0684 43.9511 76.5527L43.8551 76.7663L43.7543 76.6751C43.6975 76.6047 43.6574 76.5223 43.637 76.4342C43.6167 76.3461 43.6166 76.2545 43.6367 76.1663C43.6356 76.1591 43.6356 76.1518 43.6367 76.1447C43.2816 76.5746 43.0281 77.0791 42.8951 77.6207L42.8303 77.8487L42.7079 77.8151C42.5831 77.7791 42.5039 77.6351 42.4967 77.4263V77.4071C42.2053 77.9024 42.0213 78.4536 41.9567 79.0247L41.9255 79.2647L41.7911 79.2887C41.6519 79.3151 41.5511 79.2263 41.5007 79.0487C41.5004 79.0431 41.5004 79.0375 41.5007 79.0319C41.2813 79.5537 41.1789 80.1174 41.2007 80.6831V80.8991L41.0567 80.9831C41.0299 81.0039 40.9987 81.0184 40.9655 81.0255C40.9323 81.0325 40.8979 81.032 40.8649 81.0239C40.8319 81.0159 40.8011 81.0004 40.7749 80.9788C40.7487 80.9572 40.7277 80.9299 40.7135 80.8991C40.5656 81.41 40.5507 81.9503 40.6703 82.4687L40.7135 82.6511L40.5767 82.7879C40.5417 82.8239 40.5022 82.8554 40.4591 82.8815C40.4202 82.9122 40.372 82.929 40.3223 82.929C40.2727 82.929 40.2245 82.9122 40.1855 82.8815C40.1045 83.3545 40.1813 83.8411 40.4039 84.2663L40.4783 84.4055L40.3583 84.5855C40.3026 84.6721 40.229 84.7458 40.1423 84.8015C40.087 84.8373 40.0198 84.8502 39.9551 84.8375C39.9581 85.1112 40.0264 85.3803 40.1543 85.6223L42.8399 84.0695L44.2367 83.2631L44.8919 82.8863L46.2839 82.0823L48.7559 80.6543V80.6375C48.8107 80.5494 48.8845 80.4748 48.9719 80.4191C49.0284 80.3837 49.0964 80.3717 49.1615 80.3855C49.1471 79.7087 48.9119 79.4207 48.7199 79.2551Z" fill="#F0F0F0"/>
<path d="M44.5703 79.8887C43.6103 80.4479 42.8207 82.1063 42.8207 83.5943C42.8207 83.7443 42.8295 83.8941 42.8471 84.0431L44.2439 83.2367L44.8991 82.8599L46.2911 82.0559C46.3101 81.8966 46.3197 81.7363 46.3199 81.5759C46.3199 80.0855 45.5375 79.3319 44.5703 79.8887Z" fill="#E0E0E0"/>
<path opacity="0.1" d="M45.0168 82.3199C45.0141 82.5036 44.9741 82.6849 44.8992 82.8527L44.244 83.2295C44.1565 83.1168 44.1138 82.9758 44.124 82.8335C44.1208 82.6525 44.1594 82.4733 44.2368 82.3097C44.3143 82.1461 44.4284 82.0026 44.5704 81.8903C44.8176 81.7559 45.0168 81.9479 45.0168 82.3199Z" fill="black"/>
</svg>
