<svg width="120" height="120" viewBox="0 0 120 120" fill="none" xmlns="http://www.w3.org/2000/svg">
<g clip-path="url(#clip0_338_4219)">
<path d="M66.4838 74.6079H79.5723L78.3059 89.1711H67.7502L66.4838 74.6079Z" fill="#455A64"/>
<path opacity="0.1" d="M66.4838 74.6079L67.7502 89.1711H78.3059L79.5747 74.6079L78.3415 88.7415L69.3676 87.1743L68.2766 74.6079H66.4838Z" fill="black"/>
<path d="M66.0142 74.6079H80.0443V73.6767H66.0142V74.6079Z" fill="#37474F"/>
<path d="M73.3257 80.7184C78.9889 80.7184 79.9138 74.6224 79.9233 74.56L79.6103 74.5144C79.4211 75.5613 79.0441 76.5642 78.498 77.4736C77.3122 79.4152 75.5763 80.3992 73.3209 80.3992C67.9138 80.3992 66.5004 74.56 66.4862 74.5024L66.1779 74.5744C66.1968 74.6368 67.6719 80.7184 73.3257 80.7184Z" fill="#37474F"/>
<path d="M87.2768 89.0989L88.8339 89.4746L101.782 34.5143L100.225 34.1386L87.2768 89.0989Z" fill="#37474F"/>
<path d="M99.2106 37.4922L101.19 37.9697L101.992 34.5659L100.013 34.0884L99.2106 37.4922Z" fill="#263238"/>
<path d="M108.986 36.2536L109.357 34.6777L93.3869 30.8244L93.0156 32.4002L108.986 36.2536Z" fill="#37474F"/>
<path d="M93.5027 25L93.3889 30.8248L109.359 34.6768L111.854 29.428L108.617 28.6456L107.865 30.0544L108.218 28.5496L107.616 28.4056L106.859 30.6736L107.194 28.3024L99.6877 26.4928L99.415 27.652L99.3581 26.4136L96.6522 25.7608L96.2917 27.2944L96.0569 25.6168L93.5027 25Z" fill="#FF6F00"/>
<path d="M91.4126 89.926L92.987 89.6333L82.8989 34.0625L81.3244 34.3552L91.4126 89.926Z" fill="#37474F"/>
<path d="M81.7361 37.8408L83.7374 37.4688L83.1126 34.0271L81.1113 34.3992L81.7361 37.8408Z" fill="#263238"/>
<path d="M73.2261 41.3561C74.1462 43.4993 75.3866 46.5881 76.8261 47.9249C77.2482 48.3137 78.8609 47.8313 79.8783 46.5497L79.6838 41.0033C79.7099 41.4089 79.7715 41.9489 79.883 42.6185C80.0434 43.7966 80.1297 44.9837 80.1415 46.1729C80.2198 46.0549 80.2895 45.9314 80.3502 45.8033C80.7984 44.8697 79.9233 40.6985 80.2459 38.0609C80.5542 35.5241 82.0672 34.4993 82.0672 34.4993C82.0672 34.4993 83.7771 35.0345 84.6996 34.0193C84.6996 34.0193 85.7431 32.8745 85.4111 31.4777C84.9178 29.3801 82.7146 28.5761 81.1826 28.0961C79.4087 27.5417 74.3739 29.3321 73.2261 32.6249C72.0783 35.9177 72.3083 39.2105 73.2261 41.3561Z" fill="#DBDBDB"/>
<path d="M75.3723 47.7137L75.6877 47.6753C75.6877 47.6537 75.6142 47.0681 74.483 44.9561C73.3826 42.8945 72.6284 38.4521 72.7968 36.9401L72.4814 36.9041C72.3083 38.4545 73.079 43.0024 74.2055 45.1096C75.2869 47.1304 75.3699 47.6897 75.3723 47.7137Z" fill="#DBDBDB"/>
<path d="M81.2229 44.4256L81.517 44.3128C80.981 42.8896 80.2719 38.4712 80.464 36.2824C80.6632 34.0504 80.5518 33.484 80.547 33.4624L80.2364 33.5272C80.2364 33.5272 80.3407 34.0984 80.1486 36.2536C79.9518 38.4808 80.6751 42.976 81.2229 44.4256Z" fill="#DBDBDB"/>
<path d="M82.0553 34.4993C81.0071 34.6121 79.6269 34.7393 79.0435 35.7665C78.5526 36.8033 78.4316 37.9265 78.2585 39.0449C78.147 40.1561 77.936 41.2913 78.0996 42.4049C78.2508 43.5113 78.4598 44.6088 78.7257 45.6929C78.6142 44.7065 78.4174 43.3505 78.3415 42.3785C78.2419 41.2745 78.453 40.1825 78.5786 39.0881C78.7352 38.0129 78.8585 36.8753 79.2664 35.8769C79.4775 35.3657 80.0016 35.1353 80.4806 34.9361C80.992 34.7368 81.522 34.5905 82.0624 34.4993H82.0553Z" fill="#C7C7C7"/>
<path d="M79.1549 28.1393C77.5944 28.9073 75.8182 29.8193 74.9763 31.4609C74.5349 32.4576 74.2163 33.5055 74.0277 34.5809C73.8047 36.0089 73.5225 37.4897 73.8403 38.9249C74.1515 40.3376 74.5962 41.7167 75.1684 43.0433C74.7117 41.6821 74.348 40.2909 74.0798 38.8793C73.9569 38.1812 73.9394 37.4683 74.0277 36.7649C74.1611 35.3402 74.4344 33.9324 74.8435 32.5625C75.3889 30.4025 77.3573 29.1857 79.1549 28.1321V28.1393Z" fill="#C7C7C7"/>
<path d="M74.8292 36.9231C74.7438 40.8159 76.4371 44.4999 78.5762 47.6487C78.3557 47.2263 78.1328 46.8039 77.9264 46.3719C76.4253 43.3983 75.1351 40.2783 74.8292 36.9231Z" fill="#C7C7C7"/>
<path d="M85.4111 31.4705C83.9881 30.1841 81.8182 29.4065 79.9873 30.2417C78.6949 30.8561 77.3383 31.7849 76.8379 33.1913C76.6803 33.6517 76.5644 34.1256 76.4917 34.6073C76.6241 34.1428 76.7881 33.6881 76.9826 33.2465C77.5399 31.9601 78.9012 31.1153 80.1107 30.5345C81.8775 29.7329 83.879 30.4289 85.4111 31.4705Z" fill="#C7C7C7"/>
<path d="M81.3747 44.9849H107.813V41.2913H81.3747V44.9849Z" fill="#FF6F00"/>
<path d="M82.8237 44.9849H106.364L105.097 89.1713H84.0901L82.8237 44.9849Z" fill="#FF6F00"/>
<path opacity="0.2" d="M84.3842 44.9849L85.6529 89.1713H88.9731L87.9011 44.9849H84.3842Z" fill="white"/>
<path opacity="0.1" d="M106.364 44.9849L106.311 46.8257L82.8498 45.9065L82.8237 44.9849H106.364Z" fill="black"/>
<path opacity="0.1" d="M84.0901 89.1711L84.0403 87.4287L105.123 88.2447L105.097 89.1711H84.0901Z" fill="black"/>
<path d="M81.7731 51.3784H107.203V49.5304H81.7731V51.3784Z" fill="#FF6F00"/>
<path opacity="0.3" d="M81.7731 51.3784H107.203V49.5304H81.7731V51.3784Z" fill="black"/>
<path d="M67.136 53.9153H81.7708V52.0673H67.136V53.9153Z" fill="#FF6F00"/>
<path opacity="0.3" d="M67.136 53.9153H81.7708V52.0673H67.136V53.9153Z" fill="black"/>
<path d="M67.136 70.2759H81.7708V68.4279H67.136V70.2759Z" fill="#FF6F00"/>
<path opacity="0.3" d="M67.136 70.2759H81.7708V68.4279H67.136V70.2759Z" fill="black"/>
<path d="M83.5968 89.1711V49.5327H81.7707V89.1711H83.5968Z" fill="#FF6F00"/>
<path opacity="0.3" d="M83.5968 89.1711V49.5327H81.7707V89.1711H83.5968Z" fill="black"/>
<path d="M66.5028 91.6577H108.213V89.1713H66.5028V91.6577Z" fill="#FF6F00"/>
<path opacity="0.3" d="M66.5028 91.6577H108.213V89.1713H66.5028V91.6577Z" fill="black"/>
<path d="M99.7897 95.8481C102.077 95.8481 103.93 93.972 103.93 91.6577C103.93 89.3434 102.077 87.4673 99.7897 87.4673C97.5028 87.4673 95.649 89.3434 95.649 91.6577C95.649 93.972 97.5028 95.8481 99.7897 95.8481Z" fill="#FF6F00"/>
<path opacity="0.4" d="M99.7897 95.8481C102.077 95.8481 103.93 93.972 103.93 91.6577C103.93 89.3434 102.077 87.4673 99.7897 87.4673C97.5028 87.4673 95.649 89.3434 95.649 91.6577C95.649 93.972 97.5028 95.8481 99.7897 95.8481Z" fill="black"/>
<path opacity="0.4" d="M100.314 93.8344C101.497 93.5379 102.22 92.3265 101.927 91.1286C101.634 89.9308 100.437 89.2 99.253 89.4964C98.0693 89.7929 97.3472 91.0043 97.6401 92.2022C97.9331 93.4001 99.1301 94.1308 100.314 93.8344Z" fill="black"/>
<path d="M72.1186 95.8481C74.4054 95.8481 76.2593 93.972 76.2593 91.6577C76.2593 89.3434 74.4054 87.4673 72.1186 87.4673C69.8317 87.4673 67.9778 89.3434 67.9778 91.6577C67.9778 93.972 69.8317 95.8481 72.1186 95.8481Z" fill="#FF6F00"/>
<path opacity="0.4" d="M72.1186 95.8481C74.4054 95.8481 76.2593 93.972 76.2593 91.6577C76.2593 89.3434 74.4054 87.4673 72.1186 87.4673C69.8317 87.4673 67.9778 89.3434 67.9778 91.6577C67.9778 93.972 69.8317 95.8481 72.1186 95.8481Z" fill="black"/>
<path opacity="0.4" d="M73.6799 93.2396C74.5421 92.367 74.5421 90.9523 73.6799 90.0797C72.8176 89.2071 71.4197 89.2071 70.5574 90.0797C69.6952 90.9523 69.6952 92.367 70.5574 93.2396C71.4197 94.1122 72.8176 94.1122 73.6799 93.2396Z" fill="black"/>
<path d="M69.8632 48.3257C69.7959 48.3257 69.7314 48.3527 69.6838 48.4009C69.6362 48.4491 69.6094 48.5144 69.6094 48.5825V51.1049H70.1169V48.5825C70.1169 48.5144 70.0902 48.4491 70.0426 48.4009C69.995 48.3527 69.9305 48.3257 69.8632 48.3257Z" fill="#EBEBEB"/>
<path d="M70.4703 48.3257C70.403 48.3257 70.3385 48.3527 70.2909 48.4009C70.2433 48.4491 70.2166 48.5144 70.2166 48.5825V51.1049H70.7241V48.5825C70.7241 48.5144 70.6973 48.4491 70.6497 48.4009C70.6022 48.3527 70.5376 48.3257 70.4703 48.3257Z" fill="#EBEBEB"/>
<path d="M71.0774 48.3257C71.0101 48.3257 70.9456 48.3527 70.898 48.4009C70.8504 48.4491 70.8237 48.5144 70.8237 48.5825V51.1049H71.3312V48.5825C71.3312 48.5144 71.3044 48.4491 71.2569 48.4009C71.2093 48.3527 71.1447 48.3257 71.0774 48.3257Z" fill="#EBEBEB"/>
<path d="M71.6822 48.3257C71.6149 48.3257 71.5503 48.3527 71.5027 48.4009C71.4551 48.4491 71.4284 48.5144 71.4284 48.5825V51.1049H71.9359V48.5825C71.9359 48.5144 71.9092 48.4491 71.8616 48.4009C71.814 48.3527 71.7495 48.3257 71.6822 48.3257Z" fill="#EBEBEB"/>
<path d="M72.2893 48.3257C72.222 48.3257 72.1574 48.3527 72.1098 48.4009C72.0623 48.4491 72.0355 48.5144 72.0355 48.5825V51.1049H72.543V48.5825C72.543 48.5144 72.5163 48.4491 72.4687 48.4009C72.4211 48.3527 72.3566 48.3257 72.2893 48.3257Z" fill="#EBEBEB"/>
<path d="M72.8964 48.3257C72.8291 48.3257 72.7645 48.3527 72.717 48.4009C72.6694 48.4491 72.6426 48.5144 72.6426 48.5825V51.1049H73.1502V48.5825C73.1502 48.5144 73.1234 48.4491 73.0758 48.4009C73.0282 48.3527 72.9637 48.3257 72.8964 48.3257Z" fill="#EBEBEB"/>
<path d="M73.5035 48.3257C73.4362 48.3257 73.3717 48.3527 73.3241 48.4009C73.2765 48.4491 73.2498 48.5144 73.2498 48.5825V51.1049H73.7549V48.5825C73.7549 48.5148 73.7285 48.4498 73.6814 48.4017C73.6343 48.3537 73.5704 48.3263 73.5035 48.3257Z" fill="#EBEBEB"/>
<path d="M74.1083 48.3257C74.041 48.3257 73.9765 48.3527 73.9289 48.4009C73.8813 48.4491 73.8546 48.5144 73.8546 48.5825V51.1049H74.3621V48.5825C74.3621 48.5144 74.3353 48.4491 74.2877 48.4009C74.2402 48.3527 74.1756 48.3257 74.1083 48.3257Z" fill="#EBEBEB"/>
<path d="M74.7154 48.3255C74.6489 48.3267 74.5856 48.3544 74.539 48.4024C74.4924 48.4504 74.4664 48.515 74.4664 48.5823V51.1047H74.9739V48.5823C74.9739 48.5482 74.9672 48.5144 74.9541 48.4829C74.9411 48.4514 74.922 48.4229 74.8979 48.399C74.8738 48.3751 74.8453 48.3563 74.8139 48.3436C74.7826 48.331 74.7491 48.3248 74.7154 48.3255Z" fill="#EBEBEB"/>
<path d="M75.3225 48.3257C75.2552 48.3257 75.1906 48.3527 75.143 48.4009C75.0955 48.4491 75.0687 48.5144 75.0687 48.5825V51.1049H75.5762V48.5825C75.5762 48.5144 75.5495 48.4491 75.5019 48.4009C75.4543 48.3527 75.3898 48.3257 75.3225 48.3257Z" fill="#EBEBEB"/>
<path d="M75.9296 48.3257C75.8962 48.3254 75.8631 48.3318 75.8321 48.3446C75.8012 48.3574 75.7731 48.3763 75.7495 48.4002C75.7258 48.4241 75.7072 48.4525 75.6945 48.4838C75.6819 48.5151 75.6755 48.5487 75.6759 48.5825V51.1049H76.181V48.5825C76.1813 48.5489 76.175 48.5155 76.1625 48.4844C76.15 48.4533 76.1316 48.4249 76.1082 48.4011C76.0848 48.3772 76.057 48.3582 76.0264 48.3453C75.9957 48.3324 75.9628 48.3257 75.9296 48.3257Z" fill="#EBEBEB"/>
<path d="M76.5343 48.3257C76.467 48.3257 76.4025 48.3527 76.3549 48.4009C76.3073 48.4491 76.2806 48.5144 76.2806 48.5825V51.1049H76.7881V48.5825C76.7881 48.5144 76.7614 48.4491 76.7138 48.4009C76.6662 48.3527 76.6016 48.3257 76.5343 48.3257Z" fill="#EBEBEB"/>
<path d="M77.1415 48.3257C77.0742 48.3257 77.0096 48.3527 76.962 48.4009C76.9144 48.4491 76.8877 48.5144 76.8877 48.5825V51.1049H77.3952V48.5825C77.3952 48.5144 77.3685 48.4491 77.3209 48.4009C77.2733 48.3527 77.2088 48.3257 77.1415 48.3257Z" fill="#EBEBEB"/>
<path d="M77.7676 50.1423H69.2964V52.0671H77.7676V50.1423Z" fill="#FF6F00"/>
<path d="M76.5936 57.5825H78.9391V54.7265H76.5936V57.5825Z" fill="#FF6F00"/>
<path d="M73.6079 68.428H78.5502C78.8217 68.4267 79.0817 68.3166 79.2732 68.1219C79.4648 67.9271 79.5723 67.6635 79.5723 67.3888V57.5488C79.5723 57.3437 79.5123 57.1432 79.4001 56.9724C79.2879 56.8016 79.1284 56.6681 78.9415 56.5888C78.8184 56.5333 78.6849 56.5054 78.5502 56.5072H77.0253C76.8807 56.5083 76.7365 56.5203 76.5937 56.5432C76.0511 56.6287 75.5473 56.8797 75.1494 57.2627C74.7515 57.6456 74.4785 58.1423 74.3668 58.6864L72.6 67.1728C72.5686 67.3244 72.571 67.4813 72.6071 67.6318C72.6432 67.7824 72.712 67.923 72.8086 68.0432C72.9052 68.1635 73.027 68.2604 73.1653 68.327C73.3036 68.3935 73.4548 68.428 73.6079 68.428ZM76.2166 60.268L75.4838 63.6568C75.4412 63.8455 75.3272 64.0098 75.1662 64.1143C75.0053 64.2189 74.8102 64.2554 74.6229 64.216C74.5305 64.1963 74.4429 64.1583 74.3652 64.1041C74.2874 64.0499 74.2211 63.9805 74.1701 63.9001C74.1191 63.8197 74.0845 63.7298 74.0682 63.6357C74.0518 63.5416 74.0542 63.4451 74.0751 63.352L74.8174 59.956C74.8512 59.7942 74.9389 59.6491 75.0658 59.5451C75.1928 59.4411 75.3513 59.3845 75.5146 59.3848C75.5673 59.3845 75.6197 59.3901 75.6711 59.4016C75.7629 59.4222 75.8498 59.4611 75.9266 59.516C76.0035 59.5708 76.0689 59.6405 76.1189 59.7211C76.169 59.8017 76.2028 59.8915 76.2183 59.9853C76.2338 60.0792 76.2309 60.1753 76.2095 60.268H76.2166Z" fill="#37474F"/>
<path d="M78.2205 57.9136H77.3122C77.2242 57.9129 77.1373 57.933 77.0584 57.9725C76.9795 58.012 76.9109 58.0696 76.8581 58.1409C76.8053 58.2121 76.7697 58.2948 76.7542 58.3825C76.7388 58.4702 76.7439 58.5603 76.7691 58.6456C76.934 59.2166 76.9576 59.8199 76.8379 60.4024C76.5344 62.1544 76.1122 64.3336 75.9723 64.6192C75.8561 64.8592 75.3012 65.3032 74.445 65.0656C74.3715 65.0442 74.2945 65.038 74.2186 65.0473C74.1427 65.0566 74.0694 65.0813 74.0031 65.1198C73.9367 65.1583 73.8787 65.2098 73.8324 65.2714C73.7861 65.333 73.7525 65.4034 73.7336 65.4784L73.5415 66.28C73.5215 66.3641 73.5205 66.4516 73.5386 66.5362C73.5568 66.6207 73.5935 66.6999 73.6462 66.768C73.6989 66.8361 73.7661 66.8913 73.8429 66.9294C73.9196 66.9675 74.0038 66.9875 74.0893 66.988H78.2134C78.3637 66.988 78.5079 66.9276 78.6142 66.82C78.7205 66.7124 78.7802 66.5665 78.7802 66.4144V58.4944C78.7812 58.4191 78.7674 58.3443 78.7398 58.2743C78.7122 58.2044 78.6712 58.1406 78.6192 58.0867C78.5673 58.0327 78.5053 57.9897 78.4369 57.96C78.3685 57.9303 78.295 57.9145 78.2205 57.9136Z" fill="white"/>
<path d="M73.2925 68.428C73.2925 68.428 74.7273 64.516 74.1557 62.6224C73.7739 61.3528 71.8885 60.5056 71.8885 59.1592V57.6904H70.2569C70.2569 57.6904 67.4253 63.6712 69.7826 68.428H73.2925Z" fill="#FF6F00"/>
<path d="M70.3233 58.4368H72.1352C72.1967 58.4368 72.2466 58.3863 72.2466 58.324V58.0528C72.2466 57.9905 72.1967 57.94 72.1352 57.94H70.3233C70.2618 57.94 70.2119 57.9905 70.2119 58.0528V58.324C70.2119 58.3863 70.2618 58.4368 70.3233 58.4368Z" fill="#FF6F00"/>
<path d="M70.3233 58.9312H72.1352C72.1967 58.9312 72.2466 58.8806 72.2466 58.8184V58.5472C72.2466 58.4849 72.1967 58.4344 72.1352 58.4344H70.3233C70.2618 58.4344 70.2119 58.4849 70.2119 58.5472V58.8184C70.2119 58.8806 70.2618 58.9312 70.3233 58.9312Z" fill="#FF6F00"/>
<path d="M70.3233 59.4255H72.1352C72.1967 59.4255 72.2466 59.375 72.2466 59.3127V59.0415C72.2466 58.9792 72.1967 58.9287 72.1352 58.9287H70.3233C70.2618 58.9287 70.2119 58.9792 70.2119 59.0415V59.3127C70.2119 59.375 70.2618 59.4255 70.3233 59.4255Z" fill="#FF6F00"/>
<path d="M73.0435 55.5496C72.8851 55.7632 72.8016 56.0241 72.8063 56.2912C72.8419 56.668 73.0126 57.0112 72.9557 57.0448C72.7987 56.969 72.6607 56.8581 72.5523 56.7205C72.4438 56.5829 72.3677 56.4221 72.3296 56.2504C72.2752 56.0174 72.2909 55.7734 72.3747 55.5496H73.0435Z" fill="#263238"/>
<path d="M70.0956 57.424V56.4088C70.0743 56.2781 70.0077 56.1592 69.9078 56.0735C69.8079 55.9878 69.6811 55.9408 69.5502 55.9408C68.9478 55.9408 68.215 56.6608 68.1818 56.4208C68.1486 56.1808 68.5565 54.3376 69.9818 54.3376H73.3494V55.552H72.664C72.5122 55.552 72.0142 55.6456 72.0142 56.3872V57.4264L70.0956 57.424Z" fill="#DBDBDB"/>
<path d="M70.0102 57.8967H72.0995C72.1637 57.8967 72.2158 57.8441 72.2158 57.7791V56.9151C72.2158 56.8502 72.1637 56.7975 72.0995 56.7975H70.0102C69.946 56.7975 69.894 56.8502 69.894 56.9151V57.7791C69.894 57.8441 69.946 57.8967 70.0102 57.8967Z" fill="#263238"/>
<path d="M73.3494 54.1672V55.7176L73.9778 55.5808V54.304L73.3494 54.1672Z" fill="#FF6F00"/>
<path d="M71.049 60.2417C70.0245 60.2417 69.4197 61.7177 69.4197 63.7217C69.4242 64.7247 69.5412 65.7238 69.7684 66.7001C69.8032 66.8499 69.887 66.9833 70.0063 67.0788C70.1256 67.1742 70.2732 67.226 70.4253 67.2257H72.6095C72.7578 67.2261 72.9022 67.177 73.0201 67.0858C73.1381 66.9947 73.223 66.8667 73.2616 66.7217C73.5344 65.6873 74.049 63.3617 73.4229 62.4617C72.5857 61.2617 71.8695 60.9785 71.566 60.2417H71.049Z" fill="white"/>
<path d="M65.9478 51.3682H20.6371V52.5658H65.9478V51.3682Z" fill="#FF6F00"/>
<path opacity="0.5" d="M65.9478 51.3682H20.6371V52.5658H65.9478V51.3682Z" fill="black"/>
<path d="M64.947 79.6018H21.6379V80.7994H64.947V79.6018Z" fill="#FF6F00"/>
<path opacity="0.5" d="M64.947 79.6018H21.6379V80.7994H64.947V79.6018Z" fill="black"/>
<path d="M63.8111 52.5659H22.7715V55.0595H63.8111V52.5659Z" fill="#FF6F00"/>
<path opacity="0.6" d="M63.8111 52.5659H22.7715V55.0595H63.8111V52.5659Z" fill="black"/>
<path d="M19.2356 98.6385H18.3652L24.498 55.0593H26.9099L19.2356 98.6385Z" fill="#FF6F00"/>
<path opacity="0.5" d="M19.2356 98.6385H18.3652L24.498 55.0593H26.9099L19.2356 98.6385Z" fill="black"/>
<path d="M67.3494 98.6385H68.2198L62.087 55.0593H59.6727L67.3494 98.6385Z" fill="#FF6F00"/>
<path opacity="0.5" d="M67.3494 98.6385H68.2198L62.087 55.0593H59.6727L67.3494 98.6385Z" fill="black"/>
<path d="M63.1803 51.3682H50.5281V50.5474L61.3755 49.9834L57.6854 36.5818H56.1344V35.197H58.7265L63.1803 51.3682Z" fill="#DBDBDB"/>
<path d="M57.4886 35.197L57 36.5842H56.1344V35.197H57.4886Z" fill="#C7C7C7"/>
<path d="M56.6914 21.2553L55.3007 21L50.5089 47.7366L51.8997 47.9919L56.6914 21.2553Z" fill="#C7C7C7"/>
<path d="M48.1684 51.3682V50.0554L36.7423 50.6266V51.3682H48.1684Z" fill="#DBDBDB"/>
<path d="M34.6601 78.124L34.0625 78.7336L34.0411 78.5128V78.508L34.423 78.124H34.6601Z" fill="#263238"/>
<path d="M36.9226 78.124L34.8925 80.1928L34.2356 80.8504L34.2261 80.7136V80.7088L34.219 80.632L34.7716 80.0704L36.7044 78.124H36.9226Z" fill="#263238"/>
<path d="M39.1874 78.124L36.0261 81.3448L34.4158 82.9648L34.4135 82.9336L34.3992 82.7536L35.9052 81.22L38.9834 78.124H39.1874Z" fill="#263238"/>
<path d="M41.4546 78.124L37.1644 82.4944L34.5937 85.0792L34.5771 84.8776L37.0411 82.3696L41.2601 78.124H41.4546Z" fill="#263238"/>
<path d="M43.7099 78.1265C43.404 78.4457 43.0957 78.7601 42.7874 79.0865L38.3004 83.6465L34.7716 87.1961L34.7573 87.0065L38.1771 83.5241L42.683 78.9881C42.9676 78.7001 43.2538 78.4145 43.5415 78.1313L43.7099 78.1265Z" fill="#263238"/>
<path d="M45.9652 78.1263L43.9209 80.2263L39.4387 84.7863L34.947 89.2983L34.9328 89.1231L39.313 84.6639L43.819 80.1231C44.4877 79.4527 45.1581 78.7847 45.83 78.1191L45.9652 78.1263Z" fill="#263238"/>
<path d="M48.2063 78.1265C47.1629 79.2145 46.1123 80.2977 45.0546 81.3761L40.5723 85.9361L36.0664 90.4745C35.7557 90.7889 35.4451 91.0961 35.132 91.4057L35.1178 91.2593C35.4 90.9641 35.687 90.6713 35.9716 90.3809L40.4585 85.8209L44.9644 81.2849C46.0206 80.2289 47.0799 79.1769 48.1423 78.1289L48.2063 78.1265Z" fill="#263238"/>
<path d="M50.4166 78.1504V78.1648C49.0158 79.624 47.6079 81.0776 46.1929 82.5256L41.7083 87.0856L37.2024 91.624L35.3051 93.5104L35.2933 93.3928C35.8941 92.772 36.498 92.1504 37.1051 91.528L41.5873 86.968L46.0933 82.4296C47.5289 80.9976 48.97 79.5712 50.4166 78.1504Z" fill="#263238"/>
<path d="M50.2127 80.6248V80.7016C49.2546 81.692 48.2957 82.68 47.336 83.6656L42.8514 88.2256L38.3455 92.7664C37.3969 93.7144 36.4483 94.6623 35.4996 95.6032V95.5312C36.4198 94.5712 37.3423 93.62 38.2672 92.6776L42.7518 88.1176L47.2577 83.5768C48.2316 82.5928 49.2166 81.6088 50.2127 80.6248Z" fill="#263238"/>
<path d="M50.004 83.104L49.9898 83.26L48.4672 84.8248L43.9803 89.3848L39.4743 93.9208C38.2459 95.1496 37.0119 96.3744 35.7724 97.5952H35.7297C36.9376 96.3296 38.1534 95.0736 39.3771 93.8272L43.8641 89.2672L48.3605 84.724L50.004 83.104Z" fill="#263238"/>
<path d="M49.7953 85.5903L49.7787 85.7919L49.6008 85.9743L45.1186 90.5343L40.6127 95.0727C39.7716 95.9175 38.9265 96.7591 38.0775 97.5975H37.9755C38.823 96.7207 39.6712 95.8471 40.5202 94.9767L45.0024 90.4167L49.5083 85.8759C49.6056 85.7847 49.6981 85.6839 49.7953 85.5903Z" fill="#263238"/>
<path d="M49.5842 88.084L49.5676 88.3072L46.2474 91.6816L41.7415 96.2224L40.3636 97.5952H40.2166C40.6909 97.1032 41.1652 96.6136 41.6395 96.1264L46.1265 91.5664L49.5842 88.084Z" fill="#263238"/>
<path d="M49.3755 90.5945L49.3541 90.8345L47.3881 92.8409L42.8822 97.3769C42.8039 97.4513 42.7328 97.5281 42.6569 97.6025H42.4743C42.5787 97.4969 42.683 97.3865 42.7873 97.2833L47.2719 92.7233L49.3755 90.5945Z" fill="#263238"/>
<path d="M49.1644 93.0977L49.1431 93.3617L48.5265 93.9904L44.9312 97.6049H44.732L48.4008 93.8681L49.1644 93.0977Z" fill="#263238"/>
<path d="M48.9557 95.6104V95.62L48.9344 95.872L47.215 97.6048H46.9992L48.9557 95.6104Z" fill="#263238"/>
<path d="M50.3881 78.508L50.3692 78.736L49.7715 78.124H50.0063L50.3881 78.508Z" fill="#263238"/>
<path d="M50.2126 80.632L50.1913 80.8504L49.5391 80.1928L47.5067 78.124H47.7273L49.6601 80.0704L50.2126 80.632Z" fill="#263238"/>
<path d="M50.0324 82.7536L50.0182 82.9336L50.0134 82.9672L48.4008 81.3448L45.2395 78.124H45.4482L48.5265 81.22L50.0324 82.7536Z" fill="#263238"/>
<path d="M49.8546 84.8824L49.838 85.0816L47.2649 82.4944L42.9771 78.124H43.1668L47.3882 82.3696L49.8546 84.8824Z" fill="#263238"/>
<path d="M49.6767 87.0089L49.6601 87.1961L46.1312 83.6465L41.6443 79.0865C41.336 78.7697 41.0277 78.4553 40.7217 78.1265H40.8783C41.1652 78.4097 41.4545 78.6953 41.7391 78.9833L46.2451 83.5193L49.6767 87.0089Z" fill="#263238"/>
<path d="M49.4965 89.1303L49.4822 89.3055L44.9929 84.7935L40.5107 80.2335L38.4664 78.1335H38.5921C39.2609 78.8007 39.9344 79.4679 40.6032 80.1375L45.1091 84.6783L49.4965 89.1303Z" fill="#263238"/>
<path d="M49.321 91.2663L49.3067 91.4175C48.9937 91.1031 48.6807 90.7959 48.3581 90.4815L43.8522 85.9431L39.3652 81.3831C38.3123 80.3031 37.2633 79.2199 36.2182 78.1335H36.2846C37.3439 79.1799 38.4032 80.2319 39.4625 81.2895L43.9684 85.8255L48.4554 90.3855C48.7478 90.6783 49.0364 90.9719 49.321 91.2663Z" fill="#263238"/>
<path d="M49.1407 93.4001V93.5177C48.5051 92.8961 47.8743 92.2625 47.2435 91.6313L42.7375 87.0929L38.253 82.5329C36.83 81.0929 35.4229 79.6393 34.0316 78.1721V78.1577C35.4783 79.5785 36.917 81.0049 38.3478 82.4369L42.8538 86.9753L47.3383 91.5353C47.9391 92.1577 48.5399 92.7793 49.1407 93.4001Z" fill="#263238"/>
<path d="M48.9629 95.5385V95.6201C48.0048 94.6793 47.0561 93.7337 46.117 92.7833L41.6111 88.2425L37.1289 83.6825C36.1684 82.6985 35.2056 81.7097 34.2522 80.7185V80.6345C35.2482 81.6153 36.2403 82.6001 37.2285 83.5889L41.7344 88.1297L46.219 92.6897C47.1297 93.6353 48.0443 94.5849 48.9629 95.5385Z" fill="#263238"/>
<path d="M48.7067 97.6047H48.6641C47.4261 96.3855 46.1921 95.1607 44.9621 93.9303L40.4561 89.3943L35.9692 84.8343C35.4593 84.3111 34.9518 83.7927 34.4467 83.2695L34.4324 83.1135C34.9779 83.6559 35.521 84.1959 36.0641 84.7407L40.57 89.2767L45.0522 93.8367C46.2775 95.0879 47.4957 96.3439 48.7067 97.6047Z" fill="#263238"/>
<path d="M46.4633 97.6047H46.3613C45.5123 96.7647 44.6672 95.9231 43.8261 95.0799L39.3202 90.5415L34.838 85.9815L34.6601 85.7991L34.6435 85.6023C34.7407 85.6935 34.8332 85.7919 34.9304 85.8855L39.4364 90.4263L43.9186 94.9863C44.7723 95.8567 45.6206 96.7295 46.4633 97.6047Z" fill="#263238"/>
<path d="M44.2127 97.6048H44.0704C43.6087 97.1488 43.1486 96.6912 42.6901 96.232L38.1842 91.6912L34.8641 88.3312L34.8427 88.084L38.2957 91.5592L42.7826 96.1192C43.2617 96.6232 43.7407 97.1128 44.2127 97.6048Z" fill="#263238"/>
<path d="M41.9573 97.6048H41.7771L41.5518 97.3792L37.0458 92.8432L35.0798 90.8416L35.0609 90.6016L37.1692 92.7232L41.6537 97.2832C41.7533 97.3888 41.8553 97.4992 41.9573 97.6048Z" fill="#263238"/>
<path d="M39.6972 97.6047H39.5004L35.9051 93.9903L35.2885 93.3615V93.3591L35.2625 93.1023L36.0261 93.8679L39.6972 97.6047Z" fill="#263238"/>
<path d="M37.4324 97.6048H37.2166L35.4949 95.872L35.4759 95.6104L37.4324 97.6048Z" fill="#263238"/>
<path d="M34.1823 78.1506L33.8375 78.1824L35.5892 97.6233L35.934 97.5915L34.1823 78.1506Z" fill="#263238"/>
<path d="M50.2927 78.14L48.5243 97.5793L48.8691 97.6115L50.6375 78.1721L50.2927 78.14Z" fill="#263238"/>
<path d="M51.4055 76H33V79.1536H51.4055V76Z" fill="#263238"/>
<path d="M49.5059 95.9177H34.8972V99.0713H49.5059V95.9177Z" fill="#263238"/>
<path d="M101.426 83.9496L101.756 82.488L102.085 83.9496L103.532 84.3072L102.081 84.5808L101.756 86.1288L101.431 84.5808L99.9794 84.3096L101.426 83.9496ZM45.6948 66.6696L47.1462 66.9408L47.4711 68.4912L47.7937 66.9408L49.245 66.6696L47.8008 66.312L47.4711 64.8504L47.1391 66.312L45.6948 66.6696ZM126.344 78.336L127.795 78.6072L128.12 80.1552L128.445 78.6072L129.896 78.336L128.45 77.9784L128.12 76.5144L127.791 77.9784L126.344 78.336ZM73.8688 109.987L75.3201 110.258L75.6427 111.809L75.9676 110.258L77.419 109.987L75.9747 109.63L75.6522 108.168L75.3225 109.63L73.8688 109.987ZM98.151 80.3448L98.962 80.496L99.1423 81.3624L99.3249 80.496L100.136 80.3448L99.3273 80.1432L99.1423 79.3272L98.9573 80.1432L98.151 80.3448ZM53.7889 56.5848L54.6 56.736L54.7826 57.6L54.9628 56.736L55.7739 56.5824L54.9652 56.3832L54.7826 55.5672L54.5976 56.3832L53.7889 56.5848ZM83.6158 110.686L84.4269 110.837L84.6071 111.703L84.7897 110.837L85.6008 110.686L84.7921 110.484L84.6071 109.668L84.4221 110.484L83.6158 110.686ZM95.7605 105.766L96.5715 105.917L96.7541 106.783L96.9344 105.917L97.7454 105.766L96.9391 105.564L96.7541 104.748L96.5692 105.564L95.7605 105.766ZM131.675 67.0536L132.486 67.2048L132.669 68.0712L132.849 67.2048L133.66 67.0536L132.854 66.8544L132.669 66.036L132.484 66.8544L131.675 67.0536ZM102.564 78.3888C102.632 78.3824 102.695 78.3507 102.741 78.2999C102.786 78.249 102.812 78.1828 102.812 78.114C102.812 78.0453 102.786 77.979 102.741 77.9282C102.695 77.8773 102.632 77.8456 102.564 77.8392C102.497 77.8456 102.434 77.8773 102.388 77.9282C102.342 77.979 102.317 78.0453 102.317 78.114C102.317 78.1828 102.342 78.249 102.388 78.2999C102.434 78.3507 102.497 78.3824 102.564 78.3888ZM128.538 91.4064C128.605 91.4 128.668 91.3683 128.714 91.3175C128.76 91.2666 128.785 91.2004 128.785 91.1316C128.785 91.0629 128.76 90.9966 128.714 90.9458C128.668 90.8949 128.605 90.8632 128.538 90.8568C128.47 90.8632 128.407 90.8949 128.361 90.9458C128.316 90.9966 128.29 91.0629 128.29 91.1316C128.29 91.2004 128.316 91.2666 128.361 91.3175C128.407 91.3683 128.47 91.4 128.538 91.4064ZM44.4664 68.292C44.534 68.2856 44.5969 68.2539 44.6426 68.2031C44.6883 68.1522 44.7137 68.086 44.7137 68.0172C44.7137 67.9485 44.6883 67.8822 44.6426 67.8314C44.5969 67.7805 44.534 67.7488 44.4664 67.7424C44.3987 67.7488 44.3359 67.7805 44.2902 67.8314C44.2444 67.8822 44.2191 67.9485 44.2191 68.0172C44.2191 68.086 44.2444 68.1522 44.2902 68.2031C44.3359 68.2539 44.3987 68.2856 44.4664 68.292ZM54.1684 53.7432C54.236 53.7368 54.2988 53.7051 54.3446 53.6543C54.3903 53.6034 54.4157 53.5372 54.4157 53.4684C54.4157 53.3997 54.3903 53.3334 54.3446 53.2826C54.2988 53.2317 54.236 53.2 54.1684 53.1936C54.1007 53.2 54.0379 53.2317 53.9921 53.2826C53.9464 53.3334 53.921 53.3997 53.921 53.4684C53.921 53.5372 53.9464 53.6034 53.9921 53.6543C54.0379 53.7051 54.1007 53.7368 54.1684 53.7432ZM77.5494 105.751C77.6003 105.751 77.6492 105.731 77.6852 105.694C77.7212 105.658 77.7415 105.608 77.7415 105.557C77.7415 105.505 77.7212 105.456 77.6852 105.419C77.6492 105.383 77.6003 105.362 77.5494 105.362C77.4984 105.362 77.4496 105.383 77.4136 105.419C77.3775 105.456 77.3573 105.505 77.3573 105.557C77.3573 105.608 77.3775 105.658 77.4136 105.694C77.4496 105.731 77.4984 105.751 77.5494 105.751ZM81.9296 112.435C81.9806 112.435 82.0294 112.415 82.0655 112.378C82.1015 112.342 82.1217 112.292 82.1217 112.241C82.1217 112.189 82.1015 112.14 82.0655 112.103C82.0294 112.067 81.9806 112.046 81.9296 112.046C81.8787 112.046 81.8296 112.066 81.7931 112.102C81.7566 112.138 81.7358 112.187 81.7352 112.238C81.7345 112.29 81.7542 112.34 81.7897 112.377C81.8253 112.413 81.8739 112.435 81.9249 112.435H81.9296ZM100.176 106.786C100.227 106.786 100.276 106.765 100.312 106.729C100.348 106.692 100.368 106.643 100.368 106.591C100.368 106.54 100.348 106.49 100.312 106.454C100.276 106.417 100.227 106.397 100.176 106.397C100.125 106.396 100.076 106.416 100.04 106.452C100.003 106.488 99.9824 106.537 99.9818 106.589C99.9812 106.64 100.001 106.69 100.036 106.727C100.072 106.764 100.121 106.785 100.172 106.786H100.176ZM99.147 94.7232C99.198 94.7232 99.2468 94.7027 99.2829 94.6663C99.3189 94.6298 99.3391 94.5804 99.3391 94.5288C99.3391 94.4772 99.3189 94.4278 99.2829 94.3913C99.2468 94.3549 99.198 94.3344 99.147 94.3344C99.0961 94.3338 99.047 94.3536 99.0105 94.3896C98.974 94.4257 98.9532 94.4748 98.9526 94.5264C98.9519 94.578 98.9716 94.6277 99.0071 94.6646C99.0427 94.7015 99.0913 94.7226 99.1423 94.7232H99.147ZM130.748 65.0712C130.799 65.0712 130.848 65.0507 130.884 65.0143C130.92 64.9778 130.94 64.9284 130.94 64.8768C130.94 64.8252 130.92 64.7758 130.884 64.7393C130.848 64.7029 130.799 64.6824 130.748 64.6824C130.697 64.6824 130.648 64.7029 130.612 64.7393C130.576 64.7758 130.556 64.8252 130.556 64.8768C130.556 64.9284 130.576 64.9778 130.612 65.0143C130.648 65.0507 130.697 65.0712 130.748 65.0712ZM50.6656 68.6928C50.7165 68.6928 50.7654 68.6723 50.8014 68.6359C50.8374 68.5994 50.8577 68.55 50.8577 68.4984C50.8577 68.4468 50.8374 68.3974 50.8014 68.3609C50.7654 68.3245 50.7165 68.304 50.6656 68.304C50.6146 68.304 50.5658 68.3245 50.5298 68.3609C50.4937 68.3974 50.4735 68.4468 50.4735 68.4984C50.4735 68.55 50.4937 68.5994 50.5298 68.6359C50.5658 68.6723 50.6146 68.6928 50.6656 68.6928Z" fill="#FF6F00"/>
<path opacity="0.8" d="M101.426 83.9496L101.756 82.488L102.085 83.9496L103.532 84.3072L102.081 84.5808L101.756 86.1288L101.431 84.5808L99.9794 84.3096L101.426 83.9496ZM45.6948 66.6696L47.1462 66.9408L47.4711 68.4912L47.7937 66.9408L49.245 66.6696L47.8008 66.312L47.4711 64.8504L47.1391 66.312L45.6948 66.6696ZM126.344 78.336L127.795 78.6072L128.12 80.1552L128.445 78.6072L129.896 78.336L128.45 77.9784L128.12 76.5144L127.791 77.9784L126.344 78.336ZM73.8688 109.987L75.3201 110.258L75.6427 111.809L75.9676 110.258L77.419 109.987L75.9747 109.63L75.6522 108.168L75.3225 109.63L73.8688 109.987ZM98.151 80.3448L98.962 80.496L99.1423 81.3624L99.3249 80.496L100.136 80.3448L99.3273 80.1432L99.1423 79.3272L98.9573 80.1432L98.151 80.3448ZM53.7889 56.5848L54.6 56.736L54.7826 57.6L54.9628 56.736L55.7739 56.5824L54.9652 56.3832L54.7826 55.5672L54.5976 56.3832L53.7889 56.5848ZM83.6158 110.686L84.4269 110.837L84.6071 111.703L84.7897 110.837L85.6008 110.686L84.7921 110.484L84.6071 109.668L84.4221 110.484L83.6158 110.686ZM95.7605 105.766L96.5715 105.917L96.7541 106.783L96.9344 105.917L97.7454 105.766L96.9391 105.564L96.7541 104.748L96.5692 105.564L95.7605 105.766ZM131.675 67.0536L132.486 67.2048L132.669 68.0712L132.849 67.2048L133.66 67.0536L132.854 66.8544L132.669 66.036L132.484 66.8544L131.675 67.0536ZM102.564 78.3888C102.632 78.3824 102.695 78.3507 102.741 78.2999C102.786 78.249 102.812 78.1828 102.812 78.114C102.812 78.0453 102.786 77.979 102.741 77.9282C102.695 77.8773 102.632 77.8456 102.564 77.8392C102.497 77.8456 102.434 77.8773 102.388 77.9282C102.342 77.979 102.317 78.0453 102.317 78.114C102.317 78.1828 102.342 78.249 102.388 78.2999C102.434 78.3507 102.497 78.3824 102.564 78.3888ZM128.538 91.4064C128.605 91.4 128.668 91.3683 128.714 91.3175C128.76 91.2666 128.785 91.2004 128.785 91.1316C128.785 91.0629 128.76 90.9966 128.714 90.9458C128.668 90.8949 128.605 90.8632 128.538 90.8568C128.47 90.8632 128.407 90.8949 128.361 90.9458C128.316 90.9966 128.29 91.0629 128.29 91.1316C128.29 91.2004 128.316 91.2666 128.361 91.3175C128.407 91.3683 128.47 91.4 128.538 91.4064ZM44.4664 68.292C44.534 68.2856 44.5969 68.2539 44.6426 68.2031C44.6883 68.1522 44.7137 68.086 44.7137 68.0172C44.7137 67.9485 44.6883 67.8822 44.6426 67.8314C44.5969 67.7805 44.534 67.7488 44.4664 67.7424C44.3987 67.7488 44.3359 67.7805 44.2902 67.8314C44.2444 67.8822 44.2191 67.9485 44.2191 68.0172C44.2191 68.086 44.2444 68.1522 44.2902 68.2031C44.3359 68.2539 44.3987 68.2856 44.4664 68.292ZM54.1684 53.7432C54.236 53.7368 54.2988 53.7051 54.3446 53.6543C54.3903 53.6034 54.4157 53.5372 54.4157 53.4684C54.4157 53.3997 54.3903 53.3334 54.3446 53.2826C54.2988 53.2317 54.236 53.2 54.1684 53.1936C54.1007 53.2 54.0379 53.2317 53.9921 53.2826C53.9464 53.3334 53.921 53.3997 53.921 53.4684C53.921 53.5372 53.9464 53.6034 53.9921 53.6543C54.0379 53.7051 54.1007 53.7368 54.1684 53.7432ZM77.5494 105.751C77.6003 105.751 77.6492 105.731 77.6852 105.694C77.7212 105.658 77.7415 105.608 77.7415 105.557C77.7415 105.505 77.7212 105.456 77.6852 105.419C77.6492 105.383 77.6003 105.362 77.5494 105.362C77.4984 105.362 77.4496 105.383 77.4136 105.419C77.3775 105.456 77.3573 105.505 77.3573 105.557C77.3573 105.608 77.3775 105.658 77.4136 105.694C77.4496 105.731 77.4984 105.751 77.5494 105.751ZM81.9296 112.435C81.9806 112.435 82.0294 112.415 82.0655 112.378C82.1015 112.342 82.1217 112.292 82.1217 112.241C82.1217 112.189 82.1015 112.14 82.0655 112.103C82.0294 112.067 81.9806 112.046 81.9296 112.046C81.8787 112.046 81.8296 112.066 81.7931 112.102C81.7566 112.138 81.7358 112.187 81.7352 112.238C81.7345 112.29 81.7542 112.34 81.7897 112.377C81.8253 112.413 81.8739 112.435 81.9249 112.435H81.9296ZM100.176 106.786C100.227 106.786 100.276 106.765 100.312 106.729C100.348 106.692 100.368 106.643 100.368 106.591C100.368 106.54 100.348 106.49 100.312 106.454C100.276 106.417 100.227 106.397 100.176 106.397C100.125 106.396 100.076 106.416 100.04 106.452C100.003 106.488 99.9824 106.537 99.9818 106.589C99.9812 106.64 100.001 106.69 100.036 106.727C100.072 106.764 100.121 106.785 100.172 106.786H100.176ZM99.147 94.7232C99.198 94.7232 99.2468 94.7027 99.2829 94.6663C99.3189 94.6298 99.3391 94.5804 99.3391 94.5288C99.3391 94.4772 99.3189 94.4278 99.2829 94.3913C99.2468 94.3549 99.198 94.3344 99.147 94.3344C99.0961 94.3338 99.047 94.3536 99.0105 94.3896C98.974 94.4257 98.9532 94.4748 98.9526 94.5264C98.9519 94.578 98.9716 94.6277 99.0071 94.6646C99.0427 94.7015 99.0913 94.7226 99.1423 94.7232H99.147ZM130.748 65.0712C130.799 65.0712 130.848 65.0507 130.884 65.0143C130.92 64.9778 130.94 64.9284 130.94 64.8768C130.94 64.8252 130.92 64.7758 130.884 64.7393C130.848 64.7029 130.799 64.6824 130.748 64.6824C130.697 64.6824 130.648 64.7029 130.612 64.7393C130.576 64.7758 130.556 64.8252 130.556 64.8768C130.556 64.9284 130.576 64.9778 130.612 65.0143C130.648 65.0507 130.697 65.0712 130.748 65.0712ZM50.6656 68.6928C50.7165 68.6928 50.7654 68.6723 50.8014 68.6359C50.8374 68.5994 50.8577 68.55 50.8577 68.4984C50.8577 68.4468 50.8374 68.3974 50.8014 68.3609C50.7654 68.3245 50.7165 68.304 50.6656 68.304C50.6146 68.304 50.5658 68.3245 50.5298 68.3609C50.4937 68.3974 50.4735 68.4468 50.4735 68.4984C50.4735 68.55 50.4937 68.5994 50.5298 68.6359C50.5658 68.6723 50.6146 68.6928 50.6656 68.6928Z" fill="white"/>
</g>
<defs>
<clipPath id="clip0_338_4219">
<rect width="120" height="120" fill="white"/>
</clipPath>
</defs>
</svg>
