<svg width="120" height="120" viewBox="0 0 120 120" fill="none" xmlns="http://www.w3.org/2000/svg">
<path d="M92.9351 71.6617V21.0001L91.8023 20.3401L78.3119 28.1329L77.7551 28.4617L67.0895 47.5945L29.9879 69.0313V106.282L31.1183 107.338L92.9351 71.6617Z" fill="#F0F0F0"/>
<path d="M85.068 70.9944L92.94 66.4512L93.4872 66.768V71.9568L85.6176 76.5L85.068 76.1856V70.9944Z" fill="#FF6F00"/>
<path opacity="0.1" d="M85.068 70.9944L92.94 66.4512L93.4872 66.768V71.9568L85.6176 76.5L85.068 76.1856V70.9944Z" fill="black"/>
<path d="M93.4872 71.9569L85.6176 76.5001V71.3113L93.4872 66.7681V71.9569Z" fill="#FF6F00"/>
<path opacity="0.25" d="M93.4872 71.9569L85.6176 76.5001V71.3113L93.4872 66.7681V71.9569Z" fill="white"/>
<path opacity="0.1" d="M85.068 70.9944L85.6176 71.3112V76.5L85.068 76.1856V70.9944Z" fill="black"/>
<path d="M76.08 76.1857L83.9496 71.6401L84.4968 71.9569V77.1481L76.6272 81.6913L76.08 81.3745V76.1857Z" fill="#FF6F00"/>
<path opacity="0.1" d="M76.08 76.1857L83.9496 71.6401L84.4968 71.9569V77.1481L76.6272 81.6913L76.08 81.3745V76.1857Z" fill="black"/>
<path d="M84.4968 77.148L76.6272 81.6912V76.5L84.4968 71.9568V77.148Z" fill="#FF6F00"/>
<path opacity="0.25" d="M84.4968 77.148L76.6272 81.6912V76.5L84.4968 71.9568V77.148Z" fill="white"/>
<path opacity="0.1" d="M76.08 76.1855L76.6272 76.4999V81.6911L76.08 81.3743V76.1855Z" fill="black"/>
<path d="M67.0896 81.3745L74.9592 76.8313L75.5088 77.1481V82.3369L67.6392 86.8825L67.0896 86.5657V81.3745Z" fill="#FF6F00"/>
<path opacity="0.1" d="M67.0896 81.3745L74.9592 76.8313L75.5088 77.1481V82.3369L67.6392 86.8825L67.0896 86.5657V81.3745Z" fill="black"/>
<path d="M75.5088 82.3367L67.6392 86.8823V81.6911L75.5088 77.1479V82.3367Z" fill="#FF6F00"/>
<path opacity="0.25" d="M75.5088 82.3367L67.6392 86.8823V81.6911L75.5088 77.1479V82.3367Z" fill="white"/>
<path opacity="0.1" d="M67.0896 81.3745L67.6392 81.6913V86.8825L67.0896 86.5657V81.3745Z" fill="black"/>
<path d="M58.0991 86.5656L65.9687 82.02L66.5183 82.3368V87.528L58.6487 92.0712L58.0991 91.7544V86.5656Z" fill="#FF6F00"/>
<path opacity="0.1" d="M58.0991 86.5656L65.9687 82.02L66.5183 82.3368V87.528L58.6487 92.0712L58.0991 91.7544V86.5656Z" fill="black"/>
<path d="M66.5184 87.5281L58.6488 92.0713V86.8825L66.5184 82.3369V87.5281Z" fill="#FF6F00"/>
<path opacity="0.25" d="M66.5184 87.5281L58.6488 92.0713V86.8825L66.5184 82.3369V87.5281Z" fill="white"/>
<path opacity="0.1" d="M58.0991 86.5657L58.6487 86.8825V92.0713L58.0991 91.7545V86.5657Z" fill="black"/>
<path d="M49.1112 91.7544L56.9808 87.2112L57.528 87.528V92.7168L49.6584 97.2624L49.1112 96.9456V91.7544Z" fill="#FF6F00"/>
<path opacity="0.1" d="M49.1112 91.7544L56.9808 87.2112L57.528 87.528V92.7168L49.6584 97.2624L49.1112 96.9456V91.7544Z" fill="black"/>
<path d="M57.5279 92.7169L49.6583 97.2625V92.0713L57.5279 87.5281V92.7169Z" fill="#FF6F00"/>
<path opacity="0.25" d="M57.5279 92.7169L49.6583 97.2625V92.0713L57.5279 87.5281V92.7169Z" fill="white"/>
<path opacity="0.1" d="M49.1112 91.7544L49.6584 92.0712V97.2624L49.1112 96.9456V91.7544Z" fill="black"/>
<path d="M40.1207 96.9457L47.9903 92.4001L48.5399 92.7193V97.9081L40.6703 102.451L40.1207 102.135V96.9457Z" fill="#FF6F00"/>
<path opacity="0.1" d="M40.1207 96.9457L47.9903 92.4001L48.5399 92.7193V97.9081L40.6703 102.451L40.1207 102.135V96.9457Z" fill="black"/>
<path d="M48.54 97.908L40.6704 102.451V97.2624L48.54 92.7168V97.908Z" fill="#FF6F00"/>
<path opacity="0.25" d="M48.54 97.908L40.6704 102.451V97.2624L48.54 92.7168V97.908Z" fill="white"/>
<path opacity="0.1" d="M40.1207 96.9456L40.6703 97.2624V102.451L40.1207 102.134V96.9456Z" fill="black"/>
<path d="M31.1304 102.135L39 97.5913L39.5496 97.9081V103.099L31.68 107.643L31.1304 107.326V102.135Z" fill="#FF6F00"/>
<path opacity="0.1" d="M31.1304 102.135L39 97.5913L39.5496 97.9081V103.099L31.68 107.643L31.1304 107.326V102.135Z" fill="black"/>
<path d="M39.5495 103.099L31.6799 107.642V102.451L39.5495 97.908V103.099Z" fill="#FF6F00"/>
<path opacity="0.25" d="M39.5495 103.099L31.6799 107.642V102.451L39.5495 97.908V103.099Z" fill="white"/>
<path opacity="0.1" d="M31.1304 102.135L31.68 102.451V107.643L31.1304 107.326V102.135Z" fill="black"/>
<path d="M31.68 102.449V107.642L29.4384 106.342V101.146L31.68 102.449Z" fill="#FF6F00"/>
<path opacity="0.2" d="M31.68 102.449V107.642L29.4384 106.342V101.146L31.68 102.449Z" fill="black"/>
<path d="M29.988 100.829L32.2272 102.134L31.68 102.451L29.4384 101.146L29.988 100.829Z" fill="#FF6F00"/>
<path opacity="0.1" d="M29.988 100.829L32.2272 102.134L31.68 102.451L29.4384 101.146L29.988 100.829Z" fill="black"/>
<path d="M31.1328 95.6424L33.936 94.02L34.4832 94.3368V99.5256L31.68 101.15L31.1328 100.834V95.6424Z" fill="#FF6F00"/>
<path opacity="0.1" d="M31.1328 95.6424L33.936 94.02L34.4832 94.3368V99.5256L31.68 101.15L31.1328 100.834V95.6424Z" fill="black"/>
<path d="M34.4831 99.5257L31.6799 101.151V95.9617L34.4831 94.3369V99.5257Z" fill="#FF6F00"/>
<path opacity="0.25" d="M34.4831 99.5257L31.6799 101.151V95.9617L34.4831 94.3369V99.5257Z" fill="white"/>
<path opacity="0.1" d="M31.1328 95.6423L31.68 95.9615V101.15L31.1328 100.834V95.6423Z" fill="black"/>
<path d="M80.0039 67.4353L87.8735 62.8921L88.4231 63.2089V68.4001L80.5511 72.9433L80.0039 72.6265V67.4353Z" fill="#FF6F00"/>
<path opacity="0.1" d="M80.0039 67.4353L87.8735 62.8921L88.4231 63.2089V68.4001L80.5511 72.9433L80.0039 72.6265V67.4353Z" fill="black"/>
<path d="M88.4231 68.3999L80.5511 72.9431V67.7519L88.4231 63.2087V68.3999Z" fill="#FF6F00"/>
<path opacity="0.25" d="M88.4231 68.3999L80.5511 72.9431V67.7519L88.4231 63.2087V68.3999Z" fill="white"/>
<path opacity="0.1" d="M80.0039 67.4353L80.5511 67.7521V72.9433L80.0039 72.6265V67.4353Z" fill="black"/>
<path d="M71.0135 72.6265L78.8831 68.0833L79.4327 68.4001V73.5889L71.5631 78.1345L71.0135 77.8153V72.6265Z" fill="#FF6F00"/>
<path opacity="0.1" d="M71.0135 72.6265L78.8831 68.0833L79.4327 68.4001V73.5889L71.5631 78.1345L71.0135 77.8153V72.6265Z" fill="black"/>
<path d="M79.4327 73.5889L71.5631 78.1345V72.9433L79.4327 68.4001V73.5889Z" fill="#FF6F00"/>
<path opacity="0.25" d="M79.4327 73.5889L71.5631 78.1345V72.9433L79.4327 68.4001V73.5889Z" fill="white"/>
<path opacity="0.1" d="M71.0135 72.6265L71.5631 72.9433V78.1345L71.0135 77.8153V72.6265Z" fill="black"/>
<path d="M62.0232 77.8152L69.8952 73.272L70.4424 73.5888V78.78L62.5728 83.3232L62.0232 83.0064V77.8152Z" fill="#FF6F00"/>
<path opacity="0.1" d="M62.0232 77.8152L69.8952 73.272L70.4424 73.5888V78.78L62.5728 83.3232L62.0232 83.0064V77.8152Z" fill="black"/>
<path d="M70.4424 78.7801L62.5728 83.3233V78.1345L70.4424 73.5889V78.7801Z" fill="#FF6F00"/>
<path opacity="0.25" d="M70.4424 78.7801L62.5728 83.3233V78.1345L70.4424 73.5889V78.7801Z" fill="white"/>
<path opacity="0.1" d="M62.0232 77.8152L62.5728 78.1344V83.3232L62.0232 83.0064V77.8152Z" fill="black"/>
<path d="M53.0327 83.0063L60.9047 78.4631L61.4543 78.7799V83.9687L53.5823 88.5143L53.0327 88.1975V83.0063Z" fill="#FF6F00"/>
<path opacity="0.1" d="M53.0327 83.0063L60.9047 78.4631L61.4543 78.7799V83.9687L53.5823 88.5143L53.0327 88.1975V83.0063Z" fill="black"/>
<path d="M61.4544 83.9688L53.5824 88.5144V83.3232L61.4544 78.78V83.9688Z" fill="#FF6F00"/>
<path opacity="0.25" d="M61.4544 83.9688L53.5824 88.5144V83.3232L61.4544 78.78V83.9688Z" fill="white"/>
<path opacity="0.1" d="M53.0327 83.0063L53.5823 83.3231V88.5144L53.0327 88.1975V83.0063Z" fill="black"/>
<path d="M44.0448 88.1977L51.9144 83.6521L52.464 83.9689V89.1601L44.5944 93.7033L44.0448 93.3865V88.1977Z" fill="#FF6F00"/>
<path opacity="0.1" d="M44.0448 88.1977L51.9144 83.6521L52.464 83.9689V89.1601L44.5944 93.7033L44.0448 93.3865V88.1977Z" fill="black"/>
<path d="M52.464 89.16L44.5944 93.7031V88.5144L52.464 83.9688V89.16Z" fill="#FF6F00"/>
<path opacity="0.25" d="M52.464 89.16L44.5944 93.7031V88.5144L52.464 83.9688V89.16Z" fill="white"/>
<path opacity="0.1" d="M44.0448 88.1975L44.5944 88.5143V93.7031L44.0448 93.3863V88.1975Z" fill="black"/>
<path d="M35.0543 93.3865L42.9239 88.8433L43.4735 89.1601V94.3513L35.6039 98.8945L35.0543 98.5777V93.3865Z" fill="#FF6F00"/>
<path opacity="0.1" d="M35.0543 93.3865L42.9239 88.8433L43.4735 89.1601V94.3513L35.6039 98.8945L35.0543 98.5777V93.3865Z" fill="black"/>
<path d="M43.4736 94.3511L35.604 98.8943V93.7031L43.4736 89.1599V94.3511Z" fill="#FF6F00"/>
<path opacity="0.25" d="M43.4736 94.3511L35.604 98.8943V93.7031L43.4736 89.1599V94.3511Z" fill="white"/>
<path opacity="0.1" d="M35.0543 93.3865L35.6039 93.7033V98.8945L35.0543 98.5777V93.3865Z" fill="black"/>
<path d="M88.9919 62.2464L92.9279 59.9736L93.4775 60.2904V65.4816L89.5415 67.752L88.9919 67.4352V62.2464Z" fill="#FF6F00"/>
<path opacity="0.1" d="M88.9919 62.2464L92.9279 59.9736L93.4775 60.2904V65.4816L89.5415 67.752L88.9919 67.4352V62.2464Z" fill="black"/>
<path d="M93.4775 65.4817L89.5415 67.7521V62.5633L93.4775 60.2905V65.4817Z" fill="#FF6F00"/>
<path opacity="0.25" d="M93.4775 65.4817L89.5415 67.7521V62.5633L93.4775 60.2905V65.4817Z" fill="white"/>
<path opacity="0.1" d="M88.9919 62.2463L89.5415 62.5631V67.7519L88.9919 67.4351V62.2463Z" fill="black"/>
<path d="M31.68 95.9568V101.15L29.4408 99.8496V94.6536L31.68 95.9568Z" fill="#FF6F00"/>
<path opacity="0.2" d="M31.68 95.9568V101.15L29.4408 99.8496V94.6536L31.68 95.9568Z" fill="black"/>
<path d="M29.988 94.3369L32.2296 95.6425L31.68 95.9617L29.4408 94.6537L29.988 94.3369Z" fill="#FF6F00"/>
<path opacity="0.1" d="M29.988 94.3369L32.2296 95.6425L31.68 95.9617L29.4408 94.6537L29.988 94.3369Z" fill="black"/>
<path d="M85.068 58.0176L92.94 53.4744L93.4872 53.7912V58.9824L85.6176 63.5256L85.068 63.2088V58.0176Z" fill="#FF6F00"/>
<path opacity="0.1" d="M85.068 58.0176L92.94 53.4744L93.4872 53.7912V58.9824L85.6176 63.5256L85.068 63.2088V58.0176Z" fill="black"/>
<path d="M93.4872 58.9825L85.6176 63.5257V58.3345L93.4872 53.7913V58.9825Z" fill="#FF6F00"/>
<path opacity="0.25" d="M93.4872 58.9825L85.6176 63.5257V58.3345L93.4872 53.7913V58.9825Z" fill="white"/>
<path opacity="0.1" d="M85.068 58.0176L85.6176 58.3344V63.5256L85.068 63.2088V58.0176Z" fill="black"/>
<path d="M76.08 63.2087L83.9496 58.6655L84.4968 58.9823V64.1711L76.6272 68.7167L76.08 68.3999V63.2087Z" fill="#FF6F00"/>
<path opacity="0.1" d="M76.08 63.2087L83.9496 58.6655L84.4968 58.9823V64.1711L76.6272 68.7167L76.08 68.3999V63.2087Z" fill="black"/>
<path d="M84.4968 64.1712L76.6272 68.7168V63.5256L84.4968 58.9824V64.1712Z" fill="#FF6F00"/>
<path opacity="0.25" d="M84.4968 64.1712L76.6272 68.7168V63.5256L84.4968 58.9824V64.1712Z" fill="white"/>
<path opacity="0.1" d="M76.08 63.2087L76.6272 63.5255V68.7167L76.08 68.3999V63.2087Z" fill="black"/>
<path d="M67.0896 68.4001L74.9592 63.8545L75.5088 64.1713V69.3625L67.6392 73.9057L67.0896 73.5889V68.4001Z" fill="#FF6F00"/>
<path opacity="0.1" d="M67.0896 68.4001L74.9592 63.8545L75.5088 64.1713V69.3625L67.6392 73.9057L67.0896 73.5889V68.4001Z" fill="black"/>
<path d="M75.5088 69.3623L67.6392 73.9055V68.7167L75.5088 64.1711V69.3623Z" fill="#FF6F00"/>
<path opacity="0.25" d="M75.5088 69.3623L67.6392 73.9055V68.7167L75.5088 64.1711V69.3623Z" fill="white"/>
<path opacity="0.1" d="M67.0896 68.4001L67.6392 68.7169V73.9057L67.0896 73.5889V68.4001Z" fill="black"/>
<path d="M58.0991 73.5889L65.9687 69.0457L66.5183 69.3625V74.5513L58.6487 79.0969L58.0991 78.7801V73.5889Z" fill="#FF6F00"/>
<path opacity="0.1" d="M58.0991 73.5889L65.9687 69.0457L66.5183 69.3625V74.5513L58.6487 79.0969L58.0991 78.7801V73.5889Z" fill="black"/>
<path d="M66.5184 74.5513L58.6488 79.0969V73.9057L66.5184 69.3625V74.5513Z" fill="#FF6F00"/>
<path opacity="0.25" d="M66.5184 74.5513L58.6488 79.0969V73.9057L66.5184 69.3625V74.5513Z" fill="white"/>
<path opacity="0.1" d="M58.0991 73.5889L58.6487 73.9057V79.0969L58.0991 78.7801V73.5889Z" fill="black"/>
<path d="M49.1112 78.78L56.9808 74.2344L57.528 74.5512V79.7424L49.6584 84.2856L49.1112 83.9688V78.78Z" fill="#FF6F00"/>
<path opacity="0.1" d="M49.1112 78.78L56.9808 74.2344L57.528 74.5512V79.7424L49.6584 84.2856L49.1112 83.9688V78.78Z" fill="black"/>
<path d="M57.5279 79.7425L49.6583 84.2857V79.0969L57.5279 74.5513V79.7425Z" fill="#FF6F00"/>
<path opacity="0.25" d="M57.5279 79.7425L49.6583 84.2857V79.0969L57.5279 74.5513V79.7425Z" fill="white"/>
<path opacity="0.1" d="M49.1112 78.78L49.6584 79.0968V84.2856L49.1112 83.9688V78.78Z" fill="black"/>
<path d="M40.1207 83.9687L47.9903 79.4255L48.5399 79.7423V84.9335L40.6703 89.4767L40.1207 89.1599V83.9687Z" fill="#FF6F00"/>
<path opacity="0.1" d="M40.1207 83.9687L47.9903 79.4255L48.5399 79.7423V84.9335L40.6703 89.4767L40.1207 89.1599V83.9687Z" fill="black"/>
<path d="M48.54 84.9336L40.6704 89.4768V84.2856L48.54 79.7424V84.9336Z" fill="#FF6F00"/>
<path opacity="0.25" d="M48.54 84.9336L40.6704 89.4768V84.2856L48.54 79.7424V84.9336Z" fill="white"/>
<path opacity="0.1" d="M40.1207 83.9688L40.6703 84.2856V89.4768L40.1207 89.16V83.9688Z" fill="black"/>
<path d="M31.1304 89.1601L39 84.6145L39.5496 84.9337V90.1225L31.68 94.6657L31.1304 94.3489V89.1601Z" fill="#FF6F00"/>
<path opacity="0.1" d="M31.1304 89.1601L39 84.6145L39.5496 84.9337V90.1225L31.68 94.6657L31.1304 94.3489V89.1601Z" fill="black"/>
<path d="M39.5495 90.1224L31.6799 94.6656V89.4768L39.5495 84.9336V90.1224Z" fill="#FF6F00"/>
<path opacity="0.25" d="M39.5495 90.1224L31.6799 94.6656V89.4768L39.5495 84.9336V90.1224Z" fill="white"/>
<path opacity="0.1" d="M31.1304 89.1599L31.68 89.4767V94.6655L31.1304 94.3487V89.1599Z" fill="black"/>
<path d="M31.68 89.4719V94.6655L29.4384 93.3647V88.1711L31.68 89.4719Z" fill="#FF6F00"/>
<path opacity="0.2" d="M31.68 89.4719V94.6655L29.4384 93.3647V88.1711L31.68 89.4719Z" fill="black"/>
<path d="M29.988 87.8545L32.2296 89.1601L31.68 89.4769L29.4384 88.1713L29.988 87.8545Z" fill="#FF6F00"/>
<path opacity="0.1" d="M29.988 87.8545L32.2296 89.1601L31.68 89.4769L29.4384 88.1713L29.988 87.8545Z" fill="black"/>
<path d="M31.1328 82.6512L33.936 81.0264L34.4832 81.3456V86.5344L31.68 88.1592L31.1328 87.8424V82.6512Z" fill="#FF6F00"/>
<path opacity="0.1" d="M31.1328 82.6512L33.936 81.0264L34.4832 81.3456V86.5344L31.68 88.1592L31.1328 87.8424V82.6512Z" fill="black"/>
<path d="M34.4831 86.5345L31.6799 88.1593V82.9681L34.4831 81.3457V86.5345Z" fill="#FF6F00"/>
<path opacity="0.25" d="M34.4831 86.5345L31.6799 88.1593V82.9681L34.4831 81.3457V86.5345Z" fill="white"/>
<path opacity="0.1" d="M31.1328 82.6511L31.68 82.9679V88.1591L31.1328 87.8423V82.6511Z" fill="black"/>
<path d="M80.0039 54.4441L87.8735 49.9009L88.4231 50.2177V55.4089L80.5511 59.9521L80.0039 59.6353V54.4441Z" fill="#FF6F00"/>
<path opacity="0.1" d="M80.0039 54.4441L87.8735 49.9009L88.4231 50.2177V55.4089L80.5511 59.9521L80.0039 59.6353V54.4441Z" fill="black"/>
<path d="M88.4231 55.4087L80.5511 59.9519V54.7607L88.4231 50.2175V55.4087Z" fill="#FF6F00"/>
<path opacity="0.25" d="M88.4231 55.4087L80.5511 59.9519V54.7607L88.4231 50.2175V55.4087Z" fill="white"/>
<path opacity="0.1" d="M80.0039 54.4441L80.5511 54.7609V59.9521L80.0039 59.6353V54.4441Z" fill="black"/>
<path d="M71.0135 59.6352L78.8831 55.0896L79.4327 55.4088V60.5976L71.5631 65.1408L71.0135 64.824V59.6352Z" fill="#FF6F00"/>
<path opacity="0.1" d="M71.0135 59.6352L78.8831 55.0896L79.4327 55.4088V60.5976L71.5631 65.1408L71.0135 64.824V59.6352Z" fill="black"/>
<path d="M79.4327 60.5977L71.5631 65.1409V59.9521L79.4327 55.4089V60.5977Z" fill="#FF6F00"/>
<path opacity="0.25" d="M79.4327 60.5977L71.5631 65.1409V59.9521L79.4327 55.4089V60.5977Z" fill="white"/>
<path opacity="0.1" d="M71.0135 59.6353L71.5631 59.9521V65.1409L71.0135 64.8241V59.6353Z" fill="black"/>
<path d="M62.0232 64.824L69.8952 60.2808L70.4424 60.5976V65.7888L62.5728 70.332L62.0232 70.0152V64.824Z" fill="#FF6F00"/>
<path opacity="0.1" d="M62.0232 64.824L69.8952 60.2808L70.4424 60.5976V65.7888L62.5728 70.332L62.0232 70.0152V64.824Z" fill="black"/>
<path d="M70.4424 65.7889L62.5728 70.3321V65.1409L70.4424 60.5977V65.7889Z" fill="#FF6F00"/>
<path opacity="0.25" d="M70.4424 65.7889L62.5728 70.3321V65.1409L70.4424 60.5977V65.7889Z" fill="white"/>
<path opacity="0.1" d="M62.0232 64.824L62.5728 65.1408V70.332L62.0232 70.0152V64.824Z" fill="black"/>
<path d="M53.0327 70.0151L60.9047 65.4719L61.4543 65.7887V70.9775L53.5823 75.5231L53.0327 75.2063V70.0151Z" fill="#FF6F00"/>
<path opacity="0.1" d="M53.0327 70.0151L60.9047 65.4719L61.4543 65.7887V70.9775L53.5823 75.5231L53.0327 75.2063V70.0151Z" fill="black"/>
<path d="M61.4544 70.9776L53.5824 75.5232V70.332L61.4544 65.7888V70.9776Z" fill="#FF6F00"/>
<path opacity="0.25" d="M61.4544 70.9776L53.5824 75.5232V70.332L61.4544 65.7888V70.9776Z" fill="white"/>
<path opacity="0.1" d="M53.0327 70.0151L53.5823 70.3319V75.5231L53.0327 75.2063V70.0151Z" fill="black"/>
<path d="M44.0448 75.2065L51.9144 70.6609L52.464 70.9777V76.1689L44.5944 80.7121L44.0448 80.3953V75.2065Z" fill="#FF6F00"/>
<path opacity="0.1" d="M44.0448 75.2065L51.9144 70.6609L52.464 70.9777V76.1689L44.5944 80.7121L44.0448 80.3953V75.2065Z" fill="black"/>
<path d="M52.464 76.1687L44.5944 80.7119V75.5231L52.464 70.9775V76.1687Z" fill="#FF6F00"/>
<path opacity="0.25" d="M52.464 76.1687L44.5944 80.7119V75.5231L52.464 70.9775V76.1687Z" fill="white"/>
<path opacity="0.1" d="M44.0448 75.2065L44.5944 75.5233V80.7121L44.0448 80.3953V75.2065Z" fill="black"/>
<path d="M35.0543 80.3953L42.9239 75.8521L43.4735 76.1689V81.3577L35.6039 85.9033L35.0543 85.5864V80.3953Z" fill="#FF6F00"/>
<path opacity="0.1" d="M35.0543 80.3953L42.9239 75.8521L43.4735 76.1689V81.3577L35.6039 85.9033L35.0543 85.5864V80.3953Z" fill="black"/>
<path d="M43.4736 81.3577L35.604 85.9033V80.7121L43.4736 76.1689V81.3577Z" fill="#FF6F00"/>
<path opacity="0.25" d="M43.4736 81.3577L35.604 85.9033V80.7121L43.4736 76.1689V81.3577Z" fill="white"/>
<path opacity="0.1" d="M35.0543 80.3953L35.6039 80.7121V85.9033L35.0543 85.5865V80.3953Z" fill="black"/>
<path d="M88.9919 49.2552L92.9279 46.9824L93.4775 47.2992V52.4904L89.5415 54.7608L88.9919 54.444V49.2552Z" fill="#FF6F00"/>
<path opacity="0.1" d="M88.9919 49.2552L92.9279 46.9824L93.4775 47.2992V52.4904L89.5415 54.7608L88.9919 54.444V49.2552Z" fill="black"/>
<path d="M93.4775 52.4905L89.5415 54.7609V49.5721L93.4775 47.2993V52.4905Z" fill="#FF6F00"/>
<path opacity="0.25" d="M93.4775 52.4905L89.5415 54.7609V49.5721L93.4775 47.2993V52.4905Z" fill="white"/>
<path opacity="0.1" d="M88.9919 49.2551L89.5415 49.5719V54.7607L88.9919 54.4439V49.2551Z" fill="black"/>
<path d="M31.68 82.9656V88.1591L29.4408 86.8584V81.6624L31.68 82.9656Z" fill="#FF6F00"/>
<path opacity="0.2" d="M31.68 82.9656V88.1591L29.4408 86.8584V81.6624L31.68 82.9656Z" fill="black"/>
<path d="M29.988 81.3457L32.2296 82.6513L31.68 82.9681L29.4408 81.6625L29.988 81.3457Z" fill="#FF6F00"/>
<path opacity="0.1" d="M29.988 81.3457L32.2296 82.6513L31.68 82.9681L29.4408 81.6625L29.988 81.3457Z" fill="black"/>
<path d="M85.068 45.0432L92.94 40.5L93.4872 40.8168V46.008L85.6176 50.5512L85.068 50.2344V45.0432Z" fill="#FF6F00"/>
<path opacity="0.1" d="M85.068 45.0432L92.94 40.5L93.4872 40.8168V46.008L85.6176 50.5512L85.068 50.2344V45.0432Z" fill="black"/>
<path d="M93.4872 46.0081L85.6176 50.5513V45.3601L93.4872 40.8169V46.0081Z" fill="#FF6F00"/>
<path opacity="0.25" d="M93.4872 46.0081L85.6176 50.5513V45.3601L93.4872 40.8169V46.0081Z" fill="white"/>
<path opacity="0.1" d="M85.068 45.0432L85.6176 45.36V50.5512L85.068 50.2344V45.0432Z" fill="black"/>
<path d="M76.08 50.2344L83.9496 45.6912L84.4968 46.008V51.1968L76.6272 55.74L76.08 55.4232V50.2344Z" fill="#FF6F00"/>
<path opacity="0.1" d="M76.08 50.2344L83.9496 45.6912L84.4968 46.008V51.1968L76.6272 55.74L76.08 55.4232V50.2344Z" fill="black"/>
<path d="M84.4968 51.1969L76.6272 55.7401V50.5513L84.4968 46.0081V51.1969Z" fill="#FF6F00"/>
<path opacity="0.25" d="M84.4968 51.1969L76.6272 55.7401V50.5513L84.4968 46.0081V51.1969Z" fill="white"/>
<path opacity="0.1" d="M76.08 50.2344L76.6272 50.5512V55.74L76.08 55.4232V50.2344Z" fill="black"/>
<path d="M67.0896 55.4233L74.9592 50.8801L75.5088 51.1969V56.3881L67.6392 60.9313L67.0896 60.6145V55.4233Z" fill="#FF6F00"/>
<path opacity="0.1" d="M67.0896 55.4233L74.9592 50.8801L75.5088 51.1969V56.3881L67.6392 60.9313L67.0896 60.6145V55.4233Z" fill="black"/>
<path d="M75.5088 56.388L67.6392 60.9312V55.74L75.5088 51.1968V56.388Z" fill="#FF6F00"/>
<path opacity="0.25" d="M75.5088 56.388L67.6392 60.9312V55.74L75.5088 51.1968V56.388Z" fill="white"/>
<path opacity="0.1" d="M67.0896 55.4233L67.6392 55.7401V60.9313L67.0896 60.6145V55.4233Z" fill="black"/>
<path d="M58.0991 60.6145L65.9687 56.0713L66.5183 56.3881V61.5769L58.6487 66.1225L58.0991 65.8057V60.6145Z" fill="#FF6F00"/>
<path opacity="0.1" d="M58.0991 60.6145L65.9687 56.0713L66.5183 56.3881V61.5769L58.6487 66.1225L58.0991 65.8057V60.6145Z" fill="black"/>
<path d="M66.5184 61.5767L58.6488 66.1223V60.9311L66.5184 56.3879V61.5767Z" fill="#FF6F00"/>
<path opacity="0.25" d="M66.5184 61.5767L58.6488 66.1223V60.9311L66.5184 56.3879V61.5767Z" fill="white"/>
<path opacity="0.1" d="M58.0991 60.6145L58.6487 60.9313V66.1225L58.0991 65.8057V60.6145Z" fill="black"/>
<path d="M49.1112 65.8056L56.9808 61.26L57.528 61.5768V66.768L49.6584 71.3112L49.1112 70.9944V65.8056Z" fill="#FF6F00"/>
<path opacity="0.1" d="M49.1112 65.8056L56.9808 61.26L57.528 61.5768V66.768L49.6584 71.3112L49.1112 70.9944V65.8056Z" fill="black"/>
<path d="M57.5279 66.7681L49.6583 71.3113V66.1225L57.5279 61.5769V66.7681Z" fill="#FF6F00"/>
<path opacity="0.25" d="M57.5279 66.7681L49.6583 71.3113V66.1225L57.5279 61.5769V66.7681Z" fill="white"/>
<path opacity="0.1" d="M49.1112 65.8057L49.6584 66.1225V71.3113L49.1112 70.9945V65.8057Z" fill="black"/>
<path d="M40.1207 70.9944L47.9903 66.4512L48.5399 66.768V71.9568L40.6703 76.5024L40.1207 76.1856V70.9944Z" fill="#FF6F00"/>
<path opacity="0.1" d="M40.1207 70.9944L47.9903 66.4512L48.5399 66.768V71.9568L40.6703 76.5024L40.1207 76.1856V70.9944Z" fill="black"/>
<path d="M48.54 71.9569L40.6704 76.5025V71.3113L48.54 66.7681V71.9569Z" fill="#FF6F00"/>
<path opacity="0.25" d="M48.54 71.9639L40.6704 76.5071V71.3183L48.54 66.7751V71.9639Z" fill="white"/>
<path opacity="0.1" d="M40.1207 70.9944L40.6703 71.3112V76.5024L40.1207 76.1856V70.9944Z" fill="black"/>
<path d="M31.1304 76.1857L39 71.6401L39.5496 71.9593V77.1481L31.68 81.6913L31.1304 81.3745V76.1857Z" fill="#FF6F00"/>
<path opacity="0.1" d="M31.1304 76.1857L39 71.6401L39.5496 71.9593V77.1481L31.68 81.6913L31.1304 81.3745V76.1857Z" fill="black"/>
<path d="M39.5495 77.148L31.6799 81.6912V76.5024L39.5495 71.9568V77.148Z" fill="#FF6F00"/>
<path opacity="0.25" d="M39.5495 77.148L31.6799 81.6912V76.5024L39.5495 71.9568V77.148Z" fill="white"/>
<path opacity="0.1" d="M31.1304 76.1855L31.68 76.5023V81.6911L31.1304 81.3743V76.1855Z" fill="black"/>
<path d="M31.68 76.4976V81.6912L29.4384 80.3904V75.1968L31.68 76.4976Z" fill="#FF6F00"/>
<path opacity="0.2" d="M31.68 76.4976V81.6912L29.4384 80.3904V75.1968L31.68 76.4976Z" fill="black"/>
<path d="M29.988 74.8801L32.2296 76.1857L31.68 76.5025L29.4384 75.1969L29.988 74.8801Z" fill="#FF6F00"/>
<path opacity="0.1" d="M29.988 74.8801L32.2296 76.1857L31.68 76.5025L29.4384 75.1969L29.988 74.8801Z" fill="black"/>
<path d="M88.9919 36.2616L92.9279 33.9912L93.4775 34.308V39.4968L89.5415 41.7696L88.9919 41.4528V36.2616Z" fill="#FF6F00"/>
<path opacity="0.1" d="M88.9919 36.2616L92.9279 33.9912L93.4775 34.308V39.4968L89.5415 41.7696L88.9919 41.4528V36.2616Z" fill="black"/>
<path d="M93.4775 39.4993L89.5415 41.7697V36.5809L93.4775 34.3081V39.4993Z" fill="#FF6F00"/>
<path opacity="0.25" d="M93.4775 39.4993L89.5415 41.7697V36.5809L93.4775 34.3081V39.4993Z" fill="white"/>
<path opacity="0.1" d="M88.9919 36.2617L89.5415 36.5809V41.7697L88.9919 41.4529V36.2617Z" fill="black"/>
<path d="M80.0039 41.4529L87.8735 36.9097L88.4231 37.2265V42.4177L80.5511 46.9609L80.0039 46.6441V41.4529Z" fill="#FF6F00"/>
<path opacity="0.1" d="M80.0039 41.4529L87.8735 36.9097L88.4231 37.2265V42.4177L80.5511 46.9609L80.0039 46.6441V41.4529Z" fill="black"/>
<path d="M88.4231 42.4175L80.5511 46.9607V41.7695L88.4231 37.2263V42.4175Z" fill="#FF6F00"/>
<path opacity="0.25" d="M88.4231 42.4175L80.5511 46.9607V41.7695L88.4231 37.2263V42.4175Z" fill="white"/>
<path opacity="0.1" d="M80.0039 41.4529L80.5511 41.7697V46.9609L80.0039 46.6441V41.4529Z" fill="black"/>
<path d="M71.0135 46.644L78.8831 42.0984L79.4327 42.4176V47.6064L71.5631 52.1496L71.0135 51.8328V46.644Z" fill="#FF6F00"/>
<path opacity="0.1" d="M71.0135 46.644L78.8831 42.0984L79.4327 42.4176V47.6064L71.5631 52.1496L71.0135 51.8328V46.644Z" fill="black"/>
<path d="M79.4327 47.6065L71.5631 52.1497V46.9609L79.4327 42.4177V47.6065Z" fill="#FF6F00"/>
<path opacity="0.25" d="M79.4327 47.6065L71.5631 52.1497V46.9609L79.4327 42.4177V47.6065Z" fill="white"/>
<path opacity="0.1" d="M71.0135 46.644L71.5631 46.9608V52.1496L71.0135 51.8328V46.644Z" fill="black"/>
<path d="M62.0232 51.8328L69.8952 47.2896L70.4424 47.6064V52.7976L62.5728 57.3408L62.0232 57.024V51.8328Z" fill="#FF6F00"/>
<path opacity="0.1" d="M62.0232 51.8328L69.8952 47.2896L70.4424 47.6064V52.7976L62.5728 57.3408L62.0232 57.024V51.8328Z" fill="black"/>
<path d="M70.4424 52.7976L62.5728 57.3408V52.1496L70.4424 47.6064V52.7976Z" fill="#FF6F00"/>
<path opacity="0.25" d="M70.4424 52.7976L62.5728 57.3408V52.1496L70.4424 47.6064V52.7976Z" fill="white"/>
<path opacity="0.1" d="M62.0232 51.8328L62.5728 52.1496V57.3408L62.0232 57.024V51.8328Z" fill="black"/>
<path d="M68.2032 46.3008L70.4424 47.6064L62.5728 52.1496L60.3312 50.844L68.2032 46.3008Z" fill="#FF6F00"/>
<path d="M62.5728 52.1496V52.8L60.3312 51.4992V50.844L62.5728 52.1496Z" fill="#FF6F00"/>
<path opacity="0.2" d="M62.5728 52.1496V52.8L60.3312 51.4992V50.844L62.5728 52.1496Z" fill="black"/>
<path d="M31.1328 69.6697L33.936 68.0425L34.4832 68.3593V73.5505L31.68 75.1753L31.1328 74.8585V69.6697Z" fill="#FF6F00"/>
<path d="M32.244 67.0537L34.4832 68.3593L31.68 69.9865L29.4408 68.6809L32.244 67.0537Z" fill="#FF6F00"/>
<path d="M34.4831 73.5503L31.6799 75.1751V69.9863L34.4831 68.3591V73.5503Z" fill="#FF6F00"/>
<path opacity="0.25" d="M34.4831 73.5503L31.6799 75.1751V69.9863L34.4831 68.3591V73.5503Z" fill="white"/>
<path opacity="0.1" d="M31.1328 69.6697L31.68 69.9865V75.1753L31.1328 74.8585V69.6697Z" fill="black"/>
<path d="M53.0327 57.0312L60.9047 52.488L61.4543 52.8048V57.9936L53.5823 62.5392L53.0327 62.22V57.0312Z" fill="#FF6F00"/>
<path d="M59.2127 51.4993L61.4543 52.8049L53.5823 57.3481L51.3431 56.0425L59.2127 51.4993Z" fill="#FF6F00"/>
<path d="M61.4544 57.9937L53.5824 62.5393V57.3481L61.4544 52.8049V57.9937Z" fill="#FF6F00"/>
<path opacity="0.25" d="M61.4544 57.9937L53.5824 62.5393V57.3481L61.4544 52.8049V57.9937Z" fill="white"/>
<path opacity="0.1" d="M53.0327 57.0312L53.5823 57.348V62.5392L53.0327 62.22V57.0312Z" fill="black"/>
<path opacity="0.1" d="M53.0327 57.0312L53.5823 57.348V62.5392L53.0327 62.22V57.0312Z" fill="black"/>
<path d="M53.5823 57.3481V57.9985L51.3431 56.6977V56.0425L53.5823 57.3481Z" fill="#FF6F00"/>
<path opacity="0.2" d="M53.5823 57.3481V57.9985L51.3431 56.6977V56.0425L53.5823 57.3481Z" fill="black"/>
<path d="M31.68 69.9817V75.1753L29.4408 73.8745V68.6809L31.68 69.9817Z" fill="#FF6F00"/>
<path opacity="0.2" d="M31.68 69.9817V75.1753L29.4408 73.8745V68.6809L31.68 69.9817Z" fill="black"/>
<path d="M29.988 68.3616L32.2296 69.6696L31.68 69.9864L29.4408 68.6808L29.988 68.3616Z" fill="#FF6F00"/>
<path d="M44.0448 62.22L51.9144 57.6768L52.464 57.9936V63.1848L44.5944 67.728L44.0448 67.4112V62.22Z" fill="#FF6F00"/>
<path d="M50.2224 56.688L52.464 57.9936L44.5944 62.5392L42.3528 61.2312L50.2224 56.688Z" fill="#FF6F00"/>
<path d="M52.464 63.1848L44.5944 67.7281V62.5392L52.464 57.9937V63.1848Z" fill="#FF6F00"/>
<path opacity="0.25" d="M52.464 63.1848L44.5944 67.7281V62.5392L52.464 57.9937V63.1848Z" fill="white"/>
<path opacity="0.1" d="M44.0448 62.22L44.5944 62.5392V67.728L44.0448 67.4112V62.22Z" fill="black"/>
<path opacity="0.1" d="M44.0448 62.22L44.5944 62.5392V67.728L44.0448 67.4112V62.22Z" fill="black"/>
<path d="M44.5944 62.5392V63.1896L42.3528 61.8888V61.2312L44.5944 62.5392Z" fill="#FF6F00"/>
<path opacity="0.2" d="M44.5944 62.5392V63.1896L42.3528 61.8888V61.2312L44.5944 62.5392Z" fill="black"/>
<path d="M35.0543 67.4111L42.9239 62.8679L43.4735 63.1847V68.3735L35.6039 72.9191L35.0543 72.6023V67.4111Z" fill="#FF6F00"/>
<path d="M41.2319 61.8792L43.4735 63.1848L35.6039 67.728L33.3623 66.4224L41.2319 61.8792Z" fill="#FF6F00"/>
<path d="M43.4736 68.3736L35.604 72.9192V67.728L43.4736 63.1848V68.3736Z" fill="#FF6F00"/>
<path opacity="0.25" d="M43.4736 68.3736L35.604 72.9192V67.728L43.4736 63.1848V68.3736Z" fill="white"/>
<path opacity="0.1" d="M35.0543 67.4111L35.6039 67.7279V72.9191L35.0543 72.6023V67.4111Z" fill="black"/>
<path opacity="0.1" d="M35.0543 67.4111L35.6039 67.7279V72.9191L35.0543 72.6023V67.4111Z" fill="black"/>
<path d="M35.6039 67.728V68.3784L33.3623 67.0776V66.4224L35.6039 67.728Z" fill="#FF6F00"/>
<path opacity="0.2" d="M35.6039 67.728V68.3784L33.3623 67.0776V66.4224L35.6039 67.728Z" fill="black"/>
<path d="M85.068 32.0209L92.94 27.4753L93.4872 27.7945V32.9833L85.6176 37.5265L85.068 37.2097V32.0209Z" fill="#FF6F00"/>
<path opacity="0.1" d="M85.068 32.0209L92.94 27.4753L93.4872 27.7945V32.9833L85.6176 37.5265L85.068 37.2097V32.0209Z" fill="black"/>
<path d="M93.4872 32.9832L85.6176 37.5264V32.3376L93.4872 27.7944V32.9832Z" fill="#FF6F00"/>
<path opacity="0.25" d="M93.4872 32.9832L85.6176 37.5264V32.3376L93.4872 27.7944V32.9832Z" fill="white"/>
<path opacity="0.1" d="M85.068 32.0208L85.6176 32.3376V37.5264L85.068 37.2096V32.0208Z" fill="black"/>
<path d="M76.08 37.2097L83.9496 32.6665L84.4968 32.9833V38.1745L76.6272 42.7177L76.08 42.4009V37.2097Z" fill="#FF6F00"/>
<path opacity="0.1" d="M76.08 37.2097L83.9496 32.6665L84.4968 32.9833V38.1745L76.6272 42.7177L76.08 42.4009V37.2097Z" fill="black"/>
<path d="M84.4968 38.1744L76.6272 42.7176V37.5264L84.4968 32.9832V38.1744Z" fill="#FF6F00"/>
<path opacity="0.25" d="M84.4968 38.1744L76.6272 42.7176V37.5264L84.4968 32.9832V38.1744Z" fill="white"/>
<path opacity="0.1" d="M76.08 37.2097L76.6272 37.5265V42.7177L76.08 42.4009V37.2097Z" fill="black"/>
<path d="M67.0896 42.4009L74.9592 37.8577L75.5088 38.1745V43.3633L67.6392 47.9089L67.0896 47.5897V42.4009Z" fill="#FF6F00"/>
<path opacity="0.1" d="M67.0896 42.4009L74.9592 37.8577L75.5088 38.1745V43.3633L67.6392 47.9089L67.0896 47.5897V42.4009Z" fill="black"/>
<path d="M75.5088 43.3631L67.6392 47.9087V42.7175L75.5088 38.1743V43.3631Z" fill="#FF6F00"/>
<path opacity="0.25" d="M75.5088 43.3631L67.6392 47.9087V42.7175L75.5088 38.1743V43.3631Z" fill="white"/>
<path opacity="0.1" d="M67.0896 42.4009L67.6392 42.7177V47.9089L67.0896 47.5897V42.4009Z" fill="black"/>
<path d="M67.0896 42.4009L74.9592 37.8577L75.5088 38.1745V43.3633L67.6392 47.9089L67.0896 47.5897V42.4009Z" fill="#FF6F00"/>
<path opacity="0.1" d="M67.0896 42.4009L74.9592 37.8577L75.5088 38.1745V43.3633L67.6392 47.9089L67.0896 47.5897V42.4009Z" fill="black"/>
<path d="M75.5088 43.3631L67.6392 47.9087V42.7175L75.5088 38.1743V43.3631Z" fill="#FF6F00"/>
<path opacity="0.25" d="M75.5088 43.3631L67.6392 47.9087V42.7175L75.5088 38.1743V43.3631Z" fill="white"/>
<path opacity="0.1" d="M67.0896 42.4009L67.6392 42.7177V47.9089L67.0896 47.5897V42.4009Z" fill="black"/>
<path d="M67.6392 42.7129V47.9089L65.3976 46.6057V41.4121L67.6392 42.7129Z" fill="#FF6F00"/>
<path opacity="0.2" d="M67.6392 42.7129V47.9089L65.3976 46.6057V41.4121L67.6392 42.7129Z" fill="black"/>
<path d="M65.9472 41.0952L68.1864 42.4008L67.6392 42.7176L65.3976 41.412L65.9472 41.0952Z" fill="#FF6F00"/>
<path opacity="0.1" d="M65.9472 41.0952L68.1864 42.4008L67.6392 42.7176L65.3976 41.412L65.9472 41.0952Z" fill="black"/>
<path d="M73.2672 36.8689L75.5088 38.1745L67.6392 42.7177L65.3976 41.4121L73.2672 36.8689Z" fill="#FF6F00"/>
<path d="M67.6392 47.9088L65.3976 46.6056V47.2944L67.632 48.5952L72.1536 45.9841V45.3L67.6392 47.9088Z" fill="#F0F0F0"/>
<path d="M76.0799 37.2432L71.5631 39.8496L69.3215 38.5464V37.8576L71.5631 39.1584L76.0799 36.552V37.2432Z" fill="#F0F0F0"/>
<path d="M80.0039 28.4617L87.8735 23.9185L88.4231 24.2353V29.4241L80.5511 33.9697L80.0039 33.6529V28.4617Z" fill="#FF6F00"/>
<path opacity="0.1" d="M80.0039 28.4617L87.8735 23.9185L88.4231 24.2353V29.4241L80.5511 33.9697L80.0039 33.6529V28.4617Z" fill="black"/>
<path d="M88.4231 29.4242L80.5511 33.9697V28.7786L88.4231 24.2354V29.4242Z" fill="#FF6F00"/>
<path opacity="0.25" d="M88.4231 29.4242L80.5511 33.9697V28.7786L88.4231 24.2354V29.4242Z" fill="white"/>
<path opacity="0.1" d="M80.0039 28.4617L80.5511 28.7785V33.9697L80.0039 33.6529V28.4617Z" fill="black"/>
<path d="M78.8592 27.156L81.1008 28.4616L80.5512 28.7784L78.312 27.4728L78.8592 27.156Z" fill="#FF6F00"/>
<path opacity="0.1" d="M78.8592 27.156L81.1008 28.4616L80.5512 28.7784L78.312 27.4728L78.8592 27.156Z" fill="black"/>
<path d="M86.1816 22.9297L88.4232 24.2353L80.5512 28.7785L78.312 27.4729L86.1816 22.9297Z" fill="#FF6F00"/>
<path d="M80.5512 28.7783V29.4335L78.312 28.1327V27.4775L80.5512 28.7783Z" fill="#FF6F00"/>
<path opacity="0.2" d="M80.5512 28.7783V29.4335L78.312 28.1327V27.4775L80.5512 28.7783Z" fill="black"/>
<path d="M71.0135 33.6528L78.8831 29.1072L79.4327 29.424V34.6152L71.5631 39.1584L71.0135 38.8416V33.6528Z" fill="#FF6F00"/>
<path opacity="0.1" d="M71.0135 33.6528L78.8831 29.1072L79.4327 29.424V34.6152L71.5631 39.1584L71.0135 38.8416V33.6528Z" fill="black"/>
<path d="M79.4327 34.6153L71.5631 39.1585V33.9697L79.4327 29.4241V34.6153Z" fill="#FF6F00"/>
<path opacity="0.25" d="M79.4327 34.6153L71.5631 39.1585V33.9697L79.4327 29.4241V34.6153Z" fill="white"/>
<path opacity="0.1" d="M71.0135 33.6528L71.5631 33.9696V39.1584L71.0135 38.8416V33.6528Z" fill="black"/>
<path d="M71.5631 33.9649V39.1585L69.3215 37.8577V32.6641L71.5631 33.9649Z" fill="#FF6F00"/>
<path opacity="0.2" d="M71.5631 33.9649V39.1585L69.3215 37.8577V32.6641L71.5631 33.9649Z" fill="black"/>
<path d="M69.8711 32.3472L72.1103 33.6528L71.5631 33.9696L69.3215 32.664L69.8711 32.3472Z" fill="#FF6F00"/>
<path opacity="0.1" d="M69.8711 32.3472L72.1103 33.6528L71.5631 33.9696L69.3215 32.664L69.8711 32.3472Z" fill="black"/>
<path d="M77.1911 28.1184L79.4327 29.424L71.5631 33.9696L69.3215 32.664L77.1911 28.1184Z" fill="#FF6F00"/>
<path d="M88.9919 23.2728L92.9279 21L93.4775 21.3168V26.5056L89.5415 28.7784L88.9919 28.4616V23.2728Z" fill="#FF6F00"/>
<path opacity="0.1" d="M88.9919 23.2728L92.9279 21L93.4775 21.3168V26.5056L89.5415 28.7784L88.9919 28.4616V23.2728Z" fill="black"/>
<path d="M93.4775 26.5057L89.5415 28.7785V23.5897L93.4775 21.3169V26.5057Z" fill="#FF6F00"/>
<path opacity="0.25" d="M93.4775 26.5057L89.5415 28.7785V23.5897L93.4775 21.3169V26.5057Z" fill="white"/>
<path opacity="0.1" d="M88.9919 23.2729L89.5415 23.5897V28.7786L88.9919 28.4617V23.2729Z" fill="black"/>
<path d="M89.5415 23.5849V24.2401L87.2999 22.9369V22.2817L89.5415 23.5849Z" fill="#FF6F00"/>
<path opacity="0.2" d="M89.5415 23.5849V24.2401L87.2999 22.9369V22.2817L89.5415 23.5849Z" fill="black"/>
<path d="M87.8495 21.9648L90.0911 23.2728L89.5415 23.5872L87.2999 22.2816L87.8495 21.9648Z" fill="#FF6F00"/>
<path opacity="0.1" d="M87.8495 21.9648L90.0911 23.2728L89.5415 23.5872L87.2999 22.2816L87.8495 21.9648Z" fill="black"/>
<path d="M91.2359 20.0112L93.4775 21.3168L89.5415 23.5896L87.2999 22.2816L91.2359 20.0112Z" fill="#FF6F00"/>
<path d="M56.4 53.9591C56.454 53.9988 56.518 54.0228 56.5848 54.0287C56.8083 54.0541 57.0341 54.0061 57.228 53.8919C57.383 53.762 57.5676 53.6722 57.7656 53.6303C57.8598 53.6307 57.9535 53.6445 58.044 53.6711C58.4943 53.7906 58.9696 53.7764 59.412 53.6303C59.6312 53.555 59.8278 53.4252 59.9831 53.2531C60.1384 53.0809 60.2475 52.8722 60.3 52.6463C60.684 52.7164 61.0805 52.6505 61.4212 52.4599C61.7619 52.2694 62.0257 51.9662 62.1672 51.6023C62.5763 51.6218 62.985 51.5555 63.3672 51.4079C63.5594 51.331 63.7292 51.2069 63.8609 51.0471C63.9926 50.8873 64.082 50.6969 64.1208 50.4935C64.4917 50.5336 64.8669 50.5092 65.2296 50.4215C65.4104 50.3766 65.5771 50.2872 65.7145 50.1614C65.852 50.0357 65.9559 49.8776 66.0168 49.7015C66.0432 49.6007 66.06 49.4807 66.1488 49.4303C66.202 49.4059 66.261 49.3968 66.3192 49.4039C66.6131 49.4299 66.9093 49.3931 67.188 49.2959C67.3265 49.2446 67.4478 49.1552 67.5378 49.038C67.6278 48.9208 67.6829 48.7806 67.6968 48.6335C67.6968 48.2807 67.3872 47.9999 67.0608 47.8631C66.7071 47.7164 66.3176 47.6788 65.9424 47.7551C65.8884 47.5767 65.7893 47.4152 65.6544 47.2865C65.5196 47.1577 65.3538 47.0661 65.1731 47.0204C64.9924 46.9747 64.8029 46.9766 64.6231 47.0259C64.4433 47.0752 64.2794 47.1701 64.1472 47.3015C63.9366 46.9215 63.5859 46.6387 63.1698 46.5136C62.7537 46.3886 62.3052 46.431 61.92 46.6319C61.5953 46.7693 61.32 47.002 61.1304 47.2991C60.9913 47.5784 60.9151 47.8848 60.9072 48.1967C60.9114 48.2373 60.9072 48.2782 60.8948 48.3171C60.8824 48.3559 60.8621 48.3917 60.8352 48.4223C60.7976 48.45 60.754 48.4681 60.708 48.4751C60.3164 48.5673 59.9399 48.7143 59.5896 48.9119C59.382 49.0137 59.2037 49.1665 59.0712 49.3559C58.8768 49.6727 58.9224 50.0759 58.9512 50.4479C58.9595 50.4786 58.9595 50.5109 58.9512 50.5415C58.9272 50.5943 58.8624 50.6111 58.8048 50.6279C58.3754 50.7422 58.0076 51.0197 57.7798 51.4012C57.5521 51.7827 57.4824 52.2381 57.5856 52.6703C57.3146 52.7717 57.058 52.9081 56.8224 53.0759C56.616 53.2319 56.16 53.7599 56.4 53.9591Z" fill="#E0E0E0"/>
<path opacity="0.1" d="M67.7135 48.6265C67.7135 48.2737 67.4039 47.9929 67.0775 47.8561C66.7238 47.7094 66.3343 47.6718 65.9591 47.7481C65.903 47.5707 65.8029 47.4103 65.6683 47.2819C65.5336 47.1535 65.3686 47.0613 65.1887 47.0137C65.1404 47.0024 65.0915 46.9936 65.0423 46.9873C65.1675 47.0838 65.259 47.2173 65.3039 47.3689C65.3783 47.5752 65.3783 47.801 65.3039 48.0073C65.6153 47.9603 65.9334 47.9942 66.2279 48.1057C66.3125 48.1277 66.3903 48.17 66.4548 48.229C66.5192 48.288 66.5682 48.3618 66.5975 48.4441C66.6078 48.5202 66.5985 48.5977 66.5703 48.6691C66.5422 48.7405 66.4962 48.8035 66.4367 48.8521C66.1367 49.1329 65.6807 49.1377 65.2727 49.1233C65.3231 49.4353 65.3471 49.8169 65.0879 49.9969C64.9346 50.0825 64.7583 50.1178 64.5839 50.0977H63.8063C63.7758 50.4259 63.6546 50.7391 63.4563 51.0023C63.2579 51.2655 62.9902 51.4684 62.6831 51.5881C62.9203 51.5681 63.1528 51.5106 63.3719 51.4177C63.5642 51.3408 63.734 51.2167 63.8657 51.0569C63.9974 50.8971 64.0867 50.7067 64.1255 50.5033C64.4965 50.5434 64.8716 50.519 65.2343 50.4313C65.4151 50.3864 65.5818 50.297 65.7193 50.1712C65.8568 50.0455 65.9606 49.8874 66.0215 49.7113C66.0479 49.6105 66.0647 49.4905 66.1535 49.4401C66.2068 49.4157 66.2658 49.4066 66.3239 49.4137C66.6179 49.4397 66.914 49.4029 67.1927 49.3057C67.3359 49.2551 67.4614 49.1639 67.5538 49.0433C67.6463 48.9228 67.7018 48.778 67.7135 48.6265Z" fill="black"/>
<path d="M100.517 69.3552L108.386 73.8984L103.891 76.4928L96.0216 71.9496L100.517 69.3552Z" fill="#FF6F00"/>
<path opacity="0.25" d="M100.517 69.3552L108.386 73.8984L103.891 76.4928L96.0216 71.9496L100.517 69.3552Z" fill="white"/>
<path d="M103.889 76.4952L108.386 73.8984L108.382 76.4904L103.882 79.0872L103.889 76.4952Z" fill="#FF6F00"/>
<path opacity="0.2" d="M103.889 76.4952L108.386 73.8984L108.382 76.4904L103.882 79.0872L103.889 76.4952Z" fill="black"/>
<path d="M96.0121 74.5441L96.0217 71.9497L103.891 76.4929L103.882 79.0873L96.0121 74.5441Z" fill="#FF6F00"/>
<path d="M94.6489 72.6025L102.518 77.1457L98.0233 79.7401L90.1537 75.1969L94.6489 72.6025Z" fill="#FF6F00"/>
<path opacity="0.25" d="M94.6489 72.6025L102.518 77.1457L98.0233 79.7401L90.1537 75.1969L94.6489 72.6025Z" fill="white"/>
<path d="M98.0209 79.7426L102.518 77.1458L102.514 79.7377L98.0137 82.3346L98.0209 79.7426Z" fill="#FF6F00"/>
<path opacity="0.2" d="M98.0209 79.7426L102.518 77.1458L102.514 79.7377L98.0137 82.3346L98.0209 79.7426Z" fill="black"/>
<path d="M90.144 77.7912L90.1536 75.1968L98.0232 79.74L98.0136 82.3344L90.144 77.7912Z" fill="#FF6F00"/>
<path d="M96.5953 68.0569L104.465 72.6025L99.9721 75.1969L92.1001 70.6537L96.5953 68.0569Z" fill="#FF6F00"/>
<path opacity="0.25" d="M96.5953 68.0569L104.465 72.6025L99.9721 75.1969L92.1001 70.6537L96.5953 68.0569Z" fill="white"/>
<path d="M99.9673 75.1993L104.465 72.6025L104.46 75.1945L99.9601 77.7913L99.9673 75.1993Z" fill="#FF6F00"/>
<path opacity="0.2" d="M99.9673 75.1993L104.465 72.6025L104.46 75.1945L99.9601 77.7913L99.9673 75.1993Z" fill="black"/>
<path d="M92.0905 73.2458L92.1001 70.6538L99.9721 75.197L99.9601 77.7914L92.0905 73.2458Z" fill="#FF6F00"/>
<path d="M85.0464 98.2175L93.12 93.5519C93.286 93.4633 93.4719 93.4187 93.66 93.4223C93.8496 93.4187 94.0371 93.4633 94.2048 93.5519L102.283 98.2175C102.345 98.2454 102.398 98.2892 102.437 98.3445C102.477 98.3997 102.5 98.4644 102.506 98.5319V99.1199C102.501 99.1872 102.477 99.2518 102.438 99.3067C102.398 99.3616 102.345 99.4049 102.283 99.4319L94.2048 104.095C94.0377 104.186 93.85 104.231 93.66 104.227C93.4715 104.231 93.2854 104.186 93.12 104.095L85.0368 99.4319C84.9752 99.4045 84.9221 99.3611 84.8828 99.3062C84.8436 99.2514 84.8197 99.1871 84.8136 99.1199V98.5295C84.8213 98.4616 84.8469 98.3969 84.8878 98.3421C84.9287 98.2872 84.9834 98.2443 85.0464 98.2175Z" fill="#FF6F00"/>
<path opacity="0.1" d="M84.8232 98.532V99.12C84.8293 99.1872 84.8532 99.2515 84.8925 99.3064C84.9317 99.3612 84.9849 99.4046 85.0464 99.432L93.12 104.098C93.2854 104.188 93.4716 104.234 93.66 104.23V93.4296C93.4719 93.426 93.286 93.4706 93.12 93.5592L85.0368 98.2248C84.9781 98.2538 84.9277 98.2971 84.8904 98.3509C84.853 98.4046 84.8299 98.4669 84.8232 98.532Z" fill="black"/>
<path opacity="0.3" d="M93.6696 93.4223V104.222C93.8595 104.226 94.0473 104.181 94.2144 104.09L102.293 99.4271C102.355 99.4001 102.408 99.3568 102.447 99.3019C102.487 99.2469 102.51 99.1824 102.516 99.1151V98.5247C102.51 98.4572 102.486 98.3925 102.447 98.3373C102.408 98.282 102.355 98.2382 102.293 98.2103L94.2144 93.5519C94.0466 93.4633 93.8592 93.4187 93.6696 93.4223Z" fill="black"/>
<path d="M94.212 103.512L102.295 98.8464C102.36 98.824 102.417 98.7818 102.457 98.7256C102.497 98.6695 102.519 98.6022 102.519 98.5332C102.519 98.4643 102.497 98.397 102.457 98.3409C102.417 98.2847 102.36 98.2425 102.295 98.22L94.212 93.5544C94.0442 93.4681 93.8583 93.4231 93.6696 93.4231C93.4809 93.4231 93.295 93.4681 93.1272 93.5544L85.0464 98.22C84.9811 98.2425 84.9245 98.2847 84.8845 98.3409C84.8444 98.397 84.8229 98.4643 84.8229 98.5332C84.8229 98.6022 84.8444 98.6695 84.8845 98.7256C84.9245 98.7818 84.9811 98.824 85.0464 98.8464L93.12 103.512C93.289 103.598 93.4761 103.643 93.666 103.643C93.8558 103.643 94.0429 103.598 94.212 103.512Z" fill="#FF6F00"/>
<path opacity="0.5" d="M94.212 103.512L102.295 98.8464C102.36 98.824 102.417 98.7818 102.457 98.7256C102.497 98.6695 102.519 98.6022 102.519 98.5332C102.519 98.4643 102.497 98.397 102.457 98.3409C102.417 98.2847 102.36 98.2425 102.295 98.22L94.212 93.5544C94.0442 93.4681 93.8583 93.4231 93.6696 93.4231C93.4809 93.4231 93.295 93.4681 93.1272 93.5544L85.0464 98.22C84.9811 98.2425 84.9245 98.2847 84.8845 98.3409C84.8444 98.397 84.8229 98.4643 84.8229 98.5332C84.8229 98.6022 84.8444 98.6695 84.8845 98.7256C84.9245 98.7818 84.9811 98.824 85.0464 98.8464L93.12 103.512C93.289 103.598 93.4761 103.643 93.666 103.643C93.8558 103.643 94.0429 103.598 94.212 103.512Z" fill="white"/>
<path opacity="0.05" d="M93.6696 93.4224C93.8588 93.4181 94.0458 93.4636 94.212 93.5544L102.295 98.22C102.36 98.2424 102.417 98.2847 102.457 98.3408C102.497 98.397 102.519 98.4642 102.519 98.5332C102.519 98.6022 102.497 98.6694 102.457 98.7256C102.417 98.7817 102.36 98.824 102.295 98.8464L94.212 103.512C94.0452 103.601 93.8585 103.645 93.6696 103.642V93.4224Z" fill="black"/>
<path d="M88.452 97.8263L92.1936 85.6343V85.6151C92.2684 85.4126 92.412 85.2427 92.5992 85.1351C92.9253 84.9544 93.292 84.8596 93.6648 84.8596C94.0376 84.8596 94.4043 84.9544 94.7304 85.1351C94.9175 85.2435 95.0616 85.413 95.1384 85.6151V85.6295L98.88 97.8263C99.2256 98.8847 98.7432 100.03 97.44 100.853C95.3592 102.156 91.9872 102.156 89.9064 100.853C88.5912 100.03 88.1088 98.8799 88.452 97.8263Z" fill="#FF6F00"/>
<path d="M91.1184 89.1312V89.1168L91.6488 87.384C91.6071 87.5374 91.6075 87.6992 91.6497 87.8524C91.6919 88.0057 91.7745 88.1448 91.8888 88.2552C91.9866 88.3623 92.0989 88.4551 92.2224 88.5312C92.6658 88.779 93.1652 88.9091 93.6732 88.9091C94.1811 88.9091 94.6806 88.779 95.124 88.5312C95.247 88.4545 95.3592 88.3617 95.4576 88.2552C95.5725 88.1447 95.6555 88.0052 95.6977 87.8514C95.74 87.6976 95.7399 87.5353 95.6976 87.3816L96.2304 89.1192C96.2738 89.2643 96.2859 89.417 96.2661 89.5671C96.2462 89.7173 96.1948 89.8615 96.1152 89.9904C95.965 90.23 95.7602 90.4307 95.5176 90.576C95.3145 90.6966 95.0978 90.7925 94.872 90.8616C94.0964 91.1065 93.2643 91.1065 92.4888 90.8616C92.2628 90.7929 92.046 90.697 91.8432 90.576C91.6005 90.4307 91.3957 90.23 91.2456 89.9904C91.1648 89.8643 91.1117 89.7226 91.0898 89.5744C91.0679 89.4263 91.0776 89.2753 91.1184 89.1312Z" fill="#FAFAFA"/>
<path d="M88.9752 96.1151V96.1031L89.52 94.3679C89.435 94.6509 89.4251 94.9511 89.4912 95.2391C89.5674 95.5644 89.7223 95.8661 89.9424 96.1175C90.1568 96.363 90.4068 96.575 90.684 96.7463C92.34 97.7831 95.0208 97.7831 96.684 96.7463C96.9624 96.5756 97.2133 96.3636 97.428 96.1175C97.6472 95.8655 97.802 95.5641 97.8792 95.2391C97.9452 94.9518 97.9345 94.6522 97.848 94.3703L98.3808 96.1007V96.1175C98.467 96.4004 98.4867 96.6994 98.4384 96.9911C98.3304 97.6511 97.872 98.2919 97.0656 98.7983C95.1984 99.9695 92.172 99.9695 90.3048 98.7983C89.496 98.2919 89.04 97.6511 88.9296 96.9911C88.8764 96.6996 88.892 96.3996 88.9752 96.1151Z" fill="#FAFAFA"/>
<path d="M90.048 92.6232V92.6112L90.5808 90.876C90.4929 91.1631 90.5108 91.4722 90.6312 91.7472C90.8002 92.112 91.0754 92.4173 91.4208 92.6232L91.4448 92.6376C92.6736 93.408 94.6632 93.408 95.8896 92.6376L95.916 92.6232C96.2614 92.4173 96.5366 92.112 96.7056 91.7472C96.8248 91.4719 96.8427 91.1632 96.756 90.876L97.2864 92.6088V92.6232C97.3764 92.9082 97.3764 93.2141 97.2864 93.4992C97.1739 93.8366 96.9714 94.137 96.7008 94.368C96.5686 94.4888 96.4256 94.5973 96.2736 94.692C95.8372 94.9567 95.3581 95.1435 94.8576 95.244C94.0716 95.4072 93.2604 95.4072 92.4744 95.244C91.9731 95.1439 91.4931 94.9571 91.056 94.692C90.9044 94.5967 90.7615 94.4883 90.6288 94.368C90.3598 94.1357 90.1576 93.8357 90.0432 93.4992C89.956 93.2134 89.9577 92.9079 90.048 92.6232Z" fill="#FAFAFA"/>
<path opacity="0.1" d="M93.6696 84.8663C94.0432 84.8596 94.4117 84.9551 94.7352 85.1423C94.9223 85.2507 95.0664 85.4202 95.1432 85.6223V85.6367L98.88 97.8263C99.2256 98.8847 98.7432 100.029 97.44 100.853C96.2967 101.516 94.9936 101.854 93.672 101.829H93.7056C95.3856 101.537 96.528 99.7895 96.2928 97.9511L94.7376 85.8167L93.6696 84.8663Z" fill="black"/>
<path d="M94.7352 86.479C95.3232 86.1094 95.3232 85.519 94.7352 85.1422C94.4091 84.9615 94.0424 84.8667 93.6696 84.8667C93.2967 84.8667 92.9301 84.9615 92.604 85.1422C92.016 85.5118 92.016 86.1022 92.604 86.479C92.9301 86.6597 93.2967 86.7545 93.6696 86.7545C94.0424 86.7545 94.4091 86.6597 94.7352 86.479Z" fill="#FF6F00"/>
<path opacity="0.5" d="M94.7352 86.479C95.3232 86.1094 95.3232 85.519 94.7352 85.1422C94.4091 84.9615 94.0424 84.8667 93.6696 84.8667C93.2967 84.8667 92.9301 84.9615 92.604 85.1422C92.016 85.5118 92.016 86.1022 92.604 86.479C92.9301 86.6597 93.2967 86.7545 93.6696 86.7545C94.0424 86.7545 94.4091 86.6597 94.7352 86.479Z" fill="white"/>
<path d="M64.0512 94.7256L72.132 90.06C72.3001 89.9748 72.4859 89.9304 72.6744 89.9304C72.8629 89.9304 73.0487 89.9748 73.2168 90.06L81.2952 94.7256C81.357 94.7535 81.4102 94.7973 81.4494 94.8525C81.4887 94.9078 81.5125 94.9725 81.5184 95.04V95.628C81.5125 95.6955 81.4887 95.7602 81.4494 95.8155C81.4102 95.8707 81.357 95.9145 81.2952 95.9424L73.2168 100.606C73.0491 100.692 72.8631 100.738 72.6744 100.738C72.4857 100.738 72.2997 100.692 72.132 100.606L64.0512 95.9424C63.9894 95.9145 63.9362 95.8707 63.897 95.8155C63.8577 95.7602 63.8339 95.6955 63.828 95.628V95.04C63.8339 94.9725 63.8577 94.9078 63.897 94.8525C63.9362 94.7973 63.9894 94.7535 64.0512 94.7256Z" fill="#FF6F00"/>
<path opacity="0.1" d="M63.8401 95.04V95.628C63.846 95.6955 63.8698 95.7602 63.9091 95.8155C63.9483 95.8707 64.0015 95.9145 64.0633 95.9424L72.1441 100.606C72.3103 100.696 72.4973 100.742 72.6865 100.738V89.9376C72.4975 89.9329 72.3105 89.9776 72.1441 90.0672L64.0633 94.7328C64.0025 94.7601 63.9499 94.8028 63.9108 94.8567C63.8716 94.9106 63.8472 94.9738 63.8401 95.04Z" fill="black"/>
<path opacity="0.3" d="M72.6744 89.9305V100.731C72.8636 100.734 73.0506 100.689 73.2168 100.599L81.2952 95.9353C81.357 95.9074 81.4102 95.8636 81.4495 95.8084C81.4887 95.7531 81.5125 95.6884 81.5184 95.6209V95.0401C81.5125 94.9726 81.4887 94.9079 81.4495 94.8526C81.4102 94.7974 81.357 94.7536 81.2952 94.7257L73.2168 90.0601C73.0504 89.9705 72.8634 89.9258 72.6744 89.9305Z" fill="black"/>
<path d="M73.2169 100.02L81.2977 95.3545C81.5977 95.1793 81.5977 94.8985 81.2977 94.7257L73.2169 90.0601C73.0484 89.9745 72.8622 89.9299 72.6733 89.9299C72.4843 89.9299 72.2981 89.9745 72.1297 90.0601L64.0489 94.7257C63.7489 94.8985 63.7489 95.1793 64.0489 95.3545L72.1297 100.02C72.2981 100.106 72.4843 100.15 72.6733 100.15C72.8622 100.15 73.0484 100.106 73.2169 100.02Z" fill="#FF6F00"/>
<path opacity="0.5" d="M73.2169 100.02L81.2977 95.3545C81.5977 95.1793 81.5977 94.8985 81.2977 94.7257L73.2169 90.0601C73.0484 89.9745 72.8622 89.9299 72.6733 89.9299C72.4843 89.9299 72.2981 89.9745 72.1297 90.0601L64.0489 94.7257C63.7489 94.8985 63.7489 95.1793 64.0489 95.3545L72.1297 100.02C72.2981 100.106 72.4843 100.15 72.6733 100.15C72.8622 100.15 73.0484 100.106 73.2169 100.02Z" fill="white"/>
<path opacity="0.05" d="M72.6744 89.9303C72.8633 89.9271 73.0499 89.9716 73.2168 90.0599L81.2976 94.7255C81.5976 94.8983 81.5976 95.1791 81.2976 95.3543L73.2168 100.018C73.0505 100.108 72.8636 100.153 72.6744 100.15V89.9303Z" fill="black"/>
<path d="M67.4569 94.332L71.1961 82.1424V82.1232C71.2711 81.92 71.4157 81.75 71.6041 81.6432C71.9302 81.4625 72.2969 81.3677 72.6697 81.3677C73.0425 81.3677 73.4092 81.4625 73.7353 81.6432C73.9226 81.7507 74.0661 81.9206 74.1409 82.1232V82.1376L77.8801 94.3296C78.2233 95.3904 77.7409 96.5352 76.4281 97.3584C74.3473 98.6616 70.9753 98.6616 68.8945 97.3584C67.5937 96.5376 67.1113 95.3928 67.4569 94.332Z" fill="#FF6F00"/>
<path d="M70.1209 85.6368V85.6248L70.6513 83.892C70.6102 84.0455 70.6107 84.2071 70.6529 84.3603C70.6951 84.5134 70.7774 84.6525 70.8913 84.7632C70.9891 84.8703 71.1014 84.9632 71.2249 85.0392C71.6686 85.286 72.168 85.4154 72.6757 85.4154C73.1834 85.4154 73.6827 85.286 74.1265 85.0392C74.25 84.9632 74.3623 84.8703 74.4601 84.7632C74.5744 84.6523 74.6569 84.5128 74.6991 84.3592C74.7413 84.2055 74.7417 84.0434 74.7001 83.8896L75.2329 85.6272C75.2764 85.7725 75.2884 85.9253 75.2681 86.0755C75.2478 86.2258 75.1957 86.37 75.1153 86.4984C74.9651 86.7381 74.7603 86.9388 74.5177 87.084C74.3146 87.2046 74.0979 87.3005 73.8721 87.3696C73.0966 87.6145 72.2644 87.6145 71.4889 87.3696C71.2631 87.3005 71.0463 87.2046 70.8433 87.084C70.6006 86.9388 70.3958 86.7381 70.2457 86.4984C70.1664 86.3713 70.1143 86.2291 70.0928 86.0807C70.0714 85.9324 70.0809 85.7813 70.1209 85.6368Z" fill="#FAFAFA"/>
<path d="M67.9777 92.6232V92.6112L68.5105 90.876C68.4236 91.1586 68.4129 91.4591 68.4793 91.7472C68.5566 92.0714 68.7114 92.372 68.9305 92.6232C69.1444 92.8707 69.3954 93.0836 69.6745 93.2544C71.3281 94.2888 74.0089 94.2888 75.6625 93.2544C75.9416 93.0836 76.1925 92.8707 76.4065 92.6232C76.6265 92.3726 76.7814 92.0718 76.8577 91.7472C76.9238 91.46 76.9139 91.1605 76.8289 90.8784L77.3593 92.6088V92.6256C77.4464 92.9075 77.4662 93.2059 77.4169 93.4968C77.3089 94.1592 76.8529 94.8 76.0441 95.3064C74.1769 96.4776 71.1505 96.4776 69.2833 95.3064C68.4745 94.8 68.0185 94.1592 67.9105 93.4968C67.8653 93.2043 67.8883 92.9053 67.9777 92.6232Z" fill="#FAFAFA"/>
<path d="M69.0505 89.1288V89.1168L69.5833 87.384C69.4966 87.6713 69.5145 87.9799 69.6337 88.2552C69.8022 88.6198 70.0776 88.9244 70.4233 89.1288L70.4473 89.1456C71.6761 89.916 73.6657 89.916 74.8945 89.1456L74.9185 89.1288C75.2642 88.9244 75.5396 88.6198 75.7081 88.2552C75.8286 87.9802 75.8464 87.6711 75.7585 87.384L76.2913 89.1168V89.1312C76.3801 89.4165 76.3801 89.722 76.2913 90.0072C76.1763 90.3435 75.9742 90.6433 75.7057 90.876C75.573 90.9963 75.4301 91.1047 75.2785 91.2C74.8413 91.4643 74.3613 91.6503 73.8601 91.7496C73.0743 91.9152 72.2627 91.9152 71.4769 91.7496C70.9765 91.6503 70.4973 91.4643 70.0609 91.2C69.9086 91.1047 69.7648 90.9963 69.6313 90.876C69.3628 90.6433 69.1607 90.3435 69.0457 90.0072C68.9584 89.7207 68.9601 89.4144 69.0505 89.1288Z" fill="#FAFAFA"/>
<path opacity="0.1" d="M72.6744 81.3744C73.0482 81.3673 73.4167 81.4627 73.74 81.6504C73.9273 81.7579 74.0708 81.9278 74.1456 82.1304V82.1448L77.8848 94.3368C78.228 95.3976 77.7456 96.5424 76.4328 97.3656C75.2906 98.0294 73.9881 98.3673 72.6672 98.3424H72.6984C74.3784 98.0472 75.5232 96.3 75.288 94.464L73.74 82.32L72.6744 81.3744Z" fill="black"/>
<path d="M73.74 82.9847C74.328 82.6175 74.328 82.0247 73.74 81.6503C73.414 81.4696 73.0473 81.3748 72.6744 81.3748C72.3016 81.3748 71.9349 81.4696 71.6088 81.6503C71.0208 82.0199 71.0208 82.6103 71.6088 82.9847C71.9346 83.1665 72.3014 83.2619 72.6744 83.2619C73.0475 83.2619 73.4143 83.1665 73.74 82.9847Z" fill="#FF6F00"/>
<path opacity="0.5" d="M73.74 82.9847C74.328 82.6175 74.328 82.0247 73.74 81.6503C73.414 81.4696 73.0473 81.3748 72.6744 81.3748C72.3016 81.3748 71.9349 81.4696 71.6088 81.6503C71.0208 82.0199 71.0208 82.6103 71.6088 82.9847C71.9346 83.1665 72.3014 83.2619 72.6744 83.2619C73.0475 83.2619 73.4143 83.1665 73.74 82.9847Z" fill="white"/>
</svg>
