<svg width="120" height="120" viewBox="0 0 120 120" fill="none" xmlns="http://www.w3.org/2000/svg">
<path d="M31.6984 88.1856V80.3064L21.9496 74.676L22.924 83.1192L31.6984 88.1856Z" fill="#263238"/>
<path d="M31.6984 88.1857L46.3216 79.7425L47.296 71.2993L31.6984 80.3065V88.1857Z" fill="#37474F"/>
<path d="M21.3398 72.9888C21.347 72.9115 21.3745 72.8374 21.4196 72.7742C21.4647 72.7109 21.5258 72.6608 21.5966 72.6288L36.923 63.78C37.1164 63.6818 37.3302 63.6306 37.547 63.6306C37.7639 63.6306 37.9777 63.6818 38.171 63.78L47.6486 69.252C47.7196 69.2838 47.7808 69.3339 47.826 69.3971C47.8711 69.4604 47.8985 69.5346 47.9054 69.612V71.8632C47.899 71.9411 47.8717 72.0158 47.8265 72.0795C47.7814 72.1433 47.7199 72.1937 47.6486 72.2256L32.3222 81.072C32.1289 81.1703 31.9151 81.2215 31.6982 81.2215C31.4814 81.2215 31.2676 81.1703 31.0742 81.072L21.5966 75.6C21.526 75.5679 21.465 75.5177 21.4199 75.4545C21.3749 75.3913 21.3472 75.3173 21.3398 75.24V72.9888Z" fill="#FF6F00"/>
<path opacity="0.2" d="M21.5968 72.6289L31.6984 66.7969V81.2233C31.4808 81.2274 31.2659 81.1753 31.0744 81.0721L21.5968 75.6001C21.5261 75.5679 21.4651 75.5177 21.4201 75.4545C21.375 75.3913 21.3473 75.3174 21.34 75.2401V72.9865C21.3475 72.9095 21.3752 72.836 21.4203 72.7732C21.4654 72.7104 21.5263 72.6606 21.5968 72.6289Z" fill="black"/>
<path opacity="0.1" d="M31.6984 66.7968L36.9232 63.78C37.1165 63.6818 37.3303 63.6306 37.5472 63.6306C37.764 63.6306 37.9778 63.6818 38.1712 63.78L47.6488 69.252C47.7197 69.2838 47.7809 69.3339 47.8261 69.3971C47.8712 69.4604 47.8987 69.5346 47.9056 69.612V71.8632C47.8991 71.9411 47.8718 72.0158 47.8267 72.0795C47.7815 72.1433 47.7201 72.1937 47.6488 72.2256L32.3224 81.072C32.1308 81.1753 31.9159 81.2274 31.6984 81.2232V66.7968Z" fill="black"/>
<path d="M31.0744 78.8208L21.5968 73.3488C21.2536 73.1496 21.2536 72.828 21.5968 72.6288L36.9232 63.78C37.1165 63.6818 37.3303 63.6306 37.5472 63.6306C37.764 63.6306 37.9778 63.6818 38.1712 63.78L47.6488 69.252C47.992 69.4512 47.992 69.7728 47.6488 69.972L32.3224 78.8208C32.129 78.9191 31.9152 78.9703 31.6984 78.9703C31.4815 78.9703 31.2677 78.9191 31.0744 78.8208Z" fill="#FF6F00"/>
<path opacity="0.2" d="M44.8599 69.8929C45.1287 70.0489 45.1143 70.3081 44.8263 70.4737L34.1679 76.6297C34.0131 76.7116 33.8411 76.7558 33.6659 76.7587C33.4908 76.7617 33.3174 76.7232 33.1599 76.6465C32.8911 76.4929 32.9055 76.2313 33.1935 76.0657L43.8519 69.9121C44.0066 69.8299 44.1785 69.7853 44.3536 69.7819C44.5288 69.7786 44.7022 69.8166 44.8599 69.8929Z" fill="black"/>
<path opacity="0.2" d="M34.168 76.6296C34.0131 76.7114 33.8411 76.7556 33.666 76.7586C33.4908 76.7615 33.3175 76.723 33.16 76.6464L33.1072 76.6104C33.1342 76.5879 33.1631 76.5678 33.1936 76.5504L43.852 70.3968C44.0066 70.3145 44.1785 70.2699 44.3537 70.2666C44.5288 70.2632 44.7023 70.3012 44.86 70.3776L44.9128 70.416C44.8857 70.4376 44.8568 70.4569 44.8264 70.4736L34.168 76.6296Z" fill="black"/>
<path opacity="0.2" d="M37.0599 65.3904C37.3311 65.544 37.3167 65.8056 37.0287 65.9712L26.3679 72.1248C26.2137 72.207 26.0422 72.2516 25.8674 72.255C25.6927 72.2583 25.5196 72.2203 25.3623 72.144C25.0935 71.988 25.1079 71.7288 25.3935 71.5632L36.0543 65.4072C36.2088 65.3253 36.3804 65.2812 36.5551 65.2782C36.7299 65.2753 36.9029 65.3137 37.0599 65.3904Z" fill="black"/>
<path opacity="0.2" d="M26.368 72.1248C26.2137 72.2071 26.0422 72.2517 25.8675 72.255C25.6927 72.2584 25.5196 72.2203 25.3624 72.1441C25.3434 72.1332 25.3257 72.1203 25.3096 72.1057C25.3362 72.0845 25.3643 72.0653 25.3936 72.0481L36.0544 65.8945C36.2084 65.8117 36.38 65.7667 36.5548 65.7634C36.7297 65.76 36.9029 65.7984 37.06 65.8753C37.0783 65.8861 37.096 65.8981 37.1128 65.9113C37.0866 65.9337 37.0585 65.9538 37.0288 65.9713L26.368 72.1248Z" fill="black"/>
<path opacity="0.2" d="M27.3087 72.7201C27.0399 72.8761 27.0543 73.1353 27.3423 73.3009L31.1823 75.5137C31.3366 75.5959 31.5081 75.6405 31.6828 75.6439C31.8576 75.6472 32.0307 75.6092 32.1879 75.5329C32.4567 75.3769 32.4423 75.1177 32.1567 74.9521L28.3167 72.7393C28.1621 72.657 27.9902 72.6124 27.815 72.6091C27.6399 72.6058 27.4664 72.6438 27.3087 72.7201Z" fill="black"/>
<path opacity="0.2" d="M31.18 75.5015C31.3342 75.5838 31.5057 75.6284 31.6805 75.6317C31.8552 75.6351 32.0283 75.597 32.1856 75.5208C32.2039 75.5099 32.2216 75.4979 32.2384 75.4847C32.2122 75.4623 32.1841 75.4422 32.1544 75.4247L28.3144 73.2119C28.1597 73.1297 27.9878 73.0851 27.8127 73.0817C27.6375 73.0784 27.4641 73.1164 27.3064 73.1928C27.2886 73.2042 27.2717 73.217 27.256 73.2312C27.2819 73.2533 27.31 73.2726 27.34 73.2887L31.18 75.5015Z" fill="black"/>
<path opacity="0.2" d="M25.3623 73.8335C25.0935 73.9871 25.1079 74.2487 25.3935 74.4143L29.2335 76.6271C29.3882 76.7094 29.5601 76.754 29.7352 76.7573C29.9104 76.7607 30.0838 76.7226 30.2415 76.6463C30.5103 76.4903 30.4959 76.2287 30.2079 76.0631L26.3679 73.8503C26.2135 73.7685 26.0419 73.7243 25.8671 73.7213C25.6924 73.7184 25.5194 73.7569 25.3623 73.8335Z" fill="black"/>
<path opacity="0.2" d="M29.2311 76.6272C29.3858 76.7094 29.5577 76.754 29.7328 76.7574C29.908 76.7607 30.0814 76.7227 30.2391 76.6464C30.2583 76.6344 30.2727 76.62 30.2895 76.608C30.2634 76.5855 30.2353 76.5654 30.2055 76.548L26.3655 74.3352C26.2111 74.2533 26.0395 74.2091 25.8647 74.2062C25.69 74.2033 25.517 74.2417 25.3599 74.3184C25.3411 74.3284 25.3234 74.3405 25.3071 74.3544C25.3333 74.3768 25.3614 74.3969 25.3911 74.4144L29.2311 76.6272Z" fill="black"/>
<path opacity="0.2" d="M39.0087 65.9544C38.7399 66.1104 38.7519 66.3696 39.0399 66.5352L42.8799 68.748C43.0341 68.8303 43.2056 68.8749 43.3804 68.8782C43.5552 68.8816 43.7282 68.8435 43.8855 68.7672C44.1567 68.6112 44.1423 68.352 43.8543 68.1864L40.0143 65.9736C39.8601 65.8914 39.6886 65.8468 39.5138 65.8435C39.339 65.8401 39.166 65.8782 39.0087 65.9544Z" fill="black"/>
<path opacity="0.2" d="M42.8776 68.7481C43.0323 68.8304 43.2042 68.875 43.3793 68.8783C43.5545 68.8816 43.7279 68.8436 43.8856 68.7673C43.9034 68.7559 43.9203 68.743 43.936 68.7289C43.9098 68.7072 43.8817 68.688 43.852 68.6713L40.012 66.4585C39.8578 66.3763 39.6863 66.3317 39.5115 66.3283C39.3368 66.325 39.1637 66.363 39.0064 66.4393C38.9881 66.4502 38.9704 66.4622 38.9536 66.4753C38.9798 66.4978 39.0079 66.5179 39.0376 66.5353L42.8776 68.7481Z" fill="black"/>
<path opacity="0.2" d="M37.06 67.0777C36.7912 67.2337 36.8056 67.4953 37.0912 67.6609L40.9312 69.8737C41.0861 69.9552 41.2579 69.9994 41.4329 70.0028C41.6079 70.0061 41.7813 69.9685 41.9392 69.8929C42.208 69.7369 42.1936 69.4753 41.9056 69.3097L38.0656 67.0969C37.911 67.0158 37.7396 66.9718 37.565 66.9685C37.3905 66.9651 37.2175 67.0025 37.06 67.0777Z" fill="black"/>
<path opacity="0.2" d="M40.9287 69.8737C41.0836 69.9552 41.2554 69.9994 41.4304 70.0027C41.6055 70.006 41.7788 69.9684 41.9367 69.8928L41.9895 69.8544C41.9625 69.832 41.9336 69.8119 41.9031 69.7944L38.0631 67.5816C37.9082 67.5001 37.7364 67.4559 37.5614 67.4526C37.3864 67.4493 37.213 67.4869 37.0551 67.5625L37.0023 67.6009C37.0289 67.6228 37.057 67.6428 37.0863 67.6609L40.9287 69.8737Z" fill="black"/>
<path d="M30.724 70.8121V72.9889L31.6984 73.5529L32.6728 72.9889V71.3377C32.6827 71.1576 32.7348 70.9823 32.8248 70.826C32.9149 70.6697 33.0404 70.5367 33.1912 70.4377L35.5912 69.0481L36.0472 68.7865C36.3328 68.6209 36.5656 68.7553 36.5656 69.0865V70.7377L37.54 70.1737V67.9969C37.5425 67.9538 37.5425 67.9105 37.54 67.8673C37.5379 67.8342 37.5331 67.8013 37.5256 67.7689C37.5188 67.7315 37.5092 67.6945 37.4968 67.6585C37.4871 67.63 37.4758 67.6019 37.4632 67.5745C37.45 67.5471 37.4347 67.5206 37.4176 67.4953C37.4019 67.4707 37.3843 67.4474 37.3648 67.4257C37.3466 67.4047 37.3265 67.3855 37.3048 67.3681C37.2839 67.3515 37.2614 67.3371 37.2376 67.3249L37.2064 67.3081L36.268 66.7657C36.1508 66.7108 36.0209 66.6885 35.8921 66.7012C35.7633 66.7139 35.6403 66.761 35.536 66.8377L31.7656 69.0145C31.4627 69.211 31.2104 69.4762 31.0294 69.7885C30.8484 70.1009 30.7438 70.4516 30.724 70.8121Z" fill="#455A64"/>
<path d="M35.5959 69.048V70.1712L36.5703 70.7352V69.084C36.5703 68.7528 36.3303 68.6184 36.0519 68.784L35.5959 69.048Z" fill="#263238"/>
<path d="M31.6984 71.3737V73.5529L32.6728 72.9889V71.3377C32.6827 71.1576 32.7347 70.9823 32.8248 70.826C32.9148 70.6697 33.0403 70.5367 33.1912 70.4377L35.5912 69.0505L36.0472 68.7889C36.3328 68.6233 36.5656 68.7577 36.5656 69.0889V70.7401L37.54 70.1785V67.9993C37.5425 67.9562 37.5425 67.9129 37.54 67.8697C37.5379 67.8366 37.5331 67.8037 37.5256 67.7713C37.5188 67.7339 37.5092 67.697 37.4968 67.6609C37.487 67.6324 37.4758 67.6043 37.4632 67.5769C37.4499 67.5495 37.4347 67.523 37.4176 67.4977C37.4019 67.4731 37.3842 67.4499 37.3648 67.4281C37.3466 67.4071 37.3265 67.3879 37.3048 67.3705C37.2839 67.3539 37.2613 67.3395 37.2376 67.3273L37.2064 67.3105C37.0917 67.2677 36.9683 67.2536 36.847 67.2695C36.7257 67.2854 36.6101 67.3308 36.5104 67.4017L32.74 69.5785C32.4379 69.7753 32.1862 70.0402 32.0053 70.3521C31.8244 70.6639 31.7193 71.0138 31.6984 71.3737Z" fill="#37474F"/>
<path d="M36.5728 80.868L36.2128 80.6616L35.236 81.2232L35.5984 81.432L36.5728 80.868Z" fill="#455A64"/>
<path d="M35.5984 81.4319L35.2384 86.1431L35.236 81.2231L35.5984 81.4319Z" fill="#263238"/>
<path d="M36.5728 80.8682L36.2128 85.5794L36.3304 85.5242L36.5728 80.8682Z" fill="#37474F"/>
<path d="M28.4127 81.7872L28.7727 81.5784L29.7471 82.14L29.3871 82.3488L28.4127 81.7872Z" fill="#455A64"/>
<path d="M28.4127 81.7874L28.7727 86.4962L28.6551 86.441L28.4127 81.7874Z" fill="black"/>
<path d="M24.5127 79.5336L24.8751 79.3271L25.8495 79.8887L25.4871 80.0975L24.5127 79.5336Z" fill="#455A64"/>
<path d="M29.7472 87.0601L29.3872 82.3489L29.7472 82.1401V87.0601Z" fill="#37474F"/>
<path d="M25.8496 79.8889V84.8089L25.4872 80.0977L25.8496 79.8889Z" fill="#37474F"/>
<path d="M24.5127 79.5337L24.8727 84.2449L24.7551 84.1897L24.5127 79.5337Z" fill="black"/>
<path d="M43.3959 76.9297L43.0359 76.7209L42.0615 77.2825L42.4215 77.4913L43.3959 76.9297Z" fill="#455A64"/>
<path d="M42.4215 77.4913L42.0615 82.2025V77.2825L42.4215 77.4913Z" fill="#263238"/>
<path d="M43.3959 76.9297L43.0359 81.6409L43.1559 81.5833L43.3959 76.9297Z" fill="#37474F"/>
<path d="M34.7128 80.0688L34.7152 78.9432L36.664 77.8176L36.9904 78.0048L36.988 79.1304L35.0368 80.256L34.7128 80.0688Z" fill="#37474F"/>
<path d="M36.9903 78.0049L36.9879 79.1305L35.0367 80.2561L35.0415 79.1305L36.9903 78.0049Z" fill="#455A64"/>
<path d="M35.0416 79.1306L34.7152 78.9434L34.7128 80.069L35.0368 80.2562L35.0416 79.1306Z" fill="#263238"/>
<path d="M41.5887 76.1015L41.5935 74.9759L43.5423 73.8503L43.8687 74.0375L43.8639 75.1631L41.9151 76.2887L41.5887 76.1015Z" fill="#37474F"/>
<path d="M43.8688 74.0376L43.864 75.1632L41.9152 76.2888L41.9176 75.1632L43.8688 74.0376Z" fill="#455A64"/>
<path d="M41.9175 75.1633L41.5935 74.9761L41.5887 76.1017L41.9151 76.2889L41.9175 75.1633Z" fill="#263238"/>
<path d="M71.3736 84.8223C71.2416 84.8967 70.9944 84.8943 70.9152 84.9831V85.3071L72.4224 85.0887L72.9912 85.4223L72.7752 85.8759L71.2536 85.7727V86.0967C71.2858 86.121 71.3195 86.1435 71.3544 86.1639C71.7145 86.3461 72.1124 86.4411 72.516 86.4411C72.9195 86.4411 73.3175 86.3461 73.6776 86.1639C73.8103 86.1043 73.9247 86.0104 74.0091 85.8919C74.0935 85.7733 74.1447 85.6344 74.1576 85.4895V85.1655L74.0688 85.1799C74.068 85.1743 74.068 85.1687 74.0688 85.1631L79.7712 81.8703C80.3509 81.9989 80.9573 81.9226 81.4872 81.6543C81.6922 81.5539 81.8547 81.3837 81.9456 81.1743V80.8479L80.4384 81.3927L79.8696 81.0591L80.0856 80.6055L81.6072 80.3847V80.0583C81.6072 80.0583 79.8288 79.9407 79.1808 80.2983C79.0166 80.3846 78.8782 80.513 78.78 80.6703L78.6936 80.6391V80.9607C78.6926 81.0807 78.7268 81.1983 78.792 81.2991L73.0896 84.5919C72.5081 84.4677 71.9016 84.5492 71.3736 84.8223Z" fill="#37474F"/>
<path d="M79.7711 81.8799V81.5559L74.0687 84.8487V85.1727L79.7711 81.8799Z" fill="#37474F"/>
<path d="M78.792 80.9896L73.0896 84.2824C72.51 84.1541 71.904 84.2295 71.3736 84.496C71.1686 84.5964 71.006 84.7666 70.9152 84.976L72.4224 84.7576L72.9912 85.0912L72.7752 85.5424L71.2536 85.7656C71.2858 85.7899 71.3195 85.8124 71.3544 85.8328C71.7145 86.015 72.1124 86.11 72.516 86.11C72.9195 86.11 73.3175 86.015 73.6776 85.8328C74.1576 85.564 74.2824 85.1704 74.0688 84.832L79.7712 81.5392C80.351 81.6666 80.957 81.5903 81.4872 81.3232C81.6922 81.2228 81.8547 81.0526 81.9456 80.8432L80.4384 81.064L79.8696 80.7304L80.0856 80.2768L81.6072 80.0536L81.5064 79.9888C81.1463 79.8066 80.7483 79.7117 80.3448 79.7117C79.9412 79.7117 79.5433 79.8066 79.1832 79.9888C78.72 80.2576 78.5784 80.6512 78.792 80.9896Z" fill="#455A64"/>
<path d="M79.9895 80.8096L79.8695 80.74L80.0855 80.2864L81.6071 80.0632V80.3896L80.0855 80.6104L79.9895 80.8096Z" fill="#263238"/>
<path d="M72.8712 85.3504L72.9912 85.0984L72.4224 84.7625L70.9152 84.9832V85.3097L72.4224 85.0888L72.8712 85.3504Z" fill="#263238"/>
<path d="M74.8632 89.6129L76.0632 91.6769L80.0856 89.3561C80.1787 89.2984 80.2534 89.2154 80.301 89.1168C80.3486 89.0182 80.3671 88.9081 80.3544 88.7993C80.3386 88.5064 80.2539 88.2213 80.1071 87.9673C79.9603 87.7133 79.7555 87.4976 79.5096 87.3377C79.4246 87.2757 79.3245 87.2377 79.2198 87.2276C79.1151 87.2175 79.0097 87.2356 78.9144 87.2801L74.8632 89.6129Z" fill="#FF6F00"/>
<path d="M74.6231 90.0401C74.6063 90.3545 74.1624 90.4217 74.1624 90.4217L75.0047 91.8833C75.0047 91.8833 75.2855 91.5377 75.5663 91.6745C75.9815 91.8545 76.3056 91.6313 76.3056 91.1345C76.2894 90.842 76.2045 90.5574 76.0577 90.3039C75.911 90.0503 75.7064 89.835 75.4608 89.6753C75.0288 89.4233 74.6735 89.5913 74.6231 90.0401Z" fill="#FF6F00"/>
<path opacity="0.05" d="M74.6231 90.0401C74.6063 90.3545 74.1624 90.4217 74.1624 90.4217L75.0047 91.8833C75.0047 91.8833 75.2855 91.5377 75.5663 91.6745C75.9815 91.8545 76.3056 91.6313 76.3056 91.1345C76.2894 90.842 76.2045 90.5574 76.0577 90.3039C75.911 90.0503 75.7064 89.835 75.4608 89.6753C75.0288 89.4233 74.6735 89.5913 74.6231 90.0401Z" fill="black"/>
<path opacity="0.05" d="M74.3616 90.3594C74.2973 90.3885 74.2296 90.4094 74.16 90.4218L75.0024 91.8834C75.049 91.8305 75.1013 91.783 75.1584 91.7418C75.1344 91.4672 75.0506 91.2012 74.913 90.9624C74.7753 90.7236 74.5872 90.5178 74.3616 90.3594Z" fill="black"/>
<path d="M73.2816 90.5248L73.3512 90.6472C73.3272 90.7323 73.3151 90.8204 73.3152 90.9088C73.3313 91.2017 73.4162 91.4866 73.563 91.7405C73.7098 91.9945 73.9143 92.2103 74.16 92.3704C74.2346 92.4152 74.3155 92.4484 74.4 92.4688L74.4696 92.5912L74.7504 92.4304C74.8353 92.3686 74.9022 92.2854 74.9444 92.1893C74.9866 92.0931 75.0024 91.9875 74.9904 91.8832C74.9747 91.5905 74.8903 91.3057 74.7439 91.0517C74.5976 90.7978 74.3934 90.5819 74.148 90.4216C74.0626 90.3597 73.9621 90.3217 73.8571 90.3116C73.752 90.3014 73.6461 90.3196 73.5504 90.364L73.2816 90.5248Z" fill="#FF6F00"/>
<path d="M74.7216 92.0465C74.706 91.7538 74.6215 91.469 74.4751 91.215C74.3288 90.9611 74.1246 90.7452 73.8792 90.5849C73.4136 90.3161 73.0344 90.5345 73.0344 91.0649C73.0509 91.3577 73.136 91.6425 73.2827 91.8964C73.4294 92.1502 73.6338 92.3661 73.8792 92.5265C74.3448 92.8001 74.7216 92.5841 74.7216 92.0465Z" fill="#FF6F00"/>
<path opacity="0.15" d="M74.7216 92.0465C74.706 91.7538 74.6215 91.469 74.4751 91.215C74.3288 90.9611 74.1246 90.7452 73.8792 90.5849C73.4136 90.3161 73.0344 90.5345 73.0344 91.0649C73.0509 91.3577 73.136 91.6425 73.2827 91.8964C73.4294 92.1502 73.6338 92.3661 73.8792 92.5265C74.3448 92.8001 74.7216 92.5841 74.7216 92.0465Z" fill="black"/>
<path opacity="0.15" d="M73.5504 92.2649C73.6129 92.3348 73.6829 92.3976 73.7592 92.4521L73.956 91.8905L73.716 91.7153L73.5504 92.2649Z" fill="black"/>
<path opacity="0.2" d="M79.6584 88.2209C79.6869 88.2748 79.6939 88.3376 79.6778 88.3964C79.6618 88.4552 79.6239 88.5058 79.572 88.5377L76.692 90.1961C76.6381 90.2256 76.575 90.2333 76.5156 90.2177C76.4563 90.2021 76.4051 90.1643 76.3728 90.1121C76.3442 90.0582 76.3373 89.9955 76.3533 89.9366C76.3694 89.8778 76.4072 89.8273 76.4592 89.7953L79.3392 88.1369C79.393 88.1074 79.4561 88.0997 79.5155 88.1153C79.5749 88.1309 79.626 88.1687 79.6584 88.2209Z" fill="black"/>
<path opacity="0.2" d="M79.14 87.6041C79.1622 87.6153 79.1808 87.6324 79.1939 87.6536C79.2069 87.6748 79.2138 87.6992 79.2138 87.7241C79.2138 87.749 79.2069 87.7733 79.1939 87.7945C79.1808 87.8157 79.1622 87.8329 79.14 87.8441L76.212 89.5241C76.1577 89.5503 76.0971 89.5606 76.0372 89.5538C75.9773 89.547 75.9206 89.5234 75.8736 89.4857C75.8513 89.4745 75.8327 89.4573 75.8196 89.4361C75.8066 89.4149 75.7997 89.3906 75.7997 89.3657C75.7997 89.3408 75.8066 89.3164 75.8196 89.2952C75.8327 89.274 75.8513 89.2569 75.8736 89.2457L78.7992 87.5657C78.8537 87.539 78.9148 87.5284 78.9752 87.5352C79.0355 87.542 79.0927 87.5659 79.14 87.6041Z" fill="black"/>
<path opacity="0.2" d="M79.9344 88.9794C79.9336 88.9551 79.9264 88.9315 79.9135 88.911C79.9007 88.8905 79.8825 88.8737 79.861 88.8625C79.8396 88.8513 79.8155 88.8459 79.7912 88.8471C79.767 88.8482 79.7435 88.8558 79.7232 88.869L76.7952 90.549C76.7455 90.5829 76.7063 90.6302 76.6821 90.6854C76.6579 90.7405 76.6497 90.8014 76.6584 90.861C76.6592 90.8852 76.6664 90.9088 76.6793 90.9293C76.6922 90.9499 76.7103 90.9666 76.7318 90.9779C76.7533 90.9891 76.7773 90.9944 76.8016 90.9933C76.8258 90.9921 76.8493 90.9846 76.8696 90.9714L79.7976 89.2914C79.8471 89.2572 79.8862 89.2099 79.9103 89.1548C79.9345 89.0997 79.9428 89.0389 79.9344 88.9794Z" fill="black"/>
<path d="M66.48 95.4521V96.0137L67.8864 95.5577C68.0252 95.2953 68.2163 95.0642 68.448 94.8785L73.7904 91.7945L73.9536 91.3265L73.7904 91.2329L68.448 94.3169C68.3599 94.3615 68.2616 94.3822 68.163 94.3767C68.0644 94.3712 67.969 94.3398 67.8864 94.2857L66.48 95.4521Z" fill="#455A64"/>
<path d="M66.6456 95.548V96.1096L68.052 95.6536C68.1902 95.3908 68.3814 95.1595 68.6136 94.9744L73.956 91.8904V91.3264L68.6136 94.4104C68.5258 94.4556 68.4276 94.4768 68.3289 94.4718C68.2303 94.4667 68.1348 94.4356 68.052 94.3816L66.6456 95.548Z" fill="#37474F"/>
<path d="M66.6456 96.1098L66.4824 96.0138V95.4521L66.6456 95.5482V96.1098Z" fill="#263238"/>
<path d="M66.4824 95.452L66.6456 95.548L68.052 94.3816L67.8888 94.2856L66.4824 95.452Z" fill="#455A64"/>
<path d="M55.832 93.48L53.6168 92.7264C53.4272 90.6048 53.7008 85.464 57.1496 82.4472C60.6512 79.3848 62.936 81.348 62.8688 82.6872C62.7968 84.1488 59.6552 85.5192 58.0688 87.4872C56.336 89.628 55.796 91.092 55.832 93.48Z" fill="#FF6F00"/>
<path opacity="0.5" d="M55.832 93.48L53.6168 92.7264C53.4272 90.6048 53.7008 85.464 57.1496 82.4472C60.6512 79.3848 62.936 81.348 62.8688 82.6872C62.7968 84.1488 59.6552 85.5192 58.0688 87.4872C56.336 89.628 55.796 91.092 55.832 93.48Z" fill="white"/>
<path d="M54.3367 93.0888C54.3053 93.0882 54.2754 93.0753 54.2534 93.0529C54.2314 93.0304 54.2191 93.0003 54.2191 92.9688C54.2503 87.2616 58.4887 82.2672 60.6007 81.9432C60.6165 81.9409 60.6325 81.9416 60.648 81.9455C60.6635 81.9493 60.678 81.9562 60.6908 81.9657C60.7037 81.9751 60.7145 81.987 60.7227 82.0007C60.7309 82.0143 60.7363 82.0295 60.7387 82.0452C60.7411 82.061 60.7403 82.0771 60.7365 82.0925C60.7326 82.108 60.7258 82.1226 60.7163 82.1354C60.7068 82.1482 60.6949 82.159 60.6813 82.1672C60.6676 82.1754 60.6525 82.1809 60.6367 82.1832C58.5679 82.5 54.4879 87.5808 54.4591 92.9712C54.4588 92.987 54.4554 93.0025 54.4491 93.017C54.4427 93.0314 54.4336 93.0445 54.4223 93.0554C54.4109 93.0663 54.3975 93.0749 54.3828 93.0806C54.3681 93.0864 54.3525 93.0892 54.3367 93.0888Z" fill="white"/>
<path d="M61.0952 88.3632C59.1752 87.732 54.9992 89.832 54.1904 92.9232L55.832 93.4776C57.1577 92.3943 58.7626 91.7079 60.4616 91.4976C63.1664 91.2264 63.008 88.9944 61.0952 88.3632Z" fill="#FF6F00"/>
<path opacity="0.65" d="M61.0952 88.3632C59.1752 87.732 54.9992 89.832 54.1904 92.9232L55.832 93.4776C57.1577 92.3943 58.7626 91.7079 60.4616 91.4976C63.1664 91.2264 63.008 88.9944 61.0952 88.3632Z" fill="white"/>
<path d="M54.9392 93.3409C54.9201 93.3416 54.9011 93.3374 54.884 93.3289C54.856 93.3136 54.8351 93.288 54.8256 93.2576C54.8162 93.2271 54.8191 93.1941 54.8336 93.1657C56.4776 89.9905 60.0464 89.0521 61.4984 89.4409C61.5137 89.4448 61.528 89.4517 61.5405 89.4612C61.5531 89.4708 61.5635 89.4827 61.5714 89.4963C61.5792 89.51 61.5842 89.5251 61.5861 89.5407C61.588 89.5563 61.5868 89.5722 61.5824 89.5873C61.574 89.6179 61.554 89.644 61.5267 89.6601C61.4994 89.6762 61.4669 89.6811 61.436 89.6737C60.0488 89.3017 56.636 90.2137 55.0472 93.2737C55.0375 93.2941 55.0222 93.3113 55.0031 93.3232C54.9839 93.3351 54.9618 93.3412 54.9392 93.3409Z" fill="white"/>
<path d="M53.0864 57.9072V93.3984C53.0971 93.5165 53.1392 93.6296 53.2084 93.7258C53.2777 93.8221 53.3714 93.898 53.48 93.9456C53.7739 94.0958 54.0992 94.1741 54.4292 94.1741C54.7593 94.1741 55.0846 94.0958 55.3784 93.9456C55.4867 93.8976 55.5802 93.8216 55.6494 93.7254C55.7186 93.6292 55.7609 93.5164 55.772 93.3984V57.9072H53.0864Z" fill="#455A64"/>
<path d="M53.0864 64.56L55.772 63.0096V57.9072H53.0864V64.56Z" fill="#37474F"/>
<path d="M49.3352 63.9887L67.8584 53.2943V20.1431L49.3352 30.8375V63.9887Z" fill="#FF6F00"/>
<path d="M67.8584 20.1431L59.5232 15.3311L41 26.0255L49.3352 30.8375L67.8584 20.1431Z" fill="#FF6F00"/>
<path opacity="0.2" d="M67.8584 20.1431L59.5232 15.3311L41 26.0255L49.3352 30.8375L67.8584 20.1431Z" fill="white"/>
<path d="M41 26.0256V59.1768L49.3352 63.9888V30.8376L41 26.0256Z" fill="#FF6F00"/>
<path opacity="0.2" d="M41 26.0256V59.1768L49.3352 63.9888V30.8376L41 26.0256Z" fill="black"/>
<path d="M61.1457 28.7615L54.2769 46.6295L58.5969 43.1351L55.2369 55.7687L62.9169 36.5591L58.5969 39.9287L61.1457 28.7615Z" fill="#FAFAFA"/>
<path d="M50.7368 31.1039C50.9912 30.9575 51.2 31.0775 51.2 31.3727C51.1911 31.5333 51.1445 31.6895 51.064 31.8288C50.9836 31.968 50.8715 32.0864 50.7368 32.1743C50.48 32.3231 50.2736 32.2031 50.2736 31.9079C50.2823 31.7469 50.3287 31.5903 50.4092 31.4506C50.4897 31.3109 50.6019 31.1922 50.7368 31.1039Z" fill="#37474F"/>
<path d="M50.7368 61.0512C50.9912 60.9024 51.2 61.0224 51.2 61.3176C51.1911 61.4782 51.1445 61.6345 51.064 61.7737C50.9836 61.913 50.8715 62.0313 50.7368 62.1192C50.48 62.268 50.2736 62.148 50.2736 61.8528C50.2819 61.6921 50.3282 61.5356 50.4087 61.3963C50.4892 61.257 50.6017 61.1387 50.7368 61.0512Z" fill="#37474F"/>
<path d="M66.4689 22.0151C66.7257 21.8663 66.9321 21.9863 66.9321 22.2815C66.9237 22.4422 66.8774 22.5987 66.7969 22.738C66.7164 22.8774 66.6039 22.9956 66.4689 23.0831C66.2145 23.2319 66.0081 23.1119 66.0081 22.8167C66.0165 22.6563 66.0626 22.5001 66.1427 22.3608C66.2227 22.2216 66.3345 22.1031 66.4689 22.0151Z" fill="#37474F"/>
<path d="M66.4689 51.9599C66.7257 51.8111 66.9321 51.9311 66.9321 52.2263C66.9237 52.387 66.8774 52.5435 66.7969 52.6828C66.7164 52.8222 66.6039 52.9405 66.4689 53.0279C66.2145 53.1767 66.0081 53.0567 66.0081 52.7615C66.0165 52.6011 66.0626 52.4449 66.1427 52.3057C66.2227 52.1664 66.3345 52.0479 66.4689 51.9599Z" fill="#37474F"/>
<path d="M67.8584 20.1431V43.6703L78.0464 37.7879V4.63672L59.5232 15.3311L67.8584 20.1431Z" fill="#FF6F00"/>
<path d="M78.0464 4.63676L59.5232 15.3312L58.5968 14.796L77.12 4.10156L78.0464 4.63676Z" fill="#FF6F00"/>
<path opacity="0.2" d="M78.0464 4.63676L59.5232 15.3312L58.5968 14.796L77.12 4.10156L78.0464 4.63676Z" fill="white"/>
<path d="M58.5968 15.8663V14.7959L59.5232 15.3311L58.5968 15.8663Z" fill="#FF6F00"/>
<path opacity="0.2" d="M58.5968 15.8663V14.7959L59.5232 15.3311L58.5968 15.8663Z" fill="black"/>
<path opacity="0.2" d="M59.5232 15.3311L71.4512 18.6047V41.5967L67.8584 43.6703V20.1431L59.5232 15.3311Z" fill="black"/>
</svg>
