<svg width="120" height="120" viewBox="0 0 120 120" fill="none" xmlns="http://www.w3.org/2000/svg">
<path d="M9.27362 82.8263L21.9552 82.7687L34.6368 82.7471L60 82.7063L85.3632 82.7471L98.0448 82.7687L110.726 82.8263L98.0448 82.8839L85.3632 82.9055L60 82.9463L34.6368 82.9055L21.9552 82.8839L9.27362 82.8263Z" fill="#263238"/>
<path d="M20.6016 59.5417C20.3484 60.4667 20.1812 61.4132 20.1024 62.3689C20.1288 62.4169 20.124 62.5922 20.1024 62.5442C20.1024 62.6978 19.8624 62.6713 19.8624 62.5177C19.8624 62.4169 19.8624 62.3161 19.8624 62.2201C19.3104 61.5337 18.5088 61.0993 17.8608 60.5042C17.3382 60.036 16.9574 59.4307 16.7616 58.757C16.224 56.9042 16.728 54.941 16.0824 53.0906C15.5232 51.497 14.5248 50.1121 13.6824 48.6673C12.7896 47.1409 12.1296 45.5353 12.0648 43.7473C12.012 42.3769 12.1752 40.5529 13.2192 39.5257C14.3232 38.4385 15.6936 39.2546 16.5408 40.2242C18.996 43.0418 20.1408 46.6033 20.592 50.2417C20.832 52.2577 21.108 54.2857 21.0456 56.3186C21.0061 57.4051 20.8574 58.485 20.6016 59.5417Z" fill="#FF6F00"/>
<path d="M20.1144 63.12C20.2473 61.2189 20.224 59.3101 20.0448 57.4128C20.047 57.4058 20.047 57.3982 20.0448 57.3912C20.076 55.848 20.1984 54.312 20.1384 52.7664C20.0636 51.0963 19.8363 49.4366 19.4592 47.808C19.4592 47.7888 19.4256 47.7936 19.4304 47.808C19.731 49.4089 19.91 51.0304 19.9656 52.6584C19.9968 53.5296 19.992 54.4032 19.9464 55.272C19.9296 55.5576 19.9032 55.8432 19.8864 56.1288C19.2456 51.797 17.6806 47.6537 15.2976 43.98C15.264 43.9296 15.1752 43.98 15.2064 44.0352C16.915 46.825 18.1812 49.8626 18.96 53.04C17.76 50.8464 15.9864 49.0464 14.664 46.9464C14.664 46.9344 14.6376 46.9464 14.6448 46.9464C15.8328 49.284 17.796 51.1296 19.0464 53.4264C19.264 54.3656 19.44 55.3128 19.5744 56.268C19.752 57.5848 19.8474 58.9113 19.86 60.24C19.14 58.896 18.3936 57.6 17.8056 56.1888C17.7912 56.1504 17.736 56.1768 17.748 56.2152C18.2496 57.6912 18.9216 59.2824 19.8624 60.5352C19.8624 61.4712 19.8368 62.4056 19.7856 63.3384C19.6392 65.8296 19.2144 68.2896 19.0176 70.7784C19.0185 70.7919 19.0242 70.8046 19.0336 70.8144C19.043 70.8241 19.0555 70.8302 19.069 70.8317C19.0824 70.8331 19.096 70.8298 19.1072 70.8222C19.1184 70.8147 19.1266 70.8034 19.1304 70.7904C19.6317 68.2588 19.9604 65.6961 20.1144 63.12Z" fill="#263238"/>
<path d="M17.4672 43.8912C17.4672 43.872 17.4336 43.8912 17.4384 43.9032C17.8944 45.1608 18.1584 46.4376 18.48 47.7264C18.4835 47.7372 18.4908 47.7464 18.5005 47.7523C18.5102 47.7583 18.5217 47.7606 18.5329 47.7589C18.5441 47.7571 18.5544 47.7515 18.5618 47.7429C18.5693 47.7343 18.5735 47.7234 18.5736 47.712C18.4416 46.404 17.9736 45.096 17.4672 43.8912Z" fill="#263238"/>
<path d="M29.0256 49.1665C28.7219 49.9074 28.3724 50.6288 27.9792 51.3265C27.1584 52.8145 26.2992 54.1777 26.148 55.9105C26.0808 56.6857 26.0544 57.4633 25.8192 58.2073C25.6036 58.8478 25.2956 59.4534 24.9048 60.0049C24.0168 61.3009 22.9056 62.4049 22.0824 63.7585C21.2259 65.1588 20.5935 66.6844 20.208 68.2801C20.1864 68.3665 20.0496 68.3425 20.0712 68.2561V68.2369C20.0699 68.2338 20.0692 68.2306 20.0692 68.2273C20.0692 68.2239 20.0699 68.2207 20.0712 68.2177C19.9416 64.5025 20.2392 60.7561 21.372 57.1969C21.8716 55.6313 22.4729 54.1 23.172 52.6129C23.7792 51.3217 24.5376 50.0809 25.6032 49.1161C26.2944 48.4921 27.7944 47.3113 28.7784 47.9377C29.2464 48.2401 29.2104 48.7009 29.0256 49.1665Z" fill="#FF6F00"/>
<path d="M25.2912 57.6001C24.6355 58.6779 23.9142 59.7142 23.1312 60.7033C22.7712 61.1833 22.4112 61.6393 22.0464 62.1097C21.8784 62.3329 21.6864 62.5537 21.5304 62.7913C21.6288 62.4025 21.7248 62.0089 21.8256 61.6201C22.3056 59.7433 22.764 57.8473 23.4792 56.0425C24.2108 54.2945 25.0733 52.6041 26.0592 50.9857C26.0856 50.9425 26.016 50.9113 25.9896 50.9521C25.2 52.2337 24.408 53.5201 23.76 54.8857C23.3932 55.6449 23.0726 56.4255 22.8 57.2233C23.1025 55.5296 23.526 53.8597 24.0672 52.2265C24.0672 52.2121 24.0504 52.2001 24.0456 52.2145C23.3368 53.8683 22.893 55.6234 22.7304 57.4153C22.5704 57.8953 22.4216 58.3825 22.284 58.8769C21.6984 60.9553 21.1848 63.0553 20.7072 65.1649C20.6991 63.7793 20.8188 62.3958 21.0648 61.0321C21.0648 61.0009 21.024 60.9937 21.0168 61.0321C20.6537 62.4545 20.5328 63.928 20.6592 65.3905C20.48 66.1905 20.304 66.9905 20.1312 67.7905C19.7664 69.5017 19.3176 71.2465 19.104 72.9841C19.1042 72.9925 19.1073 73.0005 19.1128 73.0068C19.1182 73.0131 19.1257 73.0173 19.1339 73.0187C19.1421 73.0201 19.1505 73.0187 19.1578 73.0145C19.165 73.0104 19.1706 73.0039 19.1736 72.9961C19.428 72.0601 19.5816 71.0881 19.7904 70.1377C19.9992 69.1873 20.2152 68.2345 20.436 67.2865C20.7576 65.9041 21.096 64.5241 21.4416 63.1465C21.6816 62.6425 22.116 62.1865 22.4496 61.7689C22.8144 61.3057 23.1696 60.8401 23.5368 60.3673C24.2054 59.4944 24.8025 58.569 25.3224 57.6001C25.3344 57.5857 25.3008 57.5713 25.2912 57.6001Z" fill="#263238"/>
<path d="M25.44 56.0017C24.622 57.0463 23.9135 58.1723 23.3256 59.3617C23.3256 59.3761 23.3424 59.3929 23.352 59.3785C24.072 58.2625 24.7632 57.1393 25.4712 56.0185C25.4928 56.0041 25.4616 55.9825 25.44 56.0017Z" fill="#263238"/>
<path d="M9.62884 52.6897C10.1088 53.5177 10.6608 54.5137 10.4544 55.5097C10.3224 56.1409 9.86164 56.6521 9.77764 57.2953C9.59284 58.7161 11.0064 59.6521 12.0312 60.3241C14.5824 62.0041 18.0816 63.4897 18.5448 66.9097C18.564 67.0297 18.7848 67.0009 18.756 66.8809C18.7572 66.8738 18.7572 66.8665 18.756 66.8593C18.756 66.8593 18.7704 66.8593 18.7704 66.8401C19.1038 65.1136 19.0875 63.3378 18.7224 61.6177C18.3408 59.8537 17.5728 58.2721 16.6632 56.7241C15.1296 54.1033 13.5024 51.4201 11.1792 49.4137C10.5384 48.8593 9.22084 47.8609 8.70964 49.1137C8.19844 50.3665 9.04084 51.6769 9.62884 52.6897Z" fill="#FF6F00"/>
<path d="M11.9664 58.2433C13.6464 60.0745 16.3464 61.1017 17.8032 63.1537C16.9899 60.0292 15.4524 57.1401 13.3152 54.7201C13.26 54.6577 13.3488 54.5689 13.4088 54.6265C14.9663 56.1405 16.2121 57.9449 17.076 59.9377C16.6742 58.5466 16.1456 57.1954 15.4968 55.9009C15.4728 55.8505 15.5424 55.8073 15.5712 55.8553C16.3782 57.2695 16.955 58.8031 17.28 60.3985C19.2 65.0401 19.3704 70.4929 18.96 75.3889C18.96 75.4036 18.9542 75.4176 18.9438 75.428C18.9335 75.4383 18.9194 75.4441 18.9048 75.4441C18.8902 75.4441 18.8761 75.4383 18.8658 75.428C18.8554 75.4176 18.8496 75.4036 18.8496 75.3889C18.96 71.5297 18.8976 67.6057 17.9736 63.8353L17.9136 63.5953C16.3296 61.3873 13.6512 60.3625 11.928 58.2649C11.9266 58.2624 11.9257 58.2596 11.9253 58.2568C11.925 58.2539 11.9252 58.251 11.926 58.2482C11.9268 58.2454 11.9281 58.2428 11.9299 58.2405C11.9317 58.2382 11.9339 58.2363 11.9364 58.2349C11.9389 58.2335 11.9417 58.2326 11.9446 58.2323C11.9474 58.2319 11.9504 58.2321 11.9531 58.2329C11.9559 58.2337 11.9585 58.235 11.9608 58.2368C11.9631 58.2386 11.965 58.2408 11.9664 58.2433Z" fill="#263238"/>
<path d="M11.5728 56.6713C12.4608 57.4849 13.3344 58.3177 14.2248 59.1337C14.2248 59.1337 14.2248 59.1577 14.2128 59.1505C13.206 58.4718 12.2995 57.655 11.52 56.7241C11.4912 56.6857 11.5368 56.6401 11.5728 56.6713Z" fill="#263238"/>
<path d="M11.4336 53.1409C12.2189 54.4291 13.1074 55.6515 14.0904 56.7961C14.092 56.7994 14.0925 56.8031 14.0918 56.8067C14.0911 56.8102 14.0892 56.8135 14.0865 56.8159C14.0838 56.8184 14.0804 56.8199 14.0768 56.8202C14.0731 56.8205 14.0695 56.8196 14.0664 56.8177C12.9639 55.769 12.0563 54.5331 11.3856 53.1673C11.3839 53.1641 11.3828 53.1607 11.3824 53.1571C11.382 53.1535 11.3823 53.1499 11.3833 53.1465C11.3853 53.1395 11.39 53.1336 11.3964 53.1301C11.4028 53.1266 11.4103 53.1258 11.4172 53.1278C11.4242 53.1298 11.4301 53.1345 11.4336 53.1409Z" fill="#263238"/>
<path d="M13.9704 82.7592H24.672L23.2296 68.364H15.6192L13.9704 82.7592Z" fill="#455A64"/>
<path d="M15.3504 70.704H23.4648L23.2296 68.364H15.6192L15.3504 70.704Z" fill="#263238"/>
<path d="M14.3064 69.0674H24.336V66.7682H14.3064V69.0674Z" fill="#455A64"/>
<path d="M96.1968 44.304C96.1232 43.0345 95.9442 41.7734 95.6616 40.5336C95.3952 39.4152 95.0184 38.2752 94.3152 37.3512C93.6696 36.5088 92.7456 35.8368 91.6752 35.7048C90.6408 35.58 89.6688 36.0408 88.896 36.6912C87.936 37.5 87.2016 38.568 86.5128 39.6048C85.7583 40.7641 85.0716 41.9661 84.456 43.2048C84.4534 43.2128 84.4537 43.2215 84.4568 43.2293C84.4599 43.2372 84.4657 43.2437 84.4732 43.2477C84.4806 43.2517 84.4892 43.253 84.4975 43.2513C84.5057 43.2496 84.5132 43.245 84.5184 43.2384C85.0503 42.1864 85.665 41.1784 86.3568 40.224C86.9877 39.3091 87.6968 38.4507 88.476 37.6584C89.196 36.9648 90.0888 36.3168 91.116 36.2856C92.1432 36.2544 93.084 36.8256 93.7008 37.6152C94.3896 38.4984 94.74 39.6 95.004 40.6728C95.2759 41.8568 95.4533 43.0606 95.5344 44.2728C95.736 46.7568 95.7912 49.2552 95.8464 51.7464C95.8776 53.1576 95.8968 54.5664 95.9112 55.9776C95.9112 56.6976 95.9232 57.4056 95.928 58.1208C95.9328 58.836 95.8968 66.3168 96.0096 67.0008C96.0336 67.14 96.2496 67.1256 96.2832 67.0008C96.368 66.3524 96.4001 65.6983 96.3792 65.0448C96.3792 64.3656 96.396 56.8848 96.4032 56.2032C96.4152 54.8856 96.4224 53.5632 96.4176 52.2528C96.4104 49.5936 96.3792 46.9416 96.1968 44.304Z" fill="#263238"/>
<path d="M87.4104 38.1097C87.144 38.2177 87.5064 35.0713 86.2656 34.6681C84.5136 34.1017 80.5056 35.1289 78.2688 38.1097C77.8388 38.7201 77.5143 39.3983 77.3088 40.1161C78.4152 39.5809 82.0704 37.8889 82.9872 38.4073C83.8224 38.8873 78.5832 40.5241 76.9704 41.5801C76.8983 42.0171 76.8503 42.4578 76.8264 42.9001C77.76 42.2401 80.328 40.5601 81.4752 40.5601C82.752 40.5601 78.5184 42.7993 76.8072 44.4001C76.8706 45.9658 77.2052 47.5087 77.796 48.9601C78.2352 48.1297 79.2 46.5145 80.448 45.6433C82.176 44.4433 82.9344 46.3777 80.7552 47.9161C79.5936 48.7369 78.756 49.4137 78.2256 49.8697C78.7171 50.8106 79.3721 51.6566 80.16 52.3681C80.9344 51.4968 81.911 50.8293 83.004 50.4241C83.424 50.2777 84.1152 50.0857 84.9456 49.8073C85.092 49.2625 85.5 47.6329 85.536 46.5817C85.584 45.3025 87.1008 46.0129 86.484 48.2857C86.3688 48.7129 86.2632 49.0657 86.1624 49.3609C86.6064 49.1857 87.4944 48.8473 88.0152 48.4513C88.0992 47.7073 87.9744 45.9937 87.6696 44.3713C87.2904 42.3577 88.824 42.2113 89.1552 44.7505C89.3112 45.9217 89.088 47.1337 89.0136 47.9233C90.7464 46.9129 92.184 44.8609 92.184 44.8609C92.025 43.7272 91.615 42.6432 90.984 41.6881C90.132 40.4017 91.0536 39.8953 91.908 41.0569C92.388 41.7049 92.6664 42.7921 92.8224 43.6273C94.656 37.5217 92.4 36.1057 87.4104 38.1097ZM79.0968 44.8057C78.6168 44.1193 80.2608 42.8617 80.6136 43.2889C81.0696 43.8361 79.5696 45.4921 79.0968 44.8057ZM90.024 42.0001C89.3616 42.4801 88.7256 40.8913 89.1552 40.6177C89.5848 40.3441 90.588 41.5777 90.024 42.0001Z" fill="#FF6F00"/>
<path d="M88.5048 41.0928C88.2792 40.6488 88.044 40.2072 87.7848 39.78C87.5488 39.3549 87.2732 38.9531 86.9616 38.58C87.0336 38.4936 87.1008 38.4048 87.1752 38.3184C87.204 38.2824 87.1536 38.2344 87.1224 38.268C87.0384 38.364 86.9592 38.4624 86.8824 38.5584C86.8657 38.5669 86.8528 38.5815 86.8464 38.5992C86.5392 38.9688 86.248 39.348 85.9728 39.7368C85.4853 39.8484 85.0045 39.9878 84.5328 40.1544C84.0528 40.3176 83.5608 40.488 83.0928 40.6896C83.0424 40.7088 83.0664 40.7904 83.1168 40.7688C83.5968 40.5624 84.0648 40.3608 84.5568 40.1952C85.0488 40.0296 85.488 39.9192 85.9536 39.7872C85.8024 40.0008 85.6536 40.2192 85.5096 40.4376C84.6301 40.7161 83.7745 41.0652 82.9512 41.4816C82.0872 41.892 81.2544 42.3696 80.4264 42.8496C80.3808 42.876 80.4264 42.948 80.472 42.9192C81.2866 42.4447 82.1245 42.0114 82.9824 41.6208C83.784 41.2464 84.612 40.9368 85.4208 40.5792C83.3856 43.7544 82.1664 47.4192 80.5344 50.8104C80.5128 50.8584 80.5896 50.8992 80.6088 50.8512C81.108 49.6512 81.6816 48.5016 82.224 47.3328C82.704 46.2816 83.184 45.2256 83.664 44.1744C83.8056 43.8672 83.952 43.56 84.1008 43.2552C84.012 44.952 84.048 46.6752 83.7696 48.3528C83.7681 48.3591 83.768 48.3657 83.7694 48.3721C83.7708 48.3785 83.7736 48.3845 83.7777 48.3896C83.7817 48.3948 83.7869 48.3989 83.7928 48.4018C83.7986 48.4046 83.8051 48.4061 83.8116 48.4061C83.8182 48.4061 83.8246 48.4046 83.8305 48.4018C83.8364 48.3989 83.8415 48.3948 83.8456 48.3896C83.8496 48.3845 83.8524 48.3785 83.8538 48.3721C83.8552 48.3657 83.8552 48.3591 83.8536 48.3528C83.9712 46.5408 84.2904 44.7528 84.2784 42.936C84.2784 42.936 84.2784 42.9216 84.2784 42.912C84.6224 42.2192 84.992 41.5392 85.3872 40.872C86.0616 42.4584 86.7696 44.0688 87.084 45.7728C87.084 45.8256 87.18 45.8016 87.1656 45.7488C86.7072 44.04 86.2824 42.3288 85.4592 40.752C85.8935 40.0324 86.3745 39.3421 86.8992 38.6856C87.1248 39.108 87.4152 39.5064 87.672 39.9096C87.9288 40.3128 88.1712 40.6992 88.392 41.1096C88.8937 41.9679 89.32 42.8681 89.6664 43.8C89.6832 43.8504 89.7672 43.824 89.7456 43.776C89.3424 42.8784 88.9488 41.9712 88.5048 41.0928Z" fill="#263238"/>
<path d="M101.846 45.5591C100.747 44.4575 99.4704 43.0103 97.7664 43.0151C96.1272 43.0151 94.92 44.3376 94.2288 45.6984C93.5088 47.1216 93.2424 48.7343 93.0288 50.3015C92.7881 52.1794 92.6432 54.0682 92.5944 55.9607C92.5656 57.0119 92.568 58.0656 92.5944 59.1168C92.6208 60.168 92.6472 68.0615 92.8344 69.1055C92.8656 69.2759 93.1392 69.2831 93.1488 69.1055C93.1968 68.2223 93.1632 60.5231 93.1488 59.6376C93.1344 58.752 93.1488 57.8927 93.1896 57.0215C93.2544 55.2575 93.3816 53.4983 93.588 51.7415C93.7704 50.2103 93.912 48.636 94.3704 47.1576C94.7856 45.8232 95.5584 44.2991 96.912 43.7135C98.7552 42.9119 100.558 44.3735 101.765 45.6071C101.825 45.6359 101.88 45.5999 101.846 45.5591Z" fill="#263238"/>
<path d="M108.382 49.2626C106.394 49.0586 106.942 47.9786 108.751 48.4538C109.721 48.7167 110.635 49.1551 111.446 49.7474C111.461 48.1106 111.257 46.4474 110.647 45.041C108.989 44.6258 107.479 45.3554 105.931 46.0826C104.383 46.8098 103.346 44.9258 105.168 44.021C105.93 43.6456 106.766 43.443 107.616 43.4276C108.465 43.4123 109.308 43.5846 110.083 43.9322C109.947 43.6927 109.799 43.4604 109.639 43.2362C109.213 42.6101 108.703 42.0449 108.125 41.5562C106.769 41.6666 106.018 42.5018 105.617 42.7562C105.046 43.1306 104.146 42.689 104.717 41.8778C105.161 41.2418 106.27 40.9514 107.186 40.8746C105.552 39.9146 103.922 39.9146 102.998 40.3298C101.398 41.0498 101.846 45.2786 101.846 45.2786C101.846 45.2786 97.6488 43.0322 96.2736 44.7986C95.8349 45.4152 95.5367 46.1206 95.4 46.865C96.8856 46.3178 98.712 46.1858 98.8824 47.0762C99.0648 48.0146 96.552 47.7386 95.2464 47.8898C95.0904 49.7714 95.5296 51.9698 97.0272 53.525C98.304 51.0722 101.138 49.205 101.544 50.561C101.95 51.917 98.904 52.2578 97.6536 54.089C98.194 54.484 98.7808 54.8112 99.4008 55.0634C100.082 54.0434 101.218 52.637 101.762 53.0642C102.307 53.4914 100.879 54.485 99.9552 55.2866C101.271 55.7642 102.622 56.1366 103.997 56.4002C104.333 54.9866 104.981 53.6642 105.605 53.7866C106.229 53.909 105.019 55.3874 104.496 56.5034C106.33 56.8661 108.188 57.1003 110.054 57.2042C110.17 57.1754 110.933 54.941 111.276 52.1642C110.36 51.7963 109.383 51.6002 108.396 51.5858C106.992 51.5186 106.858 49.9202 108.96 50.1458C109.84 50.275 110.675 50.6205 111.389 51.1514C111.41 50.8586 111.427 50.5586 111.439 50.2538C110.498 49.7179 109.458 49.3805 108.382 49.2626ZM107.858 47.0738C108.072 46.5938 109.356 46.7666 109.231 47.3522C109.106 47.9378 107.681 47.4794 107.858 47.0738ZM97.3464 51.0434C97.2696 50.645 98.1288 50.2802 98.2488 50.5994C98.3688 50.9186 97.4544 51.5762 97.3464 51.0434ZM103.39 54.3194C102.708 53.9642 103.685 52.3994 104.311 52.6562C104.822 52.8626 104.074 54.677 103.39 54.3194Z" fill="#FF6F00"/>
<path d="M109.81 56.8945C108.866 55.3177 107.933 53.7312 106.944 52.1832C106.482 51.4632 106.002 50.756 105.504 50.0616C105.581 50.0472 105.655 50.0256 105.73 50.0088C105.854 49.9816 105.979 49.9577 106.104 49.9369C106.394 49.8865 106.687 49.8457 106.978 49.8145C107.268 49.7833 107.53 49.7736 107.808 49.7688C108.103 49.754 108.399 49.7693 108.691 49.8145C108.727 49.8145 108.732 49.7664 108.691 49.7688C108.398 49.7688 108.096 49.7425 107.801 49.7377C107.506 49.7329 107.227 49.7377 106.942 49.7593C106.656 49.7809 106.404 49.8001 106.138 49.8409C105.991 49.8649 105.845 49.8889 105.698 49.9177C105.612 49.9369 105.521 49.9488 105.434 49.9752C104.924 49.2728 104.394 48.584 103.846 47.9088C105.479 47.1152 107.217 46.5607 109.008 46.2624C109.039 46.2624 109.027 46.2097 108.996 46.2145C107.178 46.4665 105.411 47.0026 103.759 47.8032C103.457 47.4336 103.154 47.0657 102.85 46.6993C102.506 46.2889 102.13 45.8881 101.834 45.4513C101.831 45.4462 101.825 45.4428 101.819 45.4419C101.812 45.441 101.806 45.4426 101.801 45.4465C101.796 45.4503 101.792 45.456 101.791 45.4623C101.791 45.4686 101.792 45.475 101.796 45.4801C102.221 45.9469 102.622 46.4355 102.996 46.9441C102.322 47.4138 101.681 47.9286 101.076 48.4849C100.45 49.0417 99.8352 49.6177 99.2424 50.208C99.239 50.2097 99.2361 50.2121 99.2338 50.2151C99.2315 50.218 99.2299 50.2215 99.2292 50.2252C99.2285 50.2289 99.2287 50.2327 99.2298 50.2363C99.2308 50.2399 99.2327 50.2433 99.2352 50.246C99.2378 50.2488 99.241 50.2509 99.2445 50.2522C99.248 50.2535 99.2518 50.254 99.2555 50.2535C99.2593 50.2531 99.2629 50.2518 99.266 50.2497C99.2691 50.2477 99.2717 50.2449 99.2736 50.2416C99.8616 49.6584 100.474 49.0992 101.11 48.5616C101.746 48.024 102.418 47.5441 103.058 47.0209L103.498 47.5993L103.721 47.8873C103.721 47.8873 103.721 47.9016 103.735 47.9088C103.975 48.228 104.215 48.5472 104.467 48.8688C104.186 49.2831 103.944 49.7235 103.747 50.1841C103.536 50.6305 103.351 51.0889 103.181 51.5521C102.844 52.5153 102.582 53.503 102.396 54.5065C102.396 54.5377 102.434 54.5521 102.442 54.5209C102.642 53.5319 102.93 52.5625 103.301 51.6241C103.483 51.1441 103.692 50.664 103.908 50.2032C104.102 49.776 104.34 49.3657 104.525 48.9337C104.736 49.2169 104.945 49.4976 105.154 49.7832C105.214 49.8648 105.271 49.9512 105.331 50.0232C105.331 50.0424 105.331 50.0665 105.35 50.0665C105.998 50.9713 106.615 51.8977 107.215 52.8337C107.179 52.8985 107.151 52.9679 107.134 53.0401C107.095 53.1529 107.059 53.268 107.026 53.3832C106.959 53.6139 106.903 53.8478 106.86 54.0841C106.819 54.3073 106.788 54.5304 106.766 54.756C106.764 55.0113 106.745 55.2662 106.711 55.5193C106.71 55.5229 106.71 55.5267 106.71 55.5304C106.711 55.5342 106.712 55.5377 106.715 55.5408C106.717 55.5439 106.72 55.5464 106.723 55.5481C106.726 55.5498 106.73 55.5507 106.734 55.5507C106.738 55.5507 106.742 55.5498 106.745 55.5481C106.748 55.5464 106.751 55.5439 106.753 55.5408C106.756 55.5377 106.757 55.5342 106.758 55.5304C106.758 55.5267 106.758 55.5229 106.757 55.5193C106.738 55.278 106.756 55.0352 106.81 54.7993C106.843 54.5593 106.889 54.3193 106.944 54.0793C106.999 53.8393 107.054 53.6473 107.119 53.4337C107.15 53.3257 107.184 53.22 107.222 53.1144C107.242 53.0592 107.268 52.9992 107.287 52.9416C107.567 53.3816 107.845 53.8233 108.12 54.2665C108.662 55.1497 109.2 56.0353 109.742 56.9065C109.764 56.9785 109.836 56.9401 109.81 56.8945Z" fill="#263238"/>
<path d="M95.8152 69.7776C95.7984 69.1152 95.6424 61.6416 95.6208 60.9792C95.5775 59.0206 95.3363 57.0715 94.9008 55.1616C94.6793 54.0723 94.1368 53.0743 93.3432 52.296C92.9308 51.8885 92.3913 51.6344 91.8144 51.576C91.2331 51.5599 90.6628 51.7362 90.192 52.0776C89.6553 52.4731 89.1929 52.9606 88.8264 53.5176C88.43 54.0671 88.0739 54.6446 87.7608 55.2456C87.7488 55.2696 87.7848 55.284 87.7992 55.2624C88.3883 54.2586 89.1706 53.3817 90.1008 52.6824C90.514 52.341 91.0195 52.1304 91.5528 52.0776C92.0996 52.0385 92.6407 52.2103 93.0648 52.5576C93.8376 53.2296 94.2432 54.192 94.5048 55.1616C94.8216 56.3136 95.2104 59.2872 95.292 60.9216C95.328 61.6224 95.4432 69.1416 95.5896 69.8304C95.5966 69.8603 95.6152 69.8862 95.6413 69.9024C95.6674 69.9186 95.6989 69.9238 95.7288 69.9168C95.7587 69.9098 95.7847 69.8912 95.8009 69.8651C95.8171 69.8389 95.8222 69.8075 95.8152 69.7776Z" fill="#263238"/>
<path d="M91.6992 53.0066C90.1776 52.9778 88.5648 54.113 88.5648 54.113C88.5648 54.113 89.4216 51.149 87.0408 51.245C85.6248 51.3026 83.8584 52.7858 83.5032 55.1018C84.0504 54.8114 85.2 54.2546 86.1096 54.2378C87.3432 54.2162 87.4272 55.181 85.7256 55.3274C84.9543 55.3708 84.1899 55.4971 83.4456 55.7042C83.4179 56.428 83.5145 57.1513 83.7312 57.8426C84.6912 57.2666 86.3016 56.6546 86.3496 57.449C86.3856 58.0394 84.7104 58.0874 83.8848 58.2938C84.2317 59.2014 84.7105 60.0529 85.3056 60.821C86.467 60.6523 87.6137 60.394 88.7352 60.0482C88.7386 59.6321 88.7024 59.2166 88.6272 58.8074C88.4256 57.7514 89.2032 57.7322 89.304 58.7474C89.3386 59.1264 89.3143 59.5085 89.232 59.8802C90.0047 59.6245 90.7437 59.2764 91.4328 58.8434C91.4141 58.0401 91.2515 57.2468 90.9528 56.501C90.6504 55.6754 91.2504 55.2026 91.7568 56.1506C92.0832 56.7626 91.9512 57.9122 91.8432 58.5506C92.1167 58.341 92.3591 58.0937 92.5632 57.8162C94.1856 55.5578 93.2184 53.0402 91.6992 53.0066ZM85.1352 53.5538C85.1904 53.1266 86.2512 53.2082 86.1984 53.5394C86.1456 53.8706 85.0704 54.0338 85.1352 53.5538ZM83.9496 57.0338C84.0528 56.7602 84.5112 56.7938 84.4896 57.0146C84.468 57.2354 83.88 57.2138 83.9496 57.0338ZM90.2592 58.5266C89.6424 58.5506 89.8464 57.269 90.2064 57.2186C90.5088 57.1754 90.732 58.5074 90.2592 58.5266Z" fill="#FF6F00"/>
<path d="M89.7096 58.6416C89.6496 58.4832 89.5968 58.32 89.5464 58.1616C89.592 58.3272 89.6352 58.4928 89.664 58.6584C89.6651 58.6614 89.6668 58.6642 89.6689 58.6665C89.6711 58.6689 89.6737 58.6707 89.6766 58.6721C89.6795 58.6734 89.6826 58.6742 89.6858 58.6743C89.689 58.6744 89.6922 58.6739 89.6952 58.6728C89.6982 58.6717 89.7009 58.67 89.7033 58.6679C89.7056 58.6657 89.7075 58.6631 89.7089 58.6602C89.7102 58.6573 89.7109 58.6542 89.7111 58.651C89.7112 58.6478 89.7107 58.6446 89.7096 58.6416Z" fill="#263238"/>
<path d="M89.0808 56.5801C88.968 56.2513 88.8408 55.9273 88.716 55.6033C88.6488 55.4329 88.5768 55.2601 88.5024 55.0921C88.4478 54.9412 88.3761 54.7971 88.2888 54.6625C88.3628 54.5286 88.4278 54.3899 88.4832 54.2473C88.4832 54.2329 88.4688 54.2233 88.4616 54.2329C88.2862 54.4592 88.1305 54.7001 87.996 54.9529C87.9312 55.0657 87.8688 55.1785 87.8016 55.2913C87.6678 55.3048 87.5348 55.3257 87.4032 55.3537C87.2592 55.3801 87.1176 55.4089 86.976 55.4425L86.5512 55.5409C86.412 55.5745 86.2728 55.6201 86.1288 55.6417C86.0976 55.6417 86.1096 55.6993 86.1408 55.6873C86.2862 55.636 86.4355 55.5967 86.5872 55.5697C86.724 55.5409 86.8608 55.5169 87 55.4977C87.1392 55.4785 87.276 55.4593 87.4152 55.4449L87.7296 55.4209C87.672 55.5193 87.6144 55.6201 87.5592 55.7209C87.5592 55.7353 87.5424 55.7521 87.5328 55.7689C87.418 55.7674 87.3035 55.7803 87.192 55.8073C87.0696 55.8313 86.952 55.8529 86.8248 55.8817C86.5752 55.9345 86.328 55.9945 86.0832 56.0617C85.5672 56.2057 85.0584 56.3713 84.552 56.5417C84.5232 56.5417 84.54 56.5945 84.5688 56.5849C85.0736 56.4151 85.5871 56.2725 86.1072 56.1577C86.3472 56.1025 86.5872 56.0473 86.8392 55.9969L87.2064 55.9177C87.302 55.9029 87.3966 55.882 87.4896 55.8553C87.228 56.3353 86.9808 56.8297 86.7552 57.3313C86.2608 58.4257 85.8456 59.5489 85.4232 60.6697C85.4112 60.6985 85.4544 60.7177 85.464 60.6889C85.8728 59.5742 86.3464 58.4843 86.8824 57.4249C86.9784 57.2305 87.0768 57.0385 87.1728 56.8465C87.1728 56.8849 87.1896 56.9233 87.1968 56.9641C87.2208 57.0961 87.2448 57.2281 87.2664 57.3625C87.312 57.6265 87.3576 57.8929 87.396 58.1593C87.5101 58.7035 87.5744 59.257 87.588 59.8129C87.588 59.8465 87.6408 59.8465 87.636 59.8129C87.5928 59.5489 87.5928 59.2729 87.576 59.0065C87.5592 58.7401 87.5376 58.4497 87.5064 58.1737C87.4752 57.8977 87.4392 57.6385 87.396 57.3721C87.3744 57.2401 87.3504 57.1081 87.3264 56.9761C87.3193 56.8763 87.2941 56.7788 87.252 56.6881C87.3912 56.4073 87.528 56.1265 87.6696 55.8481C87.8112 55.5697 87.936 55.3249 88.0728 55.0657C88.1304 54.9553 88.1928 54.8449 88.2528 54.7345C88.2975 54.8711 88.3504 55.005 88.4112 55.1353C88.4712 55.2841 88.5336 55.4353 88.596 55.5841C88.7304 55.9177 88.8576 56.2513 88.9848 56.5873C89.1648 57.0673 89.364 57.5473 89.5128 58.0465C89.3664 57.5569 89.244 57.0601 89.0808 56.5801Z" fill="#263238"/>
<path d="M89.5464 58.157C89.5464 58.1186 89.5248 58.0801 89.5128 58.0417C89.52 58.0801 89.5344 58.1186 89.5464 58.157Z" fill="#263238"/>
<path d="M101.388 67.5408L101.22 71.0832L100.79 81.2592H91.368L90.936 71.0832L90.768 67.5408H101.388Z" fill="#455A64"/>
<path d="M101.388 67.5408L101.22 71.0832H90.936L90.768 67.5408H101.388Z" fill="#263238"/>
<path d="M102.058 66.1082H90.0984V68.9738H102.058V66.1082Z" fill="#455A64"/>
<path d="M93.7848 81.2593H92.1312V82.7593H93.7848V81.2593Z" fill="#455A64"/>
<path d="M93.7848 81.2593H92.1312V82.0105H93.7848V81.2593Z" fill="#263238"/>
<path d="M100.027 81.2593H98.3736V82.7593H100.027V81.2593Z" fill="#455A64"/>
<path d="M100.027 81.2593H98.3736V82.0105H100.027V81.2593Z" fill="#263238"/>
<path d="M107.023 68.6401C106.351 67.9801 105.482 67.1833 104.455 67.4689C103.495 67.7353 103.116 68.7913 102.943 69.6721C102.72 70.8049 102.547 71.9497 102.367 73.0921C102.187 74.2345 102.014 75.3985 101.849 76.5553C101.756 77.2065 101.663 77.8585 101.57 78.5113L101.434 79.4881C101.39 79.8097 101.338 80.1289 101.318 80.4481C101.318 80.5513 101.474 80.5657 101.498 80.4673C101.623 79.9249 101.674 79.3585 101.753 78.8065C101.832 78.2545 101.914 77.6953 101.993 77.1409C102.154 76.0393 102.322 74.9353 102.487 73.8337C102.653 72.7321 102.826 71.6305 103.001 70.5289C103.15 69.5953 103.222 68.4361 104.05 67.8193C104.275 67.6663 104.536 67.5732 104.807 67.5489C105.078 67.5245 105.351 67.5697 105.6 67.6801C106.125 67.9183 106.601 68.2519 107.004 68.6641C107.018 68.6809 107.04 68.6617 107.023 68.6401Z" fill="#263238"/>
<path d="M106.104 67.9753C106.104 67.9753 104.729 67.4809 104.05 68.4841C103.37 69.4873 104.184 72.0409 110.443 73.4785C110.26 71.5221 109.75 69.6101 108.936 67.8217C107.594 64.8937 105.204 66.0001 106.104 67.9753Z" fill="#FF6F00"/>
<path d="M110.083 73.061C109.988 72.8866 109.883 72.7176 109.769 72.5546L109.452 72.0746C109.37 71.9546 109.289 71.8346 109.212 71.717C109.218 71.6877 109.222 71.658 109.224 71.6282L109.246 71.465L109.296 71.1122C109.313 70.997 109.332 70.8722 109.356 70.7642C109.37 70.6383 109.397 70.5144 109.438 70.3946C109.438 70.3778 109.411 70.3682 109.409 70.3946C109.396 70.4648 109.378 70.5339 109.354 70.601C109.339 70.6538 109.325 70.7066 109.313 70.7594C109.282 70.877 109.253 70.9994 109.226 71.117C109.2 71.2346 109.181 71.3378 109.162 71.4482C109.162 71.5034 109.145 71.5562 109.138 71.609C109.025 71.4506 108.912 71.2922 108.794 71.129C108.461 70.6898 108.11 70.2698 107.746 69.8594C107.743 69.2039 107.796 68.5495 107.906 67.9034C107.906 67.8866 107.885 67.877 107.88 67.9034C107.712 68.5128 107.631 69.1431 107.64 69.7754C107.51 69.629 107.378 69.485 107.244 69.341C106.939 69.0122 106.63 68.6906 106.31 68.381C106.298 68.369 106.279 68.381 106.291 68.4002C106.819 68.969 107.318 69.5594 107.808 70.1618C107.426 70.1557 107.044 70.1701 106.663 70.205C106.238 70.2362 105.816 70.289 105.396 70.349C105.394 70.348 105.391 70.3476 105.389 70.3478C105.387 70.348 105.384 70.3488 105.382 70.3501C105.38 70.3514 105.379 70.3532 105.378 70.3553C105.376 70.3574 105.376 70.3598 105.376 70.3622C105.376 70.3645 105.376 70.3669 105.378 70.369C105.379 70.3711 105.38 70.3729 105.382 70.3742C105.384 70.3755 105.387 70.3763 105.389 70.3765C105.391 70.3767 105.394 70.3763 105.396 70.3754C105.815 70.3151 106.237 70.2774 106.661 70.2626C107.069 70.2458 107.477 70.2626 107.885 70.2626C108.146 70.589 108.408 70.9178 108.665 71.2514H108.319C108.13 71.2514 107.938 71.2682 107.75 71.2826C107.361 71.3149 106.975 71.3726 106.594 71.4554C106.59 71.4554 106.586 71.4569 106.583 71.4596C106.581 71.4623 106.579 71.4659 106.579 71.4698C106.579 71.4736 106.581 71.4772 106.583 71.4799C106.586 71.4826 106.59 71.4842 106.594 71.4842C106.978 71.441 107.364 71.405 107.75 71.3906C107.935 71.3906 108.12 71.3906 108.305 71.3906H108.593C108.646 71.3969 108.7 71.392 108.751 71.3762L109.255 72.0314C109.387 72.2066 109.519 72.3842 109.646 72.5618C109.774 72.7394 109.898 72.941 110.045 73.1114C110.071 73.0898 110.09 73.0754 110.083 73.061Z" fill="#263238"/>
<path d="M106.702 69.3986C106.48 69.3694 106.257 69.3581 106.034 69.365C105.809 69.365 105.586 69.365 105.362 69.3794C105.359 69.3794 105.355 69.3809 105.352 69.3836C105.35 69.3863 105.348 69.39 105.348 69.3938C105.348 69.3976 105.35 69.4013 105.352 69.404C105.355 69.4067 105.359 69.4082 105.362 69.4082C105.588 69.3914 105.816 69.3866 106.042 69.3914C106.267 69.3962 106.481 69.4154 106.699 69.4082L106.702 69.3986Z" fill="#263238"/>
<path d="M108.667 69.9025C108.694 69.6889 108.72 69.4729 108.766 69.2641C108.766 69.2425 108.742 69.2377 108.739 69.2641C108.706 69.4753 108.665 69.6841 108.634 69.8953L108.59 70.2121C108.572 70.3102 108.564 70.41 108.566 70.5097C108.566 70.5289 108.598 70.5313 108.602 70.5097C108.62 70.4114 108.631 70.312 108.634 70.2121C108.643 70.1065 108.655 70.0033 108.667 69.9025Z" fill="#263238"/>
<path d="M100.104 80.2297C100.07 79.8361 100.032 79.4425 99.9912 79.0489C99.9064 78.2697 99.812 77.4913 99.708 76.7137C99.6048 75.9385 99.504 75.1609 99.3792 74.3905C99.332 74.0318 99.2517 73.6783 99.1392 73.3345C99.0985 73.1874 99.0246 73.0515 98.923 72.9375C98.8215 72.8235 98.6951 72.7343 98.5536 72.6769C97.8168 72.4225 97.32 73.1857 97.0224 73.7257C97.0215 73.7274 97.0209 73.7293 97.0207 73.7313C97.0204 73.7333 97.0206 73.7353 97.0212 73.7372C97.0217 73.7391 97.0227 73.7408 97.0239 73.7424C97.0251 73.7439 97.0267 73.7452 97.0284 73.7461C97.0301 73.7471 97.032 73.7477 97.034 73.7479C97.036 73.7481 97.038 73.7479 97.0398 73.7473C97.0417 73.7468 97.0435 73.7459 97.045 73.7446C97.0466 73.7434 97.0479 73.7418 97.0488 73.7401C97.2264 73.4833 97.7184 72.7657 98.2776 72.7993C98.652 72.8209 98.9544 73.0873 99.1344 74.0233C99.5832 76.3609 99.9888 81.1009 100.037 81.4105C100.061 81.5737 100.178 81.5665 100.178 81.3913C100.183 81.0025 100.138 80.6161 100.104 80.2297Z" fill="#263238"/>
<path d="M97.224 73.4401C97.224 73.4401 97.8672 71.1673 96.444 72.3025C94.0752 74.1961 93.9912 78.3025 93.9912 78.3025C93.9912 78.3025 98.2032 75.8569 98.7264 74.2441C99.5064 71.8441 97.224 73.4401 97.224 73.4401Z" fill="#FF6F00"/>
<path d="M98.0208 74.5513C97.692 74.6185 97.356 74.6617 97.0224 74.7097L96.5424 74.7769L96.2208 74.8153C96.5352 74.3833 96.852 73.9513 97.152 73.5121C97.164 73.4929 97.1376 73.4761 97.1232 73.4905C96.8749 73.7485 96.6402 74.0193 96.42 74.3017L96.2328 73.7737C96.1556 73.5725 96.0891 73.3674 96.0336 73.1593C96.0325 73.1567 96.0306 73.1545 96.0283 73.153C96.0259 73.1515 96.0232 73.1506 96.0204 73.1506C96.0176 73.1506 96.0149 73.1515 96.0125 73.153C96.0102 73.1545 96.0083 73.1567 96.0072 73.1593C96.0648 73.3681 96.1056 73.5817 96.1608 73.7905C96.216 73.9993 96.276 74.1913 96.3456 74.3881C96.192 74.5873 96.0456 74.7913 95.9016 75.0001C95.8272 74.7937 95.7384 74.5945 95.676 74.3881C95.676 74.3843 95.6745 74.3806 95.6718 74.3779C95.6691 74.3752 95.6654 74.3737 95.6616 74.3737C95.6578 74.3737 95.6541 74.3752 95.6514 74.3779C95.6487 74.3806 95.6472 74.3843 95.6472 74.3881C95.724 74.6281 95.7648 74.8681 95.8344 75.0913C95.7384 75.2305 95.6424 75.3721 95.5488 75.5161C95.3784 75.7777 95.22 76.0465 95.0688 76.3153C95.0568 76.3204 95.0469 76.3292 95.0404 76.3405C95.0339 76.3517 95.0312 76.3648 95.0328 76.3777C94.7664 76.8385 94.5144 77.3065 94.2624 77.7769C94.2605 77.7804 94.26 77.7845 94.2612 77.7883C94.2623 77.7921 94.2649 77.7954 94.2684 77.7973C94.2719 77.7992 94.276 77.7996 94.2798 77.7985C94.2837 77.7974 94.2869 77.7948 94.2888 77.7913C94.5288 77.3257 94.8168 76.8721 95.1048 76.4281C95.1494 76.4149 95.1952 76.406 95.2416 76.4017L95.388 76.3705C95.4968 76.3465 95.6048 76.3201 95.712 76.2913C95.9256 76.2385 96.1368 76.1881 96.3528 76.1521C96.372 76.1521 96.3528 76.1209 96.3528 76.1257C96.0984 76.1737 95.8416 76.2025 95.5848 76.2313C95.4624 76.2457 95.3448 76.2625 95.22 76.2817H95.2032C95.3536 76.0513 95.5072 75.8233 95.664 75.5977C95.8176 75.3745 95.9736 75.1561 96.132 74.9377C96.2784 74.9161 96.4224 74.8777 96.5664 74.8513L97.0464 74.7553C97.3728 74.6905 97.6968 74.6185 98.0256 74.5633C98.0472 74.5753 98.04 74.5465 98.0208 74.5513Z" fill="#263238"/>
<path d="M95.4912 74.7743L95.4336 74.5943C95.3952 74.4695 95.364 74.3423 95.3376 74.2127C95.3365 74.2102 95.3346 74.208 95.3323 74.2065C95.33 74.2049 95.3272 74.2041 95.3244 74.2041C95.3216 74.2041 95.3189 74.2049 95.3165 74.2065C95.3142 74.208 95.3123 74.2102 95.3112 74.2127C95.3376 74.3423 95.3688 74.4695 95.3976 74.5967C95.4234 74.7261 95.4604 74.853 95.508 74.9759C95.52 75.0047 95.5656 74.9927 95.556 74.9615C95.5464 74.9303 95.52 74.8391 95.4912 74.7743Z" fill="#263238"/>
<path d="M98.4528 74.0256C98.2608 74.0544 98.0664 74.0664 97.8744 74.0832C97.6824 74.1 97.488 74.1288 97.2936 74.1576V74.1744C97.4856 74.16 97.6776 74.1456 97.872 74.1192C98.0664 74.0928 98.256 74.0664 98.4504 74.052C98.472 74.052 98.4696 74.0208 98.4528 74.0256Z" fill="#263238"/>
<path d="M103.2 77.352C103.126 75.672 103.02 74.0064 102.852 72.3408C102.768 71.5104 102.674 70.68 102.557 69.8544C102.453 69.0441 102.293 68.2421 102.077 67.4544C101.93 66.8411 101.658 66.2645 101.28 65.76C101.093 65.5125 100.846 65.3165 100.563 65.1906C100.28 65.0646 99.9689 65.0128 99.66 65.04C98.928 65.1312 98.34 65.592 97.8288 66.0936C97.2576 66.6576 96.732 67.272 96.2016 67.872C96.0672 68.0256 95.9352 68.1768 95.8032 68.3328C95.7912 68.3448 95.8032 68.3664 95.8248 68.352C96.3432 67.7568 96.8808 67.1784 97.4448 66.624C97.9656 66.1128 98.5008 65.5536 99.2232 65.3424C99.5579 65.2361 99.916 65.2278 100.255 65.3184C100.525 65.4045 100.768 65.5591 100.961 65.7672C101.347 66.2139 101.621 66.7462 101.76 67.32C102.209 68.856 102.37 70.4712 102.538 72.0576C102.706 73.644 102.823 75.2904 102.902 76.9128C102.982 78.5352 103.049 80.172 103.205 81.7968C103.224 81.9984 103.25 82.1976 103.277 82.3968C103.294 82.5312 103.502 82.5312 103.49 82.3968C103.356 80.7144 103.279 79.0344 103.2 77.352Z" fill="#263238"/>
<path d="M97.7376 66.281C97.7376 66.281 98.6976 64.5122 97.5624 63.9434C96.4272 63.3746 92.6544 67.5962 91.5504 73.7642C91.5504 73.7642 97.6536 71.0642 99.7272 68.3738C101.801 65.6834 99.4512 65.0882 97.7376 66.281Z" fill="#FF6F00"/>
<path d="M98.64 67.7185C97.9536 67.7185 97.2696 67.6681 96.5832 67.6729C96.7104 67.5241 96.84 67.3777 96.9696 67.2313C97.1609 67.0347 97.3397 66.8263 97.5048 66.6073C97.508 66.6042 97.5098 66.5998 97.5098 66.5953C97.5098 66.5908 97.508 66.5865 97.5048 66.5833C97.5017 66.5801 97.4973 66.5784 97.4928 66.5784C97.4883 66.5784 97.484 66.5801 97.4808 66.5833C97.2948 66.744 97.1207 66.9181 96.96 67.1041C96.7872 67.2865 96.6168 67.4689 96.4464 67.6537C96.1848 67.9369 95.928 68.2273 95.6712 68.5153C95.6712 68.4865 95.6712 68.4601 95.6712 68.4313C95.6712 68.3113 95.6712 68.1913 95.6712 68.0713C95.6712 67.8313 95.6712 67.6057 95.6712 67.3729C95.6712 66.8929 95.6712 66.4273 95.7072 65.9569C95.7072 65.9401 95.6784 65.9401 95.6784 65.9569C95.6448 66.4369 95.5968 66.9025 95.5728 67.3753C95.5608 67.6153 95.556 67.8409 95.5536 68.0737C95.5536 68.1937 95.5536 68.3137 95.5536 68.4337C95.5536 68.5009 95.5536 68.5705 95.5536 68.6377C95.5128 68.6833 95.472 68.7265 95.4336 68.7721C94.884 69.3961 94.3656 70.0441 93.8568 70.6921C93.8568 70.6561 93.8568 70.6201 93.8568 70.5841C93.8568 70.5481 93.84 70.4377 93.8328 70.3657C93.8136 70.2097 93.792 70.0513 93.768 69.8857C93.744 69.7201 93.7248 69.5905 93.6984 69.4441C93.672 69.2977 93.6312 69.1129 93.6192 68.9473C93.6192 68.9257 93.5856 68.9305 93.5904 68.9473C93.6194 69.1141 93.6386 69.2824 93.648 69.4513C93.6624 69.6025 93.6768 69.7513 93.6888 69.9025L93.732 70.3561L93.7536 70.5745L93.768 70.6825C93.772 70.7129 93.7818 70.7422 93.7968 70.7689C93.7104 70.8841 93.6216 71.0089 93.5352 71.1097C93.1896 71.5681 92.8512 72.0313 92.5104 72.4945C92.5104 72.5089 92.5104 72.5281 92.5296 72.5137C92.8536 72.0937 93.1848 71.6809 93.5184 71.2729C93.7704 71.2849 94.0272 71.2729 94.2768 71.2609C94.5264 71.2489 94.8072 71.2609 95.0712 71.2609C95.0751 71.2609 95.0787 71.2594 95.0814 71.2567C95.0841 71.254 95.0856 71.2503 95.0856 71.2465C95.0856 71.2427 95.0841 71.2391 95.0814 71.2364C95.0787 71.2336 95.0751 71.2321 95.0712 71.2321H94.2768C94.0368 71.2321 93.7968 71.2201 93.5568 71.2321C93.852 70.8721 94.152 70.5121 94.4496 70.1617L94.7784 69.7729C94.8806 69.7826 94.9835 69.7826 95.0856 69.7729H95.4456H96.1224C96.588 69.7729 97.0536 69.7489 97.5192 69.7489C97.5231 69.7489 97.5267 69.7474 97.5294 69.7447C97.5321 69.742 97.5336 69.7384 97.5336 69.7345C97.5336 69.7307 97.5321 69.7271 97.5294 69.7244C97.5267 69.7217 97.5231 69.7201 97.5192 69.7201C97.0536 69.7201 96.5856 69.6937 96.12 69.6817L95.4432 69.6673H95.0808C95.0136 69.6673 94.9416 69.6673 94.8744 69.6673C95.1288 69.3633 95.3848 69.0593 95.6424 68.7553C95.6491 68.7517 95.6543 68.7457 95.6568 68.7385C95.8968 68.4433 96.156 68.1481 96.4104 67.8553L96.5136 67.7353C97.2336 67.7593 97.9368 67.7113 98.6472 67.7353C98.652 67.7473 98.652 67.7185 98.64 67.7185Z" fill="#263238"/>
<path d="M98.2824 68.9329H98.1168C98.1 68.9329 98.1024 68.9593 98.1168 68.9593H98.2848C98.3016 68.9593 98.3016 68.9329 98.2824 68.9329Z" fill="#263238"/>
<path d="M96 70.9945C95.5533 70.9201 95.1016 70.8792 94.6488 70.8721C95.0976 70.9153 95.5464 70.9393 95.9928 71.0113C96 71.0233 96.012 70.9969 96 70.9945Z" fill="#263238"/>
<path d="M94.1592 69.0288C94.1592 68.9904 94.1592 68.952 94.1448 68.9112C94.1448 68.8248 94.1208 68.736 94.1064 68.6472C94.08 68.4792 94.0512 68.3136 94.02 68.1456C94.02 68.1312 93.9888 68.1456 93.9912 68.1456C94.0128 68.3184 94.032 68.4912 94.0464 68.664C94.0464 68.748 94.0608 68.8344 94.068 68.9184C94.0656 68.9999 94.0778 69.0811 94.104 69.1584C94.1064 69.164 94.1104 69.1689 94.1155 69.1723C94.1206 69.1757 94.1267 69.1776 94.1328 69.1776C94.139 69.1776 94.145 69.1757 94.1501 69.1723C94.1553 69.1689 94.1592 69.164 94.1616 69.1584C94.1696 69.1154 94.1687 69.0714 94.1592 69.0288Z" fill="#263238"/>
<path d="M103.142 64.008C102.924 63.6024 102.646 63.0648 102.101 63.0984C101.652 63.1272 101.448 63.5784 101.352 63.9672C101.054 65.1408 101.033 66.3792 100.975 67.584C100.853 70.128 100.735 72.6744 100.735 75.2232C100.735 75.9288 100.735 76.6352 100.735 77.3424C100.735 78.0624 100.735 78.7824 100.786 79.5024C100.786 79.5164 100.791 79.5299 100.801 79.5398C100.811 79.5497 100.824 79.5552 100.838 79.5552C100.852 79.5552 100.866 79.5497 100.876 79.5398C100.886 79.5299 100.891 79.5164 100.891 79.5024C100.891 78.8856 100.872 78.2688 100.87 77.6544C100.867 77.04 100.87 76.4544 100.882 75.8496C100.901 74.6336 100.934 73.4168 100.98 72.1992C101.023 70.9992 101.078 69.78 101.129 68.5704C101.155 67.9656 101.179 67.3704 101.208 66.7584C101.237 66.1464 101.258 65.5872 101.326 65.004C101.364 64.6776 101.412 64.3512 101.479 64.0296C101.514 63.7908 101.612 63.5656 101.762 63.3768C101.866 63.2744 102.003 63.2124 102.149 63.2019C102.295 63.1913 102.439 63.2329 102.557 63.3192C102.806 63.4985 103.001 63.7425 103.121 64.0248C103.128 64.0392 103.152 64.0248 103.142 64.008Z" fill="#263238"/>
<path d="M102.996 63.8136C102.996 63.8136 102.547 62.232 103.538 63.024C105.19 64.3416 105.247 67.2072 105.247 67.2072C105.247 67.2072 102.314 65.5032 101.95 64.38C101.405 62.7072 102.996 63.8136 102.996 63.8136Z" fill="#FF6F00"/>
<path d="M104.64 66.0336C104.614 65.988 104.585 65.9472 104.556 65.9016C104.56 65.8568 104.56 65.8119 104.556 65.7672V65.5632L104.57 65.1624C104.57 65.1432 104.544 65.1456 104.544 65.1624C104.544 65.2944 104.532 65.424 104.527 65.556V65.7528C104.527 65.7792 104.527 65.808 104.527 65.8368C104.412 65.6592 104.287 65.4816 104.172 65.3088L104.062 65.1576C104.047 64.9859 104.047 64.8133 104.062 64.6416C104.062 64.4568 104.062 64.2744 104.062 64.0896C104.062 64.0704 104.035 64.0728 104.035 64.0896C104.035 64.2816 104.018 64.4736 104.009 64.6632C104 64.7998 104 64.9369 104.009 65.0736C103.726 64.6896 103.423 64.3176 103.121 63.948C103.109 63.936 103.087 63.948 103.097 63.9648C103.286 64.2048 103.466 64.4448 103.644 64.6968C103.298 64.6152 102.948 64.5696 102.598 64.5192C102.578 64.5192 102.571 64.5432 102.598 64.5456C102.97 64.6008 103.332 64.6944 103.699 64.7856C103.842 64.9856 103.981 65.1848 104.117 65.3832C104.174 65.4648 104.227 65.5464 104.282 65.6232H104.268L104.153 65.6088L103.913 65.5848L103.404 65.5536C103.387 65.5536 103.387 65.5824 103.404 65.5824C103.572 65.5824 103.738 65.5992 103.903 65.616L104.165 65.6472L104.28 65.6616H104.314L104.597 66.0768C104.762 66.3168 104.909 66.5856 105.077 66.8208C105.077 66.8352 105.106 66.8208 105.098 66.8064C104.961 66.5398 104.808 66.2817 104.64 66.0336Z" fill="#263238"/>
<path d="M103.898 64.2432C103.898 64.1832 103.898 64.1208 103.898 64.0584C103.895 63.9294 103.9 63.8004 103.913 63.672C103.914 63.6698 103.914 63.6674 103.914 63.665C103.914 63.6627 103.913 63.6604 103.912 63.6584C103.91 63.6564 103.909 63.6547 103.906 63.6536C103.904 63.6524 103.902 63.6519 103.9 63.6519C103.897 63.6519 103.895 63.6524 103.893 63.6536C103.891 63.6547 103.889 63.6564 103.888 63.6584C103.886 63.6604 103.885 63.6627 103.885 63.665C103.885 63.6674 103.885 63.6698 103.886 63.672C103.886 63.8016 103.872 63.9288 103.865 64.0584C103.865 64.1208 103.865 64.1856 103.865 64.2504V64.3392C103.859 64.3693 103.859 64.4003 103.865 64.4304C103.865 64.4336 103.866 64.4366 103.868 64.4389C103.871 64.4411 103.874 64.4424 103.877 64.4424C103.88 64.4424 103.883 64.4411 103.885 64.4389C103.888 64.4366 103.889 64.4336 103.889 64.4304C103.894 64.4018 103.894 64.3726 103.889 64.344C103.901 64.32 103.898 64.2768 103.898 64.2432Z" fill="#263238"/>
<path d="M103.536 64.9009C103.426 64.8836 103.316 64.8724 103.205 64.8673C103.085 64.8673 102.965 64.8457 102.842 64.8289C102.839 64.8289 102.835 64.8304 102.832 64.8331C102.83 64.8358 102.828 64.8394 102.828 64.8433C102.828 64.8471 102.83 64.8507 102.832 64.8534C102.835 64.8561 102.839 64.8577 102.842 64.8577C103.082 64.8721 103.306 64.9129 103.536 64.9225C103.548 64.9225 103.55 64.9009 103.536 64.9009Z" fill="#263238"/>
<path d="M104.458 64.9105C104.458 64.9225 104.458 64.9561 104.458 64.9705V65.0209C104.458 65.0593 104.458 65.0953 104.458 65.1313V65.2441C104.452 65.2758 104.452 65.3084 104.458 65.3401C104.458 65.3401 104.458 65.3401 104.47 65.3401C104.473 65.3251 104.473 65.3095 104.47 65.2945V65.2417C104.47 65.2057 104.47 65.1697 104.47 65.1313V64.9705C104.466 64.9498 104.466 64.9287 104.47 64.9081C104.501 64.8841 104.438 64.8841 104.458 64.9105Z" fill="#263238"/>
<path d="M103.212 72.4585C102.595 71.9953 102.041 71.3281 101.21 71.2969C100.526 71.2705 100.046 71.7769 99.7704 72.3601C99.6332 72.6658 99.5208 72.982 99.4344 73.3057C99.312 73.7377 99.1944 74.1745 99.0864 74.6113C98.8704 75.4705 98.6872 76.3377 98.5368 77.2129C98.4528 77.6929 98.376 78.1897 98.3136 78.6793C98.2357 79.1768 98.1876 79.6785 98.1696 80.1817C98.1716 80.1995 98.1797 80.2162 98.1924 80.2289C98.2052 80.2416 98.2218 80.2495 98.2397 80.2515C98.2576 80.2534 98.2756 80.2493 98.2908 80.2396C98.3059 80.23 98.3174 80.2155 98.3232 80.1985C98.4072 79.7881 98.4408 79.3657 98.5032 78.9505C98.5656 78.5353 98.6256 78.1177 98.6976 77.7025C98.8368 76.8705 98.9968 76.0433 99.1776 75.2209C99.3552 74.4457 99.528 73.6561 99.78 72.9001C99.96 72.3601 100.248 71.7265 100.831 71.5321C101.722 71.2345 102.53 71.9881 103.183 72.4777C103.2 72.4801 103.226 72.4801 103.212 72.4585Z" fill="#263238"/>
<path d="M102.574 72.0145C102.574 72.0145 102.005 70.3897 102.826 70.0729C104.059 69.5929 107.285 73.2289 106.654 78.7969C105.132 77.9449 103.683 76.9688 102.322 75.8785C100.481 74.3329 100.008 72.3169 100.819 71.7985C101.63 71.2801 102.574 72.0145 102.574 72.0145Z" fill="#FF6F00"/>
<path d="M106.282 77.604C106.196 77.4095 106.096 77.2217 105.982 77.0424C105.876 76.8504 105.77 76.6608 105.66 76.4736C105.446 76.1064 105.233 75.7392 105.014 75.3768C104.978 75.3168 104.94 75.2592 104.906 75.1992C104.906 75.1776 104.906 75.156 104.918 75.1344L104.954 74.9736C104.983 74.8536 105.005 74.7336 105.026 74.6088C105.072 74.3688 105.113 74.1288 105.178 73.8888C105.178 73.872 105.154 73.8648 105.149 73.8888C105.098 74.1288 105.024 74.3688 104.952 74.5944C104.918 74.7096 104.88 74.8224 104.851 74.94C104.839 74.9784 104.83 75.0192 104.82 75.0576C104.554 74.6232 104.285 74.1912 103.994 73.7736C104.013 73.7161 104.022 73.6563 104.023 73.596L104.052 73.356C104.074 73.1736 104.095 72.9888 104.122 72.8064C104.169 72.4481 104.233 72.0925 104.316 71.7408C104.316 71.724 104.292 71.7192 104.29 71.7408C104.201 72.0912 104.102 72.4416 104.038 72.7968C104.004 72.972 103.973 73.1472 103.949 73.3224L103.92 73.5864C103.92 73.6128 103.92 73.6392 103.92 73.6656C103.829 73.5408 103.74 73.4136 103.646 73.2912C103.36 72.9168 103.067 72.5488 102.768 72.1872C102.768 72.1728 102.734 72.1872 102.746 72.2016C103.256 72.854 103.724 73.5377 104.148 74.2488C104.23 74.3808 104.309 74.5128 104.388 74.6424H104.309L103.994 74.6136L103.363 74.5584C102.943 74.5248 102.523 74.5008 102.103 74.4552C102.086 74.4552 102.082 74.4816 102.103 74.4816C102.528 74.532 102.95 74.5992 103.373 74.6592L103.999 74.7432C104.157 74.7761 104.318 74.7929 104.479 74.7936C104.645 75.06 104.81 75.3288 104.974 75.5976C104.937 75.594 104.9 75.594 104.863 75.5976H104.263H103.452C103.433 75.5976 103.435 75.624 103.452 75.624C103.726 75.624 103.999 75.6432 104.273 75.6576L104.662 75.6792L104.856 75.6936C104.912 75.7068 104.97 75.7068 105.026 75.6936C105.168 75.9216 105.31 76.1496 105.449 76.3776C105.588 76.6056 105.708 76.7976 105.84 77.0064C105.966 77.2286 106.108 77.4412 106.265 77.6424C106.265 77.6424 106.289 77.6208 106.282 77.604Z" fill="#263238"/>
<path d="M105.094 73.104C105.069 73.2823 105.032 73.4587 104.983 73.632C104.938 73.812 104.885 73.992 104.825 74.1672C104.824 74.1694 104.824 74.1718 104.824 74.1741C104.824 74.1764 104.825 74.1787 104.826 74.1809C104.827 74.183 104.828 74.1849 104.83 74.1864C104.831 74.188 104.833 74.1892 104.836 74.19C104.838 74.1908 104.84 74.1912 104.843 74.191C104.845 74.1909 104.847 74.1903 104.849 74.1893C104.851 74.1883 104.853 74.1869 104.855 74.1852C104.856 74.1835 104.858 74.1814 104.858 74.1792C104.914 74.004 104.964 73.8264 105.007 73.6488C105.05 73.4712 105.079 73.2864 105.122 73.1088C105.12 73.0896 105.096 73.0848 105.094 73.104Z" fill="#263238"/>
<path d="M103.262 74.1912C103.225 74.1575 103.176 74.1394 103.126 74.1408L102.886 74.1072L102.449 74.0544C102.144 74.0184 101.839 73.9896 101.537 73.9512C101.518 73.9512 101.513 73.9776 101.537 73.98C101.822 74.0136 102.108 74.0568 102.394 74.0952L102.816 74.1504L103.018 74.172C103.099 74.1722 103.18 74.186 103.258 74.2128C103.259 74.2118 103.261 74.2104 103.262 74.2088C103.264 74.2071 103.265 74.2052 103.265 74.2031C103.266 74.201 103.266 74.1989 103.265 74.1968C103.265 74.1948 103.264 74.1928 103.262 74.1912Z" fill="#263238"/>
<path d="M105.089 76.6393C104.947 76.6273 104.801 76.6225 104.657 76.6177H104.441H104.335C104.291 76.6213 104.246 76.6213 104.201 76.6177C104.179 76.6177 104.177 76.6489 104.201 76.6441C104.243 76.6405 104.286 76.6405 104.328 76.6441H104.441L104.659 76.6561C104.803 76.6561 104.947 76.6729 105.091 76.6753C105.106 76.6705 105.12 76.6417 105.089 76.6393Z" fill="#263238"/>
<path d="M105.967 76.0152C105.984 75.9336 106.001 75.852 106.015 75.7752C106.044 75.6144 106.075 75.456 106.104 75.2952C106.104 75.2913 106.103 75.2877 106.1 75.285C106.097 75.2823 106.093 75.2808 106.09 75.2808C106.086 75.2808 106.082 75.2823 106.079 75.285C106.077 75.2877 106.075 75.2913 106.075 75.2952C106.042 75.4512 106.006 75.6072 105.97 75.7632L105.919 76.0032L105.895 76.1112C105.884 76.1485 105.88 76.1875 105.883 76.2264C105.883 76.2408 105.905 76.2504 105.914 76.2264C105.946 76.1602 105.964 76.0884 105.967 76.0152Z" fill="#263238"/>
<path d="M97.5288 79.5576L97.7016 81.5328L98.292 88.1952H103.51L104.246 81.5328L104.465 79.5576H97.5288Z" fill="#37474F"/>
<path d="M97.5288 79.5576L97.7016 81.5328H104.246L104.465 79.5576H97.5288Z" fill="#263238"/>
<path d="M97.0128 80.6208H104.983V79.02H97.0128V80.6208Z" fill="#37474F"/>
<path d="M14.364 98.6233C15.4962 98.3366 16.6619 98.2034 17.8296 98.2273C18.8688 98.2801 21.2112 98.7337 21.924 98.8633C22.6368 98.9929 23.5848 98.8441 23.5296 99.1489C23.4744 99.4537 20.1144 100.476 18.6576 100.265C17.2008 100.054 14.364 98.6233 14.364 98.6233Z" fill="#37474F"/>
<path d="M19.1808 91.9992C19.1808 91.5192 19.164 91.0248 19.1568 90.5352C19.1568 88.9152 19.128 87.2952 19.0896 85.6728C19.0576 84.3928 19.0184 83.1064 18.972 81.8136C18.972 81.8136 18.972 81.8016 18.9576 81.7968V80.7432C18.9576 80.7432 18.9432 80.7288 18.9288 80.7312C18.9144 80.7336 18.9024 80.7312 18.9024 80.7432C18.9024 81.096 18.9024 81.4488 18.9024 81.7992C18.9024 81.7992 18.9024 81.7992 18.9024 81.816C18.816 84.1056 18.7416 86.3952 18.7224 88.6848C18.7224 89.1504 18.7224 89.616 18.7224 90.0816C18.7 91.5776 18.692 93.0712 18.6984 94.5624C18.6984 94.8024 18.6984 95.0424 18.6984 95.2824C18.6984 96.6504 18.7152 103.486 18.7176 104.851C18.7176 104.926 18.8232 104.962 18.936 104.966C19.0488 104.971 19.2048 104.93 19.2048 104.846C19.2048 103.339 19.2192 96.3624 19.2192 94.8552C19.1856 93.9 19.2 92.9496 19.1808 91.9992Z" fill="#263238"/>
<path d="M16.7664 83.1865C16.7664 83.1865 13.9872 81.1201 11.3496 82.5169C8.71201 83.9137 8.29681 89.2801 8.29681 89.2801C8.29681 89.2801 12.1704 89.8345 14.6112 87.5113C16.9632 85.2673 16.7664 83.1865 16.7664 83.1865Z" fill="#FF6F00"/>
<path d="M17.52 83.3136C17.0088 83.1116 16.4556 83.039 15.9096 83.1024C15.7969 83.0839 15.683 83.0727 15.5688 83.0688L15.1824 83.04L14.3712 82.9824C13.824 82.9416 13.272 82.908 12.7248 82.8528C12.7056 82.8528 12.7032 82.8864 12.7248 82.8888C13.2648 82.956 13.8048 83.0352 14.3496 83.088C14.628 83.1168 14.9064 83.1456 15.1872 83.1648L15.3912 83.1864L15.1512 83.2464C14.7112 83.3725 14.2856 83.5447 13.8816 83.76C13.6632 83.7984 13.4448 83.8584 13.2312 83.9112C12.8856 83.9904 12.5448 84.0792 12.2016 84.1704C11.5272 84.3456 10.86 84.5448 10.188 84.7392C10.1836 84.7392 10.1793 84.741 10.1762 84.7441C10.173 84.7473 10.1712 84.7515 10.1712 84.756C10.1712 84.7604 10.173 84.7647 10.1762 84.7679C10.1793 84.771 10.1836 84.7728 10.188 84.7728C10.8576 84.6096 11.5296 84.4584 12.2016 84.2928C12.5256 84.216 12.852 84.1392 13.1784 84.0528L13.44 84C12.693 84.4621 12.0259 85.0425 11.4648 85.7184C10.9226 86.381 10.4617 87.1062 10.092 87.8784C10.092 87.8976 10.1088 87.9168 10.1208 87.8976C10.5775 87.1008 11.1366 86.3673 11.784 85.716C11.784 85.752 11.7576 85.7904 11.748 85.8264C11.6952 85.9896 11.6448 86.1552 11.592 86.3064C11.4888 86.6328 11.3856 86.9616 11.2872 87.2904C11.2872 87.312 11.3136 87.3192 11.3208 87.2904C11.4384 86.9736 11.5608 86.6544 11.6616 86.3304L11.8272 85.8504C11.856 85.7712 11.8824 85.6896 11.9112 85.6104C11.9186 85.5851 11.9274 85.5602 11.9376 85.536C12.2472 85.2341 12.5767 84.9534 12.924 84.696C13.3838 84.3726 13.879 84.1029 14.4 83.892L14.3712 84.0336C14.3424 84.1608 14.316 84.288 14.2896 84.4152C14.2344 84.6768 14.184 84.9408 14.1312 85.2048C14.028 85.7424 13.9632 86.2872 13.8624 86.8272C13.8624 86.8316 13.8642 86.8359 13.8674 86.8391C13.8705 86.8422 13.8748 86.844 13.8792 86.844C13.8837 86.844 13.888 86.8422 13.8911 86.8391C13.8943 86.8359 13.896 86.8316 13.896 86.8272C14.0208 86.2872 14.1816 85.7544 14.3016 85.212C14.3616 84.9408 14.424 84.6696 14.4792 84.3984C14.5056 84.2712 14.532 84.144 14.556 84.0168C14.5704 83.9448 14.5872 83.8752 14.5968 83.8032C14.6472 83.784 14.6952 83.76 14.748 83.7408C15.468 83.472 16.2816 83.2752 17.0592 83.424C17.4279 83.4924 17.7741 83.6506 18.0671 83.8846C18.3601 84.1186 18.591 84.4212 18.7392 84.7656C18.7632 84.8256 18.8592 84.7872 18.8448 84.7272C18.7505 84.4041 18.5814 84.1077 18.3513 83.8621C18.1211 83.6166 17.8364 83.4286 17.52 83.3136Z" fill="#263238"/>
<path d="M13.2696 85.6031C13.1904 85.9559 13.1112 86.3087 13.0296 86.6615C12.9422 86.9993 12.8773 87.3424 12.8352 87.6887C12.8352 87.7031 12.8544 87.7031 12.8592 87.6887C12.9621 87.3489 13.0423 87.0025 13.0992 86.6519C13.1664 86.3063 13.236 85.9583 13.3032 85.6103C13.308 85.5911 13.2744 85.5815 13.2696 85.6031Z" fill="#263238"/>
<path d="M10.5792 86.4986C10.2264 86.6786 9.88322 86.8826 9.51362 87.029C9.51061 87.0293 9.5077 87.0302 9.50515 87.0319C9.50259 87.0335 9.50045 87.0357 9.49891 87.0383C9.49736 87.0409 9.49646 87.0438 9.49626 87.0468C9.49606 87.0498 9.49658 87.0529 9.49777 87.0557C9.49896 87.0584 9.50079 87.0609 9.50311 87.0628C9.50544 87.0648 9.50818 87.0661 9.51113 87.0668C9.51408 87.0675 9.51715 87.0674 9.52008 87.0667C9.52302 87.066 9.52574 87.0646 9.52802 87.0626C9.89077 86.8976 10.2448 86.7142 10.5888 86.513C10.5888 86.513 10.5888 86.4938 10.5792 86.4986Z" fill="#263238"/>
<path d="M18.96 80.0642C18.96 80.0642 22.1568 78.8978 22.704 76.2098C23.2512 73.5218 21.6384 70.7354 21.6384 70.7354C21.6384 70.7354 18.5448 72.569 17.8944 74.6114C17.244 76.6538 18.96 80.0642 18.96 80.0642Z" fill="#FF6F00"/>
<path d="M18.8496 83.7768C18.8088 83.3952 18.7992 83.0088 18.78 82.6248C18.7608 82.2408 18.756 81.8904 18.7584 81.5232C18.7612 80.7743 18.8037 80.026 18.8856 79.2816C18.9384 78.8016 19.0128 78.336 19.0968 77.868C19.0776 77.8104 19.0632 77.7504 19.0488 77.6928C19.02 77.5896 18.9912 77.4864 18.9648 77.3832C18.9096 77.1744 18.8568 76.9632 18.804 76.752C18.6864 76.2912 18.588 75.8256 18.4656 75.3648C18.4656 75.3432 18.4944 75.3288 18.4992 75.3504C18.624 75.804 18.768 76.248 18.8952 76.6992C18.9576 76.9224 19.0224 77.1432 19.0824 77.364C19.104 77.4456 19.1256 77.5248 19.1448 77.604C19.3166 76.7013 19.5377 75.8088 19.8072 74.9304L19.9224 74.5776C19.9224 74.5512 19.9224 74.5224 19.9224 74.4936C19.9224 74.424 19.9224 74.3544 19.9224 74.2848L19.8936 73.8552C19.8744 73.5744 19.8432 73.2936 19.8 73.0152C19.799 73.0123 19.7986 73.0092 19.799 73.0061C19.7994 73.003 19.8005 73.0001 19.8023 72.9975C19.804 72.995 19.8064 72.9929 19.8091 72.9915C19.8119 72.9901 19.8149 72.9893 19.818 72.9893C19.8211 72.9893 19.8242 72.9901 19.8269 72.9915C19.8297 72.9929 19.832 72.995 19.8338 72.9975C19.8356 73.0001 19.8367 73.003 19.8371 73.0061C19.8375 73.0092 19.8371 73.0123 19.836 73.0152C19.884 73.2984 19.9296 73.5816 19.9656 73.8672C19.9848 74.004 19.9968 74.1408 20.0064 74.28C20.0064 74.304 20.0064 74.328 20.0064 74.3496C20.2128 73.7424 20.4456 73.1496 20.6832 72.5448C20.6832 72.5232 20.7216 72.5448 20.7144 72.5592C20.275 73.7521 19.9292 74.9774 19.68 76.224C19.7447 76.1671 19.8129 76.1142 19.884 76.0656C20.1048 75.9144 20.3304 75.7728 20.5584 75.636C21.0384 75.3504 21.5184 75.0624 21.984 74.7624C22.0032 74.7504 22.0248 74.7768 22.0056 74.7888C21.5664 75.096 21.1368 75.4152 20.7048 75.7344C20.5032 75.8856 20.2944 76.0296 20.088 76.176C19.9191 76.2959 19.7587 76.4274 19.608 76.5696C19.5888 76.6656 19.5672 76.7592 19.5504 76.8528C19.4664 77.2848 19.3968 77.7192 19.332 78.156L19.6224 77.9544C19.8432 77.8032 20.064 77.6544 20.2896 77.508C20.7288 77.22 21.168 76.9296 21.5904 76.6176C21.6072 76.6032 21.6288 76.632 21.612 76.644C21.1848 76.9656 20.7696 77.304 20.3544 77.6376C20.1528 77.796 19.9464 77.9544 19.74 78.1056L19.4256 78.3312C19.3859 78.3649 19.3424 78.3939 19.296 78.4176C19.1664 79.3536 19.0704 80.2968 19.0152 81.24C18.9888 81.6528 18.9744 82.068 18.9624 82.4832C18.9504 82.8984 18.9624 83.3328 18.9624 83.76C18.984 83.844 18.8568 83.8656 18.8496 83.7768Z" fill="#263238"/>
<path d="M18.8904 75.2281C18.8216 74.9081 18.7544 74.5841 18.6888 74.2561C18.6888 74.2345 18.7176 74.2297 18.7224 74.2561C18.792 74.5729 18.864 74.8897 18.9408 75.2041C19.0176 75.5185 19.104 75.8353 19.1472 76.1641C19.0396 75.8586 18.9538 75.5458 18.8904 75.2281Z" fill="#263238"/>
<path d="M20.6688 74.3425C20.7816 74.2081 20.9088 74.0833 21.0312 73.9585C21.0984 73.8937 21.1632 73.8289 21.228 73.7617L21.3264 73.6609C21.3677 73.6286 21.4034 73.5896 21.432 73.5457C21.4488 73.5193 21.48 73.5457 21.4584 73.5673C21.4216 73.6012 21.3886 73.6391 21.36 73.6801L21.2664 73.7857C21.204 73.8505 21.144 73.9177 21.084 73.9849C20.9642 74.12 20.8368 74.2482 20.7024 74.3689C20.6784 74.3833 20.6544 74.3593 20.6688 74.3425Z" fill="#263238"/>
<path d="M20.46 89.1889C20.46 89.1889 21.0096 92.9977 23.8752 94.3321C26.7408 95.6665 30.2328 94.3321 30.2328 94.3321C30.2328 94.3321 28.86 86.0881 20.46 89.1889Z" fill="#FF6F00"/>
<path d="M28.26 91.8528C27.9936 91.8216 27.732 91.7784 27.4704 91.7304L27.084 91.656L26.8848 91.6176C26.808 91.5456 26.7312 91.4712 26.6448 91.4016C26.1019 90.9244 25.5154 90.4993 24.8928 90.132C24.5538 89.9307 24.2027 89.7503 23.8416 89.592H23.8968L24.84 89.6328C25.4688 89.6616 26.0976 89.676 26.7264 89.7168C26.748 89.7168 26.748 89.6832 26.7264 89.6808C26.0952 89.6376 25.4688 89.5704 24.8376 89.5152L23.9232 89.4336L23.4432 89.3928L23.3232 89.3784C23.1576 89.3184 22.9944 89.2608 22.8288 89.2104C22.0474 88.941 21.2064 88.8945 20.4 89.076C19.68 89.2608 18.96 89.7312 18.7728 90.492C18.7728 90.5184 18.8088 90.5376 18.8184 90.5112C19.0872 89.8752 19.7928 89.5512 20.4288 89.424C20.857 89.342 21.296 89.3331 21.7272 89.3976C21.7562 89.5938 21.8044 89.7868 21.8712 89.9736C21.9504 90.2424 22.0296 90.5112 22.1112 90.7776C22.272 91.3128 22.452 91.8432 22.6104 92.3808C22.6104 92.4024 22.6488 92.3808 22.644 92.3688C22.5096 91.836 22.404 91.296 22.2696 90.7584C22.2072 90.4968 22.14 90.2328 22.0752 89.9712C22.0376 89.7878 21.9895 89.6067 21.9312 89.4288C22.1712 89.4744 22.4304 89.5344 22.6752 89.604C23.1175 89.7371 23.5511 89.8974 23.9736 90.084C24.0144 90.3576 24.0744 90.6264 24.1368 90.8928C24.216 91.2312 24.3024 91.5624 24.4104 91.8912C24.4094 91.8937 24.409 91.8965 24.4093 91.8992C24.4096 91.902 24.4106 91.9046 24.4121 91.9068C24.4137 91.9091 24.4157 91.911 24.4182 91.9123C24.4206 91.9135 24.4233 91.9142 24.426 91.9142C24.4288 91.9142 24.4315 91.9135 24.4339 91.9123C24.4363 91.911 24.4384 91.9091 24.4399 91.9068C24.4415 91.9046 24.4424 91.902 24.4427 91.8992C24.443 91.8965 24.4426 91.8937 24.4416 91.8912C24.4416 91.872 24.4416 91.8504 24.4416 91.8288C24.3768 91.5168 24.3072 91.2072 24.2424 90.8952C24.1896 90.6552 24.1392 90.3936 24.0864 90.1416C24.4416 90.3024 24.792 90.4776 25.1304 90.672C25.1304 90.7488 25.1568 90.828 25.1664 90.9C25.188 91.0296 25.212 91.1592 25.236 91.2888C25.2888 91.584 25.3488 91.8768 25.4184 92.1672C25.5434 92.7287 25.7037 93.2818 25.8984 93.8232C25.8961 93.8267 25.8948 93.8309 25.8948 93.8352C25.8948 93.8395 25.8961 93.8436 25.8984 93.8472C25.9052 93.8524 25.911 93.8589 25.9152 93.8664C25.9152 93.8808 25.9488 93.8664 25.944 93.8472C25.812 93.2832 25.6608 92.724 25.536 92.1552C25.4736 91.872 25.4112 91.5912 25.356 91.3056C25.3272 91.164 25.3008 91.0224 25.2744 90.8808C25.2744 90.84 25.26 90.7968 25.2552 90.7512C25.6401 90.9794 26.0126 91.2277 26.3712 91.4952C26.988 91.9601 27.5594 92.4824 28.0776 93.0552C28.0992 93.0792 28.14 93.0552 28.1208 93.0216C27.9075 92.7323 27.6792 92.4543 27.4368 92.1888C27.2928 92.0328 27.144 91.884 26.9904 91.7376H27.0384C27.1728 91.7592 27.3072 91.7808 27.4416 91.7976C27.708 91.8336 27.972 91.86 28.2384 91.8888C28.272 91.8888 28.2816 91.8552 28.26 91.8528Z" fill="#263238"/>
<path d="M26.2464 93.1441C26.2464 93.1105 26.2464 93.0793 26.232 93.0457C26.2176 93.0121 26.2032 92.9641 26.196 92.9209C26.136 92.6641 26.088 92.4097 26.04 92.1505C26.04 92.1337 26.0088 92.1505 26.0088 92.1505C26.0271 92.4922 26.1008 92.8286 26.2272 93.1465H26.2488L26.2464 93.1441Z" fill="#263238"/>
<path d="M23.8464 93.084C23.8468 93.0817 23.8467 93.0793 23.846 93.0771C23.8453 93.0749 23.8441 93.0728 23.8424 93.0712C23.8408 93.0695 23.8387 93.0683 23.8365 93.0676C23.8343 93.0669 23.8319 93.0668 23.8296 93.0672C23.7504 92.7312 23.6712 92.3928 23.5896 92.052L23.4816 91.5168C23.4648 91.4208 23.4456 91.3248 23.4288 91.2264C23.4206 91.1436 23.3996 91.0626 23.3664 90.9864C23.3651 90.9833 23.363 90.9806 23.3602 90.9787C23.3574 90.9768 23.3542 90.9758 23.3508 90.9758C23.3474 90.9758 23.3442 90.9768 23.3414 90.9787C23.3386 90.9806 23.3364 90.9833 23.3352 90.9864C23.3327 91.1595 23.357 91.3319 23.4072 91.4976C23.4432 91.6848 23.4792 91.8696 23.52 92.0544C23.6016 92.4312 23.6976 92.8056 23.8032 93.1752C23.8032 93.1968 23.8416 93.192 23.8416 93.1752L23.8464 93.084Z" fill="#263238"/>
<path d="M27.9984 90.7561C27.4752 90.6841 26.952 90.6073 26.4264 90.5449C26.4048 90.5449 26.3952 90.5761 26.4264 90.5785C26.9472 90.6553 27.4728 90.7201 27.996 90.7897C28.0104 90.7921 28.02 90.7585 27.9984 90.7561Z" fill="#263238"/>
<path d="M14.364 98.6232C14.0376 98.724 13.7376 99.9984 13.9488 100.661C14.16 101.323 12.9384 103.385 12.6888 104.232C12.4392 105.079 12.6216 105.317 12.6888 105.475C12.756 105.634 12.0768 105.924 12.1656 106.082C12.2544 106.241 12.9768 106.322 13.3032 106.267C13.6296 106.212 15.36 107.04 17.0688 107.246C19.9008 107.59 22.9512 106.733 23.532 106.526C23.7216 106.454 24.4032 106.675 24.6648 106.57C24.9264 106.464 24.648 105.994 24.6216 105.835C24.5952 105.677 24.804 105.192 24.84 104.155C24.876 103.118 23.04 100.898 23.1264 100.56C23.2128 100.222 23.5536 99.3312 23.5296 99.1536C23.5056 98.976 20.5896 100.003 18.6576 99.8736C16.7256 99.744 14.88 98.4648 14.364 98.6232Z" fill="#455A64"/>
<path d="M30.216 74.568C30.1047 74.5742 29.9946 74.5414 29.9049 74.4752C29.8151 74.4091 29.7511 74.3138 29.724 74.2056L18.3 26.0352C18.2706 25.87 18.2999 25.6998 18.3827 25.5539C18.4655 25.4079 18.5967 25.2955 18.7536 25.236C18.8221 25.2007 18.8975 25.1808 18.9745 25.1779C19.0515 25.1749 19.1282 25.1889 19.1992 25.2189C19.2702 25.2489 19.3338 25.2942 19.3853 25.3515C19.4369 25.4088 19.4752 25.4767 19.4976 25.5504L30.9216 73.7184C30.9509 73.8836 30.9217 74.0539 30.8389 74.1998C30.756 74.3457 30.6249 74.4581 30.468 74.5176C30.3882 74.5511 30.3025 74.5683 30.216 74.568Z" fill="#FF6F00"/>
<path opacity="0.2" d="M30.216 74.568C30.1047 74.5742 29.9946 74.5414 29.9049 74.4752C29.8151 74.4091 29.7511 74.3138 29.724 74.2056L18.3 26.0352C18.2706 25.87 18.2999 25.6998 18.3827 25.5539C18.4655 25.4079 18.5967 25.2955 18.7536 25.236C18.8221 25.2007 18.8975 25.1808 18.9745 25.1779C19.0515 25.1749 19.1282 25.1889 19.1992 25.2189C19.2702 25.2489 19.3338 25.2942 19.3853 25.3515C19.4369 25.4088 19.4752 25.4767 19.4976 25.5504L30.9216 73.7184C30.9509 73.8836 30.9217 74.0539 30.8389 74.1998C30.756 74.3457 30.6249 74.4581 30.468 74.5176C30.3882 74.5511 30.3025 74.5683 30.216 74.568Z" fill="black"/>
<path d="M23.9064 73.2192C23.8488 73.0824 34.8624 73.2192 35.2704 73.2192C35.6784 73.2192 36.852 81.6672 36.9888 82.6392C37.1256 83.6112 34.1592 86.2729 32.9088 86.2729C30.3864 86.2729 26.712 84.8329 25.7088 83.6113C24.7056 82.3897 24.0168 73.476 23.9064 73.2192Z" fill="#C7C7C7"/>
<path d="M30.9072 78.1464C30.4937 77.8459 30.1634 77.4454 29.9472 76.9824C29.3664 75.7464 29.0904 74.0424 28.8912 73.5048C28.8696 73.4472 28.7592 73.4856 28.7736 73.5504C29.0136 74.5704 29.0712 75.504 29.3088 76.5192C29.3924 76.9141 29.5699 77.283 29.8265 77.5947C30.083 77.9064 30.4109 78.1516 30.7824 78.3096C30.8832 78.3576 31.0032 78.2088 30.9072 78.1464Z" fill="#A6A6A6"/>
<path d="M31.7184 75.9095C31.5523 75.1025 31.3334 74.3072 31.0632 73.5287C31.0512 73.4975 31.0008 73.5287 31.0032 73.5527C31.1352 75.0239 31.8384 76.4759 31.6248 78.0143C31.6248 78.0695 31.7016 78.0863 31.7232 78.0263C32.004 77.2583 31.8864 76.6199 31.7184 75.9095Z" fill="#A6A6A6"/>
<path d="M28.2528 73.1615C28.4568 73.1615 27.3432 69.6119 27.3336 69.3815C27.324 69.1511 30.108 69.0239 30.3504 69.2543C30.5928 69.4847 31.2696 73.1831 31.3728 73.1831L28.2528 73.1615Z" fill="#C7C7C7"/>
<path d="M39.996 87.0601C37.1784 87.3121 34.3296 87.1585 31.5072 87.1873C28.6848 87.2161 25.848 87.2713 23.0184 87.0865C22.9656 87.0865 22.9656 86.9401 23.0184 86.9401L23.4336 86.9138C23.6736 86.4146 23.9832 86.1098 24.3456 86.0138C24.4608 85.985 24.7464 86.1145 24.8256 86.0257C24.9048 85.9369 24.8784 85.8577 24.936 85.6561C25.3008 84.3937 26.0184 84.4561 26.6976 84.7297C26.328 83.0905 27.0912 82.2074 28.0104 81.8498C29.0688 81.437 30.06 81.7825 30.4632 83.4985C30.9144 82.9513 31.4856 82.8265 31.9944 83.2585C32.2656 83.4841 32.316 83.7553 32.6136 83.6401C32.8663 83.5078 33.1558 83.4631 33.4368 83.5129C33.7461 83.6109 34.016 83.8051 34.2072 84.0673C34.3728 84.2785 34.5192 84.7322 34.6872 84.8354C34.8936 84.9626 35.0712 84.7369 35.2896 85.0393C35.466 85.3272 35.5497 85.6623 35.5296 85.9993C36.1464 85.6537 36.648 85.8721 37.236 86.3329C37.5216 86.5609 37.7664 86.2874 38.0688 86.3882C38.3009 86.4816 38.4946 86.6507 38.6184 86.8682C39.0744 86.8898 39.528 86.9161 39.984 86.9569C40.0344 86.9641 40.0344 87.0577 39.996 87.0601Z" fill="#FF6F00"/>
<path opacity="0.3" d="M39.996 87.0601C37.1784 87.3121 34.3296 87.1585 31.5072 87.1873C28.6848 87.2161 25.848 87.2713 23.0184 87.0865C22.9656 87.0865 22.9656 86.9401 23.0184 86.9401L23.4336 86.9138C23.6736 86.4146 23.9832 86.1098 24.3456 86.0138C24.4608 85.985 24.7464 86.1145 24.8256 86.0257C24.9048 85.9369 24.8784 85.8577 24.936 85.6561C25.3008 84.3937 26.0184 84.4561 26.6976 84.7297C26.328 83.0905 27.0912 82.2074 28.0104 81.8498C29.0688 81.437 30.06 81.7825 30.4632 83.4985C30.9144 82.9513 31.4856 82.8265 31.9944 83.2585C32.2656 83.4841 32.316 83.7553 32.6136 83.6401C32.8663 83.5078 33.1558 83.4631 33.4368 83.5129C33.7461 83.6109 34.016 83.8051 34.2072 84.0673C34.3728 84.2785 34.5192 84.7322 34.6872 84.8354C34.8936 84.9626 35.0712 84.7369 35.2896 85.0393C35.466 85.3272 35.5497 85.6623 35.5296 85.9993C36.1464 85.6537 36.648 85.8721 37.236 86.3329C37.5216 86.5609 37.7664 86.2874 38.0688 86.3882C38.3009 86.4816 38.4946 86.6507 38.6184 86.8682C39.0744 86.8898 39.528 86.9161 39.984 86.9569C40.0344 86.9641 40.0344 87.0577 39.996 87.0601Z" fill="black"/>
<path d="M64.3512 87.0671L64.4544 90.9023L60.9672 92.2103L64.3512 87.0671Z" fill="#FF6F00"/>
<path d="M71.9184 94.7928L73.344 100.044L63.432 91.2912L64.4232 90.228L71.9184 94.7928Z" fill="#FF6F00"/>
<path opacity="0.2" d="M71.9184 94.7928L73.344 100.044L63.432 91.2912L64.4232 90.228L71.9184 94.7928Z" fill="black"/>
<path d="M81.4224 98.9591C81.4224 98.9591 83.5296 99.7679 84.8376 98.8919C88.9176 96.1751 87.3744 84.8423 85.428 84.9023C83.4816 84.9623 80.2536 91.3007 80.2536 91.3007L81.4224 98.9591ZM81.7272 97.9439L80.8176 91.9799C80.8176 91.9799 83.5488 86.4599 85.0632 86.4023C86.5776 86.3447 87.564 95.7767 84.384 97.8911C83.3664 98.5703 81.7272 97.9439 81.7272 97.9439Z" fill="#FF6F00"/>
<path d="M69.9312 102.653L82.692 102.67L80.6376 83.772L72.4488 83.832L69.9312 102.653Z" fill="#FF6F00"/>
<path d="M80.6376 83.772L81.9457 82.3968L71.4792 82.272L72.4489 83.832L80.6376 83.772Z" fill="#FF6F00"/>
<path opacity="0.2" d="M80.6376 83.772L81.9457 82.3968L71.4792 82.272L72.4489 83.832L80.6376 83.772Z" fill="black"/>
<path d="M77.1768 89.4095C72.8856 88.4951 71.46 95.1695 75.756 96.0767C80.052 96.9839 81.4728 90.3239 77.1768 89.4095Z" fill="white"/>
<path d="M77.76 92.4984C77.4676 93.2597 77.0417 93.9627 76.5024 94.5744C76.4448 94.6392 75.4536 93.3456 75.1608 92.6976C75.0072 92.3544 74.796 91.596 75.1416 91.2792C75.7848 90.684 76.3152 92.16 76.5 92.9784C76.6032 92.0856 76.9536 90.3888 77.772 91.0584C78.1536 91.3704 77.8992 92.16 77.76 92.4984Z" fill="#FF6F00"/>
<path d="M57.948 109.469C58.0344 109.5 57.5496 102.919 57.5352 102.674C57.5352 102.674 52.0152 101.75 50.7576 102.06C50.1864 102.199 46.4832 103.853 46.4376 104.594C46.3776 105.535 48.696 107.306 50.7768 108.314C52.5792 109.186 57.792 109.414 57.948 109.469Z" fill="#A6A6A6"/>
<path d="M60.3384 106.757C60.3576 106.757 60.2808 105.36 60.276 105.317C60.276 105.317 53.9928 104.597 53.724 104.666C53.6016 104.698 52.8096 105.067 52.8024 105.228C52.8024 105.43 53.2992 105.802 53.7624 106.01C54.1416 106.183 60.3048 106.747 60.3384 106.757Z" fill="#DBDBDB"/>
<path d="M66.9864 105.511C64.5648 105.211 60.2664 105.307 60.2664 105.307L60.3264 106.759C60.3264 106.759 64.7472 107.578 66.7344 107.847C68.7216 108.115 69.4056 105.809 66.9864 105.511ZM67.0872 107.191C66.9878 107.172 66.8964 107.124 66.8246 107.053C66.7527 106.982 66.7038 106.89 66.684 106.791C66.6642 106.692 66.6744 106.589 66.7133 106.496C66.7523 106.402 66.8182 106.323 66.9027 106.267C66.9871 106.211 67.0863 106.182 67.1875 106.183C67.2887 106.184 67.3873 106.215 67.4707 106.272C67.5542 106.329 67.6186 106.41 67.6559 106.504C67.6932 106.598 67.7016 106.701 67.68 106.8C67.6539 106.932 67.577 107.047 67.466 107.122C67.355 107.197 67.2189 107.226 67.0872 107.201V107.191Z" fill="#FF6F00"/>
</svg>
