<svg width="120" height="120" viewBox="0 0 120 120" fill="none" xmlns="http://www.w3.org/2000/svg">
<path d="M100.591 39.6037C100.65 38.5918 100.791 37.5866 101.012 36.5981C101.22 35.7091 101.516 34.7993 102.068 34.0635C102.572 33.392 103.296 32.8586 104.137 32.7526C104.948 32.6524 105.708 33.0193 106.315 33.5395C107.059 34.1826 107.641 35.0338 108.175 35.8585C108.766 36.7825 109.305 37.7406 109.787 38.728C109.802 38.7601 109.754 38.7885 109.737 38.7563C109.32 37.918 108.838 37.1147 108.296 36.3541C107.803 35.6249 107.247 34.9413 106.636 34.3112C106.078 33.7589 105.373 33.2425 104.568 33.216C103.763 33.1896 103.026 33.6473 102.543 34.2772C102.003 34.979 101.728 35.8566 101.523 36.7116C101.311 37.6522 101.174 38.6086 101.112 39.5716C100.954 41.5501 100.911 43.5438 100.867 45.5261C100.843 46.6497 100.826 47.7726 100.816 48.8949C100.816 49.4624 100.816 50.0298 100.803 50.5973C100.825 51.1467 100.803 51.697 100.738 52.2429C100.72 52.3545 100.543 52.3432 100.524 52.2429C100.459 51.7256 100.434 51.2037 100.45 50.6824C100.443 50.1439 100.436 49.6042 100.431 49.0632C100.422 48.0153 100.417 46.9655 100.42 45.9176C100.426 43.8162 100.45 41.7033 100.591 39.6037Z" fill="#263238"/>
<path d="M103.372 38.1114C103.476 37.5439 103.662 36.8214 103.977 36.3882C104.535 35.6089 105.148 35.9475 104.585 36.81C104.167 37.45 103.895 38.1771 103.789 38.938C103.789 38.938 104.736 40.315 105.879 40.9922C105.829 40.4626 105.682 39.6492 105.785 38.8642C106.004 37.1618 107.016 37.2602 106.765 38.6108C106.564 39.6927 106.482 40.8427 106.536 41.3402C106.918 41.5917 107.328 41.7962 107.758 41.9493C107.693 41.7601 107.622 41.5161 107.546 41.2286C107.141 39.7059 108.139 39.2293 108.171 40.0937C108.236 40.8249 108.366 41.5485 108.56 42.2557C109.118 42.4449 109.562 42.5697 109.841 42.67C110.561 42.9405 111.205 43.3875 111.714 43.9713C112.235 43.4932 112.668 42.9244 112.992 42.2917C112.642 41.9852 112.09 41.535 111.318 40.9808C109.882 39.95 110.388 38.6467 111.521 39.4563C112.345 40.0407 112.981 41.1246 113.269 41.6807C113.663 40.7094 113.888 39.6756 113.933 38.6259C112.804 37.5496 110.014 36.0477 110.855 36.0477C111.612 36.0477 113.306 37.1826 113.928 37.612C113.912 37.3179 113.881 37.0248 113.833 36.7344C112.771 36.025 109.317 34.9242 109.867 34.6064C110.472 34.2583 112.88 35.3933 113.61 35.7527C113.473 35.2712 113.257 34.8166 112.972 34.4078C111.502 32.4084 108.855 31.7199 107.699 32.1001C106.882 32.3706 107.12 34.4797 106.955 34.4078C103.659 33.0629 102.165 34.0143 103.372 38.1114ZM111.424 37.8787C111.657 37.5931 112.735 38.4348 112.423 38.8964C112.11 39.3579 111.123 38.2476 111.424 37.8787ZM105.792 36.0799C106.075 36.269 105.656 37.3302 105.219 37.0067C104.847 36.7344 105.506 35.8945 105.792 36.0799Z" fill="#FF6F00"/>
<path d="M106.222 36.4072C106.37 36.1083 106.525 35.8133 106.694 35.5258C106.85 35.2422 107.032 34.9743 107.237 34.7256L107.096 34.5497C107.077 34.527 107.111 34.493 107.131 34.5176C107.185 34.58 107.237 34.6462 107.291 34.7067C107.302 34.7129 107.31 34.7231 107.313 34.7351C107.518 34.9829 107.708 35.2364 107.89 35.4917C108.213 35.566 108.532 35.6595 108.844 35.7717C109.166 35.8814 109.486 35.9949 109.798 36.1292C109.832 36.1443 109.815 36.1991 109.784 36.184C109.473 36.044 109.159 35.9097 108.837 35.8057C108.515 35.7017 108.223 35.6166 107.907 35.5314C108.007 35.6752 108.106 35.8208 108.201 35.9684C108.781 36.1545 109.345 36.3885 109.888 36.6682C110.457 36.9425 111.004 37.2622 111.552 37.5837C111.557 37.5882 111.561 37.5944 111.562 37.6011C111.563 37.6079 111.561 37.6147 111.558 37.6205C111.554 37.6262 111.548 37.6304 111.542 37.6324C111.536 37.6343 111.529 37.6338 111.523 37.631C110.986 37.3126 110.433 37.0222 109.867 36.7609C109.339 36.5094 108.792 36.3032 108.26 36.063C109.601 38.1909 110.405 40.648 111.48 42.9216C111.497 42.9538 111.445 42.9822 111.431 42.9481C111.104 42.1518 110.725 41.3744 110.368 40.5894C110.046 39.8857 109.733 39.1783 109.412 38.4728C109.319 38.2666 109.226 38.0623 109.123 37.8561C109.181 38.991 109.159 40.1505 109.341 41.2741C109.342 41.2783 109.342 41.2827 109.341 41.287C109.34 41.2912 109.339 41.2952 109.336 41.2987C109.333 41.3021 109.33 41.3049 109.326 41.3068C109.322 41.3087 109.318 41.3097 109.314 41.3097C109.31 41.3097 109.305 41.3087 109.302 41.3068C109.298 41.3049 109.294 41.3021 109.292 41.2987C109.289 41.2952 109.287 41.2912 109.287 41.287C109.286 41.2827 109.286 41.2783 109.287 41.2741C109.209 40.0597 108.999 38.8624 109.006 37.6405C109.006 37.6405 109.006 37.6405 109.006 37.6254C108.779 37.1619 108.535 36.7023 108.273 36.2578C107.829 37.3208 107.362 38.4009 107.157 39.5434C107.157 39.5774 107.094 39.5623 107.103 39.5263C107.406 38.382 107.685 37.2357 108.229 36.1764C107.944 35.6942 107.628 35.2316 107.284 34.7919C107.135 35.0756 106.943 35.3423 106.774 35.6128C106.605 35.8833 106.447 36.1424 106.292 36.4148C105.963 36.9903 105.682 37.5934 105.453 38.2174C105.442 38.2514 105.386 38.2344 105.401 38.2004C105.669 37.6045 105.93 36.9955 106.222 36.4072Z" fill="#263238"/>
<path d="M95.6494 39.0043C96.5106 38.1266 97.5094 36.9747 98.8411 36.9766C100.125 36.9766 101.073 38.0301 101.613 39.114C102.18 40.2489 102.384 41.5332 102.543 42.7817C102.73 44.278 102.844 45.7831 102.883 47.2911C102.905 48.129 102.903 48.9669 102.883 49.803C102.885 50.6515 102.823 51.4989 102.697 52.3376C102.692 52.367 102.677 52.3937 102.654 52.4129C102.632 52.432 102.603 52.4426 102.574 52.4426C102.545 52.4426 102.516 52.432 102.494 52.4129C102.472 52.3937 102.456 52.367 102.451 52.3376C102.414 51.634 102.451 50.9247 102.451 50.2191C102.451 49.5136 102.451 48.8308 102.418 48.1385C102.368 46.7349 102.267 45.3314 102.105 43.9355C101.964 42.7173 101.851 41.4633 101.492 40.2848C101.168 39.2237 100.562 38.015 99.5033 37.5402C98.0581 36.9047 96.6463 38.068 95.6996 39.0535C95.668 39.0572 95.6252 39.0213 95.6494 39.0043Z" fill="#263238"/>
<path d="M91.2579 40.9562C91.2579 41.1358 91.2747 41.3136 91.2877 41.4858C91.7025 41.1729 92.1867 40.9689 92.6976 40.8918C93.9196 40.7613 93.8415 41.7052 93.0249 41.7449C92.4511 41.7529 91.8837 41.8684 91.3509 42.0854C91.55 43.7272 91.9945 45.0456 92.0615 45.0627C93.1453 45.0009 94.2236 44.8624 95.2886 44.6484C94.9854 43.9902 94.2935 43.1144 94.645 43.0444C94.9966 42.9744 95.389 43.7518 95.575 44.5879C96.3732 44.4321 97.158 44.2126 97.9223 43.9315C97.3848 43.4586 96.5552 42.8685 96.8714 42.6188C97.1876 42.3691 97.8479 43.1957 98.2441 43.7991C98.6036 43.653 98.9441 43.4624 99.2578 43.2317C98.5343 42.1497 96.7691 41.9303 96.9998 41.151C97.2304 40.3717 98.8802 41.4536 99.6224 42.9025C100.493 41.9832 100.738 40.6857 100.657 39.5753C99.8976 39.4845 98.4394 39.6472 98.5454 39.093C98.6514 38.5388 99.7042 38.6466 100.567 38.9682C100.487 38.5291 100.315 38.1128 100.061 37.7481C99.2615 36.7059 96.8231 38.0318 96.8231 38.0318C96.8231 38.0318 97.0835 35.5388 96.1535 35.1094C95.6178 34.8617 94.6655 34.8635 93.7224 35.431C94.2563 35.4764 94.8998 35.6485 95.1565 36.0231C95.4876 36.5016 94.9705 36.7626 94.6339 36.5413C94.4014 36.3843 93.9642 35.8925 93.1775 35.8263C92.8416 36.1149 92.5457 36.4483 92.2977 36.8175C92.2047 36.95 92.119 37.0877 92.041 37.2298C92.4911 37.0243 92.9802 36.9225 93.4735 36.9317C93.9667 36.9409 94.4519 37.0607 94.8942 37.2828C95.9526 37.8162 95.3611 38.9322 94.4516 38.4991C93.542 38.0659 92.6753 37.6384 91.7118 37.8843C91.3724 38.7693 91.2147 39.7156 91.2486 40.6649C91.7205 40.3169 92.2514 40.0604 92.8148 39.9082C93.8657 39.6264 94.1837 40.2657 93.0287 40.3849C92.4066 40.4519 91.8042 40.6462 91.2579 40.9562ZM92.5376 39.2405C92.4651 38.8944 93.2109 38.7941 93.3337 39.076C93.4379 39.3162 92.6083 39.5867 92.5376 39.2405ZM98.9137 41.1585C98.9844 40.9694 99.4829 41.185 99.4382 41.4196C99.3768 41.7336 98.8467 41.3477 98.9137 41.1585ZM95.3946 42.3729C95.7666 42.2254 96.3246 43.1446 95.9284 43.3546C95.5322 43.5646 95.097 42.494 95.3946 42.3729Z" fill="#FF6F00"/>
<path d="M92.201 44.868C92.7497 43.9374 93.291 43.0011 93.8657 42.0856C94.1335 41.66 94.4237 41.242 94.7045 40.8334L94.5744 40.8012L94.3567 40.7596C94.1893 40.7294 94.0182 40.7048 93.8489 40.6877C93.6797 40.6707 93.529 40.6613 93.3672 40.6594C93.1956 40.6499 93.0235 40.6594 92.8539 40.6877C92.8334 40.6877 92.8297 40.6594 92.8539 40.6594C93.025 40.6594 93.1998 40.6442 93.3709 40.6423C93.542 40.6405 93.7039 40.6423 93.8713 40.6537C94.0387 40.665 94.1819 40.6783 94.3363 40.7029C94.4218 40.7161 94.5074 40.7312 94.5911 40.7483C94.6431 40.7567 94.6947 40.7681 94.7455 40.7823C95.0431 40.3662 95.3531 39.9595 95.6755 39.5623C94.7273 39.0927 93.7174 38.7647 92.6772 38.5881C92.6604 38.5881 92.666 38.5579 92.6772 38.5617C93.7333 38.7128 94.7596 39.032 95.7182 39.5074C95.8931 39.288 96.0692 39.0705 96.2465 38.8549C96.4455 38.6127 96.6575 38.3744 96.8361 38.1172C96.8491 38.1001 96.8733 38.1172 96.8584 38.1342C96.611 38.4047 96.386 38.7016 96.1628 39.0005C96.5547 39.2783 96.9276 39.5829 97.2788 39.9122C97.6508 40.2394 97.9986 40.5799 98.3427 40.928C98.3557 40.9412 98.3427 40.962 98.3241 40.9488C97.9819 40.6026 97.6285 40.2735 97.2583 39.9614C96.8882 39.6493 96.4994 39.3618 96.1256 39.0516C96.04 39.1651 95.9563 39.2804 95.8708 39.392L95.7424 39.5642V39.5755L95.3165 40.143C95.482 40.3874 95.6234 40.6478 95.7387 40.9204C95.8615 41.1833 95.9693 41.4557 96.0679 41.7281C96.2632 42.2968 96.4155 42.8798 96.5236 43.4721C96.5236 43.491 96.5013 43.4986 96.4976 43.4815C96.3811 42.8972 96.2143 42.3243 95.9991 41.7697C95.8931 41.486 95.7722 41.2022 95.6457 40.9317C95.5192 40.6613 95.3946 40.4362 95.2886 40.1751L94.9166 40.6745C94.8831 40.7237 94.8496 40.7748 94.8143 40.8239C94.816 40.8261 94.8171 40.8288 94.8174 40.8316C94.8178 40.8344 94.8173 40.8372 94.8162 40.8397C94.815 40.8423 94.8132 40.8445 94.8109 40.846C94.8086 40.8476 94.8059 40.8484 94.8031 40.8485C94.4311 41.3838 94.0684 41.9305 93.7187 42.4828C93.7405 42.5206 93.7568 42.5613 93.7671 42.6039C93.7894 42.672 93.8099 42.74 93.8304 42.8081C93.8694 42.9443 93.9011 43.0826 93.9252 43.2224C93.9494 43.3529 93.968 43.4853 93.981 43.6177C93.9822 43.7689 93.9927 43.9199 94.0126 44.0698C94.0126 44.0925 93.9829 44.0925 93.9866 44.0698C93.9955 43.929 93.9849 43.7876 93.955 43.6499C93.9363 43.5055 93.9102 43.3621 93.8769 43.2205C93.8471 43.0938 93.8136 42.9651 93.7764 42.8422C93.7578 42.7779 93.7373 42.7155 93.7169 42.653C93.7057 42.6209 93.689 42.5849 93.6778 42.5509C93.5142 42.81 93.3542 43.0711 93.1942 43.334C92.8799 43.856 92.5674 44.3781 92.2512 44.8983C92.227 44.9248 92.1861 44.9021 92.201 44.868Z" fill="#263238"/>
<path d="M100.649 52.0273C100.664 51.4995 100.746 50.968 100.802 50.4441C100.857 49.9201 100.917 49.3886 100.973 48.8608C101.079 47.8451 101.138 46.8067 101.373 45.8098C101.548 44.9421 101.973 44.1472 102.595 43.5267C102.917 43.2002 103.339 42.9953 103.791 42.946C104.247 42.9318 104.694 43.0723 105.063 43.3452C105.483 43.6596 105.845 44.047 106.132 44.4895C106.442 44.9277 106.721 45.3879 106.966 45.8666C106.966 45.8855 106.947 45.8968 106.938 45.8798C106.475 45.0807 105.862 44.382 105.134 43.8237C104.809 43.5536 104.414 43.3859 103.997 43.3414C103.793 43.3385 103.591 43.3767 103.402 43.4536C103.212 43.5306 103.04 43.6448 102.894 43.7897C102.29 44.325 101.938 45.1137 101.73 45.8836C101.482 46.801 101.402 47.7638 101.28 48.7039C101.205 49.2713 101.136 49.8217 101.064 50.3797C100.991 50.9377 100.945 51.5052 100.83 52.0519C100.825 52.0752 100.812 52.096 100.793 52.1099C100.774 52.1238 100.751 52.1298 100.728 52.1266C100.705 52.1235 100.684 52.1114 100.669 52.0929C100.654 52.0744 100.647 52.0509 100.649 52.0273Z" fill="#263238"/>
<path d="M103.203 47.9284C103.361 48.1497 103.548 48.3471 103.761 48.5148C103.675 48.0003 103.575 47.0848 103.828 46.5967C104.226 45.8401 104.695 46.2184 104.458 46.8767C104.226 47.4707 104.1 48.1024 104.086 48.7417C104.626 49.0869 105.205 49.3645 105.811 49.5683C105.745 49.2725 105.726 48.968 105.753 48.6661C105.833 47.8565 106.441 47.8716 106.283 48.7134C106.225 49.0397 106.197 49.3709 106.199 49.7026C107.078 49.9776 107.977 50.1832 108.887 50.3174C109.353 49.705 109.729 49.0271 110.003 48.3048C109.356 48.1402 108.044 48.1024 108.072 47.6314C108.11 46.9977 109.374 47.4858 110.118 47.9454C110.288 47.3951 110.364 46.8194 110.343 46.243C109.761 46.078 109.162 45.9772 108.558 45.9423C107.224 45.825 107.289 45.057 108.256 45.0741C108.969 45.0873 109.869 45.5318 110.302 45.7626C110.025 43.9183 108.641 42.7361 107.533 42.6907C105.673 42.6151 106.339 44.9757 106.339 44.9757C106.339 44.9757 105.076 44.0697 103.884 44.0943C102.691 44.1188 101.929 46.1239 103.203 47.9284ZM108.182 44.5236C108.141 44.2569 108.973 44.1945 109.017 44.535C109.066 44.9114 108.225 44.7884 108.182 44.518V44.5236ZM109.521 47.2909C109.505 47.1169 109.864 47.0867 109.945 47.3061C109.999 47.4423 109.536 47.4574 109.521 47.2853V47.2909ZM105.044 47.4536C105.325 47.4933 105.485 48.5148 105.001 48.4958C104.631 48.4731 104.806 47.412 105.044 47.4479V47.4536Z" fill="#FF6F00"/>
<path d="M105.433 48.5828C105.48 48.4542 105.52 48.3256 105.559 48.1951C105.524 48.3275 105.491 48.4599 105.468 48.5923C105.463 48.6169 105.424 48.6074 105.433 48.5828Z" fill="#263238"/>
<path d="M105.926 46.9485C106.013 46.6875 106.112 46.4284 106.211 46.1711C106.264 46.0337 106.32 45.8975 106.378 45.7626C106.421 45.6426 106.477 45.5278 106.545 45.4202C106.486 45.3141 106.436 45.2034 106.395 45.0892C106.393 45.0869 106.393 45.0843 106.394 45.0818C106.395 45.0793 106.396 45.0772 106.398 45.0759C106.401 45.0747 106.403 45.0744 106.406 45.0751C106.408 45.0758 106.41 45.0775 106.411 45.0797C106.548 45.2581 106.669 45.4479 106.774 45.6472C106.826 45.7361 106.875 45.8269 106.927 45.9177C107.032 45.9274 107.136 45.9439 107.239 45.9668C107.353 45.9876 107.462 46.0103 107.574 46.0368L107.907 46.1144C108.017 46.1409 108.126 46.1787 108.236 46.1957C108.239 46.1948 108.242 46.1945 108.245 46.195C108.248 46.1955 108.25 46.1966 108.253 46.1984C108.255 46.2001 108.257 46.2024 108.258 46.2051C108.26 46.2077 108.26 46.2107 108.26 46.2137C108.26 46.2167 108.26 46.2196 108.258 46.2223C108.257 46.2249 108.255 46.2273 108.253 46.229C108.25 46.2308 108.248 46.2319 108.245 46.2324C108.242 46.2328 108.239 46.2326 108.236 46.2317C108.123 46.1904 108.007 46.1594 107.888 46.139C107.78 46.1144 107.674 46.0955 107.565 46.0803C107.455 46.0652 107.349 46.0501 107.239 46.0387L106.994 46.0198C107.036 46.0992 107.083 46.1768 107.127 46.2581C107.127 46.2695 107.141 46.2827 107.146 46.296C107.236 46.2944 107.326 46.3052 107.414 46.3281C107.511 46.3451 107.6 46.3641 107.702 46.3849C107.888 46.4303 108.091 46.4757 108.283 46.5305C108.686 46.6459 109.084 46.7764 109.482 46.9088C109.505 46.9088 109.492 46.9504 109.469 46.9429C109.074 46.8072 108.671 46.6935 108.264 46.6024C108.078 46.5589 107.892 46.5135 107.691 46.4738L107.403 46.4114C107.327 46.3997 107.253 46.3833 107.18 46.3622C107.386 46.7405 107.579 47.1396 107.756 47.5387C108.143 48.4088 108.469 49.3054 108.8 50.1982C108.809 50.219 108.774 50.2341 108.766 50.2114C108.444 49.3237 108.072 48.456 107.65 47.6125C107.576 47.4574 107.499 47.3042 107.423 47.1509C107.423 47.1812 107.41 47.2134 107.405 47.2455C107.384 47.3495 107.367 47.4555 107.349 47.5614C107.313 47.7732 107.278 47.9851 107.248 48.197C107.159 48.6328 107.109 49.0759 107.098 49.521C107.098 49.5475 107.057 49.5456 107.062 49.521C107.094 49.3111 107.094 49.0916 107.107 48.8798C107.12 48.6679 107.137 48.4372 107.163 48.2159C107.189 47.9946 107.213 47.7903 107.248 47.5784C107.265 47.4725 107.283 47.3666 107.304 47.2606C107.309 47.1813 107.329 47.1037 107.362 47.0318C107.252 46.8086 107.144 46.5854 107.034 46.3641C106.925 46.1428 106.826 45.9479 106.718 45.7399C106.674 45.6528 106.625 45.5639 106.577 45.475C106.543 45.5844 106.502 45.6912 106.454 45.7947L106.309 46.1541C106.203 46.4189 106.103 46.6856 106.004 46.9523C105.863 47.3306 105.706 47.7203 105.591 48.1156C105.701 47.7165 105.798 47.3268 105.926 46.9485Z" fill="#263238"/>
<path d="M98.3966 50.9568L98.5026 53.7789L98.7705 61.0556H104.641L104.91 53.7789L105.014 50.9568H98.3966Z" fill="#455A64"/>
<path d="M98.3966 50.9568L98.4673 52.8445L104.931 53.2228L105.014 50.9568H98.3966Z" fill="#37474F"/>
<path d="M97.98 52.0974H105.431V49.8143H97.98V52.0974Z" fill="#455A64"/>
<path d="M104.166 61.0557H103.136V62.2511H104.166V61.0557Z" fill="#455A64"/>
<path d="M104.166 61.0557H103.136V61.6534H104.166V61.0557Z" fill="#37474F"/>
<path d="M100.275 61.0557H99.2448V62.2511H100.275V61.0557Z" fill="#455A64"/>
<path d="M100.275 61.0557H99.2448V61.6534H100.275V61.0557Z" fill="#37474F"/>
<path d="M105.932 62.1035H44.0568V81.3668H105.932V62.1035Z" fill="#FF6F00"/>
<path opacity="0.4" d="M105.932 62.1035H44.0568V81.3668H105.932V62.1035Z" fill="black"/>
<path d="M97.9744 81.3667L98.1139 83.1164L98.4413 87.1567H99.9386L100.266 83.1164L100.405 81.3667H97.9744Z" fill="#FF6F00"/>
<path opacity="0.4" d="M97.9744 81.3667L98.1139 83.1164L98.4413 87.1567H99.9386L100.266 83.1164L100.405 81.3667H97.9744Z" fill="black"/>
<path opacity="0.4" d="M100.405 81.3667H97.9744L98.0433 82.2292L100.266 83.1164L100.405 81.3667Z" fill="black"/>
<path d="M49.5828 81.3667L49.7223 83.1164L50.0497 87.1567H51.547L51.8743 83.1164L52.0138 81.3667H49.5828Z" fill="#FF6F00"/>
<path opacity="0.4" d="M49.5828 81.3667L49.7223 83.1164L50.0497 87.1567H51.547L51.8743 83.1164L52.0138 81.3667H49.5828Z" fill="black"/>
<path opacity="0.4" d="M49.5828 81.3667L49.7223 83.1164L51.9283 82.4411L52.0138 81.3667H49.5828Z" fill="black"/>
<g opacity="0.3">
<path d="M74.1665 63.9307H45.9465V70.812H74.1665V63.9307Z" fill="black"/>
<path d="M104.042 72.4729H45.9465V79.3543H104.042V72.4729Z" fill="black"/>
<path d="M104.042 63.9307H75.8218V70.812H104.042V63.9307Z" fill="black"/>
</g>
<path d="M49.0825 62.6597H18V87.1568H49.0825V62.6597Z" fill="#FF6F00"/>
<path opacity="0.2" d="M49.0825 62.6597H37.3105V87.1568H49.0825V62.6597Z" fill="black"/>
<path d="M48.2715 85.4751C47.4035 83.7324 46.5392 81.9853 45.6786 80.2337L43.1249 74.9583L40.6046 69.662C39.7676 67.8966 38.9399 66.1236 38.1215 64.343C38.9895 66.0845 39.8531 67.8323 40.7124 69.5863L43.2662 74.8561L45.7865 80.1524C46.6235 81.9178 47.4518 83.6921 48.2715 85.4751Z" fill="#FF6F00"/>
<path d="M48.2715 64.3469C47.4506 66.125 46.6223 67.898 45.7865 69.6659L43.2662 74.9622L40.7124 80.232C39.8568 81.9848 38.9932 83.7319 38.1215 85.4734C38.9399 83.6953 39.7676 81.9223 40.6046 80.1544L43.1249 74.8581L45.6786 69.5865C46.5342 67.8362 47.3985 66.0896 48.2715 64.3469Z" fill="#FF6F00"/>
<path d="M41.4323 65.6482H45.0072V62.6596H41.4323V65.6482Z" fill="#EBEBEB"/>
<path d="M24.5305 85.5283H24.7816V81.9363H24.5305V85.5283Z" fill="#263238"/>
<path d="M23.9297 85.5283H24.1808V81.9363H23.9297V85.5283Z" fill="#263238"/>
<path d="M23.3307 85.5283H23.5818V81.9363H23.3307V85.5283Z" fill="#263238"/>
<path d="M22.7281 85.5283H22.9792V81.9363H22.7281V85.5283Z" fill="#263238"/>
<path d="M22.1273 85.5283H22.3784V81.9363H22.1273V85.5283Z" fill="#263238"/>
<path d="M21.5265 85.5283H21.7776V81.9363H21.5265V85.5283Z" fill="#263238"/>
<path d="M20.9258 85.5283H21.1769V81.9363H20.9258V85.5283Z" fill="#263238"/>
<path d="M20.325 85.5283H20.5761V81.9363H20.325V85.5283Z" fill="#263238"/>
<path d="M19.7242 85.5283H19.9753V81.9363H19.7242V85.5283Z" fill="#263238"/>
<path d="M27.2386 85.2539L26.2751 85.5263H28.5369L27.5734 85.2501V83.926C28.2635 83.8352 28.5369 83.1429 28.5369 81.9324H26.2751C26.2751 83.1392 26.5504 83.8352 27.2386 83.926V85.2539Z" fill="#263238"/>
<path d="M29.0633 83.7692H29.6548V85.5264H31.167V83.7692H31.7603L30.4099 81.9363L29.0633 83.7692Z" fill="#263238"/>
<path opacity="0.1" d="M18 87.1567V85.4373L37.3105 82.2539V87.1567H18Z" fill="black"/>
<path d="M47.4698 46.7766H23.4554V62.6597H47.4698V46.7766Z" fill="#FF6F00"/>
<path opacity="0.2" d="M47.4679 46.7766H40.1302V62.6597H47.4679V46.7766Z" fill="black"/>
<path d="M46.9621 62.0638C46.419 60.8823 45.8808 59.6956 45.3476 58.504L43.7555 54.9252L42.1838 51.3313C41.663 50.1296 41.1471 48.9253 40.6362 47.7185C41.1794 48.9013 41.7175 50.088 42.2507 51.2784L43.8429 54.8571L45.4146 58.451C45.9354 59.6515 46.4512 60.8558 46.9621 62.0638Z" fill="#FF6F00"/>
<path d="M46.962 47.7185C46.4524 48.9278 45.9366 50.1321 45.4145 51.3313L43.8428 54.9252L42.2581 58.504C41.7261 59.6956 41.188 60.8823 40.6436 62.0638C41.1533 60.857 41.6691 59.6534 42.1911 58.4529L43.7628 54.859L45.355 51.2821C45.882 50.0892 46.4177 48.9013 46.962 47.7185Z" fill="#FF6F00"/>
<path d="M42.7008 48.6604H44.9291V46.7764H42.7008V48.6604Z" fill="#EBEBEB"/>
<path d="M27.525 61.6438H27.6813V59.4042H27.525V61.6438Z" fill="#263238"/>
<path d="M27.1512 61.6438H27.3074V59.4042H27.1512V61.6438Z" fill="#263238"/>
<path d="M26.7774 61.6438H26.9336V59.4042H26.7774V61.6438Z" fill="#263238"/>
<path d="M26.4035 61.6438H26.5597V59.4042H26.4035V61.6438Z" fill="#263238"/>
<path d="M26.0278 61.6438H26.184V59.4042H26.0278V61.6438Z" fill="#263238"/>
<path d="M25.652 61.6438H25.8083V59.4042H25.652V61.6438Z" fill="#263238"/>
<path d="M25.28 61.6438H25.4363V59.4042H25.28V61.6438Z" fill="#263238"/>
<path d="M24.9043 61.6438H25.0605V59.4042H24.9043V61.6438Z" fill="#263238"/>
<path d="M24.5286 61.6438H24.6848V59.4042H24.5286V61.6438Z" fill="#263238"/>
<path d="M29.2139 61.4737L28.6132 61.6439H30.023L29.4241 61.4718V60.649C29.8538 60.5903 30.0249 60.1591 30.0249 59.4062H28.615C28.615 60.1629 28.7861 60.5903 29.2158 60.649L29.2139 61.4737Z" fill="#263238"/>
<path d="M30.3522 60.5468H30.7205V61.642H31.6617V60.5468H32.0318L31.1911 59.4062L30.3522 60.5468Z" fill="#263238"/>
<path opacity="0.1" d="M23.4554 62.6597V61.5872L40.1303 59.603V62.6597H23.4554Z" fill="black"/>
<path d="M63.3542 71.2756H39.3398V87.1588H63.3542V71.2756Z" fill="#FF6F00"/>
<path opacity="0.2" d="M63.3542 71.2756H56.0165V87.1588H63.3542V71.2756Z" fill="black"/>
<path d="M62.8484 86.5628C62.3052 85.3787 61.7665 84.1915 61.232 83.0011L59.6399 79.4223L58.0682 75.8284C57.5474 74.6292 57.0315 73.4249 56.5206 72.2156C57.0662 73.3997 57.605 74.5869 58.137 75.7773L59.7291 79.3561L61.3008 82.95C61.8216 84.1492 62.3375 85.3535 62.8484 86.5628Z" fill="#FF6F00"/>
<path d="M62.8484 72.2156C62.3375 73.4249 61.8216 74.6292 61.3008 75.8284L59.7291 79.4223L58.137 83.0011C57.6025 84.1927 57.0637 85.38 56.5206 86.5628C57.0327 85.3547 57.5486 84.1505 58.0682 82.95L59.6399 79.3561L61.2302 75.7773C61.7658 74.5857 62.3052 73.3984 62.8484 72.2156Z" fill="#FF6F00"/>
<path d="M58.5852 73.1577H60.8135V71.2738H58.5852V73.1577Z" fill="#EBEBEB"/>
<path d="M43.4113 86.1411H43.5676V83.9015H43.4113V86.1411Z" fill="#263238"/>
<path d="M43.0375 86.1411H43.1937V83.9015H43.0375V86.1411Z" fill="#263238"/>
<path d="M42.6636 86.1411H42.8198V83.9015H42.6636V86.1411Z" fill="#263238"/>
<path d="M42.2879 86.1411H42.4441V83.9015H42.2879V86.1411Z" fill="#263238"/>
<path d="M41.9122 86.1411H42.0684V83.9015H41.9122V86.1411Z" fill="#263238"/>
<path d="M41.5402 86.1411H41.6964V83.9015H41.5402V86.1411Z" fill="#263238"/>
<path d="M41.1644 86.1411H41.3207V83.9015H41.1644V86.1411Z" fill="#263238"/>
<path d="M40.7887 86.1411H40.9449V83.9015H40.7887V86.1411Z" fill="#263238"/>
<path d="M40.4149 86.1411H40.5711V83.9015H40.4149V86.1411Z" fill="#263238"/>
<path d="M45.1002 85.9708L44.4994 86.141H45.9093L45.3085 85.9689V85.1461C45.7381 85.0893 45.9093 84.658 45.9093 83.9033H44.4994C44.4994 84.6599 44.6705 85.0893 45.1002 85.1461V85.9708Z" fill="#263238"/>
<path d="M46.2366 85.0439H46.6049V86.141H47.5479V85.0439H47.9181L47.0774 83.9033L46.2366 85.0439Z" fill="#263238"/>
<path opacity="0.1" d="M39.3398 87.1568V86.0862L56.0147 84.1001V87.1568H39.3398Z" fill="black"/>
<path d="M66.3265 60.7378H41.6517V71.2736H66.3265V60.7378Z" fill="#FF6F00"/>
<path opacity="0.2" d="M66.3265 60.7378H57.3762V71.2755H66.3265V60.7378Z" fill="black"/>
<path d="M65.709 70.5492C65.0468 69.8002 64.3903 69.0486 63.7393 68.2945L61.7974 66.0247L59.8816 63.7549C59.2455 62.9983 58.6162 62.236 57.9937 61.468C58.6559 62.2145 59.3125 62.9661 59.9635 63.7227L61.9053 65.9925L63.8211 68.2624C64.4572 69.019 65.0865 69.7813 65.709 70.5492Z" fill="#FF6F00"/>
<path d="M65.709 61.4641C65.089 62.2283 64.4597 62.9906 63.8211 63.751L61.9053 66.0208L59.9635 68.2906C59.3125 69.0472 58.6559 69.7988 57.9937 70.5453C58.6137 69.7799 59.243 69.017 59.8816 68.2566L61.7974 65.9868L63.7393 63.7169C64.3903 62.9641 65.0468 62.2132 65.709 61.4641Z" fill="#FF6F00"/>
<path d="M45.7679 70.0366H45.913V67.9427H45.7679V70.0366Z" fill="#263238"/>
<path d="M45.4164 70.0366H45.5615V67.9427H45.4164V70.0366Z" fill="#263238"/>
<path d="M45.0667 70.0366H45.2118V67.9427H45.0667V70.0366Z" fill="#263238"/>
<path d="M44.717 70.0366H44.8621V67.9427H44.717V70.0366Z" fill="#263238"/>
<path d="M44.3655 70.0366H44.5106V67.9427H44.3655V70.0366Z" fill="#263238"/>
<path d="M44.0158 70.0366H44.1609V67.9427H44.0158V70.0366Z" fill="#263238"/>
<path d="M43.6643 70.0366H43.8094V67.9427H43.6643V70.0366Z" fill="#263238"/>
<path d="M43.3146 70.0366H43.4597V67.9427H43.3146V70.0366Z" fill="#263238"/>
<path d="M42.9649 70.0366H43.11V67.9427H42.9649V70.0366Z" fill="#263238"/>
<path d="M47.3452 69.8758L46.7872 70.0347H48.106L47.548 69.8739V69.104C47.9497 69.0511 48.106 68.6463 48.106 67.9426H46.7872C46.7872 68.6444 46.9472 69.0511 47.3452 69.104V69.8758Z" fill="#263238"/>
<path d="M48.4091 69.0095H48.7532V70.0347H49.6349V69.0095H49.9808L49.194 67.9426L48.4091 69.0095Z" fill="#263238"/>
<path opacity="0.1" d="M41.6536 71.2756V69.9666L57.3762 67.5474V71.2737L41.6536 71.2756Z" fill="black"/>
<path d="M68.9845 58.103H60.0342L57.3762 60.7379H66.3284L68.9845 58.103Z" fill="#FF6F00"/>
<path opacity="0.1" d="M68.9845 58.103H60.0342L57.3762 60.7379H66.3284L68.9845 58.103Z" fill="black"/>
<path d="M38.9957 58.103H47.946L50.6039 60.7379H41.6517L38.9957 58.103Z" fill="#FF6F00"/>
<path opacity="0.1" d="M38.9957 58.103H47.946L50.6039 60.7379H41.6517L38.9957 58.103Z" fill="black"/>
<path d="M43.376 38.8682H20.658V46.8182H43.376V38.8682Z" fill="#FF6F00"/>
<path opacity="0.2" d="M43.376 38.8682H34.4257V46.8182H43.376V38.8682Z" fill="black"/>
<path d="M42.7585 46.0919C42.0963 45.6102 41.4397 45.1253 40.7887 44.6373L38.8469 43.177L36.9292 41.7073C36.2931 41.218 35.6638 40.7263 35.0413 40.2319C35.706 40.7162 36.3632 41.201 37.0129 41.6865L38.9529 43.1487L40.8706 44.6184C41.5141 45.1064 42.1354 45.6001 42.7585 46.0919Z" fill="#FF6F00"/>
<path d="M42.7585 40.2319C42.1385 40.725 41.5092 41.2168 40.8706 41.7073L38.9529 43.177L37.0129 44.6373C36.3619 45.1253 35.7047 45.6102 35.0413 46.0919C35.6644 45.6001 36.2931 45.1064 36.9292 44.6165L38.8469 43.1487L40.7887 41.6865C41.4385 41.201 42.0951 40.7162 42.7585 40.2319Z" fill="#FF6F00"/>
<path d="M24.7723 45.5791H24.9174V43.4852H24.7723V45.5791Z" fill="#263238"/>
<path d="M24.4226 45.5791H24.5677V43.4852H24.4226V45.5791Z" fill="#263238"/>
<path d="M24.071 45.5791H24.2161V43.4852H24.071V45.5791Z" fill="#263238"/>
<path d="M23.7214 45.5791H23.8665V43.4852H23.7214V45.5791Z" fill="#263238"/>
<path d="M23.3717 45.5791H23.5168V43.4852H23.3717V45.5791Z" fill="#263238"/>
<path d="M23.0201 45.5791H23.1652V43.4852H23.0201V45.5791Z" fill="#263238"/>
<path d="M22.6705 45.5791H22.8156V43.4852H22.6705V45.5791Z" fill="#263238"/>
<path d="M22.3208 45.5791H22.4659V43.4852H22.3208V45.5791Z" fill="#263238"/>
<path d="M21.9692 45.5791H22.1143V43.4852H21.9692V45.5791Z" fill="#263238"/>
<path d="M26.3514 45.4204L25.7934 45.5793H27.1121L26.5541 45.4185V44.6486C26.9578 44.5938 27.1121 44.1909 27.1121 43.4854H25.7934C25.7934 44.189 25.9534 44.5938 26.3514 44.6486V45.4204Z" fill="#263238"/>
<path d="M27.4153 44.5541H27.7594V45.5793H28.6411V44.5541H28.987L28.2003 43.4854L27.4153 44.5541Z" fill="#263238"/>
<path opacity="0.1" d="M20.658 46.818V45.511L34.4257 43.0898V46.818H20.658Z" fill="black"/>
<path d="M46.0339 36.2332H37.0817L34.4257 38.868H43.376L46.0339 36.2332Z" fill="#FF6F00"/>
<path opacity="0.1" d="M46.0339 36.2332H37.0817L34.4257 38.868H43.376L46.0339 36.2332Z" fill="black"/>
<path d="M18 36.2332H26.9522L29.6083 38.868H20.6579L18 36.2332Z" fill="#FF6F00"/>
<path opacity="0.1" d="M18 36.2332H26.9522L29.6083 38.868H20.6579L18 36.2332Z" fill="black"/>
</svg>
