<svg width="120" height="120" viewBox="0 0 120 120" fill="none" xmlns="http://www.w3.org/2000/svg">
<path d="M17.4757 49.198L89.2765 7.6924L86.1901 5.8252L17.4757 45.4972V49.198Z" fill="#E0E0E0"/>
<path d="M17.4757 49.1981V111.514L89.2117 70.0997V7.78125L17.4757 49.1981Z" fill="white"/>
<path d="M71.9869 31.9686V33.4254C71.9869 33.8838 72.3085 34.0686 72.7069 33.8406L79.3693 30.0006C79.5792 29.864 79.7538 29.6798 79.8789 29.4629C80.0041 29.246 80.0761 29.0026 80.0893 28.7526V27.2958C80.0893 26.8374 79.7677 26.6526 79.3693 26.8806L72.7069 30.7206C72.4971 30.8571 72.3225 31.0414 72.1973 31.2583C72.0722 31.4751 72.0001 31.7185 71.9869 31.9686Z" fill="#F5F5F5"/>
<path d="M69.9277 60.382V61.8388C69.9277 62.2972 70.2493 62.4844 70.6477 62.254L77.3101 58.414C77.5197 58.2776 77.6941 58.0938 77.8192 57.8773C77.9443 57.6609 78.0166 57.418 78.0301 57.1684V55.7116C78.0301 55.2508 77.7085 55.066 77.3101 55.2964L70.6477 59.1364C70.4385 59.273 70.2642 59.4569 70.1392 59.6733C70.0141 59.8897 69.9417 60.1324 69.9277 60.382Z" fill="#F5F5F5"/>
<path d="M56.7902 56.9212V58.378C56.7902 58.8364 57.1142 59.0212 57.5102 58.7932L64.175 54.9532C64.3846 54.8163 64.559 54.632 64.6841 54.4152C64.8091 54.1984 64.8814 53.9552 64.895 53.7052V52.2484C64.895 51.79 64.5734 51.6052 64.175 51.8332L57.5102 55.6732C57.3007 55.8102 57.1264 55.9945 57.0013 56.2113C56.8762 56.4281 56.8039 56.6713 56.7902 56.9212Z" fill="#EBEBEB"/>
<path d="M69.6229 45.5597V47.0165C69.6229 47.4749 69.9445 47.6621 70.3429 47.4317L77.0053 43.5917C77.215 43.4556 77.3895 43.2717 77.5146 43.0553C77.6398 42.8388 77.712 42.5958 77.7253 42.3461V40.8893C77.7253 40.4309 77.4037 40.2437 77.0053 40.4741L70.3429 44.3141C70.1332 44.4503 69.9587 44.6342 69.8336 44.8506C69.7085 45.0671 69.6363 45.3101 69.6229 45.5597Z" fill="#EBEBEB"/>
<path d="M65.8765 67.1622V68.6166C65.8765 69.0774 66.1981 69.2622 66.5965 69.0342L73.2589 65.1942C73.4685 65.0573 73.6429 64.873 73.768 64.6562C73.893 64.4394 73.9653 64.1961 73.9789 63.9462V62.4894C73.9789 62.031 73.6573 61.8462 73.2589 62.0742L66.5965 65.9142C66.3866 66.0507 66.212 66.235 66.0869 66.4519C65.9617 66.6687 65.8896 66.9121 65.8765 67.1622Z" fill="#EBEBEB"/>
<path d="M81.5101 33.7229L74.8477 37.5629C74.6378 37.6994 74.4632 37.8837 74.3381 38.1006C74.213 38.3174 74.1409 38.5608 74.1277 38.8109V40.2653C74.1277 40.7261 74.4493 40.9109 74.8477 40.6829L81.5101 36.8429C81.7193 36.7056 81.8934 36.5212 82.0184 36.3044C82.1435 36.0877 82.216 35.8447 82.2301 35.5949V34.1381C82.2301 33.6797 81.9157 33.5021 81.5101 33.7229Z" fill="#F5F5F5"/>
<path d="M84.0949 20.3356L77.4301 24.1828C77.2202 24.3194 77.0456 24.5037 76.9205 24.7205C76.7954 24.9374 76.7233 25.1808 76.7101 25.4308V26.8852C76.7101 27.346 77.0317 27.5308 77.4301 27.3028L84.0925 23.4628C84.3021 23.326 84.4765 23.1417 84.6016 22.9249C84.7267 22.708 84.7989 22.4648 84.8125 22.2148V20.7508C84.8149 20.302 84.4933 20.1076 84.0949 20.3356Z" fill="#F5F5F5"/>
<path d="M72.6925 38.8179L66.0301 42.6579C65.8205 42.7948 65.6461 42.9791 65.521 43.1959C65.3959 43.4128 65.3236 43.656 65.3101 43.9059V45.3627C65.3101 45.8211 65.6317 46.0059 66.0301 45.7779L72.6925 41.9379C72.9023 41.8014 73.0769 41.6171 73.2021 41.4003C73.3272 41.1834 73.3993 40.94 73.4125 40.6899V39.2355C73.4125 38.7819 73.0909 38.5899 72.6925 38.8179Z" fill="#F5F5F5"/>
<path d="M47.0917 61.6948L40.4269 65.5348C40.2175 65.6713 40.0432 65.8552 39.9181 66.0716C39.793 66.288 39.7207 66.5309 39.7069 66.7804V68.2373C39.7069 68.6957 40.0309 68.8828 40.4269 68.6524L47.0917 64.8124C47.3013 64.6761 47.4757 64.4923 47.6008 64.2758C47.7259 64.0594 47.7982 63.8165 47.8117 63.5668V62.1101C47.8093 61.6517 47.4877 61.4644 47.0917 61.6948Z" fill="#F5F5F5"/>
<path d="M51.7189 55.0659L45.0541 58.9059C44.8447 59.0424 44.6704 59.2263 44.5453 59.4427C44.4202 59.6591 44.3478 59.902 44.3341 60.1515V61.6083C44.3341 62.0667 44.6581 62.2539 45.0541 62.0235L51.7189 58.1835C51.9283 58.0471 52.1026 57.8632 52.2277 57.6468C52.3528 57.4304 52.4252 57.1875 52.4389 56.9379V55.4811C52.4389 55.0227 52.1149 54.8355 51.7189 55.0659Z" fill="#F5F5F5"/>
<path d="M17.9102 75.0966V76.5534C17.9102 77.0118 18.2318 77.199 18.6302 76.9686L25.2926 73.1286C25.5021 72.9922 25.6765 72.8084 25.8016 72.5919C25.9267 72.3755 25.999 72.1326 26.0126 71.883V70.4262C26.0126 69.9654 25.691 69.7806 25.2926 70.011L18.6302 73.851C18.4207 73.9874 18.2464 74.1713 18.1213 74.3877C17.9962 74.6041 17.9239 74.847 17.9102 75.0966Z" fill="#F5F5F5"/>
<path d="M54.9445 37.2053L48.2821 41.0453C48.0725 41.1815 47.8979 41.3654 47.7728 41.5818C47.6477 41.7983 47.5755 42.0413 47.5621 42.2909V43.7477C47.5621 44.2061 47.8837 44.3933 48.2821 44.1629L54.9445 40.3229C55.1542 40.1868 55.3287 40.0029 55.4539 39.7865C55.579 39.57 55.6512 39.327 55.6645 39.0773V37.6206C55.6645 37.1622 55.3501 36.9749 54.9445 37.2053Z" fill="#F5F5F5"/>
<path d="M33.9661 57.3628L27.3013 61.2028C27.0919 61.3392 26.9176 61.5231 26.7925 61.7395C26.6674 61.9559 26.595 62.1988 26.5813 62.4484V63.9052C26.5813 64.3636 26.9053 64.5508 27.3013 64.3204L33.9661 60.4804C34.1752 60.3436 34.3494 60.1596 34.4744 59.9433C34.5995 59.7269 34.672 59.4843 34.6861 59.2348V57.778C34.6861 57.3172 34.3621 57.1324 33.9661 57.3628Z" fill="#EBEBEB"/>
<path d="M50.3941 44.2731L43.7317 48.1131C43.5219 48.2497 43.3472 48.434 43.2221 48.6508C43.097 48.8677 43.0249 49.1111 43.0117 49.3611V50.8179C43.0117 51.2763 43.3333 51.4611 43.7317 51.2331L50.3941 47.3931C50.6036 47.2561 50.7779 47.0718 50.903 46.855C51.028 46.6382 51.1004 46.395 51.1141 46.1451V44.6883C51.1141 44.2299 50.7901 44.0451 50.3941 44.2731Z" fill="#EBEBEB"/>
<path d="M78.5966 55.3804V56.8372C78.5966 57.2956 78.9182 57.4828 79.3166 57.2524L85.979 53.4124C86.1888 53.2758 86.3634 53.0916 86.4886 52.8747C86.6137 52.6578 86.6858 52.4144 86.699 52.1644V50.71C86.699 50.2492 86.3774 50.0644 85.979 50.2924L79.3166 54.1324C79.1074 54.2696 78.9333 54.4541 78.8082 54.6708C78.6832 54.8875 78.6107 55.1306 78.5966 55.3804Z" fill="#EBEBEB"/>
<path d="M83.5262 63.2116L87.8222 60.73V63.85L83.5262 66.3316C83.1278 66.5596 82.8062 66.3748 82.8062 65.9164V64.462C82.8193 64.2116 82.8914 63.9679 83.0165 63.7506C83.1416 63.5334 83.3162 63.3487 83.5262 63.2116Z" fill="#F5F5F5"/>
<path d="M83.5262 44.5924L87.8222 42.1108V45.2308L83.5262 47.71C83.1278 47.95 82.8062 47.7532 82.8062 47.2948V45.838C82.8195 45.5884 82.8917 45.3454 83.0168 45.1289C83.142 44.9125 83.3165 44.7286 83.5262 44.5924Z" fill="#F5F5F5"/>
<path d="M83.5262 29.2731L87.8222 26.7939V29.9139L83.5262 32.3955C83.1278 32.6355 82.8062 32.4387 82.8062 31.9803V30.5235C82.8193 30.2732 82.8914 30.0295 83.0165 29.8122C83.1416 29.5949 83.3162 29.4102 83.5262 29.2731Z" fill="#F5F5F5"/>
<path d="M20.8357 61.042L17.4757 62.9812V66.1012L20.8357 64.162C21.0454 64.0258 21.2199 63.8419 21.345 63.6255C21.4702 63.409 21.5423 63.166 21.5557 62.9164V61.4596C21.5557 60.9988 21.2341 60.8116 20.8357 61.042Z" fill="#F5F5F5"/>
<path d="M64.1822 31.8724L57.5174 35.7124C57.3082 35.8492 57.1341 36.0331 57.009 36.2495C56.884 36.4658 56.8115 36.7085 56.7974 36.958V38.4148C56.7974 38.8756 57.1214 39.0604 57.5174 38.83L64.1822 34.99C64.3917 34.8537 64.5661 34.6698 64.6912 34.4534C64.8163 34.237 64.8886 33.994 64.9022 33.7444V32.2876C64.8998 31.822 64.5782 31.642 64.1822 31.8724Z" fill="#F5F5F5"/>
<path d="M54.9445 68.2036L48.2821 72.0436C48.0723 72.1801 47.8977 72.3644 47.7725 72.5813C47.6474 72.7981 47.5753 73.0415 47.5621 73.2916V74.746C47.5621 75.2068 47.8837 75.3916 48.2821 75.1636L54.9445 71.3236C55.1541 71.1867 55.3285 71.0024 55.4536 70.7856C55.5787 70.5688 55.651 70.3255 55.6645 70.0756V68.6188C55.6645 68.1604 55.3501 67.9756 54.9445 68.2036Z" fill="#F5F5F5"/>
<path d="M51.4405 74.7365L44.7757 78.5765C44.5662 78.7135 44.3919 78.8979 44.2668 79.1147C44.1417 79.3314 44.0694 79.5746 44.0557 79.8245V81.2789C44.0557 81.7397 44.3797 81.9245 44.7757 81.6965L51.4405 77.8565C51.6499 77.7195 51.8242 77.5352 51.9493 77.3184C52.0744 77.1016 52.1467 76.8584 52.1605 76.6085V75.1517C52.1605 74.6933 51.8365 74.5085 51.4405 74.7365Z" fill="#EBEBEB"/>
<path d="M64.1822 62.8708L57.5102 66.718C57.301 66.8553 57.1269 67.0397 57.0018 67.2564C56.8768 67.4732 56.8043 67.7162 56.7902 67.966V69.4228C56.7902 69.8812 57.1142 70.0684 57.5102 69.838L64.175 65.998C64.3842 65.8614 64.5585 65.6775 64.6835 65.4611C64.8086 65.2447 64.881 65.0019 64.895 64.7524V63.2956C64.8998 62.8276 64.5782 62.6428 64.1822 62.8708Z" fill="#F5F5F5"/>
<path d="M73.6741 73.2123V74.6691C73.6741 75.1275 73.9957 75.3147 74.3941 75.0843L81.0565 71.2443C81.2661 71.1081 81.4407 70.9243 81.5658 70.7078C81.6909 70.4914 81.7631 70.2484 81.7765 69.9987V68.5419C81.7765 68.0835 81.4549 67.8963 81.0565 68.1267L74.3941 71.9667C74.1844 72.1029 74.0099 72.2868 73.8847 72.5032C73.7596 72.7197 73.6874 72.9627 73.6741 73.2123Z" fill="#F5F5F5"/>
<path d="M42.2917 79.8004L35.6269 83.6404C35.4177 83.7776 35.2436 83.9621 35.1185 84.1788C34.9935 84.3955 34.921 84.6385 34.9069 84.8884V86.3452C34.9069 86.8036 35.2309 86.9908 35.6269 86.7604L42.2917 82.9204C42.5008 82.7836 42.6749 82.5996 42.8 82.3833C42.925 82.167 42.9975 81.9243 43.0117 81.6748V80.218C43.0117 79.7572 42.6877 79.582 42.2917 79.8004Z" fill="#F5F5F5"/>
<path d="M17.9102 94.6493V96.1061C17.9102 96.5669 18.2318 96.7517 18.6302 96.5213L25.2926 92.6813C25.5022 92.5452 25.6768 92.3613 25.8019 92.1449C25.927 91.9284 25.9992 91.6854 26.0126 91.4358V89.9789C26.0126 89.5205 25.691 89.3333 25.2926 89.5637L18.6302 93.4037C18.421 93.5405 18.2469 93.7245 18.1218 93.9408C17.9968 94.1572 17.9243 94.3999 17.9102 94.6493Z" fill="#F5F5F5"/>
<path d="M29.8669 77.3165V78.7733C29.8669 79.2317 30.1885 79.4165 30.5869 79.1885L37.2517 75.3485C37.4613 75.2116 37.6357 75.0273 37.7608 74.8105C37.8859 74.5937 37.9582 74.3504 37.9717 74.1005V72.6437C37.9717 72.1853 37.6501 72.0005 37.2517 72.2285L30.5869 76.0685C30.3775 76.2055 30.2032 76.3898 30.0781 76.6066C29.953 76.8234 29.8807 77.0666 29.8669 77.3165Z" fill="#F5F5F5"/>
<path d="M32.375 70.6683L25.7126 74.5083C25.503 74.6452 25.3286 74.8295 25.2035 75.0463C25.0784 75.2632 25.0061 75.5064 24.9926 75.7563V77.2132C24.9926 77.6716 25.3142 77.8587 25.7126 77.6283L32.375 73.7883C32.5848 73.6518 32.7594 73.4675 32.8846 73.2507C33.0097 73.0338 33.0818 72.7904 33.095 72.5404V71.086C33.095 70.6252 32.7734 70.4403 32.375 70.6683Z" fill="#EBEBEB"/>
<path d="M20.8357 80.5949L17.4757 82.5341V85.6541L20.8357 83.7149C21.0453 83.578 21.2197 83.3937 21.3448 83.1769C21.4699 82.9601 21.5421 82.7168 21.5557 82.4669V81.0221C21.5557 80.5421 21.2341 80.3669 20.8357 80.5949Z" fill="#F5F5F5"/>
<path d="M27.4646 98.667L20.8022 102.507C20.5925 102.643 20.418 102.827 20.2928 103.043C20.1677 103.26 20.0955 103.503 20.0822 103.753V105.209C20.0822 105.668 20.4038 105.855 20.8022 105.625L27.4646 101.785C27.6741 101.648 27.8485 101.464 27.9736 101.248C28.0987 101.031 28.171 100.789 28.1846 100.539V99.0822C28.1846 98.6214 27.863 98.4366 27.4646 98.667Z" fill="#EBEBEB"/>
<path d="M50.3941 85.9779L43.7317 89.8179C43.5221 89.9548 43.3477 90.1391 43.2226 90.3559C43.0975 90.5728 43.0253 90.816 43.0117 91.0659V92.5419C43.0117 93.0003 43.3333 93.1851 43.7317 92.9571L50.3941 89.1171C50.604 88.9806 50.7786 88.7963 50.9037 88.5795C51.0288 88.3626 51.1009 88.1192 51.1141 87.8691V86.4147C51.1141 85.9347 50.7901 85.7499 50.3941 85.9779Z" fill="#EBEBEB"/>
<path d="M64.1822 75.8452L57.5174 79.6852C57.308 79.8217 57.1336 80.0056 57.0085 80.222C56.8835 80.4384 56.8111 80.6813 56.7974 80.9308V82.3876C56.7974 82.846 57.1214 83.0332 57.5174 82.8028L64.1822 78.9628C64.3917 78.8265 64.5661 78.6426 64.6912 78.4262C64.8163 78.2098 64.8886 77.9669 64.9022 77.7172V76.2604C64.8998 75.802 64.5782 75.6148 64.1822 75.8452Z" fill="#F5F5F5"/>
<path d="M26.5813 54.723V56.1798C26.5813 56.6382 26.9053 56.823 27.3013 56.595L33.9661 52.755C34.1756 52.618 34.3499 52.4336 34.4749 52.2168C34.6 52 34.6723 51.7569 34.6861 51.507V50.0502C34.6861 49.5918 34.3621 49.407 33.9661 49.635L27.3013 53.475C27.0918 53.612 26.9175 53.7963 26.7925 54.0131C26.6674 54.2299 26.595 54.4731 26.5813 54.723Z" fill="#F5F5F5"/>
<path d="M17.9102 53.1821V54.6389C17.9102 55.0973 18.2318 55.2845 18.6302 55.0541L25.2926 51.2141C25.5022 51.0779 25.6768 50.894 25.8019 50.6776C25.927 50.4611 25.9992 50.2181 26.0126 49.9685V48.5117C26.0126 48.0533 25.691 47.8661 25.2926 48.0965L18.6302 51.9437C18.4214 52.0791 18.2475 52.2618 18.1224 52.477C17.9973 52.6921 17.9246 52.9336 17.9102 53.1821Z" fill="#F5F5F5"/>
<path d="M51.8053 33.3342V34.791C51.8053 35.2494 52.1269 35.4366 52.5253 35.2062L59.1877 31.3662C59.3972 31.2298 59.5717 31.046 59.6968 30.8295C59.8219 30.6131 59.8941 30.3702 59.9077 30.1206V28.6638C59.9077 28.2054 59.5861 28.0182 59.1877 28.2486L52.5253 32.0886C52.3156 32.2248 52.1411 32.4086 52.016 32.625C51.8909 32.8415 51.8187 33.0845 51.8053 33.3342Z" fill="#F5F5F5"/>
<path d="M19.1821 110.602L19.0765 110.42L89.1973 69.8405L89.1061 7.96368L17.4757 49.3181V49.0757L89.3173 7.59888V7.78128L89.4109 69.9605L89.3557 69.9917L19.1821 110.602Z" fill="#E0E0E0"/>
<path d="M52.6237 48.9866L52.4389 48.881L45.8029 52.721V39.4202L49.7029 37.169V30.929L49.5181 30.821L17.4757 49.1978V111.723L29.2357 104.943V86.1386L33.1357 83.8874V76.0058L39.9589 72.0674V64.1162L52.6285 56.801L52.6237 48.9866Z" fill="#FF6F00"/>
<path opacity="0.7" d="M17.4757 111.723L29.2309 104.943V86.1386L33.1309 83.8874V76.0058L39.9541 72.0674V64.1162L52.6237 56.7986V48.9866L45.8029 52.9298V39.4202L49.7029 37.169V30.929L17.4757 49.4042V111.723Z" fill="white"/>
<g opacity="0.2">
<path d="M51.7189 55.066L49.4269 56.4076L47.1493 57.7684L46.0093 58.462L45.4405 58.8028L45.1549 58.9732C45.0675 59.0237 44.9869 59.085 44.9149 59.1556C44.7644 59.2994 44.6454 59.4728 44.5652 59.6649C44.4851 59.8569 44.4456 60.0635 44.4493 60.2716V61.5988L44.2741 61.498C44.9461 61.0996 45.6277 60.7204 46.3045 60.334C46.9813 59.9476 47.6581 59.5612 48.3421 59.1844L50.3869 58.0468C51.0661 57.6676 51.7501 57.2932 52.4269 56.9068V56.9188V55.6708C52.4448 55.5692 52.4422 55.465 52.4191 55.3644C52.396 55.2638 52.353 55.1688 52.2925 55.0852C52.2554 55.0487 52.211 55.0206 52.1621 55.0028C52.1132 54.985 52.0611 54.9779 52.0093 54.982C51.9074 54.9876 51.808 55.0163 51.7189 55.066ZM51.7189 55.066C51.8069 55.0096 51.9075 54.9759 52.0117 54.9676C52.0641 54.9628 52.1169 54.9693 52.1666 54.9867C52.2163 55.0041 52.2617 55.0319 52.2997 55.0684C52.3624 55.152 52.4076 55.2473 52.4328 55.3488C52.4579 55.4502 52.4625 55.5556 52.4461 55.6588V56.9068C51.7717 57.298 51.1069 57.706 50.4349 58.1068L48.4285 59.3068C47.7613 59.71 47.0893 60.1036 46.4149 60.5068C45.7405 60.91 45.0733 61.3012 44.3941 61.6828L44.2189 61.7812V61.582V60.2548C44.2109 60.0183 44.2586 59.7832 44.3581 59.5684C44.4542 59.3538 44.5921 59.1604 44.7637 58.9996C44.8518 58.9207 44.9494 58.853 45.0541 58.798L45.3445 58.6348L45.9253 58.3132L47.0845 57.6676L49.4029 56.374L51.7189 55.066Z" fill="#FF6F00"/>
<path d="M34.6861 50.0428C34.6878 49.9203 34.6554 49.7998 34.5925 49.6948C34.5594 49.6441 34.5137 49.6028 34.4598 49.5751C34.406 49.5473 34.3459 49.534 34.2853 49.5364C34.164 49.5426 34.0465 49.5807 33.9445 49.6468L33.6277 49.834L32.3653 50.5732L29.8477 52.0732L27.3349 53.5756C27.148 53.7039 26.993 53.8734 26.8819 54.071C26.7708 54.2687 26.7065 54.4892 26.6941 54.7156V56.1796C26.6906 56.2786 26.7147 56.3767 26.7637 56.4628C26.786 56.4984 26.8172 56.5276 26.8543 56.5474C26.8913 56.5672 26.9329 56.5769 26.9749 56.5756C27.0774 56.5699 27.1767 56.5377 27.2629 56.482L27.5797 56.2996L28.8541 55.5796L31.4173 54.142L33.9757 52.702C34.1756 52.5679 34.3425 52.3902 34.4638 52.1824C34.5852 51.9746 34.6579 51.7419 34.6765 51.502L34.6861 50.0428ZM34.6861 50.0428V51.5092C34.6779 51.7562 34.6077 51.9971 34.4821 52.21C34.365 52.4277 34.196 52.6131 33.9901 52.75L31.4749 54.2524L28.9573 55.7548L27.6949 56.494L27.3781 56.6788C27.258 56.7559 27.1199 56.8006 26.9773 56.8084C26.8969 56.8098 26.8173 56.791 26.7461 56.7537C26.6748 56.7164 26.614 56.6617 26.5693 56.5948C26.4931 56.4699 26.4539 56.3259 26.4565 56.1796V54.7132C26.4731 54.4507 26.5501 54.1955 26.6817 53.9678C26.8133 53.74 26.9958 53.5458 27.2149 53.4004L29.7733 51.9604L32.3461 50.542L33.6205 49.822L33.9373 49.642C34.0414 49.5748 34.1616 49.5366 34.2853 49.5316C34.3472 49.5303 34.4083 49.5448 34.4629 49.5738C34.5175 49.6028 34.5638 49.6453 34.5973 49.6972C34.6577 49.8022 34.6883 49.9217 34.6861 50.0428Z" fill="#FF6F00"/>
<path d="M40.7437 40.2219C40.7457 40.0987 40.7133 39.9773 40.6501 39.8715C40.6168 39.8209 40.571 39.7798 40.5172 39.7521C40.4634 39.7244 40.4034 39.7109 40.3429 39.7131C40.2212 39.719 40.1033 39.758 40.0021 39.8259L39.6853 40.0107L38.4229 40.7499L35.9101 42.2403L33.3973 43.7403C33.2104 43.8686 33.0554 44.0381 32.9443 44.2357C32.8332 44.4334 32.7689 44.6539 32.7565 44.8803V46.3443C32.7529 46.4433 32.777 46.5414 32.8261 46.6275C32.8484 46.6631 32.8796 46.6923 32.9166 46.7121C32.9537 46.7319 32.9953 46.7416 33.0373 46.7403C33.14 46.7358 33.2396 46.7035 33.3253 46.6467L33.6421 46.4667L34.9165 45.7467L37.4725 44.3187L40.0309 42.8787C40.2308 42.7446 40.3976 42.5669 40.519 42.3591C40.6404 42.1513 40.7131 41.9186 40.7317 41.6787L40.7437 40.2219ZM40.7437 40.2219V41.6859C40.7355 41.9329 40.6653 42.1739 40.5397 42.3867C40.4219 42.6046 40.2521 42.7901 40.0453 42.9267L37.5301 44.4291L35.0125 45.9315L33.7501 46.6587L33.4333 46.8435C33.3132 46.9206 33.1751 46.9653 33.0325 46.9731C32.9521 46.9745 32.8725 46.9557 32.8012 46.9184C32.7299 46.8811 32.6692 46.8264 32.6245 46.7595C32.5483 46.6346 32.5091 46.4906 32.5117 46.3443V44.8779C32.5282 44.6154 32.6053 44.3603 32.7369 44.1325C32.8684 43.9047 33.051 43.7105 33.2701 43.5651L35.8285 42.1251L38.4037 40.7019L39.6781 39.9819L39.9949 39.8019C40.099 39.7347 40.2191 39.6965 40.3429 39.6915C40.4047 39.6902 40.4658 39.7047 40.5205 39.7337C40.5751 39.7627 40.6214 39.8052 40.6549 39.8571C40.7186 39.9678 40.7494 40.0943 40.7437 40.2219Z" fill="#FF6F00"/>
<path d="M33.9661 57.3626L31.4365 58.841L28.9213 60.3434L27.6637 61.1018L27.3493 61.289C27.2523 61.3482 27.1649 61.4219 27.0901 61.5074C26.9371 61.6795 26.8211 61.8813 26.7493 62.1002C26.7129 62.207 26.6927 62.3186 26.6893 62.4314V62.7818V63.5138V63.8786C26.6818 63.9817 26.7034 64.0848 26.7517 64.1762C26.7713 64.2131 26.8002 64.2443 26.8356 64.2666C26.8709 64.2889 26.9115 64.3016 26.9533 64.3034C27.0527 64.301 27.1497 64.272 27.2341 64.2194L29.7805 62.7794L32.3389 61.3394L33.6181 60.6194C33.8373 60.5182 34.0397 60.3838 34.2181 60.221C34.386 60.0467 34.5138 59.8378 34.5925 59.609C34.6586 59.3751 34.683 59.1314 34.6645 58.889V58.157V57.7898C34.6726 57.6684 34.6468 57.5471 34.5901 57.4394C34.5614 57.3857 34.5194 57.3403 34.4681 57.3075C34.4169 57.2748 34.358 57.2557 34.2973 57.2522C34.1788 57.2575 34.0641 57.2957 33.9661 57.3626ZM33.9661 57.3626C34.0698 57.2958 34.1908 57.2608 34.3141 57.2618C34.3759 57.2648 34.436 57.2836 34.4885 57.3163C34.541 57.3491 34.5842 57.3948 34.6141 57.449C34.6703 57.5587 34.6967 57.6811 34.6909 57.8042V58.1714V58.9034C34.7115 59.1453 34.6896 59.389 34.6261 59.6234C34.5484 59.8595 34.4226 60.0769 34.2565 60.2618C34.0801 60.4347 33.8776 60.5789 33.6565 60.689L32.3989 61.4402L29.8837 62.9426L27.3541 64.421C27.2296 64.498 27.0852 64.5364 26.9389 64.5314C26.8592 64.5269 26.782 64.5025 26.7141 64.4606C26.6462 64.4187 26.5898 64.3606 26.5501 64.2914C26.4837 64.1644 26.453 64.0217 26.4613 63.8786V63.5138V62.7818V62.4122C26.4697 62.2798 26.4955 62.1491 26.5381 62.0234C26.6215 61.7785 26.7574 61.5549 26.9365 61.3682C27.0273 61.2733 27.1316 61.1925 27.2461 61.1282L27.5653 60.9506L28.8445 60.2306L31.4029 58.8026L33.9661 57.3626Z" fill="#FF6F00"/>
<path d="M43.0118 49.3682C43.0118 49.7786 43.0118 50.1866 43.0118 50.597C42.984 50.7967 43.0228 51 43.1222 51.1754C43.1873 51.2458 43.2757 51.2902 43.371 51.3004C43.4664 51.3105 43.5621 51.2858 43.6406 51.2306L44.687 50.5874C45.035 50.3714 45.383 50.1554 45.7358 49.9466L45.6806 50.0426C45.6662 49.0034 45.6806 47.9642 45.7046 46.9226L45.8366 46.997L44.123 47.9186C43.979 47.9978 43.835 48.0698 43.6958 48.1586C43.5595 48.2442 43.4392 48.3531 43.3406 48.4802C43.1404 48.7343 43.0253 49.045 43.0118 49.3682ZM43.0118 49.3682C43.0254 49.0414 43.1403 48.7269 43.3406 48.4682C43.4351 48.3337 43.5539 48.2182 43.691 48.1274L44.1038 47.8706L45.7598 46.8482L45.887 46.769V46.925C45.9174 47.9634 45.9254 49.0034 45.911 50.045V50.1098L45.8558 50.141C45.499 50.341 45.139 50.537 44.7758 50.729L43.6886 51.3122C43.5896 51.3607 43.4793 51.3815 43.3694 51.3722C43.3137 51.3677 43.2598 51.3507 43.2116 51.3224C43.1634 51.2942 43.1222 51.2554 43.091 51.209C42.9962 51.0208 42.9635 50.8074 42.9974 50.5994C43.0094 50.1866 43.007 49.7786 43.0118 49.3682Z" fill="#FF6F00"/>
<path d="M33.1309 76.006L35.5117 74.566L37.9261 73.126L37.8829 73.2028V72.694C37.8919 72.6221 37.8863 72.5491 37.8666 72.4795C37.8468 72.4098 37.8132 72.3448 37.7677 72.2884C37.7172 72.247 37.6553 72.2219 37.5902 72.2163C37.5251 72.2107 37.4598 72.225 37.4029 72.2572C37.3299 72.2897 37.2594 72.3274 37.1917 72.37L36.9709 72.4996L35.2093 73.5244C34.0381 74.2108 32.8621 74.89 31.6813 75.562L30.7981 76.0684C30.647 76.1399 30.5091 76.2365 30.3901 76.354C30.2804 76.4686 30.1882 76.5988 30.1165 76.7404C30.0428 76.8807 29.9933 77.0324 29.9701 77.1892C29.9533 77.3356 29.9701 77.5204 29.9701 77.686V78.7036C29.9597 78.7769 29.9639 78.8515 29.9824 78.9232C30.001 78.9948 30.0335 79.0621 30.0781 79.1212C30.1301 79.1665 30.1946 79.1951 30.2631 79.2032C30.3316 79.2113 30.401 79.1986 30.4621 79.1668C30.7453 79.0252 31.0501 78.8404 31.3429 78.6868L33.1237 77.6956L33.1069 77.7268L33.1309 76.006ZM33.1309 76.006L33.1669 77.7196V77.7388L33.1477 77.7508L31.4005 78.7972C31.1005 78.97 30.8293 79.1476 30.5101 79.3132C30.4204 79.3529 30.3226 79.371 30.2245 79.366C30.1192 79.3587 30.0197 79.3145 29.9437 79.2412C29.819 79.0912 29.7586 78.8979 29.7757 78.7036V77.686C29.7663 77.5117 29.7663 77.3371 29.7757 77.1628C29.8008 76.9831 29.8551 76.8088 29.9365 76.6468C30.0165 76.4846 30.1209 76.3357 30.2461 76.2052C30.3736 76.0776 30.5201 75.9707 30.6805 75.8884L31.5613 75.3772C32.7325 74.6908 33.9093 74.0116 35.0917 73.3396L36.8581 72.3268L37.0789 72.202C37.1565 72.1551 37.2366 72.1126 37.3189 72.0748C37.412 72.0349 37.5131 72.0176 37.6141 72.0244C37.7236 72.0322 37.8267 72.079 37.9045 72.1564C37.9669 72.2321 38.0135 72.3195 38.0415 72.4135C38.0695 72.5074 38.0784 72.6061 38.0677 72.7036V73.2124V73.2652L38.0245 73.2892L35.5981 74.65L33.1309 76.006Z" fill="#FF6F00"/>
<path d="M39.7069 66.7874C39.7069 67.1258 39.7069 67.4642 39.7429 67.8026C39.7429 67.9682 39.7621 68.1434 39.7789 68.3042C39.781 68.3733 39.8024 68.4404 39.8405 68.4981C39.8787 68.5557 39.9321 68.6016 39.9949 68.6306L39.8533 68.7242C39.8293 68.273 39.8293 67.8242 39.8533 67.373C39.8533 67.1474 39.8797 66.9242 39.8917 66.6986L39.9349 66.0242L39.9781 66.0362C39.8151 66.2541 39.7207 66.5156 39.7069 66.7874ZM39.7069 66.7874C39.723 66.5126 39.8054 66.2458 39.9469 66.0098L39.9853 65.9402V66.0242L40.0285 66.6986C40.0405 66.9242 40.0621 67.1474 40.0693 67.373C40.0861 67.8242 40.0861 68.273 40.0693 68.7242V68.8826L39.9349 68.8154C39.8474 68.7654 39.7756 68.6919 39.7277 68.6033C39.6798 68.5147 39.6576 68.4144 39.6637 68.3138C39.6637 68.1338 39.6829 67.973 39.6925 67.8026C39.6973 67.4642 39.7045 67.1258 39.7069 66.7874Z" fill="#FF6F00"/>
<path d="M33.0949 72.5404V71.0764C33.0976 70.9557 33.0642 70.8371 32.9989 70.7356C32.9655 70.6867 32.9202 70.6472 32.8673 70.6208C32.8144 70.5943 32.7556 70.5818 32.6965 70.5844C32.5766 70.5941 32.4611 70.6337 32.3605 70.6996L32.0437 70.8844L29.5213 72.382L27.0061 73.8892L25.7437 74.6284C25.5584 74.7567 25.405 74.9257 25.2952 75.1225C25.1853 75.3192 25.122 75.5385 25.1101 75.7636V77.2276C25.1061 77.3277 25.1311 77.4269 25.1821 77.5132C25.2051 77.5503 25.2379 77.5804 25.2768 77.6003C25.3157 77.6202 25.3593 77.629 25.4029 77.626C25.5073 77.619 25.6082 77.5851 25.6957 77.5276L26.0149 77.3452L28.5733 75.9172L31.1317 74.4772L32.4037 73.7572C32.604 73.6215 32.7687 73.4396 32.8837 73.2268C33.0109 73.0195 33.0836 72.7833 33.0949 72.5404ZM33.0949 72.5404C33.0893 72.7864 33.0207 73.0268 32.8957 73.2388C32.7824 73.4554 32.6176 73.6409 32.4157 73.7788L31.1533 74.5204L28.6381 76.0228L26.1229 77.5228L25.8061 77.7076C25.6888 77.7854 25.553 77.8309 25.4125 77.8396C25.3335 77.8419 25.2552 77.8248 25.1844 77.7896C25.1137 77.7544 25.0527 77.7024 25.0069 77.638C24.9295 77.5161 24.8894 77.3743 24.8917 77.23V75.7636C24.9021 75.4977 24.9788 75.2386 25.1149 75.01C25.2431 74.7788 25.426 74.5827 25.6477 74.4388L26.9221 73.7188L29.4805 72.2788L32.0389 70.8508L32.3557 70.6684C32.4607 70.601 32.5815 70.5622 32.7061 70.5556C32.7696 70.5526 32.8327 70.5661 32.8895 70.5947C32.9462 70.6233 32.9947 70.666 33.0301 70.7188C33.0945 70.825 33.1269 70.9474 33.1237 71.0716L33.0949 72.5404Z" fill="#FF6F00"/>
<path d="M18.6301 96.5211L21.1597 95.0427L23.6701 93.5403L24.9349 92.7819L25.2493 92.5947C25.3463 92.5354 25.4337 92.4618 25.5085 92.3763C25.6615 92.2041 25.7775 92.0023 25.8493 91.7835C25.8857 91.6767 25.9059 91.565 25.9093 91.4523V91.1019V90.3699V90.0051C25.9155 89.9021 25.894 89.7993 25.8469 89.7075C25.8271 89.6702 25.7978 89.6388 25.762 89.6165C25.7262 89.5941 25.6851 89.5816 25.6429 89.5803C25.5397 89.5802 25.4384 89.6084 25.3501 89.6619L22.8061 91.1019L20.2477 92.5419L18.9685 93.2619C18.7489 93.3625 18.5465 93.497 18.3685 93.6603C18.2006 93.8345 18.0728 94.0434 17.9941 94.2723C17.928 94.5062 17.9036 94.7499 17.9221 94.9923V95.7123V96.0795C17.9144 96.2006 17.9392 96.3216 17.9941 96.4299C18.0233 96.4831 18.0654 96.5281 18.1166 96.5608C18.1678 96.5936 18.2263 96.6129 18.2869 96.6171C18.4081 96.6182 18.5271 96.5849 18.6301 96.5211ZM18.6301 96.5211C18.5261 96.5872 18.4053 96.6222 18.2821 96.6219C18.2203 96.6189 18.1602 96.6001 18.1077 96.5673C18.0552 96.5346 18.012 96.4889 17.9821 96.4347C17.9257 96.325 17.8984 96.2027 17.9029 96.0795V95.7123V94.9923C17.8823 94.7503 17.9042 94.5066 17.9677 94.2723C18.0455 94.0367 18.1704 93.8195 18.3349 93.6339C18.5122 93.4609 18.7154 93.3168 18.9373 93.2067L20.1949 92.4555L22.7101 90.9315L25.2397 89.4531C25.3634 89.3764 25.507 89.338 25.6525 89.3427C25.7321 89.3472 25.8094 89.3715 25.8773 89.4134C25.9452 89.4553 26.0015 89.5135 26.0413 89.5827C26.1073 89.7099 26.1388 89.8522 26.1325 89.9955V90.3603V91.0923V91.4619C26.1261 91.5943 26.101 91.7252 26.0581 91.8507C25.9738 92.0956 25.837 92.3193 25.6573 92.5059C25.5674 92.6006 25.4638 92.6815 25.3501 92.7459L25.0309 92.9235L23.7517 93.6435L21.1933 95.0835L18.6301 96.5211Z" fill="#FF6F00"/>
<path d="M18.6301 55.061L21.1597 53.5826L23.6701 52.0802L24.9277 51.329L25.2421 51.1418C25.3385 51.0818 25.4258 51.0083 25.5013 50.9234C25.6543 50.7513 25.7703 50.5495 25.8421 50.3306C25.8785 50.2238 25.8987 50.1122 25.9021 49.9994V49.637V48.917V48.5522C25.9083 48.4492 25.8868 48.3464 25.8397 48.2546C25.8199 48.2174 25.7906 48.186 25.7548 48.1636C25.719 48.1413 25.6779 48.1288 25.6357 48.1274C25.5363 48.1302 25.4395 48.1592 25.3549 48.2114L22.8109 49.6514L20.2525 51.0794L18.9733 51.7994C18.7533 51.9007 18.5502 52.035 18.3709 52.1978C18.2044 52.3727 18.0775 52.5815 17.9989 52.8098C17.9327 53.0437 17.9083 53.2875 17.9269 53.5298V54.2618V54.6218C17.9192 54.743 17.944 54.864 17.9989 54.9722C18.0281 55.0255 18.0702 55.0705 18.1214 55.1032C18.1726 55.1359 18.2311 55.1553 18.2917 55.1594C18.4113 55.1578 18.5283 55.1238 18.6301 55.061ZM18.6301 55.061C18.5261 55.1272 18.4053 55.1621 18.2821 55.1618C18.2205 55.1578 18.1609 55.1385 18.1086 55.1059C18.0563 55.0732 18.0128 55.0281 17.9821 54.9746C17.9286 54.865 17.9038 54.7436 17.9101 54.6218V54.2546V53.5226C17.8895 53.2807 17.9114 53.037 17.9749 52.8026C18.0527 52.5671 18.1776 52.3499 18.3421 52.1642C18.5194 51.9913 18.7226 51.8471 18.9445 51.737L20.2021 50.9858L22.7101 49.4714L25.2373 47.993C25.3623 47.917 25.5062 47.8779 25.6525 47.8802C25.7321 47.8848 25.8094 47.9091 25.8773 47.951C25.9452 47.9929 26.0015 48.0511 26.0413 48.1202C26.1073 48.2475 26.1388 48.3898 26.1325 48.533V48.8978V49.6178V49.9874C26.1261 50.1199 26.101 50.2508 26.0581 50.3762C25.9738 50.6212 25.837 50.8448 25.6573 51.0314C25.5674 51.1262 25.4638 51.2071 25.3501 51.2714L25.0309 51.449L23.7517 52.169L21.1933 53.597L18.6301 55.061Z" fill="#FF6F00"/>
<path d="M27.4646 98.6667L24.935 100.145L22.4198 101.648L21.1622 102.399L20.8478 102.586C20.7508 102.645 20.6634 102.719 20.5886 102.804C20.4355 102.976 20.3195 103.178 20.2478 103.397C20.2126 103.504 20.1924 103.616 20.1878 103.728V104.091V104.823V105.188C20.1815 105.291 20.2031 105.393 20.2502 105.485C20.27 105.522 20.2993 105.554 20.3351 105.576C20.3709 105.598 20.412 105.611 20.4542 105.612C20.5535 105.61 20.6504 105.581 20.735 105.528L23.279 104.088L25.8374 102.66L27.1166 101.94C27.3366 101.839 27.5397 101.705 27.719 101.542C27.8855 101.367 28.0124 101.158 28.091 100.93C28.1571 100.696 28.1815 100.452 28.163 100.21V99.4779V99.1107C28.1707 98.9896 28.1459 98.8686 28.091 98.7603C28.0621 98.7068 28.0201 98.6615 27.9688 98.6288C27.9176 98.596 27.8589 98.5769 27.7982 98.5731C27.6805 98.5731 27.5651 98.6055 27.4646 98.6667ZM27.4646 98.6667C27.5686 98.6006 27.6893 98.5656 27.8126 98.5659C27.8744 98.5689 27.9344 98.5877 27.987 98.6204C28.0395 98.6532 28.0827 98.6989 28.1126 98.7531C28.169 98.8628 28.1962 98.9851 28.1918 99.1083V99.4755V100.208C28.2124 100.449 28.1905 100.693 28.127 100.928C28.0492 101.163 27.9243 101.38 27.7598 101.566C27.5825 101.739 27.3792 101.883 27.1574 101.993L25.8998 102.744L23.3846 104.247L20.8622 105.742C20.7375 105.818 20.5932 105.857 20.447 105.852C20.3673 105.848 20.2901 105.823 20.2222 105.782C20.1543 105.74 20.0979 105.681 20.0582 105.612C19.9921 105.485 19.9607 105.343 19.967 105.2V104.835V104.103V103.733C19.9734 103.601 19.9985 103.47 20.0414 103.344C20.1257 103.099 20.2624 102.876 20.4422 102.689C20.5321 102.594 20.6356 102.513 20.7494 102.449L21.0686 102.272L22.3478 101.552L24.9062 100.124L27.4646 98.6667Z" fill="#FF6F00"/>
<path d="M20.8357 83.7148C21.1034 83.5403 21.3124 83.2895 21.4357 82.9948C21.4968 82.8474 21.5325 82.6908 21.5413 82.5316C21.5413 82.3732 21.5413 82.21 21.5413 82.0516L21.5173 81.0916C21.5313 80.9422 21.4903 80.7929 21.4021 80.6716C21.3545 80.6214 21.2923 80.5872 21.2244 80.5739C21.1565 80.5605 21.086 80.5687 21.0229 80.5972C20.8816 80.6618 20.746 80.7381 20.6173 80.8252L20.2093 81.0652L19.3861 81.562C18.8373 81.8916 18.2837 82.2116 17.7253 82.522L17.7853 82.4188C17.7853 83.4604 17.7541 84.4996 17.7277 85.5388L17.6365 85.486L19.2445 84.6076C19.7749 84.3196 20.3101 84.0172 20.8357 83.7148ZM20.8357 83.7148C20.3077 84.022 19.7797 84.3292 19.2565 84.646L17.6941 85.606L17.6029 85.6612V85.5532C17.5765 84.514 17.5477 83.4748 17.5477 82.4332V82.366L17.6053 82.3324C18.1597 82.0084 18.7141 81.6916 19.2853 81.3724L20.1253 80.9092L20.5477 80.6692C20.6888 80.5831 20.8374 80.51 20.9917 80.4508C21.0783 80.4195 21.1723 80.4151 21.2614 80.4382C21.3505 80.4613 21.4305 80.5109 21.4909 80.5804C21.5867 80.721 21.6285 80.8914 21.6085 81.0604L21.5845 82.0204C21.5845 82.1812 21.5845 82.3396 21.5845 82.5004C21.5708 82.6615 21.5294 82.819 21.4621 82.966C21.3385 83.276 21.119 83.5384 20.8357 83.7148Z" fill="#FF6F00"/>
<path d="M17.6702 65.993L20.1038 64.4978L20.699 64.1378C20.8935 64.0321 21.0585 63.8795 21.179 63.6938C21.3078 63.5134 21.3955 63.307 21.4358 63.089C21.4505 62.9776 21.4553 62.8652 21.4502 62.753V62.3978V61.6778C21.4502 61.5626 21.4502 61.4378 21.4502 61.3418C21.4427 61.2503 21.4017 61.1648 21.335 61.1018C21.3008 61.0771 21.2615 61.0602 21.2201 61.0523C21.1786 61.0444 21.1359 61.0457 21.095 61.0562C20.9923 61.0827 20.8949 61.1265 20.807 61.1858L20.1902 61.5362C19.3694 62.0042 18.5486 62.477 17.7182 62.9306L17.759 62.8586C17.759 63.3674 17.7398 63.8738 17.7206 64.3922L17.6702 65.993ZM17.6702 65.993L17.6174 64.4618C17.5982 63.941 17.5886 63.4058 17.579 62.8754V62.8298L17.6198 62.8034C18.4286 62.3114 19.247 61.8434 20.063 61.3634L20.675 61.0058C20.7836 60.9311 20.9035 60.8744 21.0302 60.8378C21.105 60.8195 21.1829 60.8184 21.2581 60.8347C21.3334 60.8509 21.404 60.8839 21.4646 60.9314C21.5752 61.0315 21.6445 61.1693 21.659 61.3178C21.6659 61.4409 21.6659 61.5643 21.659 61.6874V62.4074V62.7626C21.6621 62.887 21.6549 63.0114 21.6374 63.1346C21.5896 63.3824 21.488 63.6167 21.3398 63.821C21.193 64.0248 20.9985 64.1896 20.7734 64.301L20.1398 64.649L17.6702 65.993Z" fill="#FF6F00"/>
<path d="M25.2949 70.0036L22.7677 71.482L20.2525 72.9844L18.9949 73.7356L18.6805 73.9228C18.5835 73.982 18.4961 74.0557 18.4213 74.1412C18.2682 74.3133 18.1522 74.5151 18.0805 74.734C18.0445 74.841 18.0235 74.9524 18.0181 75.0652V76.5244C18.013 76.6273 18.0345 76.7298 18.0805 76.822C18.1003 76.8593 18.1296 76.8906 18.1654 76.913C18.2012 76.9353 18.2423 76.9478 18.2845 76.9492C18.3839 76.9468 18.4809 76.9178 18.5653 76.8652L21.1117 75.4252L23.6701 73.9876L24.9493 73.2676C25.1685 73.1663 25.3709 73.032 25.5493 72.8692C25.7164 72.6943 25.8441 72.4856 25.9237 72.2572C25.9899 72.0233 26.0143 71.7796 25.9957 71.5372V70.8052V70.438C26.0027 70.3166 25.977 70.1956 25.9213 70.0876C25.8926 70.0339 25.8506 69.9885 25.7993 69.9557C25.7481 69.923 25.6892 69.9039 25.6285 69.9004C25.51 69.9039 25.3946 69.9395 25.2949 70.0036ZM25.2949 70.0036C25.3989 69.9375 25.5196 69.9025 25.6429 69.9028C25.7048 69.9053 25.765 69.9239 25.8176 69.9567C25.8702 69.9895 25.9134 70.0355 25.9429 70.09C26.001 70.199 26.0284 70.3218 26.0221 70.4452V70.8124V71.5444C26.043 71.7865 26.0203 72.0304 25.9549 72.2644C25.881 72.504 25.7566 72.7249 25.5901 72.9124C25.4136 73.0853 25.2112 73.2294 24.9901 73.3396L23.7325 74.0908L21.2221 75.5932L18.6925 77.0716C18.5679 77.1483 18.4235 77.1867 18.2773 77.182C18.1976 77.1774 18.1204 77.1531 18.0525 77.1112C17.9846 77.0693 17.9282 77.0112 17.8885 76.942C17.8221 76.815 17.7914 76.6723 17.7997 76.5292V76.1644V75.4324V75.0628C17.8069 74.9302 17.8328 74.7993 17.8765 74.674C17.9598 74.4291 18.0958 74.2055 18.2749 74.0188C18.3653 73.9245 18.4687 73.8437 18.5821 73.7788L18.9037 73.6012L20.1829 72.8812L22.7413 71.4532L25.2949 70.0036Z" fill="#FF6F00"/>
</g>
<path d="M42.1022 100.342L34.343 100.236L34.2758 106.572C34.2758 107.146 34.6406 107.724 35.3942 108.168C36.899 109.061 39.3566 109.088 40.883 108.228C41.651 107.796 42.035 107.22 42.035 106.642L42.1022 100.342Z" fill="#37474F"/>
<path d="M35.4973 98.6644C33.9733 99.5236 33.9565 100.942 35.4637 101.832C36.9709 102.723 39.4261 102.752 40.9501 101.892C42.4741 101.033 42.4909 99.6148 40.9837 98.7244C39.4765 97.834 37.0213 97.8052 35.4973 98.6644Z" fill="#455A64"/>
<path d="M41.7686 100.316C41.7663 100.42 41.7477 100.522 41.7134 100.62C41.5361 101.051 41.205 101.4 40.7846 101.6C39.9813 101.993 39.0971 102.193 38.2028 102.183C37.3085 102.173 36.4289 101.955 35.6342 101.544C35.2252 101.338 34.9053 100.99 34.7342 100.565C34.697 100.46 34.6783 100.35 34.679 100.239C34.679 99.7588 35.0342 99.31 35.663 98.9596C36.4669 98.5685 37.3508 98.3699 38.2447 98.3795C39.1386 98.3891 40.018 98.6066 40.8134 99.0148C41.4302 99.382 41.7734 99.8428 41.7686 100.316Z" fill="#263238"/>
<path d="M41.7133 100.62C41.5361 101.051 41.205 101.4 40.7845 101.6C39.9812 101.993 39.0971 102.192 38.2028 102.183C37.3085 102.173 36.4288 101.955 35.6341 101.544C35.2252 101.338 34.9053 100.99 34.7341 100.565C34.9117 100.136 35.2428 99.7873 35.6629 99.5884C36.4658 99.1938 37.3501 98.9932 38.2447 99.0028C39.1393 99.0124 40.0191 99.2318 40.8133 99.6436C41.2214 99.8498 41.5411 100.197 41.7133 100.62Z" fill="#FF6F00"/>
<path opacity="0.6" d="M41.7133 100.62C41.5361 101.051 41.205 101.4 40.7845 101.6C39.9812 101.993 39.0971 102.192 38.2028 102.183C37.3085 102.173 36.4288 101.955 35.6341 101.544C35.2252 101.338 34.9053 100.99 34.7341 100.565C34.9117 100.136 35.2428 99.7873 35.6629 99.5884C36.4658 99.1938 37.3501 98.9932 38.2447 99.0028C39.1393 99.0124 40.0191 99.2318 40.8133 99.6436C41.2214 99.8498 41.5411 100.197 41.7133 100.62Z" fill="white"/>
<path opacity="0.35" d="M40.7845 101.599C40.9075 101.528 41.0254 101.447 41.1373 101.359C39.7213 102.118 37.2973 101.77 36.5245 101.201C35.5645 100.503 35.6653 99.5859 36.8989 99.1299C36.4667 99.2176 36.05 99.3697 35.6629 99.5811C35.2428 99.7801 34.9117 100.128 34.7341 100.558C34.9053 100.983 35.2252 101.331 35.6341 101.537C36.4288 101.947 37.3085 102.166 38.2028 102.176C39.0971 102.185 39.9812 101.985 40.7845 101.592V101.599Z" fill="#FF6F00"/>
<path d="M39.8773 102.716C40.0453 102.62 40.1821 102.699 40.1797 102.896C40.173 103.002 40.1412 103.104 40.087 103.196C40.0327 103.287 39.9576 103.364 39.8677 103.421C39.6973 103.517 39.5629 103.438 39.5653 103.244C39.5715 103.137 39.6031 103.034 39.6573 102.942C39.7116 102.85 39.787 102.772 39.8773 102.716Z" fill="#263238"/>
<path d="M34.3286 101.35C33.9038 102.19 33.0542 104.192 34.1558 105.005C34.2038 105.039 34.2446 105.07 34.2926 105.099V105.504C34.1822 105.437 34.0694 105.36 33.959 105.281C32.3126 104.06 34.1702 100.928 34.2494 100.798C34.2699 100.763 34.3035 100.737 34.343 100.726L34.3286 101.35Z" fill="#E0E0E0"/>
<path d="M40.0213 103.147C39.9733 103.246 38.7757 105.547 36.8029 105.999C36.5805 106.052 36.3525 106.079 36.1237 106.078C35.4693 106.065 34.8322 105.865 34.2877 105.502V105.096C35.1013 105.663 35.9197 105.857 36.7237 105.67C38.5429 105.245 39.7069 103.011 39.7165 102.989C39.7268 102.968 39.7414 102.949 39.7594 102.934C39.7773 102.919 39.7982 102.907 39.8207 102.9C39.8433 102.894 39.867 102.892 39.8904 102.895C39.9137 102.897 39.9363 102.905 39.9565 102.917C39.9763 102.928 39.9937 102.942 40.0077 102.959C40.0217 102.977 40.0321 102.997 40.0381 103.018C40.0442 103.04 40.0458 103.063 40.0429 103.085C40.04 103.107 40.0327 103.128 40.0213 103.147Z" fill="#E0E0E0"/>
<path d="M31.9189 105.149L24.1501 105.046L24.0829 111.382C24.0829 111.955 24.4501 112.534 25.2013 112.978C26.7085 113.871 29.1637 113.897 30.6901 113.038C31.4581 112.606 31.8421 112.03 31.8421 111.451L31.9189 105.149Z" fill="#37474F"/>
<path d="M25.3142 103.474C23.7902 104.333 23.7758 105.751 25.2806 106.642C26.7854 107.532 29.243 107.561 30.767 106.702C32.291 105.843 32.3078 104.424 30.803 103.534C29.2982 102.643 26.8382 102.622 25.3142 103.474Z" fill="#455A64"/>
<path d="M31.5901 105.125C31.5879 105.229 31.5693 105.332 31.5349 105.43C31.3577 105.86 31.0266 106.209 30.6061 106.409C29.8086 106.819 28.9199 107.019 28.0237 106.99C27.1276 106.999 26.2439 106.78 25.4557 106.354C25.0479 106.147 24.7289 105.799 24.5581 105.375C24.521 105.27 24.5023 105.159 24.5029 105.048C24.5029 104.568 24.8581 104.119 25.4869 103.769C26.2812 103.355 27.1695 103.155 28.0645 103.188C28.9599 103.176 29.8434 103.394 30.6301 103.822C31.2517 104.191 31.5901 104.652 31.5901 105.125Z" fill="#263238"/>
<path d="M31.5301 105.43C31.3529 105.86 31.0218 106.209 30.6013 106.409C29.8038 106.819 28.9151 107.019 28.0189 106.99C27.1228 106.999 26.2391 106.78 25.4509 106.354C25.0431 106.147 24.7241 105.799 24.5533 105.375C24.7295 104.944 25.061 104.595 25.4821 104.398C26.2781 103.989 27.1655 103.791 28.0597 103.822C28.9562 103.811 29.8408 104.028 30.6301 104.453C31.0386 104.659 31.3585 105.006 31.5301 105.43Z" fill="#FF6F00"/>
<path opacity="0.6" d="M31.5301 105.43C31.3529 105.86 31.0218 106.209 30.6013 106.409C29.8038 106.819 28.9151 107.019 28.0189 106.99C27.1228 106.999 26.2391 106.78 25.4509 106.354C25.0431 106.147 24.7241 105.799 24.5533 105.375C24.7295 104.944 25.061 104.595 25.4821 104.398C26.2781 103.989 27.1655 103.791 28.0597 103.822C28.9562 103.811 29.8408 104.028 30.6301 104.453C31.0386 104.659 31.3585 105.006 31.5301 105.43Z" fill="white"/>
<path opacity="0.35" d="M30.6013 106.409C30.725 106.338 30.843 106.258 30.9541 106.169C29.5381 106.927 27.1261 106.579 26.3437 106.011C25.3837 105.312 25.4821 104.395 26.7157 103.939C26.2841 104.027 25.8682 104.179 25.4821 104.391C25.061 104.588 24.7295 104.937 24.5533 105.367C24.7241 105.792 25.0431 106.14 25.4509 106.347C26.2391 106.773 27.1228 106.992 28.0189 106.983C28.9145 107.014 29.8032 106.816 30.6013 106.409Z" fill="#FF6F00"/>
<path d="M29.6941 107.525C29.8645 107.429 29.9989 107.508 29.9989 107.705C29.9914 107.811 29.9593 107.914 29.9051 108.005C29.851 108.096 29.7762 108.173 29.6869 108.231C29.5165 108.327 29.3797 108.248 29.3821 108.051C29.3892 107.945 29.4212 107.842 29.4754 107.751C29.5296 107.659 29.6045 107.582 29.6941 107.525Z" fill="#263238"/>
<path d="M24.1501 106.159C23.7229 106.999 22.8757 109.001 23.9773 109.815C24.0229 109.848 24.0661 109.879 24.1117 109.908V110.314C24.0013 110.247 23.8885 110.17 23.7781 110.091C22.1317 108.869 23.9893 105.737 24.0709 105.605C24.0808 105.588 24.0939 105.573 24.1095 105.561C24.1252 105.549 24.1431 105.54 24.1621 105.535L24.1501 106.159Z" fill="#E0E0E0"/>
<path d="M29.8381 107.957C29.7925 108.055 28.5925 110.357 26.6221 110.808C26.3989 110.862 26.17 110.888 25.9405 110.887C25.2863 110.875 24.6492 110.676 24.1045 110.314V109.908C24.9181 110.475 25.7389 110.669 26.5405 110.482C28.3597 110.057 29.5261 107.823 29.5333 107.801C29.5436 107.78 29.5582 107.761 29.5761 107.746C29.5941 107.731 29.615 107.719 29.6375 107.713C29.6601 107.706 29.6838 107.704 29.7071 107.707C29.7305 107.709 29.753 107.717 29.7733 107.729C29.7927 107.74 29.8098 107.754 29.8236 107.771C29.8375 107.788 29.8477 107.808 29.8537 107.829C29.8598 107.851 29.8615 107.873 29.8588 107.895C29.8561 107.917 29.8491 107.938 29.8381 107.957Z" fill="#E0E0E0"/>
<path d="M48.1932 109.913L51.7044 107.902C51.7427 107.876 51.7731 107.839 51.7925 107.797C51.8119 107.755 51.8197 107.708 51.8148 107.662C51.8079 107.531 51.7704 107.404 51.7053 107.291C51.6403 107.178 51.5496 107.081 51.4404 107.009C51.4025 106.981 51.3578 106.964 51.3109 106.959C51.264 106.955 51.2167 106.963 51.174 106.983L47.67 108.992L48.1932 109.913Z" fill="#455A64"/>
<path d="M48.5676 108.471L49.6308 109.088L48.1932 109.913L47.6628 108.992L48.5676 108.471Z" fill="#37474F"/>
<path d="M44.5789 110.148L45.2989 109.736L44.5789 109.323L46.0453 108.476C46.2935 108.349 46.5682 108.283 46.8469 108.283C47.1255 108.283 47.4002 108.349 47.6485 108.476L48.9013 109.196C48.9872 109.236 49.062 109.297 49.1193 109.372C49.1765 109.448 49.2146 109.536 49.2301 109.63C49.2301 109.647 49.2301 110.35 49.2301 110.511C49.2161 110.605 49.1788 110.695 49.1213 110.771C49.0639 110.847 48.9882 110.908 48.9013 110.948L47.4301 111.8L44.5789 110.148Z" fill="#37474F"/>
<path d="M48.9037 109.2L47.6509 108.48C47.4027 108.354 47.128 108.288 46.8493 108.288C46.5706 108.288 46.2959 108.354 46.0477 108.48L44.5813 109.327L47.4301 110.974L48.8965 110.127C49.3501 109.872 49.3501 109.457 48.9037 109.2Z" fill="#455A64"/>
<path d="M47.4349 110.974L44.5813 109.323L42.4381 110.556L45.2917 112.21L47.4349 110.974Z" fill="#F0F0F0"/>
<path d="M47.4349 110.974L45.2917 112.21L45.2893 113.033L47.4325 111.799L47.4349 110.974Z" fill="#EBEBEB"/>
<path d="M48.0709 110.607L45.2173 108.956L45.5101 108.788L48.3781 110.429L48.0709 110.607Z" fill="#FF6F00"/>
<path d="M48.0709 110.607V111.432L48.3757 111.255L48.3781 110.429L48.0709 110.607Z" fill="#FF6F00"/>
<path opacity="0.1" d="M48.0709 110.607V111.432L48.3757 111.255L48.3781 110.429L48.0709 110.607Z" fill="black"/>
<path d="M45.9444 112.656C45.9444 112.656 46.3356 112.155 46.1268 111.728L45.2916 112.208V113.031L45.9444 112.656Z" fill="#FF6F00"/>
<path opacity="0.1" d="M45.9444 112.656C45.9444 112.656 46.3356 112.155 46.1268 111.728L45.2916 112.208V113.031L45.9444 112.656Z" fill="black"/>
<path d="M46.1269 111.728C46.1023 111.558 46.0359 111.398 45.9336 111.261C45.8314 111.124 45.6965 111.015 45.5413 110.943C45.1525 110.775 44.3269 111.118 43.9837 110.559C43.7437 110.165 44.0077 109.654 44.0077 109.654L42.4381 110.556L45.2917 112.222L46.1269 111.728Z" fill="#FF6F00"/>
<path d="M42.4381 110.556L42.4357 111.382L45.2893 113.033L45.2917 112.21L42.4381 110.556Z" fill="#FF6F00"/>
<path opacity="0.15" d="M42.4381 110.556L42.4357 111.382L45.2893 113.033L45.2917 112.21L42.4381 110.556Z" fill="black"/>
<path d="M84.654 80.7411C84.6216 80.4523 84.5218 80.1752 84.3625 79.9321C84.2032 79.689 83.989 79.4869 83.7372 79.3419C83.6449 79.2847 83.5385 79.2544 83.43 79.2544C83.3214 79.2544 83.2151 79.2847 83.1228 79.3419L82.5348 79.6683L83.8476 81.6339L84.4284 81.2835C84.515 81.2251 84.5826 81.1426 84.6227 81.0462C84.6628 80.9497 84.6737 80.8436 84.654 80.7411Z" fill="#455A64"/>
<path d="M83.13 79.6851C83.3818 79.8301 83.596 80.0323 83.7553 80.2754C83.9146 80.5184 84.0144 80.7956 84.0468 81.0843C84.0756 81.6171 83.7156 81.8547 83.238 81.6147C82.9862 81.4697 82.772 81.2675 82.6127 81.0245C82.4534 80.7814 82.3536 80.5043 82.3212 80.2155C82.2924 79.6827 82.6524 79.4451 83.13 79.6851Z" fill="#37474F"/>
<path d="M82.8924 80.5036C82.8804 80.2948 83.0004 80.1916 83.1636 80.2636C83.2528 80.3205 83.3274 80.3974 83.3816 80.4882C83.4357 80.5791 83.4679 80.6813 83.4756 80.7868C83.4876 80.9956 83.3676 81.0988 83.2044 81.0268C83.1153 80.9699 83.0406 80.8929 82.9865 80.8021C82.9323 80.7113 82.9001 80.609 82.8924 80.5036Z" fill="#263238"/>
<path d="M83.19 80.5563C83.2142 80.5703 83.2348 80.5897 83.2503 80.613C83.2657 80.6363 83.2754 80.6629 83.2788 80.6907C83.2788 80.7435 83.2476 80.7651 83.202 80.7435C83.1778 80.7295 83.1571 80.7101 83.1417 80.6868C83.1263 80.6634 83.1165 80.6368 83.1132 80.6091C83.0988 80.5563 83.1324 80.5419 83.19 80.5563Z" fill="#263238"/>
<path d="M84.7692 80.7364C84.7367 80.4241 84.63 80.1242 84.458 79.8616C84.286 79.5989 84.0537 79.3813 83.7804 79.2268C83.654 79.159 83.5134 79.122 83.37 79.1188C83.2587 79.1164 83.1492 79.1473 83.0556 79.2076C83.0196 79.2292 82.5564 79.4908 82.4652 79.5484C82.4292 79.5714 82.3961 79.5989 82.3668 79.63C82.245 79.77 82.1807 79.9509 82.1868 80.1364L84.1716 81.2836L84.762 80.9428C84.7705 80.8743 84.7729 80.8053 84.7692 80.7364Z" fill="#E0E0E0"/>
<path d="M84.1716 81.2836L82.1869 80.1388C82.1803 79.9525 82.2447 79.7707 82.3669 79.63C82.4203 79.5747 82.4845 79.5311 82.5555 79.5018C82.6265 79.4725 82.7028 79.4581 82.7797 79.4596C82.923 79.4628 83.0636 79.4998 83.19 79.5676C83.4633 79.7221 83.6957 79.9397 83.8677 80.2024C84.0397 80.465 84.1464 80.7649 84.1788 81.0772C84.1826 81.1461 84.1802 81.2151 84.1716 81.2836Z" fill="#F5F5F5"/>
<path d="M83.8572 40.942C83.854 40.9061 83.8412 40.8718 83.82 40.8426C83.7989 40.8135 83.7703 40.7906 83.7372 40.7764C83.6486 40.7304 83.5502 40.7063 83.4504 40.7063C83.3505 40.7063 83.2522 40.7304 83.1636 40.7764C83.1308 40.791 83.1024 40.814 83.0813 40.8431C83.0603 40.8722 83.0472 40.9063 83.0436 40.942V79.342C83.0472 79.3777 83.0603 79.4119 83.0813 79.4409C83.1024 79.47 83.1308 79.493 83.1636 79.5076C83.2522 79.5537 83.3505 79.5777 83.4504 79.5777C83.5502 79.5777 83.6486 79.5537 83.7372 79.5076C83.7703 79.4934 83.7989 79.4706 83.82 79.4414C83.8412 79.4122 83.854 79.3779 83.8572 79.342V40.942Z" fill="#37474F"/>
<path d="M83.1637 40.774C83.1292 40.7859 83.0993 40.8082 83.0782 40.8379C83.057 40.8676 83.0457 40.9031 83.0457 40.9396C83.0457 40.976 83.057 41.0116 83.0782 41.0412C83.0993 41.0709 83.1292 41.0933 83.1637 41.1052C83.2526 41.1501 83.3508 41.1735 83.4505 41.1735C83.5501 41.1735 83.6483 41.1501 83.7373 41.1052C83.7717 41.0933 83.8016 41.0709 83.8227 41.0412C83.8439 41.0116 83.8553 40.976 83.8553 40.9396C83.8553 40.9031 83.8439 40.8676 83.8227 40.8379C83.8016 40.8082 83.7717 40.7859 83.7373 40.774C83.6487 40.7279 83.5503 40.7039 83.4505 40.7039C83.3506 40.7039 83.2522 40.7279 83.1637 40.774Z" fill="#455A64"/>
<path d="M83.646 74.8731C83.6134 74.8578 83.5772 74.8515 83.5414 74.8549C83.5055 74.8583 83.4712 74.8712 83.442 74.8923C83.3581 74.947 83.2882 75.0207 83.2382 75.1074C83.1881 75.1942 83.1593 75.2915 83.154 75.3915C83.1504 75.427 83.1563 75.4628 83.171 75.4953C83.1858 75.5277 83.2089 75.5557 83.238 75.5763L101.168 85.9275C101.201 85.9426 101.237 85.9485 101.272 85.9447C101.308 85.9409 101.342 85.9275 101.37 85.9059C101.454 85.8515 101.523 85.7782 101.573 85.6919C101.623 85.6056 101.652 85.5087 101.658 85.4091C101.662 85.3733 101.656 85.3371 101.641 85.3042C101.626 85.2713 101.603 85.2429 101.574 85.2219L83.646 74.8731Z" fill="#455A64"/>
<path d="M101.37 85.906C101.342 85.9275 101.308 85.9409 101.272 85.9447C101.237 85.9485 101.201 85.9426 101.168 85.9276C101.139 85.9067 101.115 85.8784 101.1 85.8455C101.085 85.8127 101.079 85.7764 101.082 85.7404C101.088 85.6408 101.117 85.5439 101.167 85.4576C101.217 85.3713 101.286 85.298 101.37 85.2436C101.399 85.2227 101.433 85.2098 101.469 85.206C101.505 85.2022 101.541 85.2077 101.574 85.222C101.603 85.243 101.627 85.2714 101.641 85.3042C101.656 85.3371 101.662 85.3733 101.658 85.4092C101.652 85.5088 101.623 85.6056 101.573 85.6919C101.523 85.7782 101.454 85.8516 101.37 85.906Z" fill="#455A64"/>
<path d="M83.646 60.8619C83.613 60.8476 83.5769 60.8421 83.5411 60.8459C83.5054 60.8497 83.4712 60.8626 83.442 60.8835C83.3584 60.9379 83.2887 61.0112 83.2387 61.0975C83.1887 61.1838 83.1596 61.2807 83.154 61.3803C83.1502 61.4161 83.156 61.4523 83.1707 61.4852C83.1855 61.5181 83.2087 61.5465 83.238 61.5675L91.9572 66.6075C91.9898 66.6228 92.0259 66.6291 92.0618 66.6257C92.0977 66.6223 92.132 66.6094 92.1612 66.5883C92.2451 66.5336 92.3149 66.4599 92.3649 66.3732C92.415 66.2864 92.4438 66.1891 92.4492 66.0891C92.4527 66.0536 92.4469 66.0178 92.4321 65.9853C92.4174 65.9529 92.3943 65.9249 92.3652 65.9043L83.646 60.8619Z" fill="#455A64"/>
<path d="M92.1613 66.5693C92.1321 66.5904 92.0978 66.6033 92.0619 66.6067C92.026 66.6101 91.9899 66.6038 91.9573 66.5885C91.9278 66.5682 91.9044 66.5403 91.8896 66.5077C91.8748 66.4752 91.8691 66.4392 91.8733 66.4037C91.8786 66.3037 91.9074 66.2063 91.9575 66.1196C92.0075 66.0328 92.0773 65.9591 92.1613 65.9045C92.1887 65.8801 92.2232 65.865 92.2597 65.8613C92.2962 65.8575 92.333 65.8654 92.3648 65.8837C92.3966 65.902 92.4219 65.9298 92.4371 65.9633C92.4522 65.9967 92.4565 66.0341 92.4493 66.0701C92.4439 66.1701 92.4151 66.2674 92.365 66.3542C92.315 66.4409 92.2452 66.5146 92.1613 66.5693Z" fill="#455A64"/>
<path d="M83.6461 67.8221C83.6131 67.8078 83.577 67.8023 83.5412 67.8061C83.5055 67.8099 83.4713 67.8228 83.4421 67.8437C83.3585 67.8981 83.2888 67.9714 83.2388 68.0577C83.1888 68.144 83.1598 68.2409 83.1541 68.3405C83.1505 68.3763 83.1564 68.4124 83.1712 68.4452C83.1859 68.4781 83.209 68.5065 83.2381 68.5277L91.9573 73.5677C91.9899 73.583 92.026 73.5893 92.0619 73.5859C92.0978 73.5825 92.1321 73.5696 92.1613 73.5485C92.2452 73.4938 92.315 73.4201 92.3651 73.3334C92.4151 73.2466 92.444 73.1493 92.4493 73.0493C92.4529 73.0138 92.447 72.978 92.4322 72.9455C92.4175 72.9131 92.3944 72.8851 92.3653 72.8645L83.6461 67.8221Z" fill="#455A64"/>
<path d="M92.1613 73.5268C92.1321 73.5479 92.0978 73.5608 92.0619 73.5642C92.026 73.5676 91.9899 73.5613 91.9573 73.546C91.9278 73.5257 91.9044 73.4978 91.8896 73.4652C91.8748 73.4327 91.8691 73.3967 91.8733 73.3612C91.8786 73.2612 91.9074 73.1638 91.9575 73.0771C92.0075 72.9903 92.0773 72.9166 92.1613 72.862C92.1887 72.8376 92.2232 72.8225 92.2597 72.8188C92.2962 72.815 92.333 72.8229 92.3648 72.8412C92.3966 72.8595 92.4219 72.8873 92.4371 72.9208C92.4522 72.9542 92.4565 72.9916 92.4493 73.0276C92.4439 73.1276 92.4151 73.2249 92.365 73.3117C92.315 73.3984 92.2452 73.4721 92.1613 73.5268Z" fill="#455A64"/>
<path d="M92.5068 59.278C92.5032 59.2422 92.4902 59.2081 92.4691 59.179C92.448 59.15 92.4196 59.127 92.3868 59.1124C92.2983 59.0663 92.1999 59.0422 92.1 59.0422C92.0002 59.0422 91.9018 59.0663 91.8132 59.1124C91.7804 59.127 91.7521 59.15 91.731 59.179C91.7099 59.2081 91.6969 59.2422 91.6932 59.278V80.062C91.6969 80.0977 91.7099 80.1318 91.731 80.1609C91.7521 80.19 91.7804 80.213 91.8132 80.2276C91.9022 80.2725 92.0004 80.2959 92.1 80.2959C92.1997 80.2959 92.2979 80.2725 92.3868 80.2276C92.4196 80.213 92.448 80.19 92.4691 80.1609C92.4902 80.1318 92.5032 80.0977 92.5068 80.062V59.278Z" fill="#37474F"/>
<path d="M91.8132 59.1124C91.7787 59.1243 91.7489 59.1466 91.7277 59.1763C91.7066 59.206 91.6952 59.2415 91.6952 59.278C91.6952 59.3144 91.7066 59.3499 91.7277 59.3796C91.7489 59.4093 91.7787 59.4317 91.8132 59.4436C91.9021 59.4885 92.0004 59.5119 92.1 59.5119C92.1996 59.5119 92.2979 59.4885 92.3868 59.4436C92.4212 59.4317 92.4511 59.4093 92.4723 59.3796C92.4934 59.3499 92.5048 59.3144 92.5048 59.278C92.5048 59.2415 92.4934 59.206 92.4723 59.1763C92.4511 59.1466 92.4212 59.1243 92.3868 59.1124C92.2982 59.0663 92.1998 59.0422 92.1 59.0422C92.0001 59.0422 91.9018 59.0663 91.8132 59.1124Z" fill="#455A64"/>
<path d="M83.646 53.9019C83.6134 53.8866 83.5772 53.8803 83.5414 53.8837C83.5055 53.8871 83.4712 53.9 83.442 53.9211C83.3581 53.9758 83.2882 54.0495 83.2382 54.1363C83.1881 54.223 83.1593 54.3203 83.154 54.4203C83.1504 54.4558 83.1563 54.4916 83.171 54.5241C83.1858 54.5566 83.2089 54.5845 83.238 54.6051L101.168 64.9563C101.201 64.9712 101.236 64.9773 101.272 64.9739C101.307 64.9705 101.341 64.9578 101.37 64.9372C101.454 64.8821 101.523 64.8083 101.573 64.7216C101.623 64.6349 101.652 64.5378 101.658 64.4379C101.662 64.4021 101.656 64.3659 101.641 64.333C101.626 64.3001 101.603 64.2717 101.574 64.2507L83.646 53.9019Z" fill="#455A64"/>
<path d="M101.37 64.9421C101.342 64.9652 101.307 64.9792 101.271 64.9822C101.235 64.9851 101.199 64.9769 101.167 64.9586C101.136 64.9403 101.111 64.9127 101.096 64.8797C101.08 64.8467 101.076 64.8099 101.082 64.7741C101.088 64.6745 101.117 64.5776 101.167 64.4913C101.217 64.405 101.286 64.3317 101.37 64.2773C101.399 64.2564 101.433 64.2435 101.469 64.2397C101.505 64.2359 101.541 64.2414 101.574 64.2557C101.603 64.2767 101.626 64.3051 101.641 64.3379C101.656 64.3708 101.662 64.407 101.658 64.4429C101.652 64.5427 101.623 64.6399 101.573 64.7265C101.523 64.8132 101.453 64.887 101.37 64.9421Z" fill="#455A64"/>
<path d="M83.646 44.7941C83.6131 44.7791 83.5769 44.7732 83.541 44.777C83.5051 44.7808 83.4709 44.7942 83.442 44.8157C83.3583 44.8701 83.2887 44.9434 83.2387 45.0297C83.1887 45.116 83.1596 45.2129 83.154 45.3125C83.1507 45.3483 83.1567 45.3843 83.1714 45.4171C83.1861 45.4499 83.209 45.4784 83.238 45.4997L101.168 55.8509C101.201 55.8652 101.237 55.8707 101.272 55.8669C101.307 55.8631 101.341 55.8501 101.37 55.8293C101.455 55.7772 101.526 55.7059 101.578 55.6213C101.63 55.5367 101.661 55.4411 101.67 55.3421C101.674 55.3062 101.669 55.2698 101.654 55.2368C101.639 55.2039 101.616 55.1755 101.586 55.1549L83.646 44.7941Z" fill="#455A64"/>
<path d="M101.37 55.822C101.343 55.8464 101.308 55.8615 101.272 55.8652C101.235 55.8689 101.198 55.8611 101.166 55.8428C101.135 55.8245 101.109 55.7967 101.094 55.7632C101.079 55.7298 101.075 55.6924 101.082 55.6564C101.088 55.5565 101.117 55.4593 101.167 55.3726C101.217 55.2859 101.286 55.2121 101.37 55.1572C101.398 55.1325 101.432 55.1172 101.469 55.1134C101.506 55.1097 101.543 55.1177 101.575 55.1364C101.607 55.1551 101.632 55.1834 101.647 55.2173C101.662 55.2513 101.666 55.289 101.658 55.3252C101.652 55.4248 101.623 55.5217 101.573 55.608C101.523 55.6943 101.454 55.7676 101.37 55.822Z" fill="#455A64"/>
<path d="M102.582 91.1019C102.55 90.8131 102.45 90.536 102.29 90.293C102.131 90.0499 101.917 89.8477 101.665 89.7027C101.573 89.6455 101.467 89.6152 101.358 89.6152C101.249 89.6152 101.143 89.6455 101.051 89.7027L100.47 90.0123L101.783 91.9779L102.361 91.6275C102.444 91.5694 102.508 91.4893 102.547 91.3964C102.586 91.3034 102.598 91.2014 102.582 91.1019Z" fill="#455A64"/>
<path d="M101.058 90.0364C101.311 90.1807 101.525 90.3827 101.685 90.6259C101.844 90.8691 101.943 91.1466 101.975 91.4357C102.006 91.9685 101.644 92.206 101.168 91.966C100.916 91.8218 100.701 91.6198 100.542 91.3766C100.383 91.1334 100.283 90.8559 100.252 90.5668C100.23 90.034 100.583 89.7964 101.058 90.0364Z" fill="#37474F"/>
<path d="M100.82 90.862C100.82 90.6532 100.931 90.55 101.092 90.622C101.181 90.6786 101.256 90.7554 101.31 90.8463C101.364 90.9372 101.396 91.0396 101.404 91.1452C101.416 91.354 101.296 91.4572 101.135 91.3852C101.045 91.3284 100.97 91.2515 100.916 91.1607C100.861 91.0699 100.829 90.9676 100.82 90.862Z" fill="#263238"/>
<path d="M101.108 90.9075C101.132 90.9216 101.153 90.9411 101.168 90.9644C101.183 90.9877 101.192 91.0143 101.195 91.0419C101.195 91.0947 101.164 91.1163 101.118 91.0923C101.094 91.0787 101.073 91.0597 101.058 91.0368C101.043 91.0139 101.033 90.9877 101.029 90.9603C101.027 90.9075 101.063 90.8859 101.108 90.9075Z" fill="#263238"/>
<path d="M102.697 91.0875C102.666 90.7749 102.559 90.4746 102.387 90.2118C102.215 89.9491 101.982 89.7316 101.708 89.5779C101.583 89.5101 101.443 89.4731 101.3 89.4699C101.189 89.4672 101.079 89.4982 100.986 89.5587C100.95 89.5803 100.484 89.8395 100.396 89.8995C100.359 89.9225 100.325 89.9499 100.295 89.9811C100.173 90.1211 100.109 90.302 100.115 90.4875L102.1 91.6347L102.69 91.2939C102.7 91.2255 102.702 91.1563 102.697 91.0875Z" fill="#E0E0E0"/>
<path d="M102.1 91.6347L100.115 90.4899C100.108 90.3036 100.173 90.1218 100.295 89.981C100.348 89.9258 100.412 89.8822 100.483 89.8529C100.555 89.8235 100.631 89.8092 100.708 89.8107C100.851 89.8136 100.992 89.8506 101.118 89.9187C101.392 90.0724 101.625 90.2898 101.797 90.5526C101.969 90.8154 102.075 91.1157 102.107 91.4282C102.112 91.4971 102.109 91.5663 102.1 91.6347Z" fill="#F5F5F5"/>
<path d="M101.785 51.2907C101.782 51.2551 101.77 51.2209 101.749 51.1918C101.728 51.1626 101.7 51.1396 101.668 51.1251C101.579 51.079 101.48 51.0549 101.38 51.0549C101.279 51.0549 101.181 51.079 101.092 51.1251C101.059 51.1397 101.03 51.1627 101.009 51.1917C100.988 51.2208 100.975 51.2549 100.972 51.2907V89.6907C100.975 89.7264 100.988 89.7605 101.009 89.7896C101.03 89.8187 101.059 89.8417 101.092 89.8563C101.181 89.9023 101.279 89.9264 101.38 89.9264C101.48 89.9264 101.579 89.9023 101.668 89.8563C101.7 89.8417 101.728 89.8187 101.749 89.7896C101.77 89.7604 101.782 89.7263 101.785 89.6907V51.2907Z" fill="#37474F"/>
<path d="M101.092 51.1251C101.057 51.137 101.027 51.1593 101.006 51.189C100.985 51.2187 100.974 51.2542 100.974 51.2907C100.974 51.3271 100.985 51.3627 101.006 51.3923C101.027 51.422 101.057 51.4444 101.092 51.4563C101.181 51.5012 101.28 51.5246 101.38 51.5246C101.48 51.5246 101.578 51.5012 101.668 51.4563C101.702 51.4444 101.732 51.422 101.753 51.3923C101.774 51.3627 101.786 51.3271 101.786 51.2907C101.786 51.2542 101.774 51.2187 101.753 51.189C101.732 51.1593 101.702 51.137 101.668 51.1251C101.579 51.079 101.48 51.0549 101.38 51.0549C101.279 51.0549 101.181 51.079 101.092 51.1251Z" fill="#455A64"/>
<path d="M49.614 94.2604C49.5938 94.2902 49.5819 94.3247 49.5794 94.3605C49.5768 94.3963 49.5838 94.4322 49.5996 94.4644C49.6389 94.5564 49.6994 94.6379 49.7761 94.7021C49.8529 94.7663 49.9437 94.8115 50.0412 94.834C50.0761 94.8437 50.1129 94.8439 50.1479 94.8346C50.1829 94.8254 50.2148 94.8069 50.2404 94.7812L83.67 54.622C83.6901 54.5923 83.7021 54.5578 83.7046 54.522C83.7071 54.4862 83.7001 54.4503 83.6844 54.418C83.6442 54.3268 83.5835 54.2461 83.5068 54.1824C83.4302 54.1187 83.3398 54.0736 83.2428 54.0508C83.208 54.0413 83.1714 54.041 83.1365 54.0498C83.1016 54.0587 83.0696 54.0764 83.0436 54.1012L49.614 94.2604Z" fill="#F0F0F0"/>
<path d="M83.0508 75.8932C83.0865 75.8918 83.1211 75.8808 83.1511 75.8614C83.1811 75.8419 83.2053 75.8148 83.2212 75.7828C83.2703 75.6956 83.2982 75.598 83.3028 75.498C83.3074 75.3979 83.2885 75.2982 83.2476 75.2068C83.234 75.1736 83.212 75.1444 83.1838 75.1221C83.1557 75.0999 83.1222 75.0852 83.0868 75.0796L49.7436 73.582C49.7079 73.5835 49.6732 73.5945 49.6432 73.6139C49.6133 73.6333 49.5891 73.6604 49.5732 73.6924C49.5241 73.7797 49.4961 73.8773 49.4915 73.9773C49.4869 74.0773 49.5059 74.177 49.5468 74.2684C49.5604 74.3017 49.5823 74.3308 49.6105 74.3531C49.6386 74.3754 49.6721 74.3901 49.7076 74.3956L83.0508 75.8932Z" fill="#F0F0F0"/>
<path d="M100.972 62.7603L83.8212 52.8579L50.2428 72.2979V73.4403L67.35 83.3091L100.964 63.9027L100.972 62.7603Z" fill="#FF6F00"/>
<path opacity="0.3" d="M50.2428 72.3076V73.4476L67.3572 83.3092V82.1692L50.2428 72.3076Z" fill="black"/>
<path opacity="0.3" d="M67.3572 82.1692L100.972 62.7604L83.8212 52.8604L50.2428 72.3076L67.3572 82.1692Z" fill="white"/>
<path d="M67.542 104.612C67.5218 104.641 67.5099 104.676 67.5073 104.712C67.5048 104.748 67.5118 104.783 67.5276 104.816C67.5672 104.907 67.6278 104.989 67.7045 105.053C67.7812 105.117 67.8718 105.162 67.9692 105.185C68.0041 105.195 68.0409 105.195 68.0759 105.186C68.1109 105.177 68.1428 105.158 68.1684 105.132L101.598 64.9757C101.618 64.946 101.63 64.9114 101.633 64.8756C101.635 64.8398 101.628 64.8039 101.612 64.7717C101.573 64.6802 101.512 64.5994 101.435 64.5356C101.358 64.4718 101.268 64.4269 101.171 64.4045C101.136 64.3943 101.099 64.3935 101.064 64.4024C101.029 64.4113 100.997 64.4294 100.972 64.4549L67.542 104.612Z" fill="#F0F0F0"/>
<path d="M100.979 86.2443C101.015 86.2426 101.05 86.2314 101.08 86.2121C101.11 86.1927 101.135 86.1658 101.152 86.1339C101.201 86.0466 101.229 85.9489 101.233 85.8488C101.237 85.7487 101.218 85.649 101.176 85.5579C101.162 85.5245 101.14 85.4952 101.112 85.4729C101.084 85.4506 101.05 85.4361 101.015 85.4307L67.6717 83.9331C67.636 83.9348 67.6015 83.9459 67.5716 83.9653C67.5416 83.9847 67.5174 84.0117 67.5013 84.0435C67.4522 84.1308 67.4242 84.2283 67.4196 84.3284C67.415 84.4284 67.434 84.5281 67.4749 84.6195C67.4885 84.6527 67.5104 84.6819 67.5386 84.7042C67.5667 84.7265 67.6002 84.7411 67.6357 84.7467L100.979 86.2443Z" fill="#F0F0F0"/>
<path d="M49.6236 64.2004C49.5943 64.2214 49.5711 64.2497 49.5563 64.2826C49.5416 64.3155 49.5358 64.3517 49.5396 64.3876C49.5455 64.4874 49.5745 64.5846 49.6245 64.6712C49.6745 64.7579 49.7441 64.8317 49.8276 64.8868C49.857 64.9074 49.8913 64.9201 49.927 64.9235C49.9628 64.9268 49.9988 64.9208 50.0316 64.906L83.4516 45.6196C83.4807 45.5989 83.5038 45.571 83.5185 45.5385C83.5333 45.506 83.5392 45.4702 83.5356 45.4348C83.5299 45.3348 83.5009 45.2376 83.4509 45.1509C83.4009 45.0643 83.3312 44.9905 83.2476 44.9356C83.2184 44.9144 83.1841 44.9015 83.1482 44.8981C83.1123 44.8947 83.0762 44.901 83.0436 44.9164L49.6236 64.2004Z" fill="#455A64"/>
<path d="M49.83 64.8869C49.8576 64.9116 49.8923 64.9269 49.9292 64.9307C49.9661 64.9344 50.0032 64.9263 50.0351 64.9077C50.0671 64.889 50.0924 64.8607 50.1073 64.8268C50.1222 64.7928 50.1259 64.7551 50.118 64.7189C50.1123 64.6193 50.0833 64.5224 50.0333 64.4361C49.9833 64.3498 49.9136 64.2765 49.83 64.2221C49.8008 64.2012 49.7666 64.1883 49.7309 64.1845C49.6951 64.1807 49.659 64.1862 49.626 64.2005C49.5967 64.2215 49.5735 64.2499 49.5588 64.2828C49.544 64.3156 49.5382 64.3518 49.542 64.3877C49.5479 64.4876 49.577 64.5847 49.627 64.6714C49.677 64.758 49.7465 64.8318 49.83 64.8869Z" fill="#455A64"/>
<path opacity="0.1" d="M83.7469 66.9724C86.3117 66.9724 88.3909 65.7722 88.3909 64.2916C88.3909 62.8111 86.3117 61.6108 83.7469 61.6108C81.1821 61.6108 79.1029 62.8111 79.1029 64.2916C79.1029 65.7722 81.1821 66.9724 83.7469 66.9724Z" fill="black"/>
<path d="M87.7117 57.6293L79.9525 57.5237L79.8853 63.8621C79.8853 64.4357 80.2525 65.0141 81.0037 65.4581C82.5109 66.3509 84.9661 66.3773 86.4925 65.5181C87.2605 65.0837 87.6445 64.5101 87.6445 63.9317L87.7117 57.6293Z" fill="#37474F"/>
<path d="M81.1069 55.9541C79.5829 56.8133 79.5685 58.2317 81.0733 59.1221C82.5781 60.0125 85.0357 60.0413 86.5597 59.1821C88.0837 58.3229 88.1005 56.9045 86.5933 56.0141C85.0861 55.1237 82.6309 55.1021 81.1069 55.9541Z" fill="#455A64"/>
<path d="M87.3781 57.6053C87.3759 57.7091 87.3572 57.812 87.3229 57.9101C87.1456 58.3405 86.8146 58.6895 86.3941 58.8893C85.5902 59.2804 84.7063 59.479 83.8124 59.4694C82.9185 59.4599 82.039 59.2423 81.2437 58.8341C80.8353 58.6278 80.5161 58.2797 80.3461 57.8549C80.3089 57.7501 80.2903 57.6397 80.2909 57.5285C80.2909 57.0485 80.6437 56.5997 81.2749 56.2493C82.0693 55.8354 82.9573 55.6344 83.8525 55.6661C84.7503 55.6549 85.6361 55.8739 86.4253 56.3021C87.0445 56.6717 87.3829 57.1325 87.3781 57.6053Z" fill="#263238"/>
<path d="M87.3229 57.91C87.1456 58.3404 86.8145 58.6895 86.3941 58.8892C85.5902 59.2803 84.7063 59.4789 83.8124 59.4694C82.9184 59.4598 82.039 59.2423 81.2437 58.834C80.8352 58.6278 80.5161 58.2796 80.3461 57.8548C80.5211 57.4251 80.8508 57.0766 81.2701 56.878C82.0669 56.4668 82.9564 56.2684 83.8525 56.302C84.7506 56.2933 85.6361 56.5138 86.4253 56.9428C86.8305 57.1475 87.1489 57.4906 87.3229 57.91Z" fill="#FF6F00"/>
<path opacity="0.6" d="M87.3229 57.91C87.1456 58.3404 86.8145 58.6895 86.3941 58.8892C85.5902 59.2803 84.7063 59.4789 83.8124 59.4694C82.9184 59.4598 82.039 59.2423 81.2437 58.834C80.8352 58.6278 80.5161 58.2796 80.3461 57.8548C80.5211 57.4251 80.8508 57.0766 81.2701 56.878C82.0669 56.4668 82.9564 56.2684 83.8525 56.302C84.7506 56.2933 85.6361 56.5138 86.4253 56.9428C86.8305 57.1475 87.1489 57.4906 87.3229 57.91Z" fill="white"/>
<path opacity="0.35" d="M86.3941 58.8893C86.5169 58.8172 86.6348 58.737 86.7469 58.6493C85.3309 59.4077 82.9069 59.0597 82.1365 58.4909C81.1765 57.7925 81.2749 56.8757 82.5085 56.4197C82.0748 56.5088 81.6573 56.6633 81.2701 56.8781C80.849 57.0757 80.5175 57.4243 80.3413 57.8549C80.5113 58.2797 80.8305 58.6278 81.2389 58.8341C82.0342 59.2423 82.9137 59.4599 83.8076 59.4694C84.7015 59.479 85.5854 59.2804 86.3893 58.8893H86.3941Z" fill="#FF6F00"/>
<path d="M85.4868 60.0053C85.6572 59.9093 85.7916 59.9885 85.7892 60.1853C85.7827 60.2914 85.751 60.3944 85.6967 60.4858C85.6425 60.5772 85.5672 60.6544 85.4772 60.7109C85.3092 60.8069 85.1724 60.7277 85.1748 60.5309C85.182 60.425 85.2139 60.3222 85.2681 60.2309C85.3223 60.1396 85.3973 60.0623 85.4868 60.0053Z" fill="#263238"/>
<path d="M79.9405 58.6396C79.5133 59.4796 78.6637 61.4812 79.7677 62.2948C79.8133 62.3284 79.8541 62.3596 79.9021 62.3884V62.794C79.7917 62.7268 79.6789 62.65 79.5685 62.5708C77.9221 61.3492 79.7797 58.2172 79.8589 58.0852C79.8803 58.0511 79.9137 58.0263 79.9525 58.0156L79.9405 58.6396Z" fill="#E0E0E0"/>
<path d="M85.6308 60.4373C85.5852 60.5357 84.3852 62.8373 82.4124 63.2885C82.1898 63.3408 81.9619 63.3674 81.7332 63.3677C81.079 63.3557 80.4419 63.1566 79.8972 62.7941V62.3885C80.7108 62.9549 81.5316 63.1493 82.3332 62.9621C84.1524 62.5349 85.3164 60.3029 85.326 60.2813C85.347 60.2418 85.3826 60.2121 85.4253 60.1986C85.4679 60.1851 85.5142 60.189 85.554 60.2093C85.5745 60.2187 85.5928 60.2322 85.6078 60.249C85.6228 60.2658 85.6343 60.2854 85.6415 60.3068C85.6487 60.3281 85.6514 60.3507 85.6496 60.3731C85.6478 60.3956 85.6414 60.4174 85.6308 60.4373Z" fill="#E0E0E0"/>
<path d="M51.03 100.15C50.9986 99.8609 50.8991 99.5834 50.7397 99.3402C50.5804 99.097 50.3657 98.895 50.1132 98.7508C50.0209 98.6936 49.9146 98.6633 49.806 98.6633C49.6975 98.6633 49.5911 98.6936 49.4988 98.7508L48.9132 99.0772L50.226 101.045L50.8068 100.695C50.8934 100.636 50.9608 100.553 51.0005 100.456C51.0402 100.359 51.0505 100.253 51.03 100.15Z" fill="#455A64"/>
<path d="M49.5156 99.094C49.7675 99.239 49.9817 99.4412 50.1409 99.6842C50.3002 99.9273 50.4 100.204 50.4324 100.493C50.4612 101.026 50.0988 101.261 49.6236 101.021C49.3712 100.877 49.1565 100.675 48.9971 100.432C48.8378 100.189 48.7383 99.9111 48.7068 99.622C48.6756 99.0892 49.038 98.854 49.5156 99.094Z" fill="#37474F"/>
<path d="M49.278 99.9101C49.278 99.7013 49.386 99.5981 49.5468 99.6701C49.6368 99.7268 49.7122 99.8039 49.7668 99.8953C49.8214 99.9866 49.8538 100.089 49.8612 100.196C49.8732 100.404 49.7508 100.505 49.59 100.436C49.5002 100.379 49.4252 100.302 49.371 100.21C49.3168 100.119 49.2849 100.016 49.278 99.9101Z" fill="#263238"/>
<path d="M49.5636 99.9652C49.5877 99.9793 49.6083 99.9987 49.6237 100.022C49.639 100.045 49.6489 100.072 49.6524 100.1C49.6524 100.15 49.6188 100.174 49.5732 100.15C49.5493 100.136 49.5291 100.116 49.514 100.093C49.499 100.07 49.4897 100.043 49.4868 100.016C49.4844 99.9652 49.518 99.9412 49.5636 99.9652Z" fill="#263238"/>
<path d="M51.1524 100.143C51.1205 99.8304 51.014 99.5302 50.842 99.2675C50.6699 99.0048 50.4372 98.7872 50.1636 98.6332C50.038 98.5654 49.8982 98.5284 49.7556 98.5252C49.6444 98.5241 49.5353 98.5549 49.4412 98.614C49.4052 98.638 48.942 98.8972 48.8508 98.9548C48.8143 98.9782 48.7812 99.0065 48.7524 99.0388C48.6293 99.178 48.5648 99.3595 48.5724 99.5452L50.55 100.702L51.1404 100.359C51.1511 100.287 51.1551 100.215 51.1524 100.143Z" fill="#E0E0E0"/>
<path d="M50.55 100.702L48.5652 99.5549C48.5602 99.3691 48.6253 99.1883 48.7476 99.0484C48.8004 98.9922 48.8644 98.9477 48.9355 98.9179C49.0067 98.8881 49.0833 98.8737 49.1604 98.8757C49.3034 98.8787 49.4434 98.9166 49.5684 98.9861C49.8423 99.1398 50.0752 99.3572 50.2473 99.62C50.4194 99.8828 50.5257 100.183 50.5572 100.496C50.5621 100.565 50.5597 100.634 50.55 100.702Z" fill="#F5F5F5"/>
<path d="M50.2428 60.3463C50.2391 60.3106 50.2261 60.2764 50.2051 60.2473C50.184 60.2183 50.1556 60.1953 50.1228 60.1807C50.0335 60.1357 49.9348 60.1123 49.8348 60.1123C49.7348 60.1123 49.6361 60.1357 49.5468 60.1807C49.5141 60.1952 49.486 60.2182 49.4653 60.2474C49.4446 60.2765 49.4321 60.3107 49.4292 60.3463V98.7463C49.4321 98.7819 49.4446 98.8161 49.4653 98.8452C49.486 98.8743 49.5141 98.8974 49.5468 98.9119C49.6361 98.9568 49.7348 98.9802 49.8348 98.9802C49.9348 98.9802 50.0335 98.9568 50.1228 98.9119C50.1556 98.8973 50.184 98.8743 50.2051 98.8452C50.2261 98.8161 50.2391 98.782 50.2428 98.7463V60.3463Z" fill="#37474F"/>
<path d="M49.5468 60.1807C49.5124 60.1926 49.4825 60.2149 49.4614 60.2446C49.4402 60.2743 49.4288 60.3098 49.4288 60.3463C49.4288 60.3827 49.4402 60.4183 49.4614 60.4479C49.4825 60.4776 49.5124 60.5 49.5468 60.5119C49.6358 60.558 49.7346 60.582 49.8348 60.582C49.9351 60.582 50.0338 60.558 50.1228 60.5119C50.1573 60.5 50.1872 60.4776 50.2083 60.4479C50.2295 60.4183 50.2408 60.3827 50.2408 60.3463C50.2408 60.3098 50.2295 60.2743 50.2083 60.2446C50.1872 60.2149 50.1573 60.1926 50.1228 60.1807C50.0335 60.1357 49.9349 60.1123 49.8348 60.1123C49.7348 60.1123 49.6362 60.1357 49.5468 60.1807Z" fill="#455A64"/>
<path d="M50.0316 94.2796C49.9988 94.2648 49.9628 94.2588 49.927 94.2621C49.8913 94.2655 49.857 94.2782 49.8276 94.2988C49.7441 94.3539 49.6745 94.4277 49.6245 94.5144C49.5745 94.601 49.5455 94.6982 49.5396 94.798C49.5358 94.8339 49.5416 94.8701 49.5563 94.903C49.5711 94.9359 49.5943 94.9642 49.6236 94.9852L67.5516 105.334C67.5842 105.349 67.6203 105.356 67.6562 105.352C67.6921 105.349 67.7264 105.336 67.7556 105.315C67.8395 105.26 67.9093 105.186 67.9594 105.1C68.0094 105.013 68.0383 104.916 68.0436 104.816C68.0472 104.78 68.0413 104.744 68.0265 104.712C68.0118 104.679 67.9887 104.651 67.9596 104.631L50.0316 94.2796Z" fill="#455A64"/>
<path d="M67.7557 105.315C67.7282 105.339 67.6938 105.354 67.6572 105.358C67.6207 105.362 67.5839 105.354 67.5521 105.336C67.5203 105.317 67.495 105.29 67.4798 105.256C67.4647 105.223 67.4604 105.185 67.4677 105.149C67.473 105.049 67.5018 104.952 67.5519 104.865C67.6019 104.778 67.6717 104.705 67.7557 104.65C67.7831 104.626 67.8176 104.611 67.8541 104.607C67.8906 104.603 67.9274 104.611 67.9592 104.629C67.9911 104.648 68.0163 104.675 68.0315 104.709C68.0466 104.742 68.0509 104.78 68.0437 104.816C68.0384 104.916 68.0095 105.013 67.9595 105.1C67.9094 105.187 67.8396 105.26 67.7557 105.315Z" fill="#455A64"/>
<path d="M50.0316 80.2635C49.999 80.2482 49.9628 80.2419 49.927 80.2453C49.8911 80.2486 49.8568 80.2616 49.8276 80.2827C49.7441 80.3378 49.6745 80.4116 49.6245 80.4983C49.5745 80.5849 49.5455 80.682 49.5396 80.7819C49.5358 80.8178 49.5416 80.854 49.5563 80.8869C49.5711 80.9197 49.5943 80.9481 49.6236 80.9691L58.3428 86.0091C58.3755 86.024 58.4116 86.03 58.4473 86.0266C58.4831 86.0233 58.5174 86.0106 58.5468 85.9899C58.63 85.9347 58.6991 85.8608 58.7487 85.7742C58.7983 85.6875 58.827 85.5904 58.8324 85.4907C58.8362 85.4549 58.8304 85.4187 58.8156 85.3858C58.8009 85.3529 58.7777 85.3245 58.7484 85.3035L50.0316 80.2635Z" fill="#455A64"/>
<path d="M58.5468 85.9779C58.5174 85.9986 58.4832 86.0113 58.4474 86.0146C58.4116 86.018 58.3756 86.012 58.3428 85.9971C58.3134 85.9763 58.29 85.9479 58.2752 85.915C58.2605 85.8821 58.2548 85.8458 58.2588 85.8099C58.2639 85.7102 58.2927 85.6131 58.3428 85.5267C58.3929 85.4403 58.4628 85.3671 58.5468 85.3131C58.574 85.2881 58.6084 85.2724 58.6451 85.2684C58.6817 85.2643 58.7188 85.2721 58.7507 85.2906C58.7826 85.3092 58.8078 85.3374 58.8225 85.3712C58.8372 85.4051 58.8407 85.4427 58.8324 85.4787C58.827 85.5784 58.7984 85.6755 58.7488 85.7622C58.6992 85.8488 58.63 85.9227 58.5468 85.9779Z" fill="#455A64"/>
<path d="M50.0316 87.2213C49.999 87.206 49.9629 87.1997 49.927 87.203C49.8911 87.2064 49.8568 87.2193 49.8276 87.2405C49.7437 87.2951 49.6739 87.3688 49.6238 87.4556C49.5738 87.5423 49.5449 87.6397 49.5396 87.7397C49.5355 87.7752 49.5412 87.8112 49.556 87.8438C49.5708 87.8763 49.5942 87.9042 49.6236 87.9245L58.3428 92.9645C58.3758 92.9787 58.4119 92.9842 58.4477 92.9805C58.4834 92.9767 58.5176 92.9637 58.5468 92.9429C58.6301 92.8883 58.6994 92.8149 58.749 92.7286C58.7986 92.6423 58.8272 92.5455 58.8324 92.4461C58.8362 92.4102 58.8304 92.374 58.8157 92.3412C58.8009 92.3083 58.7777 92.2799 58.7484 92.2589L50.0316 87.2213Z" fill="#455A64"/>
<path d="M58.5468 92.9332C58.5176 92.9541 58.4834 92.967 58.4477 92.9708C58.4119 92.9746 58.3758 92.9691 58.3428 92.9548C58.3135 92.9338 58.2903 92.9054 58.2756 92.8726C58.2608 92.8397 58.255 92.8035 58.2588 92.7676C58.2639 92.6679 58.2927 92.5708 58.3428 92.4844C58.3929 92.398 58.4628 92.3248 58.5468 92.2708C58.5753 92.2493 58.6091 92.2359 58.6446 92.2321C58.6801 92.2283 58.716 92.2342 58.7484 92.2492C58.7777 92.2702 58.8009 92.2986 58.8157 92.3315C58.8304 92.3644 58.8362 92.4006 58.8324 92.4364C58.8272 92.5359 58.7986 92.6327 58.749 92.719C58.6994 92.8053 58.6301 92.8787 58.5468 92.9332Z" fill="#455A64"/>
<path d="M58.8925 78.6844C58.8888 78.6487 58.8758 78.6146 58.8547 78.5855C58.8336 78.5564 58.8053 78.5334 58.7725 78.5188C58.6831 78.4739 58.5845 78.4504 58.4845 78.4504C58.3844 78.4504 58.2858 78.4739 58.1965 78.5188C58.1638 78.5333 58.1357 78.5564 58.115 78.5855C58.0943 78.6146 58.0818 78.6488 58.0789 78.6844V99.4756C58.0818 99.5112 58.0943 99.5454 58.115 99.5745C58.1357 99.6037 58.1638 99.6267 58.1965 99.6412C58.2858 99.6862 58.3844 99.7096 58.4845 99.7096C58.5845 99.7096 58.6831 99.6862 58.7725 99.6412C58.8053 99.6266 58.8336 99.6036 58.8547 99.5745C58.8758 99.5455 58.8888 99.5113 58.8925 99.4756V78.6844Z" fill="#37474F"/>
<path d="M58.1965 78.5188C58.1638 78.5333 58.1357 78.5564 58.115 78.5855C58.0943 78.6146 58.0818 78.6488 58.0789 78.6844C58.0821 78.7202 58.0947 78.7546 58.1153 78.784C58.1359 78.8135 58.1639 78.8371 58.1965 78.8524C58.2858 78.8974 58.3844 78.9208 58.4845 78.9208C58.5845 78.9208 58.6831 78.8974 58.7725 78.8524C58.8053 78.8372 58.8336 78.8137 58.8547 78.7843C58.8757 78.7548 58.8887 78.7204 58.8925 78.6844C58.8888 78.6487 58.8758 78.6146 58.8547 78.5855C58.8336 78.5564 58.8053 78.5334 58.7725 78.5188C58.6831 78.4739 58.5845 78.4504 58.4845 78.4504C58.3844 78.4504 58.2858 78.4739 58.1965 78.5188Z" fill="#455A64"/>
<path d="M50.0316 73.306C49.9988 73.2911 49.9625 73.2852 49.9266 73.289C49.8907 73.2928 49.8565 73.3061 49.8276 73.3276C49.744 73.3821 49.6744 73.4554 49.6243 73.5417C49.5743 73.628 49.5453 73.7249 49.5396 73.8245C49.5358 73.8603 49.5416 73.8965 49.5563 73.9294C49.5711 73.9623 49.5943 73.9906 49.6236 74.0117L67.5516 84.3604C67.5842 84.3758 67.6203 84.3821 67.6562 84.3787C67.6921 84.3753 67.7264 84.3624 67.7556 84.3412C67.8392 84.2868 67.9088 84.2135 67.9588 84.1272C68.0089 84.0409 68.0379 83.944 68.0436 83.8444C68.0474 83.8086 68.0416 83.7724 68.0268 83.7395C68.0121 83.7066 67.9889 83.6783 67.9596 83.6573L50.0316 73.306Z" fill="#455A64"/>
<path d="M67.7557 84.3411C67.7282 84.3654 67.6938 84.3805 67.6572 84.3843C67.6207 84.388 67.5839 84.3802 67.5521 84.3619C67.5203 84.3436 67.495 84.3157 67.4798 84.2823C67.4647 84.2488 67.4604 84.2115 67.4677 84.1755C67.4734 84.0756 67.5024 83.9784 67.5524 83.8917C67.6024 83.805 67.672 83.7312 67.7557 83.6763C67.7848 83.6551 67.8192 83.6422 67.855 83.6388C67.8909 83.6354 67.927 83.6418 67.9597 83.6571C67.989 83.6781 68.0122 83.7065 68.0269 83.7393C68.0417 83.7722 68.0474 83.8084 68.0437 83.8443C68.038 83.9439 68.009 84.0407 67.9589 84.127C67.9089 84.2133 67.8393 84.2867 67.7557 84.3411Z" fill="#455A64"/>
<path d="M50.0316 64.2027C49.999 64.1874 49.9629 64.1811 49.927 64.1845C49.8911 64.1879 49.8568 64.2008 49.8276 64.2219C49.7437 64.2766 49.6739 64.3503 49.6238 64.437C49.5738 64.5238 49.5449 64.6211 49.5396 64.7211C49.5355 64.7567 49.5412 64.7926 49.556 64.8252C49.5708 64.8578 49.5942 64.8857 49.6236 64.9059L67.5516 75.2619C67.5843 75.2773 67.6204 75.2836 67.6563 75.2802C67.6921 75.2768 67.7265 75.2639 67.7556 75.2427C67.8392 75.1877 67.9087 75.1138 67.9587 75.0272C68.0087 74.9405 68.0378 74.8434 68.0436 74.7435C68.0469 74.7077 68.0409 74.6717 68.0262 74.6389C68.0115 74.6061 67.9886 74.5777 67.9596 74.5563L50.0316 64.2027Z" fill="#455A64"/>
<path d="M67.7556 75.238C67.7264 75.2591 67.6921 75.272 67.6562 75.2754C67.6203 75.2788 67.5842 75.2725 67.5516 75.2572C67.5223 75.2362 67.4991 75.2078 67.4843 75.1749C67.4696 75.142 67.4638 75.1058 67.4676 75.07C67.4732 74.9704 67.5023 74.8735 67.5523 74.7872C67.6023 74.7009 67.672 74.6276 67.7556 74.5732C67.783 74.5488 67.8175 74.5337 67.854 74.53C67.8905 74.5262 67.9273 74.5341 67.9591 74.5524C67.9909 74.5707 68.0162 74.5985 68.0314 74.632C68.0465 74.6654 68.0508 74.7028 68.0436 74.7388C68.0377 74.8386 68.0086 74.9358 67.9586 75.0224C67.9086 75.1091 67.8391 75.1829 67.7556 75.238Z" fill="#455A64"/>
<path d="M67.5516 74.5419C67.5226 74.5632 67.4997 74.5917 67.485 74.6245C67.4703 74.6573 67.4643 74.6933 67.4676 74.7291C67.4734 74.829 67.5025 74.9261 67.5525 75.0128C67.6025 75.0994 67.672 75.1732 67.7556 75.2283C67.7847 75.2494 67.8191 75.2624 67.8549 75.2658C67.8908 75.2691 67.9269 75.2628 67.9596 75.2475L101.38 55.9635C101.409 55.9425 101.432 55.9141 101.447 55.8812C101.462 55.8484 101.467 55.8121 101.464 55.7763C101.458 55.6764 101.429 55.5793 101.379 55.4926C101.329 55.406 101.259 55.3322 101.176 55.2771C101.146 55.256 101.112 55.243 101.076 55.2397C101.04 55.2363 101.004 55.2426 100.972 55.2579L67.5516 74.5419Z" fill="#455A64"/>
<path d="M67.7557 75.238C67.7848 75.2591 67.8192 75.272 67.855 75.2754C67.8909 75.2788 67.927 75.2725 67.9597 75.2572C67.989 75.2362 68.0122 75.2078 68.0269 75.1749C68.0417 75.142 68.0474 75.1058 68.0437 75.07C68.038 74.9704 68.009 74.8735 67.9589 74.7872C67.9089 74.7009 67.8393 74.6276 67.7557 74.5732C67.7282 74.5488 67.6938 74.5337 67.6572 74.53C67.6207 74.5262 67.5839 74.5341 67.5521 74.5524C67.5203 74.5707 67.495 74.5985 67.4798 74.632C67.4647 74.6654 67.4604 74.7028 67.4677 74.7388C67.4735 74.8386 67.5026 74.9358 67.5526 75.0224C67.6026 75.1091 67.6721 75.1829 67.7557 75.238Z" fill="#455A64"/>
<path d="M68.9676 110.501C68.9352 110.212 68.8354 109.935 68.6761 109.692C68.5169 109.449 68.3027 109.247 68.0508 109.102C67.9586 109.045 67.8522 109.014 67.7436 109.014C67.6351 109.014 67.5287 109.045 67.4364 109.102L66.8508 109.428L68.1636 111.396L68.742 111.043C68.8282 110.985 68.8954 110.902 68.9355 110.806C68.9755 110.709 68.9867 110.604 68.9676 110.501Z" fill="#455A64"/>
<path d="M67.4436 109.445C67.6954 109.59 67.9096 109.792 68.0689 110.035C68.2281 110.278 68.328 110.556 68.3604 110.844C68.3892 111.377 68.0292 111.612 67.5516 111.372C67.2998 111.227 67.0856 111.025 66.9263 110.782C66.767 110.539 66.6672 110.262 66.6348 109.973C66.606 109.44 66.966 109.203 67.4436 109.445Z" fill="#37474F"/>
<path d="M67.206 110.261C67.194 110.052 67.3164 109.949 67.4772 110.021C67.5665 110.078 67.6413 110.156 67.6954 110.247C67.7496 110.338 67.7817 110.441 67.7892 110.547C67.7892 110.756 67.6812 110.856 67.518 110.775C67.4297 110.719 67.3556 110.644 67.3014 110.555C67.2473 110.466 67.2146 110.365 67.206 110.261Z" fill="#263238"/>
<path d="M67.4916 110.316C67.5161 110.33 67.5369 110.349 67.5524 110.373C67.5678 110.396 67.5774 110.423 67.5804 110.451C67.5804 110.501 67.5492 110.525 67.5036 110.501C67.4794 110.487 67.4587 110.468 67.4433 110.444C67.4279 110.421 67.4181 110.394 67.4148 110.367C67.4124 110.316 67.446 110.302 67.4916 110.316Z" fill="#263238"/>
<path d="M69.0828 110.494C69.0499 110.182 68.9431 109.882 68.7711 109.619C68.5991 109.357 68.367 109.139 68.094 108.984C67.9676 108.916 67.8269 108.879 67.6836 108.876C67.5724 108.875 67.4633 108.906 67.3692 108.965C67.3332 108.989 66.87 109.248 66.7812 109.306C66.7443 109.33 66.7105 109.358 66.6804 109.39C66.5572 109.529 66.4927 109.711 66.5004 109.896L68.4852 111.043L69.0756 110.7C69.0841 110.632 69.0865 110.563 69.0828 110.494Z" fill="#E0E0E0"/>
<path d="M68.4852 111.044L66.5004 109.896C66.4927 109.711 66.5572 109.529 66.6804 109.39C66.7333 109.334 66.7974 109.29 66.8685 109.26C66.9396 109.23 67.0161 109.216 67.0932 109.217C67.2369 109.22 67.3777 109.258 67.5036 109.328C67.7765 109.482 68.0087 109.699 68.1807 109.961C68.3527 110.223 68.4595 110.523 68.4924 110.835C68.4961 110.904 68.4937 110.974 68.4852 111.044Z" fill="#F5F5F5"/>
<path d="M68.1708 70.702C68.1678 70.6664 68.1554 70.6322 68.1347 70.6031C68.114 70.5739 68.0858 70.5509 68.0532 70.5364C67.9638 70.4914 67.8652 70.468 67.7652 70.468C67.6652 70.468 67.5665 70.4914 67.4772 70.5364C67.4444 70.551 67.416 70.574 67.3949 70.6031C67.3739 70.6321 67.3608 70.6663 67.3572 70.702V109.102C67.3608 109.138 67.3739 109.172 67.3949 109.201C67.416 109.23 67.4444 109.253 67.4772 109.268C67.5665 109.313 67.6652 109.336 67.7652 109.336C67.8652 109.336 67.9638 109.313 68.0532 109.268C68.0858 109.253 68.114 109.23 68.1347 109.201C68.1554 109.172 68.1678 109.138 68.1708 109.102V70.702Z" fill="#37474F"/>
<path d="M67.4773 70.5315C67.4428 70.5434 67.4129 70.5657 67.3918 70.5954C67.3706 70.6251 67.3593 70.6607 67.3593 70.6971C67.3593 70.7336 67.3706 70.7691 67.3918 70.7988C67.4129 70.8285 67.4428 70.8508 67.4773 70.8627C67.5663 70.9088 67.665 70.9328 67.7653 70.9328C67.8655 70.9328 67.9642 70.9088 68.0533 70.8627C68.0877 70.8508 68.1176 70.8285 68.1387 70.7988C68.1599 70.7691 68.1713 70.7336 68.1713 70.6971C68.1713 70.6607 68.1599 70.6251 68.1387 70.5954C68.1176 70.5657 68.0877 70.5434 68.0533 70.5315C67.9639 70.4866 67.8653 70.4631 67.7653 70.4631C67.6652 70.4631 67.5666 70.4866 67.4773 70.5315Z" fill="#455A64"/>
</svg>
